<?xml version="1.0" encoding="utf-8"?><svg class="qh__icon__anchor-small" xmlns="http://www.w3.org/2000/svg" viewBox="0 0 44 44" style="enable-background:new 0 0 44 44"><path class="qh__icon__anchor-small__path" d="M43.7 26.9l-5.1-5.1c-.4-.4-.9-.4-1.3 0l-5.1 5.1c-.6.6-.2 1.6.7 1.6h3.4c-1.5 5-7.1 8-12.4 8.5V18h4.6c.5 0 .9-.4.9-.9v-1.8c0-.5-.4-.9-.9-.9h-4.6v-.9c2.5-.8 4.3-3.1 4.3-5.9 0-3.4-2.7-6.1-6.1-6.1S16 4.2 16 7.6c0 2.7 1.8 5.1 4.3 5.9v.9h-4.6c-.5 0-.9.4-.9.9v1.8c0 .5.4.9.9.9h4.6v18.9c-5.3-.5-10.9-3.5-12.4-8.5h3.4c.8 0 1.2-1 .7-1.6l-5.1-5.1c-.4-.4-.9-.4-1.3 0L.5 26.8c-.6.6-.2 1.6.7 1.6H4C5.6 36 19.5 42.5 22 42.5s16.5-6.8 18-14.1h3.1c.8 0 1.2-1 .6-1.5zM22 5.1c1.4 0 2.5 1.1 2.5 2.5S23.4 10 22 10s-2.5-1.1-2.5-2.5 1.1-2.4 2.5-2.4z"/></svg>
