<?xml version="1.0" encoding="utf-8"?><svg class="qh__icon__svg qh__icon__cog" xmlns="http://www.w3.org/2000/svg" viewBox="0 0 44 44"><g><path class="qh__icon__stroke qh__icon__cog__path" fill="none" stroke="currentColor" stroke-width="2" stroke-miterlimit="10" d="M22 1.5c2.6 0 5 .6 5 .6v5.7s1.6.6 2.6 1.2c.9.6 2.3 1.6 2.3 1.6l5-2.9s1.7 1.9 3 3.9c1.2 2.1 2 4.7 2 4.7l-5 2.9s.2 1.6.2 2.7-.2 2.7-.2 2.7l5 2.9s-.8 2.7-2 4.7c-1.2 2.1-3 3.9-3 3.9l-5-2.9s-1.4 1.1-2.3 1.6c-.9.6-2.6 1.2-2.6 1.2v5.7s-2.4.6-5 .6-5-.6-5-.6V36s-1.6-.6-2.6-1.2c-.9-.6-2.3-1.6-2.3-1.6l-5 2.9s-1.7-1.9-3-3.9-2-4.7-2-4.7l5-2.9s-.2-1.6-.2-2.7.2-2.7.2-2.7l-5-2.9s.8-2.7 2-4.7 3-3.9 3-3.9l5 2.9s1.4-1.1 2.3-1.6c1-.5 2.6-1.1 2.6-1.1V2.1s2.4-.6 5-.6z"/><circle class="qh__icon__stroke qh__icon__cog__path" fill="none" stroke="currentColor" stroke-width="2" stroke-miterlimit="10" cx="22" cy="22" r="8"/></g></svg>
