<?xml version="1.0" encoding="utf-8"?><svg class="qh__icon__svg qh__icon__cog" xmlns="http://www.w3.org/2000/svg" viewBox="0 0 20 20"><path class="qh__icon__path qh__icon__cog__path" d="M17.3 10c0-.6-.1-1.3-.1-1.3l2.4-1.4s-.4-1.3-1-2.3-1.4-1.9-1.4-1.9l-2.4 1.4s-.7-.5-1.1-.8c-.4-.3-1.2-.6-1.2-.6V.3S11.3 0 10.1 0 7.6.3 7.6.3v2.8s-.8.3-1.2.6c-.5.2-1.2.7-1.2.7L2.8 3.1S2 4 1.4 5s-1 2.3-1 2.3l2.4 1.4s-.1.8-.1 1.3.1 1.3.1 1.3L.4 12.7s.4 1.3 1 2.3 1.4 1.9 1.4 1.9l2.4-1.4s.7.5 1.1.8c.4.3 1.2.6 1.2.6v2.8s1.2.3 2.4.3 2.4-.3 2.4-.3v-2.8s.8-.3 1.2-.6c.4-.3 1.1-.8 1.1-.8l2.4 1.4s.8-.9 1.4-1.9 1-2.3 1-2.3L17 11.3c.2 0 .3-.7.3-1.3zM10 14.5c-2.5 0-4.5-2-4.5-4.5s2-4.5 4.5-4.5 4.5 2 4.5 4.5-2 4.5-4.5 4.5z"/></svg>
