<?xml version="1.0" encoding="utf-8"?><svg class="qh__icon__svg qh__icon__feed" xmlns="http://www.w3.org/2000/svg" viewBox="0 0 44 44"><path class="qh__icon__path qh__icon__feed__path" d="M16.9 30.6c0 1.9-1.5 3.4-3.4 3.4S10 32.5 10 30.6s1.5-3.4 3.4-3.4 3.5 1.5 3.5 3.4zm9.4 2.5c-.4-8.3-7.1-14.9-15.4-15.4-.5 0-.9.4-.9.9v2.6c0 .5.3.8.8.9 6 .4 10.8 5.2 11.2 11.2 0 .4.4.8.9.8h2.6c.4-.1.8-.5.8-1zm7.7 0C33.5 20.6 23.5 10.5 10.9 10c-.5 0-.9.4-.9.9v2.6c0 .5.4.8.8.9 10.2.4 18.5 8.6 18.9 18.9 0 .5.4.8.9.8h2.6c.4-.1.8-.5.8-1z"/></svg>
