<?xml version="1.0" encoding="utf-8"?><svg class="qh__icon__svg qh__icon__globe" xmlns="http://www.w3.org/2000/svg" viewBox="0 0 44 44" style="enable-background:new 0 0 44 44"><path class="qh__icon__globe__path" d="M22 10c-6.6 0-12 5.4-12 12s5.4 12 12 12 12-5.4 12-12-5.4-12-12-12zm9.3 7.4h-4c-.4-2.1-1.2-4-2.1-5.3 2.7.9 4.9 2.8 6.1 5.3zm-5 4.6c0 1.1-.1 2.1-.2 3.1H18c-.1-1-.2-2-.2-3.1s.1-2.1.2-3.1h8.1c.1 1 .2 2 .2 3.1zM22 11.5c1.3 0 3 2.1 3.8 5.8h-7.6c.8-3.6 2.5-5.8 3.8-5.8zm-3.3.6c-.9 1.3-1.7 3.1-2.1 5.3h-4c1.3-2.5 3.5-4.4 6.1-5.3zM11.5 22c0-1.1.2-2.1.5-3.1h4.4c-.1 1-.2 2-.2 3.1s.1 2.1.2 3.1H12c-.3-1-.5-2-.5-3.1zm1.2 4.6h4c.4 2.1 1.2 4 2.1 5.3-2.7-.9-4.9-2.8-6.1-5.3zm9.3 5.9c-1.3 0-3-2.1-3.8-5.8h7.6c-.8 3.6-2.5 5.8-3.8 5.8zm3.3-.6c.9-1.3 1.7-3.1 2.1-5.3h4c-1.3 2.5-3.5 4.4-6.1 5.3zm2.3-6.8c.1-1 .2-2 .2-3.1s-.1-2.1-.2-3.1H32c.3 1 .5 2 .5 3.1s-.2 2.1-.5 3.1h-4.4z"/></svg>
