<?xml version="1.0" encoding="utf-8"?><svg class="qh__icon__svg qh__icon__map" xmlns="http://www.w3.org/2000/svg" viewBox="0 0 44 44">
	<path d="M34.5,13.52v14.43c0,0.56-0.35,1.04-0.84,1.24l-6.33,2.2c-0.26,0.08-0.54,0.13-0.83,0.13c-0.29,0-0.58-0.05-0.84-0.14
		l-7.17-2.53l-7.09,2.62c-0.08,0.03-0.17,0.05-0.25,0.05c-0.35,0-0.67-0.29-0.67-0.67V16.43c0-0.56,0.35-1.04,0.84-1.24l6.33-2.2
		c0.27-0.09,0.55-0.13,0.83-0.13c0.29,0,0.58,0.05,0.84,0.14l7.17,2.53l7.09-2.62c0.08-0.03,0.17-0.05,0.25-0.05
		C34.19,12.86,34.5,13.14,34.5,13.52z M17.81,26.98l0.03-0.01V15.05L12.5,16.9v12.04L17.81,26.98z M19.83,27.21l5.33,1.88V17.17
		l-5.33-1.88V27.21z M32.5,15.44L27.2,17.4l-0.03,0.01v11.93l5.33-1.86V15.44z"/>
</svg>
