<?xml version="1.0" encoding="utf-8"?><svg class="qh__icon__svg qh__icon__instagram" xmlns="http://www.w3.org/2000/svg" viewBox="0 0 44 44"><path class="qh__icon__path qh__icon__instagram__path" d="M22 15.8c-3.4 0-6.2 2.7-6.2 6.2s2.7 6.2 6.2 6.2 6.2-2.7 6.2-6.2-2.8-6.2-6.2-6.2zM22 26c-2.2 0-4-1.8-4-4s1.8-4 4-4 4 1.8 4 4-1.8 4-4 4zm7.8-10.4c0 .8-.6 1.4-1.4 1.4-.8 0-1.4-.6-1.4-1.4s.6-1.4 1.4-1.4c.8 0 1.4.6 1.4 1.4zm4.1 1.5c-.1-1.9-.5-3.6-1.9-5s-3.1-1.8-5-1.9c-2-.1-7.9-.1-9.9 0-1.9.1-3.6.5-5 1.9s-1.8 3.1-1.9 5c-.1 2-.1 7.9 0 9.9.1 1.9.5 3.6 1.9 5s3.1 1.8 5 1.9c2 .1 7.9.1 9.9 0 1.9-.1 3.6-.5 5-1.9s1.8-3.1 1.9-5c.1-2 .1-8 0-9.9zm-2.5 12c-.4 1-1.2 1.9-2.3 2.3-1.6.6-5.3.5-7.1.5s-5.5.1-7.1-.5c-1-.4-1.9-1.2-2.3-2.3-.6-1.6-.5-5.3-.5-7.1s-.1-5.5.5-7.1c.4-1 1.2-1.9 2.3-2.3 1.6-.6 5.3-.5 7.1-.5s5.5-.1 7.1.5c1 .4 1.9 1.2 2.3 2.3.6 1.6.5 5.3.5 7.1s.1 5.5-.5 7.1z"/></svg>
