<?xml version="1.0" encoding="utf-8"?><svg class="qh__icon__svg qh__icon__linkedin" xmlns="http://www.w3.org/2000/svg" viewBox="0 0 44 44"><path class="qh__icon__path qh__icon__linkedin__path" d="M33 10H11c-.5 0-1 .5-1 1v22c0 .5.5 1 1 1h22c.5 0 1-.5 1-1V11c0-.5-.5-1-1-1zM17.3 30.6h-3.6V19.1h3.6v11.5zm-1.8-13c-1.1 0-2.1-.9-2.1-2.1 0-1.1.9-2.1 2.1-2.1 1.1 0 2.1.9 2.1 2.1-.1 1.1-1 2.1-2.1 2.1zm15.1 13H27V25c0-1.3 0-3-1.8-3-1.9 0-2.1 1.4-2.1 2.9v5.7h-3.6V19.1h3.4v1.6c.5-.9 1.6-1.8 3.4-1.8 3.6 0 4.3 2.4 4.3 5.5v6.2z"/></svg>
