<svg class="qh__icon__svg qh__icon__bluesky" xmlns="http://www.w3.org/2000/svg" width="44" height="44" version="1.1" viewBox="0 0 44 44"><path class="qh__icon__path qh__icon__bluesky__path" d="M14.1,11.3c3.2,2.4,6.7,7.3,7.9,9.9,1.3-2.6,4.7-7.5,7.9-9.9,2.3-1.7,6.1-3.1,6.1,1.2s-.5,7.2-.8,8.2c-1,3.6-4.6,4.5-7.9,3.9,5.7,1,7.1,4.2,4,7.3-5.9,6.1-8.5-1.5-9.1-3.5h0c0-.3-.1-.4-.2-.4s0,.2-.2.4h0c-.7,1.9-3.2,9.5-9.1,3.5-3.1-3.2-1.7-6.4,4-7.3-3.2.6-6.9-.4-7.9-3.9-.3-1-.8-7.4-.8-8.2,0-4.3,3.8-2.9,6.1-1.2h0Z"/></svg>