<?xml version="1.0" encoding="utf-8"?><svg class="qh__icon__svg qh__icon__bus" xmlns="http://www.w3.org/2000/svg" viewBox="0 0 44 44">
	<path d="M34.14,18.54v3.54c0,0.59-0.48,1.06-1.06,1.06h-0.35v7.36c0,0.57-0.42,1.13-1.13,1.13h-0.28v1.42
		c0,0.78-0.63,1.42-1.42,1.42h-1.42c-0.78,0-1.42-0.63-1.42-1.42v-1.42h-8.49v1.42c0,0.78-0.63,1.42-1.42,1.42h-1.42
		c-0.78,0-1.42-0.63-1.42-1.42v-1.42c-0.78,0-1.42-0.63-1.42-1.42v-7.08h-0.35c-0.59,0-1.06-0.48-1.06-1.06v-3.54
		c0-0.59,0.48-1.06,1.06-1.06h0.35v-2.12c0-1.98,4.39-3.54,9.91-3.54s9.91,1.56,9.91,3.54v2.12h0.35
		C33.67,17.48,34.14,17.95,34.14,18.54z M17.87,28.09c0-0.78-0.63-1.42-1.42-1.42s-1.42,0.63-1.42,1.42c0,0.78,0.63,1.41,1.42,1.41
		S17.87,28.87,17.87,28.09z M28.48,24.55c0.78,0,1.42-0.63,1.42-1.42v-5.66c0-0.78-0.63-1.42-1.42-1.42H17.16
		c-0.78,0-1.42,0.63-1.42,1.42v5.66c0,0.78,0.63,1.42,1.42,1.42H28.48z M30.6,28.09c0-0.78-0.63-1.42-1.42-1.42
		c-0.78,0-1.41,0.63-1.41,1.42c0,0.78,0.63,1.41,1.41,1.41C29.97,29.51,30.6,28.87,30.6,28.09z"/>
</svg>
