<?xml version="1.0" encoding="utf-8"?><svg class="qh__icon__svg qh__icon__cog" xmlns="http://www.w3.org/2000/svg" viewBox="0 0 44 44"><path class="qh__icon__path qh__icon__cog__path" d="M30.8 22c0-.7-.1-1.6-.1-1.6l2.9-1.7s-.5-1.6-1.2-2.8c-.7-1.2-1.7-2.3-1.7-2.3l-2.9 1.7s-.8-.6-1.3-1l-1.5-.6v-3.4s-1.4-.4-2.9-.4-3 .4-3 .4v3.4s-1 .4-1.4.7c-.6.2-1.4.8-1.4.8l-2.9-1.6s-1 1.1-1.7 2.3c-.7 1.2-1.2 2.8-1.2 2.8l2.9 1.7s-.1 1-.1 1.6.1 1.6.1 1.6l-2.9 1.7s.5 1.6 1.2 2.8c.7 1.2 1.7 2.3 1.7 2.3l2.9-1.7s.8.6 1.3 1 1.4.7 1.4.7v3.4s1.4.4 2.9.4c1.4 0 2.9-.4 2.9-.4v-3.4s1-.4 1.4-.7c.5-.4 1.3-1 1.3-1l2.9 1.7s1-1.1 1.7-2.3c.7-1.2 1.2-2.8 1.2-2.8l-2.9-1.7c.2 0 .4-.9.4-1.6zM22 27.4c-3 0-5.4-2.4-5.4-5.4s2.4-5.4 5.4-5.4 5.4 2.4 5.4 5.4-2.4 5.4-5.4 5.4z"/></svg>
