<?xml version="1.0" encoding="utf-8"?><svg class="qh__icon__svg qh__icon__dollar" xmlns="http://www.w3.org/2000/svg" viewBox="0 0 44 44">
	<path class="st0" d="M38.14,14.02v15.64c0,0.91-0.74,1.57-1.59,1.57c-0.17,0-0.34-0.03-0.51-0.08c-1.52-0.48-3.04-0.68-4.57-0.68
		c-6.07,0-12.14,3.07-18.21,3.07c-1.91,0-3.83-0.31-5.74-1.11c-0.57-0.24-0.93-0.83-0.93-1.45V15.34c0-0.91,0.74-1.57,1.59-1.57
		c0.17,0,0.34,0.03,0.51,0.08c1.52,0.48,3.04,0.68,4.57,0.68c6.07,0,12.14-3.07,18.21-3.07c1.91,0,3.83,0.31,5.74,1.11
		C37.78,12.81,38.14,13.4,38.14,14.02z M8.95,19.38c1.53,0,2.8-1.09,3.09-2.54c-1.06-0.07-2.1-0.19-3.09-0.44V19.38z M12.09,31.12
		c-0.08-1.68-1.45-3.03-3.14-3.03v2.36C9.95,30.81,10.98,31.03,12.09,31.12z M26.31,22.5c0-2.61-1.77-4.73-3.94-4.73
		s-3.94,2.12-3.94,4.73c0,2.61,1.77,4.73,3.94,4.73C24.54,27.23,26.31,25.11,26.31,22.5z M35.77,14.55
		c-0.87-0.32-1.79-0.52-2.75-0.62c0.05,1.57,1.23,2.84,2.75,3.03V14.55z M35.77,25.76c-1.32,0.17-2.39,1.14-2.68,2.43
		c0.92,0.08,1.81,0.2,2.68,0.42V25.76z"/></svg>
