<?xml version="1.0" encoding="utf-8"?><svg version="1.1" class="qh__icon__svg qh__icon__file-powerpoint" xmlns="http://www.w3.org/2000/svg" x="0" y="0" viewBox="0 0 44 44" style="enable-background:new 0 0 44 44" xml:space="preserve"><path class="qh__icon__file-powerpoint__path" d="M25.5 10H25v6h6v-.5L25.5 10zM22.5 22.1h-1.2v2.7h1.2c.4 0 .7-.1.9-.4.4-.5.4-1.5 0-2-.3-.2-.6-.3-.9-.3z"/><path class="qh__icon__file-powerpoint__path" d="M24 17v-7H13v24h18V17h-7zm-2.8 9.9v2.6c0 .3-.2.5-.5.5h-1.4c-.3 0-.5-.2-.5-.5v-8.9c0-.3.2-.5.5-.5h3.6c2 0 3.3 1.5 3.3 3.4 0 4-4 3.4-5 3.4z"/></svg>