<?xml version="1.0" encoding="utf-8"?><svg version="1.1" class="qh__icon__svg qh__icon__file-word" xmlns="http://www.w3.org/2000/svg" x="0" y="0" viewBox="0 0 44 44" xml:space="preserve"><path class="qh__icon__file-word__path" d="M25.5 10H25v6h6v-.5z"/><path class="qh__icon__file-word__path" d="M24 17v-7H13v24h18V17h-7zm2.2 12.6c-.1.3-.3.4-.6.4h-1.8c-.3 0-.5-.2-.6-.4-1.2-5-1-3.9-1.2-5.3-.1.7-.1.8-1.2 5.3-.1.3-.3.4-.6.4h-1.8c-.3 0-.5-.2-.6-.5l-1.8-8c-.1-.4.2-.7.6-.7h1.2c.3 0 .5.2.6.5.7 3.7 1 5.3 1 5.9.1-.5.4-1.6 1.4-5.9.1-.3.3-.4.6-.4h1.4c.3 0 .5.2.6.4 1.2 4.8 1.4 6 1.4 6.2 0-.5-.1-.9 1-6.2 0-.3.3-.5.6-.5h1.1c.4 0 .6.3.6.7l-1.9 8.1z"/></svg>
