<?xml version="1.0" encoding="utf-8"?><svg class="qh__icon__svg qh__icon__phone" xmlns="http://www.w3.org/2000/svg" viewBox="0 0 44 44">
	<path class="st0" d="M36.2,38.16H8.8v-1.22c0-0.41,0.33-0.73,0.73-0.73h1.22V14.18c0-0.81,0.66-1.47,1.47-1.47h5.38V8.31
		c0-0.81,0.66-1.47,1.47-1.47h6.85c0.81,0,1.47,0.66,1.47,1.47v4.41h5.38c0.81,0,1.47,0.66,1.47,1.47V36.2h1.22
		c0.41,0,0.73,0.33,0.73,0.73V38.16z M19.81,22.5c0.41,0,0.73-0.33,0.73-0.73v-2.45c0-0.41-0.33-0.73-0.73-0.73h-2.45
		c-0.41,0-0.73,0.33-0.73,0.73v2.45c0,0.41,0.33,0.73,0.73,0.73H19.81z M19.81,24.46h-2.45c-0.41,0-0.73,0.33-0.73,0.73v2.45
		c0,0.41,0.33,0.73,0.73,0.73h2.45c0.41,0,0.73-0.33,0.73-0.73v-2.45C20.54,24.79,20.21,24.46,19.81,24.46z M21.52,12.71v1.59
		c0,0.2,0.16,0.37,0.37,0.37h1.22c0.2,0,0.37-0.16,0.37-0.37v-1.59h1.59c0.2,0,0.37-0.16,0.37-0.37v-1.22c0-0.2-0.16-0.37-0.37-0.37
		h-1.59V9.16c0-0.2-0.16-0.37-0.37-0.37h-1.22c-0.2,0-0.37,0.16-0.37,0.37v1.59h-1.59c-0.2,0-0.37,0.16-0.37,0.37v1.22
		c0,0.2,0.16,0.37,0.37,0.37H21.52z M21.28,30.33c-0.41,0-0.73,0.33-0.73,0.73v5.14h3.92v-5.14c0-0.41-0.33-0.73-0.73-0.73H21.28z
		 M25.19,18.58c-0.41,0-0.73,0.33-0.73,0.73v2.45c0,0.41,0.33,0.73,0.73,0.73h2.45c0.41,0,0.73-0.33,0.73-0.73v-2.45
		c0-0.41-0.33-0.73-0.73-0.73H25.19z M25.19,24.46c-0.41,0-0.73,0.33-0.73,0.73v2.45c0,0.41,0.33,0.73,0.73,0.73h2.45
		c0.41,0,0.73-0.33,0.73-0.73v-2.45c0-0.41-0.33-0.73-0.73-0.73H25.19z"/></svg>
