<?xml version="1.0" encoding="utf-8"?><svg class="qh__icon__svg qh__icon__one-in-ten" xmlns="http://www.w3.org/2000/svg" viewBox="0 0 44 44">
<style type="text/css">
	.qh__icon__svg path.hollow {fill: rgba(0,0,0,0);}
</style>
		<path class="st0" d="M12.6,11.62v3.85c0,0.42-0.34,0.76-0.76,0.76l0,0l-0.74,4.77c0,0.42-0.34,0.76-0.76,0.76H9.23
			c-0.42,0-0.76-0.34-0.76-0.76l-0.74-4.77l0,0c-0.42,0-0.76-0.34-0.76-0.76v-3.85c0-0.84,0.45-1.52,1.29-1.52h0.36
			c0.75,0.34,1.6,0.33,2.32,0h0.36C12.15,10.1,12.6,10.78,12.6,11.62z M11.82,7.56c0,1.12-0.91,2.03-2.03,2.03S7.76,8.68,7.76,7.56
			s0.91-2.03,2.03-2.03S11.82,6.44,11.82,7.56z"/>
		<path class="st0" d="M19.04,11.62v3.85c0,0.42-0.34,0.76-0.76,0.76l0,0l-0.74,4.77c0,0.42-0.34,0.76-0.76,0.76h-1.11
			c-0.42,0-0.76-0.34-0.76-0.76l-0.74-4.77l0,0c-0.42,0-0.76-0.34-0.76-0.76v-3.85c0-0.84,0.45-1.52,1.29-1.52h0.36
			c0.75,0.34,1.6,0.33,2.32,0h0.36C18.59,10.1,19.04,10.78,19.04,11.62z M18.25,7.56c0,1.12-0.91,2.03-2.03,2.03
			S14.2,8.68,14.2,7.56s0.91-2.03,2.03-2.03S18.25,6.44,18.25,7.56z"/>
		<path class="st0" d="M25.48,11.62v3.85c0,0.42-0.34,0.76-0.76,0.76l0,0l-0.74,4.77c0,0.42-0.34,0.76-0.76,0.76h-1.11
			c-0.42,0-0.76-0.34-0.76-0.76l-0.74-4.77l0,0c-0.42,0-0.76-0.34-0.76-0.76v-3.85c0-0.84,0.45-1.52,1.29-1.52h0.36
			c0.75,0.34,1.6,0.33,2.32,0h0.36C25.02,10.1,25.48,10.78,25.48,11.62z M24.69,7.56c0,1.12-0.91,2.03-2.03,2.03
			c-1.12,0-2.03-0.91-2.03-2.03s0.91-2.03,2.03-2.03C23.78,5.53,24.69,6.44,24.69,7.56z"/>
		<path class="st0" d="M31.91,11.62v3.85c0,0.42-0.34,0.76-0.76,0.76l0,0l-0.74,4.77c0,0.42-0.34,0.76-0.76,0.76h-1.11
			c-0.42,0-0.76-0.34-0.76-0.76l-0.74-4.77l0,0c-0.42,0-0.76-0.34-0.76-0.76v-3.85c0-0.84,0.45-1.52,1.29-1.52h0.36
			c0.75,0.34,1.6,0.33,2.32,0h0.36C31.46,10.1,31.91,10.78,31.91,11.62z M31.13,7.56c0,1.12-0.91,2.03-2.03,2.03
			c-1.12,0-2.03-0.91-2.03-2.03s0.91-2.03,2.03-2.03C30.22,5.53,31.13,6.44,31.13,7.56z"/>
		<path class="st0" d="M38.35,11.62v3.85c0,0.42-0.34,0.76-0.76,0.76l0,0l-0.74,4.77c0,0.42-0.34,0.76-0.76,0.76h-1.11
			c-0.42,0-0.76-0.34-0.76-0.76l-0.74-4.77l0,0c-0.42,0-0.76-0.34-0.76-0.76v-3.85c0-0.84,0.45-1.52,1.29-1.52h0.36
			c0.75,0.34,1.6,0.33,2.32,0h0.36C37.9,10.1,38.35,10.78,38.35,11.62z M37.56,7.56c0,1.12-0.91,2.03-2.03,2.03
			c-1.12,0-2.03-0.91-2.03-2.03s0.91-2.03,2.03-2.03C36.66,5.53,37.56,6.44,37.56,7.56z"/>
		<path class="st0" d="M12.6,29v3.85c0,0.42-0.34,0.76-0.76,0.76l0,0l-0.74,4.77c0,0.42-0.34,0.76-0.76,0.76H9.23
			c-0.42,0-0.76-0.34-0.76-0.76l-0.74-4.77l0,0c-0.42,0-0.76-0.34-0.76-0.76V29c0-0.84,0.45-1.52,1.29-1.52h0.36
			c0.75,0.34,1.6,0.33,2.32,0h0.36C12.15,27.48,12.6,28.16,12.6,29z M11.82,24.95c0,1.12-0.91,2.03-2.03,2.03s-2.03-0.91-2.03-2.03
			s0.91-2.03,2.03-2.03S11.82,23.83,11.82,24.95z"/>
		<path class="st0" d="M19.04,29v3.85c0,0.42-0.34,0.76-0.76,0.76l0,0l-0.74,4.77c0,0.42-0.34,0.76-0.76,0.76h-1.11
			c-0.42,0-0.76-0.34-0.76-0.76l-0.74-4.77l0,0c-0.42,0-0.76-0.34-0.76-0.76V29c0-0.84,0.45-1.52,1.29-1.52h0.36
			c0.75,0.34,1.6,0.33,2.32,0h0.36C18.59,27.48,19.04,28.16,19.04,29z M18.25,24.95c0,1.12-0.91,2.03-2.03,2.03
			s-2.03-0.91-2.03-2.03s0.91-2.03,2.03-2.03S18.25,23.83,18.25,24.95z"/>
		<path class="st0" d="M25.48,29v3.85c0,0.42-0.34,0.76-0.76,0.76l0,0l-0.74,4.77c0,0.42-0.34,0.76-0.76,0.76h-1.11
			c-0.42,0-0.76-0.34-0.76-0.76l-0.74-4.77l0,0c-0.42,0-0.76-0.34-0.76-0.76V29c0-0.84,0.45-1.52,1.29-1.52h0.36
			c0.75,0.34,1.6,0.33,2.32,0h0.36C25.02,27.48,25.48,28.16,25.48,29z M24.69,24.95c0,1.12-0.91,2.03-2.03,2.03
			c-1.12,0-2.03-0.91-2.03-2.03s0.91-2.03,2.03-2.03C23.78,22.92,24.69,23.83,24.69,24.95z"/>
		<path class="st0" d="M31.91,29v3.85c0,0.42-0.34,0.76-0.76,0.76l0,0l-0.74,4.77c0,0.42-0.34,0.76-0.76,0.76h-1.11
			c-0.42,0-0.76-0.34-0.76-0.76l-0.74-4.77l0,0c-0.42,0-0.76-0.34-0.76-0.76V29c0-0.84,0.45-1.52,1.29-1.52h0.36
			c0.75,0.34,1.6,0.33,2.32,0h0.36C31.46,27.48,31.91,28.16,31.91,29z M31.13,24.95c0,1.12-0.91,2.03-2.03,2.03
			c-1.12,0-2.03-0.91-2.03-2.03s0.91-2.03,2.03-2.03C30.22,22.92,31.13,23.83,31.13,24.95z"/>
		<path class="hollow" d="M38.35,29v3.85c0,0.42-0.34,0.76-0.76,0.76l0,0l-0.74,4.77c0,0.42-0.34,0.76-0.76,0.76h-1.11
				c-0.42,0-0.76-0.34-0.76-0.76l-0.74-4.77l0,0c-0.42,0-0.76-0.34-0.76-0.76V29c0-0.84,0.45-1.52,1.29-1.52h0.36
				c0.75,0.34,1.6,0.33,2.32,0h0.36C37.9,27.48,38.35,28.16,38.35,29z M37.56,24.95c0,1.12-0.91,2.03-2.03,2.03
				c-1.12,0-2.03-0.91-2.03-2.03s0.91-2.03,2.03-2.03C36.66,22.92,37.56,23.83,37.56,24.95z"/>
		<path class="st0" d="M35.54,23.92c0.57,0,1.03,0.46,1.03,1.03s-0.46,1.03-1.03,1.03s-1.03-0.46-1.03-1.03
				S34.97,23.92,35.54,23.92 M37.06,28.48c0.24,0,0.29,0.28,0.29,0.52v3.61h-0.62l-0.13,0.85l-0.72,4.68h-0.68l-0.72-4.68
				l-0.13-0.85h-0.62V29c0-0.24,0.05-0.52,0.29-0.52h0.16c0.43,0.17,0.89,0.25,1.36,0.25c0.46,0,0.93-0.09,1.36-0.25H37.06
				 M35.54,22.92c-1.12,0-2.03,0.91-2.03,2.03s0.91,2.03,2.03,2.03s2.03-0.91,2.03-2.03S36.66,22.92,35.54,22.92L35.54,22.92z
				 M37.06,27.48H36.7c-0.36,0.17-0.76,0.25-1.16,0.25c-0.39,0-0.79-0.08-1.16-0.25h-0.36c-0.84,0-1.29,0.68-1.29,1.52v3.85
				c0,0.42,0.34,0.76,0.76,0.76l0.74,4.77c0,0.42,0.34,0.76,0.76,0.76h1.11c0.42,0,0.76-0.34,0.76-0.76l0.74-4.77
				c0.42,0,0.76-0.34,0.76-0.76V29C38.35,28.16,37.9,27.48,37.06,27.48L37.06,27.48z"/></svg>
