<?xml version="1.0" encoding="utf-8"?><svg class="qh__icon__svg qh__icon__phone" xmlns="http://www.w3.org/2000/svg" viewBox="0 0 44 44">
	<path class="st0" d="M36.73,20.26c0.06,0.52-0.33,0.97-0.85,1l-0.6,0.03c-0.47,0.02-0.88-0.32-0.94-0.79
			c-0.68-5.74-5.37-10.17-11.14-10.53c-0.47-0.03-0.84-0.42-0.84-0.89l0-0.6c0-0.52,0.43-0.93,0.95-0.9
			C30.28,7.99,35.93,13.34,36.73,20.26z M31.93,20.45c0.08,0.53-0.31,1.01-0.84,1.03l-0.6,0.03c-0.45,0.02-0.86-0.3-0.93-0.75
			c-0.51-3.21-3.12-5.67-6.35-6c-0.45-0.05-0.79-0.43-0.8-0.89l0-0.6c0-0.53,0.46-0.95,0.99-0.9C27.75,12.8,31.27,16.11,31.93,20.45
			z M27.08,20.56c0.16,0.56-0.24,1.12-0.82,1.15l-0.62,0.03c-0.4,0.02-0.77-0.23-0.9-0.62c-0.12-0.36-0.33-0.69-0.62-0.97
			c-0.29-0.28-0.64-0.47-1-0.57c-0.39-0.11-0.66-0.46-0.67-0.86l0-0.62c0-0.58,0.53-1.01,1.1-0.88
			C25.24,17.61,26.6,18.89,27.08,20.56z"/>
	<path class="st0" d="M7.04,13.24c-0.02-0.6,0.38-1.13,0.96-1.28l5.52-1.44c0.41-0.11,0.87-0.01,1.21,0.31
		c0.12,0.12,0.21,0.25,0.28,0.39l2.73,5.91c0.21,0.46,0.14,1.03-0.23,1.42c-0.03,0.03-0.06,0.06-0.09,0.09l-3.16,2.74
		c2.08,4.13,5.58,7.39,9.73,9.2l2.56-3.31c0.03-0.03,0.05-0.07,0.08-0.1c0.37-0.39,0.93-0.5,1.4-0.31l6.05,2.4
		c0.15,0.06,0.29,0.14,0.41,0.26c0.33,0.31,0.46,0.77,0.38,1.18l-1.12,5.59c-0.05,0.23-0.15,0.44-0.33,0.63
		c-0.24,0.26-0.57,0.39-0.9,0.4C18.82,37.7,7.43,26.91,7.04,13.24z"/></svg>
