<svg xmlns="http://www.w3.org/2000/svg" viewBox="0 0 44 44" aria-label="X Logo" fill="none">
  <path class="qh__icon__path qh__icon__xlogo__path"
        d="M11,11 L17.1,11 L22.72,19.1 L29.65,11 L31.4,11 L23.5,20.25 L32.4,33 L26.2,33 L20.15,24.2 L12.6,33 L10.75,33 L19.3,23 Z
           M13.45,12.25 L16.35,12.25 L30,32 L27.25,32 Z"
        fill="#000" mask="url(#myMaskX)"/>
  <mask id="myMaskX">
    <polygon points="11,11 17.1,11 22.72,19.1 29.65,11 31.4,11 23.5,20.25 32.4,33 26.2,33 20.15,24.2 12.6,33 10.75,33 19.3,23" fill="white"/>
    <polygon points="13.45,12.25 16.35,12.25 30,32 27.25,32" fill="black"/>
  </mask>
</svg>
