<?xml version="1.0" encoding="utf-8"?><svg class="qh__icon__svg qh__icon__twitter" xmlns="http://www.w3.org/2000/svg" viewBox="0 0 44 44"><path class="qh__icon__path qh__icon__twitter__path" d="M33 10H11c-.5 0-1 .5-1 1v22c0 .5.5 1 1 1h22c.5 0 1-.5 1-1V11c0-.5-.5-1-1-1zm-4.2 8.5v.5c0 4.6-3.5 10-10 10-2 0-3.8-.6-5.4-1.6h.8c1.6 0 3.2-.6 4.4-1.5-1.5 0-2.8-1-3.3-2.4.5.1 1 .1 1.6-.1-1.6-.3-2.8-1.7-2.8-3.5.5.3 1 .4 1.6.4-1-.7-1.6-1.7-1.6-2.9 0-.7.2-1.3.5-1.8 1.7 2.1 4.3 3.5 7.2 3.7-.4-2.3 1.4-4.3 3.5-4.3 1 0 1.9.4 2.6 1.1.8-.2 1.6-.4 2.2-.8-.3.8-.8 1.5-1.5 1.9.7-.1 1.4-.3 2-.5-.5.7-1.1 1.3-1.8 1.8z"/></svg>
