<svg version="1.1" xmlns="http://www.w3.org/2000/svg" xmlns:xlink="http://www.w3.org/1999/xlink" x="0px" y="0px"
	 viewBox="0 0 1766.93 1963.12"
	 style="overflow:visible;enable-background:new 0 0 1766.93 1963.12;" xml:space="preserve">
<style type="text/css">
	path{fill:var(--c__quahog--dark--trans15);stroke:var(--c__quahog--dark--trans15);}
</style>

<path d="M1485,694.37c-2.73-3.47-5.15-5.23-10.67-5.41-6.12-.2-12.71-5-17.95-9.17-10-8-20.86-15.2-28.1-26.51-4.57-7.15-12-9.95-21.07-9.35-7.54.5-15.22-1.12-22.86-1.78-2.25-1.17-4.09-4.46-9.67-.28h10c4.54,10.09,15,9.3,23.22,12.45,1.39.53,3.1.22,5.62.34-.91,3.89-1.53,7.2-2.46,10.42-3.06,10.55-.2,15.77,9.94,18.79s20.35,6.34,30.43,9.77c2.16.73,4,2.48,6.61,4.2l-5.3,7.63-15.34-6.79c-2.78,13.29.83,28-16.15,33.52-.36-8.91-6.14-13.92-11.84-19.38-7.64-7.34-14.66-15-23.57-21.26-7.75-5.43-12.2-15.37-19.55-21.64-8-6.81-14.73-16.18-26.25-17.77-4.37-.61-8.91-.1-14-1.65,2.74-1.56,5.47-3.11,8.2-4.68-.36-.71-.53-1.71-1.11-2.09-15-10-32-15.5-48.61-21.89-1.36-.53-3.15-1.05-4.38-.59-18,6.65-35.07,4.1-52.05-3.83-6.6-3.09-13.87-4.72-20.46,1.2,4.08,8.31,14.17.42,18.44,7.81-.7.78-1.58,2.44-2.2,2.34-11.17-1.69-17.47,6.46-25.69,11.54-11.21,6.92-22.44,14.7-37.21,13.76-5-.31-11.23,3-15.13,6.56-6,5.5-12.85,8.45-20.2,11.11-9.23,3.33-18.15,7.55-27.46,10.6a77.33,77.33,0,0,1-20.25,4.17,56.19,56.19,0,0,0-32.79,12.15c-10.06,7.7-20.9,14.37-31.38,21.53-2,1.37-3.93,2.91-5.39,4,3.66,7.23,6.68,13.19,10,19.83,9.92,3.72,20.38,9.51,31.92.4,2.22,4.37,8.24,6.68,4,11.87-1.38,1.72-5.53,1.21-9.37,1.89.65,3.54,1.42,7.68,2.48,13.44l24.71-4.28c-1.16,8.78-1.71,16.7-12,21.17-8,3.5-14.87,9.66-22.21,14.62,6,11,6,11,15.69,3.2,4.23-3.42,9.77-5,17.83-4.75-1.63,6.91,2.34,14.85-5.78,20.69l14,7.22,9.63-6.4,3.91,7.41,19.58-8.35c-.36-5.08-.74-10.61-1.2-17.11l8.17-7.7c4.71.54,8.26,3.5,13.8.52,5.85-3.13,13.33-.73,17.5,6.19l-8.67,10.22h15.92l-5.85-6.95c7.42-.07,7.18-11.46,17.46-8-4.91,5.28-2.63,9.48.16,11.95-1.28,4.24-3.86,8.63-2.74,10,2.12,2.59,6.36,3.45,8.43,4.42l20.28-15.79c-.7-6.21-12.94-6.41-5.11-14.29l14.43,12.46,8.89-10.71-19.51-6.8c1.28-3.93,2.12-6.5,2.87-8.83-2.85-5.45-12.77-10-17.06-6.41-6,5-10.81,2.42-16.28,1.15-1.11-6.55,3.52-6.87,7.75-7.36-.53-3.13-.93-5.46-1.34-7.91a11.7,11.7,0,0,1,1.75-1.56c3.77-2.21,8.29-3.66,11.23-6.66,7-7.13,14.18-9.24,23-3.91,1,.57,2.34.42,4.41.74.93-5.91,1.41-12.39,9.68-14.4l8.16,6.15c4.92-.92,10-2.09,15.21-2.78,4.54-.61,9.17-.68,16.2-1.14-4.59,6.2-8.41,10.71-1.45,18.49-12.8-4.28-15.09,7.67-23.74,9.37,1.89.84,4,2.63,5.66,2.35,7.6-1.24,15.65.33,21.82-7.67,3-3.9,10.87-4,17.67-6.23-1.16,7.76-1.49,13.84-3.14,19.52a21.2,21.2,0,0,1-6.38,9.94c-4.91,4.07-7.13,8.35-6.57,14.84.28,3.11-1,7.68-3.25,9.39-4.13,3.15-7.88.89-11.47-3.06-4.48-4.92-6.73-4.21-11.31,1.39-.52.63-.88,1.38-1.41,2-9.12,10.42-9.12,10.41-2.67,23-6.81-4.74-11.3-2.71-15.57,1.26-11.33,10.55-22.82,20.93-34.21,31.42-.89.81-2,1.84-2.19,2.9-1.81,11.85-10.79,18.65-18.3,26.52-.39.42,0,1.54,0,4.22l13-3.22c-1.5,2.83-1.92,5-3.18,5.74-12.07,7.19-13.74,17.22-13.25,30.94.45,12.68,5.75,18.22,15.61,23.49l20.81-16,7.46,4.89c1.91-3.25,4.91-5.64.61-8.43-5.7-3.69-11.5-7.25-17.18-11a15.09,15.09,0,0,1-2.53-2.83l13.14-16.27,7.06,6.5,15.22-9.82c-.37,7.4-.76,15-1.18,23.41h-12.6l11.54,10.47c-.75,7-5.5,13.46-.69,21.53,5.81-7.77,11.56-14,20.35-4.15l8.32-15.86,1.85.63v4.39l13.86,6.94c4.73-4.46,5.2-6.75,1.67-12.71-2-3.48-4-7-6-10.53,3.49.1,7,.24,7.38-5.23-5.36-1.26-6.18,2.2-7.08,5.55-6.4-2.74-10.85,1-14.67,5.68l-4.86-5.46L1228.48,929l1.53-19.1c10.89-8,21.87-17.64,37.15-22.07l-5.78-7.9-6.31,8.54c-5,.33-8.75-8-8.58-17.82,10.13,4,20,8.25,30.24,11.56,3,1,6.22-.1,7.23-5.52,1.74-9.33,5.4-18.34,8.8-27.28.57-1.49,3.9-1.93,6.57-3.14,3.25,8.41,2.7,15.74.4,21.44,2.5,4.8,4.43,8.52,6.39,12.23s4.83,7.13,5.6,11c.86,4.38,4.5,4.9,6.1,3.83,11.55-7.77,19.06-1.15,26.73,7.67-.66,1.63-1.64,4-3.49,8.59l10-4.34c1.79,2.81,3,6.69,5.56,8.09,1.83,1,5.48-1.31,10.43-2.77-2.46,3.76-3.64,6.09-5.31,8-6.12,6.93-12.74,13.64-4.91,23.11-9.91,8.56-12,8.52-22.48-.65-.77,2.41-1.38,4.36-2.45,7.72l-21.6-17.2c-9.1,4.79-16.29,9.45-20.07,17.71-.71,1.56-.08,3.73-.08,5.62,2.17,0,4.66.59,6.45-.25,3.43-1.61,5.44-6.53,11-4-4.4,8.59-9.23,16.34-19.69,17.21-1.41,6,.41,9.62,6.07,10.36,4,.53,8.16.39,12.22.73,4.39.37,8.75,1,13.12,1.43,2.38.25,4.77.54,7.16.59,4.63.09,9.26,0,14.82,0,3.7-5.24,10.6-10.07,7.16-20.16-1.36-4,2.54-9.19,8.42-10.16,1.2,3.88,1.57,7.87,3.54,10.76,2.7,3.94,7,2.81,11.23,1.8,2-.47,4.56.76,6.6,1.76,4.31,2.11,8.44,4.58,12.7,6.94,3.27-7.56,6.23-14.4,8.55-19.74.26-7.8.56-14.35.7-20.91.15-7.3.84-14.68.06-21.89-.93-8.77-4.64-10.65-14.08-9.32-1.53.21-3.26-1-7.5-2.49,14.22-4.93,24.88,1,35.61,2.53,11,1.53,21.66,6.12,33.21,9.59-.91-1.6-1.58-2.81-2-3.51l12.13-9.61,9.23,4.27-10.14,14.07,14.56,16.16,9.84-10.22,16,1.33c3.43,5.37,6.41,12.2,15.35,10.79,1.43-.23,3.89,1.72,4.79,3.29,5.42,9.46,13.82,14.59,26.62,16.64L1534.11,966c-.08,6.81,4.49,10.28,10.22,11.83l-13.78,13c3.89,13.07,7.16,14.08,15.34,5.56,6.76,13.8,6.76,13.8,11.89,17,5.12-1.86,9.63-4.38,10.47-10.62l-.27.29c7.82-1.47,7.85,8.71,15.75,9.24l7.61-5.08c.61,2,1.05,3.47,1.5,4.92l.08-.65c-.68,3.12-1.34,6.25-2.07,9.36-2,8.44-1.33,8.82,6.73,13.53,5,2.91,9,7.46,13.59,11.07,3.12,2.44,6.52,4.53,9.77,6.76l-.34-.32c.73,7,1.45,14.1,2.22,21.57l-15.81,8.12c7.6,8.89,17.1,12.19,24.83,18,1.76,1.31,4.32,4.23,3.87,5.37-2.91,7.43,1,17.89-12.57,21.93l14,6.13c.43,3.93.9,8.32,1.46,13.46l9.35-2c-5,7.38-4.28,13.72-.26,20.44.94-3.5,1.89-7,2.84-10.5,10.74,2.57,16.35,7.73,13.77,17.35-1.74,6.48,4.07,8.88,5.9,13.36,3.21,7.81,6.89,15.45,10.68,23,3.17,6.34,6.79,12.46,10.8,19.72l-9.39,2.12c.06,10.21,1.45,20,8.23,28.4,1,1.19,2,2.76,2,4.18.18,8.67,5.69,13.85,11.64,18.94,2.42,2.07,5.65,4.36,6.33,7.1,2,8.06,6.17,10,12.21,6.21,7.09,7.56,13.57,14.28,19.8,21.22,1.58,1.76,3.54,4.3,3.37,6.32-1.06,12.4,6.72,25.17-1.46,37.27-.34.5.1,1.52.29,3.4h11.86v10.93l-6.36-2.94-9.17,11.73c9.39,3.72,16.92,7.19,25.08,1.18,3.81,3,6.45,6.81,3,10.44-10.56,11.28-5,25.14-7.61,37.69l-5.53-3.33c-.29,1.05-.76,1.81-.64,2.47,1.24,7.2,2.46,14.41,3.94,21.56.48,2.36,1.07,5.26,2.68,6.73,6.68,6.08,9.62,15.1,10.72,22.44,1.82,12.09,10.58,24.38,1.71,37.75-3-9.66-5.19-19.33-8.88-28.41s-9.07-17.12-13.06-25.93a77.91,77.91,0,0,1-4.73-16.06c-.9-4.32-.9-8.84-1.38-14.22l-7.35,2.32c-4.08-5-7.08-10.47-11.59-13.94-5.68-4.37-11.58-1.27-10.11,5.45,2.19,10-3.49,16.18-7.75,23.1l-15.4,3.64c.65-1.86.91-4,2-5.53,4.43-6,4.33-11.3.35-17.87-3-5-3.57-11.38-5.36-17.11-1.22-3.91-2.7-7.74-4.85-13.83-2.64,7.89-6.3,12.72.2,17.56,1.39,1,.21,5.5.21,9.14-6.66-3.42-4-12.34-11.66-13.26-2.46,4.43-2.29,7.87.83,11.51,2.33,2.72,4.94,5.81,5.7,9.13,1.35,5.88.7,12.34,7.7,15.42.33.14-.66,3.28-1.12,5.36l6.37-.9c-2.93,11.25-1.22,14.94,9.67,20-.43,3.42-.89,7-1.35,10.67,9.57,1.68,8.41,12,13.78,17.48a62.7,62.7,0,0,0,18.48,13.39c3.14,1.47,6,3.53,10.11,6-8.92,8.06-10.93-2.36-17.78-3.78,2.16,5.15,3.28,9.64,5.71,13.26,7.19,10.74,12.52,22.3,11.39,35.23-.72,8.33-.63,16.94-2.43,24.88-1.08,4.73-5.53,8.89-4.46,14.78,1,5.44,1.67,10.94,2.62,17.31l8.21-3.07c8.06,16.17,7.72,31.4-4.46,46.69,13.83,4.19,11.48,14.15,10.32,24-1.57,13.38-13.56,10.32-21.86,14.11,1,3.81.18,8.5,6.51,8.18a18.81,18.81,0,0,1,3.39.42c-1.09,7.85,9,6,10.18,11.84.21,1-.49,2.27-.94,4.13l-7.68-2.94c-.84,1.16-2.14,2.11-2.16,3.09-.17,8.5-1.87,17.47.24,25.4,4.1,15.42-2.77,25.28-14,33.15-4.61,3.24-5.31,6.87-7.06,11.55-5.1,13.65-2,29-9.84,42-3,5-3.07,11.64-5,17.38-.65,2-2.84,3.39-5.16,6-1.52-5-2.63-8.68-3.65-12,3.55-9.55,16.16-15.11,11.65-27.68-3.33,4.88-3.51,11.23-10.32,14.09-2.35,1-3.63,6.29-4.06,9.79-1.37,11.29-2.12,22.65-3.17,34.74l11.36,6.24c-6.37,3.84-7,11.47-16.58,10.93-7.68-.44-12.78,10.77-11,19.36.34,1.59,1.37,3.39.94,4.73a16.12,16.12,0,0,1-3.68,5.68c-.51.55-3.1.27-3.29-.21-.83-2.09-1.67-4.45-1.48-6.61.17-1.77,1.79-3.41,2.92-5.36-4.92-.25-9.55-1.48-13.59-.44-4.32,1.12-8.09,4.38-13.14,7.31-1.57-6.14-1.84-11.66-8.41-11.35-8.05-13.32-22.88-20.08-31.66-32.62-1.75-2.49-2.06-6-3.42-10.2l-7.18,5.79c-3-2-5.81-5.2-9.11-5.88-13.5-2.76-19.17-11.83-21.39-24.86l8.5-3c-1.82-1-2.73-2-3.52-1.87-7.85.93-13.41-1.34-16.27-9.46-1-2.82-4.08-5-6.42-7.22-5.35-5.16-10.75-10.27-16.3-15.21-1.09-1-2.91-1.14-6.1-2.29-1.54,11-3,21.26-4.51,32.36-5.37,1.29-10.08-.35-13.89-6.95l9.94-2.22c-1.82-3.86-3.16-7.42-5.1-10.62-1.72-2.84-4.12-5.28-7.26-9.2l18-4.06c-8.14-5.41-13.51-10.43-12.29-20,.84-6.6-3.71-7.26-11.74-1.78l.27.1c-1.23-3.85-1.73-8.18-7.44-8.11-4.66,0-5.87,2-6.41,6.63-.32,2.8-4.07,7.12-6.66,7.41-10.31,1.15-10,8.84-11.87,15.9-1,4.08-3.71,7.77-5.78,11.56-1.75,3.23-3.7,6.36-6.72,11.51-6.23,1.45-14.8,7.23-23.69-.94-.91-.83-3.17,0-4.73-.37-7.84-1.6-15.66-3.32-25.32-5.38-3.44,3.77-8.34,10.12-17.16,9.4-2.44-.2-5.53.53-7.2-.7-8.38-6.17-18.21-.32-27-3.69-2.53-1-6.5,1.82-11.81,3.53,6.82,4.68,11,8.86,10.33,15.71a4.28,4.28,0,0,0,1.49,3.18c11.31,8.8,15.4,21.25,18.65,34.5.77,3.15,5.1,6.23,8.5,7.71,4.08,1.77,7.94-.11,10-4.59A20.62,20.62,0,0,1,1386,1886c13.18,1,13.35,1.33,14.68,13.11.38,3.3,2.23,6.46,3.56,9.61.77,1.84,2.71,3.57,2.65,5.3-.21,6.51,3.52,8.3,9,9.26,3.89.68,7.57,2.49,12.12,4.07l-6.56,10.82c16,0,24.38,17.29,41.71,13.91-.13,1.23-.27,2.47-.4,3.7l-9.18,4.07c.68.75,1.6,2.35,2.09,2.22,5-1.28,11.41-1.36,14.52-4.59,11.46-11.91,23.54-13.07,37.44-5.35,1.21.67,3.1.13,4.67.16,0,3.41,0,6.81,0,10.61,5.39,0,9.51-.17,12.47-4.77l-12.7-5.58c-.14-2.41-.29-4.82-.47-8,1.69,0,4-.63,4.56.1,3.84,4.86,7.93,8.31,14.67,5.69.41-.15,1.56,1.61,2.19,2.28.07.74.27,1.21.13,1.54-1.64,3.83-8.09,7.39-3.66,11.41,2.66,2.42,8.88,1.41,13.43,1.07,2.66-.2,5.09-2.48,7.78-3.19,3.65-1,1.17-6.48,7-6.85,16.35-1,16.31-1.72,25.46,2.52-2.56,1.91-5.15,3.75-7.6,5.75-.44.36-.34,1.4-.64,2.87,9.76.13,14.72-8.11,22.89-12.34l8.29,9.95-5.3,7.37c.66.48,1.18,1.17,1.77,1.23,8,.83,16.14,1.34,24.15,2.47,2.2.31,4.57,2,6.11,3.76,3.29,3.74,6.1,7.91,9.87,12.93l-10.42,5.58,7.72,4-7,9.12c-5.33-4.82-8.8,2.15-13.36,2.11l-16.08,2.88c-.24.43-1.87,2.08-2.08,3.9-.85,7.69-5.61,9-12.08,8.12-.27,0-.71,1.25-1.41,2.56l8.86,2.5c8.12-6.15,15.21-11.44,22.16-16.91.61-.48.3-2.13.44-3.21,4.64-.75,9.25-1.51,13.87-2.28-2,3.88-3.62,8-5.95,11.59-4,6.17-9.91,11.61-5.22,18.69l-12.41,11.91c-11-6.77-22.32-7.54-32.62-.61l-7.65-12.56c-12.47-2-22.56,9-34.42,3.82-9.3,7.56,7.46,13.83-1.11,21.2,5.8,2,10.23,5,14.5,4.78,9.7-.47,18.82-.17,27.47,7.05-4,8.43-7.86,17.6-12.76,26.14-3.59,6.28-9.28,6.85-16.42,3.26a83.88,83.88,0,0,0-7.77-3.41c-.6-.23-1.5.32-2.26.51,11.12,15.55,21.34,15.38,32.37-.23,2.77-3.93,6.48-7.2,10.2-11.24-.28-1.43-.72-3.64-1.58-8l14.2,10.29c-.49,1.39-.57,2.62-1.05,2.8-10,3.86-16.58,11.6-22.57,19.86-5.75,7.93-13.17,13.11-24,16.21,1.21-5,2.19-9,3.16-13-11.71-2.56-13.06-1.77-16.46,7.95-3.31,9.41-7.94,16.65-18.35,21.29-9.4,4.2-16.6,13.31-25.34,20.73-6.89-6.71-15.1-9.38-24.93-4.14-2.2,1.18-5.6.15-8.45.09-6.13-.13-12.25-.33-18.37-.43-7-.12-14-.39-18.6-6.73,2.28-8.9,2.28-8.9-.45-14.87-10.81-3.5-17.86,4.82-25.75,9.1-5.78,3.13-9.54,2.4-14.6-.26-11.06-5.81-15.42-17.62-23.75-25.84-.82-.81-.51-3-.42-4.48.67-10.92-7.23-19.3-19.58-19.49,4,5.16,7.59,9.81,11.19,14.47l-1.55,1.81c-6.79-5.3-13.78-10.38-20.33-16-8.48-7.23-14.13-17.74-25.71-21.45-1.94-.63-3.07-3.67-4.69-5.5s-3-4.34-5-5c-15.3-5.16-24.67-18.18-36.92-27.34-6.75-5-12.21-12.4-22.27-11-1.68.24-4-1-5.41-2.32-7.69-7.17-16-13.57-23.54-21-10.59-10.51-20.73-21.76-32.29-31.2-9.67-7.9-22-12.62-31.25-20.9-5.94-5.32-11-12-18.37-15.11-8.84-3.77-17.79-7.15-27.86-7.88s-19.85-4.13-29.76-6.42a5.25,5.25,0,0,1-2.08-1.24c-12.38-11.05-12.65-10.24-29.76-15.88-13.62-4.5-26.8-9.44-37.47-21.17-10.13-11.12-22.86-20.74-38.48-24.83-3.31-.86-6.16-3.8-9-6.1-7-5.7-13.77-11.62-20.69-17.38a11.78,11.78,0,0,0-4.14-2.56c-20.11-5.45-32-20.13-44.71-35.63-18.21-22.26-35.2-46.24-60.73-61.6-4.06-2.44-6.44-7.58-10.41-10.26-7.38-5-15.35-9.1-23.08-13.58-1.05-.61-2.42-1-3.11-1.87-11.59-15-28.32-19.22-45.74-22.1a4,4,0,0,1-2.23-.93c-6.73-7.67-16.58-7.45-25.2-10.51-6.78-2.41-12.67-7.26-19.05-10.88-2.4-1.36-5-3.06-7.59-3.28-11.32-1-20.94-5.63-30.39-11.63-7.39-4.69-15.87-7.6-23.56-11.85-5.33-2.94-10.1-6.87-15.19-10.26-4.68-3.11-9.6-5.88-14.14-9.19-4.24-3.1-8.59-6.28-12.08-10.16-15.08-16.74-31.16-32.21-49.91-45-5.87-4-10.72-10-14.84-15.93-3.87-5.56-7.71-10.37-14.24-12.89-2.46-1-4.31-3.44-6.54-5.1-7.83-5.84-15.62-11.74-23.63-17.33-1.46-1-3.89-1.06-5.83-.92-11,.77-19.36-4.45-27.6-11-9.91-7.86-20.53-14.82-30.84-22.17-9.82-7-19.14-14.31-20.14-27.76-.36-4.81-3.6-7.17-8.1-7.9-8.93-1.45-12.07-7.51-12.6-15.66-.27-4.08-.28-8.18-.67-12.25-.51-5.24-.19-10.91-2.15-15.59-6.47-15.36-10.94-31.73-22.07-44.92a18.33,18.33,0,0,1-3.73-11c0-9.25-.81-18.17-6.12-25.92-4.71-6.86.6-11.32,3.78-16.22-5.89-6.53-11.59-12.38-16.72-18.68-4.32-5.3-4.52-11-3.41-18.21,2.32-15,1.34-30.23-12.45-40.86-1.26-1-2.85-2.26-4.24-2.21-9.46.38-12.32-6.69-15.52-13.36-5.54-11.54-11.46-22.57-23.29-29.31-3.31-1.89-5.56-5.93-7.81-9.31-4.95-7.44-9.82-15-14.26-22.71a22.4,22.4,0,0,1-3.22-10.39c-.08-11.45-4.48-20.56-13.66-28.24-9.06,2.92-14.62-2.15-19.94-9.36-7.84-10.63-12.38-21.57-11.37-35.29.51-6.89-2.15-14.47-5-21a129.47,129.47,0,0,1-10.31-41.54c-.32-4.07-1.1-8.11-1.15-12.17,0-3-.22-6.88,1.42-9,3.7-4.73,3.45-9.71,3.5-15.09.09-11.51-.29-22.78-6.44-33.1a11.46,11.46,0,0,1-1.52-7.09c1.13-7.11-2.88-12.48-5-18.61a358.89,358.89,0,0,1-11.46-38.69c-1.67-7.33-.88-15.21-1.24-22.84-.24-5.11-.59-10.13-7.58-10.48a4.13,4.13,0,0,1-3.08-1.61c-6.08-12.91-20-16-29.28-24.65-2.77,2.29-5,5.67-7,5.52-6-.43-12.62-.88-17.53-3.81-10.09-6-11.19-16.46-4.47-30.33C73,778.57,69.66,769.37,72.17,757c1.39-6.88-.67-14.64-2-21.84C69,729,63.26,726.65,58,726.5c-8.31-.23-10.75-5.36-11.19-11.8-.71-10.26-2.71-20.13,6.13-29.68,4.68-5.06,3.53-15.54,5-23.59,2.57-14.45,5.1-28.92,7.88-44.68,6.24,3.19,10.7,1.91,12.86-3.28,1.86-4.47,3.75-9.34,3.83-14.07.31-18.29,7.78-31.83,23.73-41.22,4.68-2.76,7.67-6.65,14.47-6.22,4.65.28,5.2,1.43,5.93,4.68,0,.12,1.78.22,2.06-.16,3.67-5.12,10.82,5.58,13.69-4.23-3.31-5.81-13-10.92-6.46-20.84,3.47-5.3,6.23-6.53,14.95-5.71,5.63-8.09,11.72-16.21,24.8-13.61-1.5-7.29,4-9.51,8.77-12.39,3.15-1.88,6.76-3.58,9-6.32,5.14-6.38,11.2-10.32,19.39-11.73,5.8-1,9.26-5.68,13.39-9.87,8.84-9,13-20.19,18.31-31a41.34,41.34,0,0,1,3.55-5C255.65,425,266.58,417,273,404.71c4.76-9.19,9.16-8.93,17.48-4.19-.57.51-1.12,1.47-1.7,1.48-11.86.24-12.22.14-14.77,11.15-1.78,7.66-5.75,14.07-8.91,21-3.88,8.46-10,18.27-3.41,28.91,3.54,5.69-4.58,6.15-7,11.9,11.93-5.57,19.59-2.4,23.94,6.37-3.22,10.52-6.1,20.56-9.42,30.45-.8,2.36-2.79,5.64-4.66,6s-4.49-2.32-6.67-3.81c-.62-.43-.82-1.42-1.35-2-3.35-3.94-6.35-11.1-12-8.41-5.28,2.53-9.5,8.53-12.61,13.91-2.77,4.79.28,11.14,5.38,13.43,4.75,2.14,9.52,1.78,13-2.85a54.86,54.86,0,0,0,3-5c4.55,2.22,7.28,4,10.29,4.93,11.62,3.43,19.43-3.11,24.54-11.84,7.23-12.34,13.25-25.46,18.89-38.64,1.6-3.73.74-8.91-.1-13.21-2.27-11.67-1.85-12.51,9.59-13.24a16.34,16.34,0,0,0,3.5-1.05l3-18.84,2.32-.27c.51,1.2.77,2.63,1.61,3.53.63.69,2,.7,3.75,1.22l1.84-14.15,19.95,8.05c13.69-8.42,24.69-23.27,42.79-27.17-1.42,8-1.42,8-27.61,24.14,3.08,4.88,7,6.51,12.09,3.65,7.13-4,14.66-7.57,21-12.64,13-10.47,25.28-21.89,38-32.75,8.25-7.05,19.1-10.39,25.29-20.83,2.83-4.76,11-6.56,17-9.18,9.42-4.12,18.92-7.83,26.21-15.62,1.93-2.06,5.26-2.8,9.32-2.35C513.71,340.33,511,344,507.9,348c8.11,5.12,13.62-4.3,19.57-2.84,8.28,2,10.39-7.43,17.59-7L553.44,350h-8.19c.4,1,.48,2,1,2.29,8.46,4.38,14.71-.4,21.23-5.31-.2-3-.4-6.13-.64-9.78,7.17-1.72,12.32-7.9,20.63-5.33,2.46.76,6-2,9.06-3.1,2.67-.95,6-3.29,7.95-2.47,11.39,4.73,21.37-3.17,32.17-2.94a10.75,10.75,0,0,0,5.84-1.73c8.23-5.44,17.3-8.57,26.75-11.19,7.79-2.15,8.7-4.43,7.92-12.31-.84-8.43-.52-9.23,8.25-8.56,12.78,1,22.53-6.56,32.91-11.62,3.36-1.64,4-8.84,6.7-15.48l12.55-6.1,2.93,11.19-9.88,4.13c2.79,5.36,5.16,9.9,7.82,15,4.54.67,9.35,2.13,12.9-2.92a2.69,2.69,0,0,0,.18-2.33,14.18,14.18,0,0,0-2.13-2.6c9.27-1.95,17.36.09,28.34,7.73l-7.52,3.24c-7.66,12.14-1.19,24.47-.76,36.62.23,6.44,6.09,11,10.13,10,5.57-1.36,7.3-6.14,3.2-16.75l-4.68,11.87c-6.13-9.83,9.32-11.33,1.73-19.66,7.34-1.59,10-12.89,21-8.41,1.65-7.93,3.12-14.95,4.84-23.2,7.51,4.95,14.61,6.93,22.56-.33l-13-10.56,10.48-3.77c.53-2.38,1.28-5.07,1.73-7.82.83-5.11-1.8-7.75-6.6-8.41-16.93-2.35-29.93-12-41.68-23.3-8.06-7.77-18.07-10.44-28.89-6.14-7.1,2.82-13.64,7.88-22,6l.34.33c9.85-5,19.57-10.18,29.6-14.73,3.19-1.45,7.19-1.42,10.83-1.5,4.33-.1,8.88,1.95,12.68-1.9a3,3,0,0,1,2.3-.66c14.39,2.67,29.79,3.09,40.06,15.84,2.16,2.68,4.13,6.66,3.89,9.87-.37,4.92.08,9.06,3.7,12.32,5.71,5.15,11.64,10.06,17.55,15,.55.45,1.62.22,2.38.5,7.89,2.92,15.58,6.6,23.69,8.63s17,1.83,25.24,3.91c6.86,1.74,13.19,5.52,19.84,8.16,7.23,2.87,14.58,5.44,21.86,8.2,1.14.43,2.13,1.5,3.27,1.66,6,.84,1.23,13,10.66,10.17l11.67,13.53c6.22-3.77,12.87-1.08,19,3.56,14.07,10.64,30.12,9.17,46.05,7.26,2.93-.35,5.46-4.06,7.13-5.38,5.21,1,9.93,2.08,14.7,2.75,2.39.33,5-.6,7.3-.11,24,5.09,47,2.12,69.63-6.84a65.31,65.31,0,0,1,36.1-3.65c7.46,1.41,9.5-2.1,11.57-7.47,4.08-10.6,9.07-11.48,15.93-2.56,4.78,6.21,9.08,12.76,17.07,13.91.84,1.3,1.67,2,1.66,2.66-.36,20.09,15.56,25.93,29.37,33.64,4.21,2.35,8.3,5,12.64,7,8.42,4.05,16.72,8.66,25.57,11.42,8.21,2.56,14.7,6.08,19.15,13.71,2.19,3.76,6,6.59,9.38,10.2,1.83-1.1,3.54-1.59,4.38-2.73,6-8.15,14-5.57,21.11-3.1,9.67,3.34,11.56,12.17,5.32,20.74-1.17,1.6-2.41,3.13-4.13,5.37,6.6,9.44,15.56,15.62,24.73,21.56,2.74,1.78,5.93,2.95,8.4,5,3.66,3.05,4.59,6.69-.12,10.72l-14.67-5.22c2,4.09,2.53,7.12,4.24,8.16,7,4.3,12.89,11.21,23.27,7.47,6-2.18,11.25,3.91,13.37,8.73,6.15,13.94,14.71,25.47,28.32,34.09l10.7-1.58c1-2.85,1.18-6.29,2.92-7.57,9.36-6.9,9.49-6.71,1.4-16.23l7.55-4c-2.11-2-3.61-3.22-5-4.62a7.45,7.45,0,0,1-2.5-5.69c3.2,2.16,7,3.8,9.48,6.56,11.07,12,23,23.56,32.31,36.87,11,15.65,22.26,31.44,28.75,49.84a23.53,23.53,0,0,0,3.83,6.27c11.13,14.34,22.44,28.54,33.47,43,3.13,4.09,5.54,8.74,8.29,13.16-7.83,4.26-12.06-2.42-18.9-4.61,2.19,6.27,4.24,11.22,5.6,16.34,1.57,5.93-.9,9.48-7.26,9.86l.22.14c4.12-2.53,2.24-5.45.48-8.29-2.54-4.09-5.17-8.14-7.85-12.35l-13.79-1.37-10.43,17c2.64.65,4.75,1.54,6.89,1.63,8.67.38,14.54,5.32,18.66,12.14,5,8.28,9.24,17.05,13.71,25.65.51,1,.37,2.3.64,4.18h-7.26c0,4.69.09,9.06,0,13.43a11.88,11.88,0,0,1-1,4.77c-1.83,3.71-8.47,6.32-11.5,4.75-3.81-2-4.78-7.13-2.36-11.88,2.86-5.61,5.61-11.27,6.82-18.54l-13.43,6.83c0,3.65,1.38,8.16-.28,10.55-4,5.69-3.73,10.81-1.09,16.56.19.39-.77,1.31-2.16,3.51l-16.56-11.53-9.77-6.81ZM784.5,1471.76c3.84-1.7,3.55-4,.28-9.09,0,4.71,0,7.07,0,9.47-1.29,2.18-7.77,2.24-2.11,8.06C783.43,1476.79,784,1474.28,784.5,1471.76Zm460.92,488.74,7.68,5.85.33-.83-8.32-4.74c-1.61-2.75-2.64-6.31-7.66-4.07C1240.09,1958,1242.74,1959.25,1245.42,1960.5Zm.93-1466.33c-2.78-2.46-5.54-4.1-7.89,1.6l8.17-1.94,1.68,4,3.62-5.41-1.83-1.14ZM875.61,598.87c-.33-1.77-.65-3.54-1-5.31L869,595.45l.24,1.74,6.7,1.31c.28,3.07-5,6.47.21,9,1.2.57,3.66-1.48,6.59-2.8C879.73,602.26,877.66,600.58,875.61,598.87Zm496,730.79c-3.21-3.73-3.21-3.73-9.29,1.17l9.51-1.44c-1.41,7.3,3.58,4.66,6.69,4.94l.6-10.6Zm-826,217.46-12.16-4.54c2.69,6.73,6.81,7.38,12.17,4.49-1,7.73,4.54,9.16,10.28,10.19-1.42-2.55-3.79-4-5.92-5.7A53.88,53.88,0,0,1,545.55,1547.12ZM827,576.13c-.38-1.12-.49-2.46-1.21-3.28-.58-.66-1.89-.69-2.87-1,.3,1.23.23,2.82,1,3.58s2.23.28,3.41.36v12.57l9.43-8.85Zm-15.89-16.64c-4.1-.6-8.49-2.42-11.82,2.38,7.67,4,7.67,4,11.8-2.5,2.69,2.15,4.09,7,9.34,4.79C819.7,556.85,815.12,558.75,811.08,559.49Zm459.54,1433.05c-4.26.47-10-2.17-11.53,5.23h17.18l-6.08-5.55,3.56-5.11c4.37,4.56,7,12.65,15.2,8.82.36-5.12.65-9.25,1-14l-6.19-5.6c6-3.76,8.43-13.1,4.86-19.3-7.67-13.34-17.35-24.66-32.73-29.65-4-1.31-8.49-2.41-11.14-10.11l33.29,15.15,1.55-3c-6.15-3.71-12.19-7.6-18.46-11.1-12.95-7.23-25.71-14.5-29.62-30.56-.39-1.6-2.5-2.79-4.56-5-1.38,2.67-2.24,4.36-3.11,6.06-2.54,7.31-1.91,8.85,5.08,12.41,2.38,2.77,4.66,5.18,3.18,9.67-1.23,3.75-.95,8-1.09,12.1-.54,15.39,1.73,18.62,16.54,24,18.5,6.74,25.06,16.27,25.75,37.2,0,1.13.89,2.23,1.37,3.34-1.76-3.56-4.05-6.26-10.08-5.89C1267,1986,1268.8,1989.27,1270.62,1992.54Zm-5.06-927.92-4.17,5.3,8.57,3.39c-1.86-3.64-3.15-6.17-4.43-8.7-.12-2.6-.23-5.19-.37-8.26-8.05,2.86-8.05,2.86-11.79,9.58ZM669.92,824.12c-4,7.67,6,7.28,7,12.09.06.25,1.37.22,2.94.45.44-2.52.88-5,1.3-7.44l-11.57-4.81c-.73-3.63-1.46-7.26-2.35-11.71-7.68,3.39-8.89,7.33-5.82,13.43C664.59,825.38,667.27,824.73,669.92,824.12Zm415.89,850.5c-1.3-4.36,4.42-11.36-5.81-13,2.17,4.66-4,12.12,6.2,12.71,2.36,3.74,4.28,8.16,11.09,6.53-2.15-4.63,5.73-10.4-2-14.13ZM1286.3,1905.3l-9.67-5.8c.92,7,5.44,6.34,10,5.59,2,8.31,9.93,8.47,16.15,13,.88-5.77-1.26-8.26-5-9.55S1290.23,1906.31,1286.3,1905.3Zm-253.49-650.5c-7.26,5.88-1.28,12.43-2,19.92l10.63-1.31c-3.39-7.25-6.11-13-8.74-18.75,7.15,3.59,12.26.72,17.09-5.47C1042.31,1247.17,1037.63,1251.19,1032.81,1254.8ZM1032,960.92c12-3.48,17.28-8,23.5-20.28-5.35,1.42-11.6,1.34-12.55,9.13-.15,1.29-3.13,2.05-4.41,3.41-2.32,2.45-4.35,5.18-6.47,7.86q-1.65,5.82-3.29,11.64l-8.82,5c-.68-4.82-2.25-8.68-1.38-11.87s4.19-5.81,6.75-9.08c-6.53-3.4-9.61.69-12.81,5.16l-8.32-10.78c3.67-3.77,8.52-6.49,9.31-10.1,1.23-5.55,4.36-7.93,9.34-9.21l-19.38-25.09c3.85-6.93,3.42-8.48-3.43-10-2.39-.54-5.17-.35-7.16-1.52-4.85-2.85-10.48-5.51-13.53-9.84-1.73-2.47,1.06-8.06,1.64-12.27.08-.59-.79-1.32-1.56-2.51l-11.36,3c-.6-.75-1.2-1.5-1.81-2.24,2.09-3.14,4.17-6.27,6.23-9.43,2.27-.8,4.86-1.14,6.73-2.48,7.24-5.18,14-11,21.39-16,8.19-5.53,11.25-4.37,13.81,5.11,2.28,8.43,6.45,14.77,15.28,17.9l8.82-6.6-3.27-5.15c3.13-10,5.87-18.71,8.68-27.68l-24.47-9.82c-18.42,8.2-34.61,22.37-51.37,36.25l4.79,8.76c-3.48-.84-9.52-.92-10-2.64-3-10.14-12.39-8.83-19.58-13.07l-8.71,11.81.27-.08c-6.68-3.36-12.75-7.2-15.45-14.88-.46-1.31-3.46-1.74-5.61-2.72v6.9c-10.22-.88-16.51,1.72-22.88,10.1-2.58,3.38-5.18,4.69-8.55,3.28-1.62-4.86-3-9.12-4.6-13.86l9-9.54c-13.7,1.26-13.7,1.26-29.72-6.88l6.33-23c-5.48,3-8.84,4.22-11.33,6.39-4.86,4.25-9.29,9-13.8,13.64-2,2-4.33,4-5.43,6.43-4.59,10.22-11.13,20.09-7,32.29.47,1.4,0,3.22-.37,4.79-2.58,12-4.2,24.24-8.15,35.73-3.68,10.69-3.06,20.44-.45,31,2.66,10.8.51,20.87-10.27,28.8-.64-4.49-1.12-7.82-1.85-12.93-4.06,3-8.47,4.48-9.42,7.19-7.45,21.38-26,38.16-25.85,63.08-6.68,1.68-8.17,7.44-10.74,12.93s-7.1,10.32-10.91,15.62c1.91,1.16,3.07,2.47,3.91,2.29,8.94-1.93,11.08,4.08,13.51,10.64,1.81,4.88,4,10.21,7.56,13.7,4.13,4,4.91,8.15,4.76,13.19-.15,5.31-.35,10.63-.23,15.94.11,4.9.63,9.79,1.11,16.75l6.91,4.14,13.89-7.2c3.43,8.42,6.36,15.69-1.63,22.77-1.85,1.64-2.72,6.74-1.58,9,4.47,8.78,9.93,17.06,15.88,27l8.63-10.93c2.1,9.5,2.1,9.5,9.66,9.9,0-9.65.73-19.38-.24-28.93-.77-7.56,1.5-13.71,5.64-19.21,2.26-3,6.24-4.69,8.2-6.09l13.69,8.29-.21-.27c.51,2.66,1,5.32,1.3,6.83,17.91,5.12,23.09-11.56,34.72-17-.87-5.39-1.63-10.14-2.34-14.57,6-6,12.76-5.35,20.76-3.2,1.92-5.39,4.1-10.13,5.26-15.1,1.25-5.39,3.44-8.07,9.79-5.82v10.68c-4.85,4.2-10.39,6.69-10.88,9.93-.91,6.07.76,12.65,2.12,18.85.39,1.79,3.31,4.09,5.19,4.2s4.7-1.73,5.81-3.52c1.64-2.66,2.15-6,3.35-9.75,2.87.3,5.78.09,8.31,1,9.13,3.19,9.09,3.33,13.43-5.31,1.6-3.19,2.33-7.5,4.87-9.4a149.11,149.11,0,0,1,22.58-14.19c7.71-3.84,13.65-8.91,17.29-16.64,2.06-4.36,4.91-7.37,9.85-7.19l5,6.17,13.08-16.45-6-13,8.82-2.8c-1.09-2.89-1.6-6.23-3.44-8.51-1.33-1.65-4.4-1.89-6.7-2.75-3.45-1.28-7.08-2.22-10.32-3.92-6.94-3.62-7.27-6-2.18-15.48l9.87,7.91c2.83-6.84,13.18-4.8,14.73-14.24l-8.34,3.6c-5.87-3.58-4.44-12.92-13.47-12.95,6.13-6.54,11.48-2.28,17.11-.69,3.41-5.61,2.92-11.63,1.69-17.72C1036.25,968.69,1036.25,968.69,1032,960.92Zm470.79,1062.64c-1.63,4.85-3.27,9.7-5,14.83,5.61,3.54,10.29,7.66,17.11.19l-12.34-14.78c-.3-3.5-.61-7-1-11.43-2.65.83-4.44,1.69-6.3,1.93-9.71,1.27-15-2.11-16.09-10-.08-.58-.94-1.06-1.75-1.9l-7.35,7.92c4.07,3,7.45,6.79,11.66,8.3C1488.47,2021.06,1495.76,2022,1502.78,2023.56Zm-274.29-60.87q4.29,9.13,8.56,18.27c2.69-9.34,0-15.55-8.9-18,3.42-9.38-5.14-15.51-6.58-23.6-.1-.57-2.65-.71-5.24-1.34.61,4.39,1.06,7.7,1.6,11.58l-14.1-5.14c4.77,10.72,13.86,13.72,20.29,19.51C1224.7,1964.54,1227,1963.18,1228.49,1962.69ZM838.22,618l-5-.37,12-8.42-11.42-9.54c-5.81,6.42-13.41,10.92-10.94,20.39,2.71,1.27,5.23,2.58,7.85,3.65,5.85,2.38,7.25-1.07,7.52-5.79,2.06,3,2.59,7.61,8.16,7.9C847.37,618.4,842.34,618.7,838.22,618Zm42.95,54.11c-3.95.86-8.16,1.14-11.77,2.76-2.73,1.23-6.07,3.81-6.76,6.42-1.86,7.09-2.47,14.52-3.65,22.32,9.61-1.32,10.56-7.42,10.09-14.5l6.61,5.57,10.28-13c4.63,2.61,8.89,3.09,13.1-3.08l-11.29-9.92ZM1059.6,852.93c6-3.32,7.27-5.85,4.12-10.44-2.21-3.22-5.32-5.82-8.26-9-9.12,5.83-11,15.05-13.75,22.2l11,12,9-3.2-2-11.84Zm651.19,766.14c6.47-11.69,4.12-18.46-7.58-22.45-3.59-1.22-7-3-12-5.21,2.47,4.14,4.2,7.17,6.06,10.13,1.07,1.7,3.64,3.62,3.32,4.85-2.87,10.76,5.64,17,9.36,25.15s7.11,16.12,3.31,25.54c-2.72,6.73-1,13.84.52,22.68l7.63-11.08,3.77,6.4c6-7.82-3.24-14.13-2.36-21.34.92-7.59,4.47-14.89,1.11-24.36-8.89,2.76-9.59-5.4-13-10.61ZM480.17,1099.74c-.46,4.22-2.88,10.4-1,12.29,5.9,5.9,4.27,12.73,5.82,20.39l-21.26,6.3c7.12,5.22,11.62,12.84,21.33,12.66-.57-3.38-1.13-6.66-1.89-11.14l11.84,1.91c-1.21-5-2.16-8.93-3.76-15.57L503.81,1138c5-8,10.3-14.81,13.85-22.41,4.51-9.65-1.26-18.19-12-18.75a31.25,31.25,0,0,0-10.87,1.44c-5.19,1.67-9.38,1.4-13.47-2.65a12.68,12.68,0,0,0-7.43-3.63c-4.44-.25-6.69,2.21-4.94,7.47l10.95.62ZM775.59,668.82h19c-2.15-5.94-4.45-11.83-6.43-17.83-2.19-6.63-4.09-13.36-6.11-20l1.93-1,9.33,10.64c4.85-10.74-1-19.17-2.32-27.61,8.22-9.22,8.23-9.25,4.19-20.86,10.47-1.81,16.65,7.41,27.11,11.21-.71-4.37-.26-8-1.83-9.93-3.36-4.22-7.18-9-11.89-11-6.73-2.78-12.39,2.72-12.61,10.57-4.86-.58-9.8-2-14.55-1.54-6.36.63-11-.86-15.14-5.79a38.23,38.23,0,0,0-25.64-13.92c-4.12-.44-9.94-2.11-12.57,3.71-2.11,4.68-5,9,.84,14.08,5.2,4.55,5,11.37.93,16.6-7.48,9.63-15.32,19-23.62,29.2l7.85,16.26-11.13,11c10.21,4,10.54,5.45,6.4,13.12a112.07,112.07,0,0,0-7.55,17.77c-.7,2.13.69,4.95,1.36,8.79,6.35-5.35,14.19-6.33,15.46-14.57,10,.82,7.75-9.75,12.88-14.65l5.24,6.72c10.18-7.54,11.86-17.32,9.88-27.06L757.26,651c-.8,5.67-2.08,11.58-2.37,17.54-.32,6.76,2.42,8.09,9.25,5.2,3.9-1.64,7.82-3.26,11.85-4.85q-3.84,6.36-7.7,12.7c8.69,2.84,12.5,1.26,16.48-7.42ZM727.2,562.27c4.86-.41,10.7,7.07,16.45-3.53l-16.77,3.76c-.12-1.75-.23-3.51-.47-7.07L702.8,569.94l-6.42-12.59c3-3.49,6.59-4.7,11.32-4-.62,2.81-1.06,4.79-1.5,6.77,4.38-1,9.25-3.18,9.26-5.39.08-10.8,8.69-16.79,12.79-25.26,2.3,9.12,5.4,10.36,11.45,4.3,2.79-2.8,5.07-6.1,7.65-9.26l-9-9.45-10.43,14.82c2.09-8.18,4.18-16.36,6-23.58,9.76-3.78,11.81,5.23,17.89,8.57,2.24-2.68,3.88-5.52,6.3-7.28s5.66-2.47,8.23-3.51c3.25,1.63,6.79,5,9.8,4.57,5.59-.78,6.32-6.57,7.09-11.36a78.62,78.62,0,0,0,.54-8.11c16.18-10.37,17.37-16.67,6.69-33.12a9.26,9.26,0,0,0-2.36-.62c-10.8.07-10.87.11-13.87-10-1.29-4.35-3.53-6.35-8.38-7.36-6.22-1.28-7.12-5.82-3.11-10.81,1.15-1.44,2.93-2.37,6.2-4.92-6.22-4-12-6.2-15.7-10.34-4.81-5.42-10.07-6.13-16.46-5.66-8.59.65-15.83-2.18-21-10l-33.55,7.51-8.08-8.59-6.58,12.35c-2.12-9.73-.35-19.21-10.22-20.33-7.68-.87-11.07,5.87-15.47,12,7.1-.72,13.79-1.43,17.37,7.26l-16.73,6.83,4.76,9.31c-6.87,7.82-21.84-.5-24.15,13.63l6.62,9.42c-3.23,8-8.9,9.52-16.14,9.63-10.51.15-10.85,1-13.73,11.6-.69,2.53-2.19,4.85-3.34,7.32l-8.15-4.17c-.88,13.13,3.7,27.31-11.17,34.26,5.62-10.22,5.62-10.22-.28-17.41-1,.62-2.72,1.11-2.87,1.9-1.26,6.69-5.11,11.09-10.85,14.56-1.5.91-1.46,4.38-2.52,8L577.73,504l-16.4,20.56c-7.82-8.34-10.41-8.22-15.31,0-2.1,3.5-3.84,7.23-5.62,10.91-2.44,5.06-6.4,7.54-11.91,6.45-4.72-.94-9.28-2.64-14-3.85-2.57-.67-5.84-2.28-7.72-1.34-8.32,4.18-16.31,9-24.28,13.86a53.81,53.81,0,0,0-7.48,6c-3.34,3-6.56,6.07-10.17,9.43.1,0-.86-.72-1.38-.49-12.18,5.34-26.25,7.59-32.69,22-2.24,5-8,8.5-9.89,13.53s-1.16,11.28-1.57,17c-2.46-1.06-3-2.29-3.25-3.56a34.91,34.91,0,0,1-.38-3.84l-2.52-.67L400.4,633.72l-12.59,5c1.25,2.17,1.61,2.85,2,3.5,1.39,2.16,4.09,4.41,3.93,6.44-.32,4-3.94,2.34-6.71,2.64-8,.87-12,8.21-9.35,15.88,1.57,4.53,2.84,9.17,4.31,14-11.66,3.35-5,14.11-9.85,20.07-4.66,5.75-8.45,12.2-12.95,18.85,9.64.28,10.86-15.18,21.76-10.38,5.67,16,4.47,24.33-6.45,35.53-3.75,3.85-5.24,7.81-6.11,12.85-1.1,6.4-2.19,13.24-5.31,18.75-5.75,10.18-13.17,19.4-19.47,29.29-1.58,2.5-2.12,6-2.13,9.08,0,6.42.78,12.84.95,19.27.19,7.11.05,14.23.05,22.29,2.77-1.4,4.12-1.68,4.83-2.5,6.3-7.29,6.66-18.26,15.12-24.34,1-.69.68-3.09,1-4.69,1.63-9.19-5.11-12.95-11.14-17.17v0L362,795.81l12.35,10.62,14.2-7c-1.31,8.1-2.19,13.57-3.27,20.27l16.65,1.88c13.39-6.09,9.57-16,10-25.25,14.33,2,26.86-.8,37.31-8.14,5.22,4.9,12.46,8.47,12.84,12.68,1.05,11.39,11.88,16.42,14.49,26.33.39,1.51,2.89,2.47,4.79,4l8.41-6.9c1.41,12.06,9.19,18.2,18,22.69-.67,4-1.2,7.05-1.74,10.26a43.39,43.39,0,0,0,5,2.29c11.53,3.35,15.94,9.74,14,21.61a97.24,97.24,0,0,1-4.61,16.37c-1.76,5-1.44,8.55,4.57,10.16,3.88-4.09,4-13.05,11.35-11.24,5.29,1.3,9.72,6.13,15,9.71l10.84-5.31c4.41,8.4,16,9.19,18.23,19.37,0,.24,2.3-.34,3.26.07,14.57,6.22,14.56,6.24,19.42,13.29,7.71-1.61,10.22-9,14.41-14.13,1.61-2-1-7.39-1.67-11.24-.13-.77-.48-2.06-.16-2.29,7.2-5,2.23-12.61,4-18.8.69-2.44-1.13-6.25-2.89-8.63-7.54-10.1-15.54-19.85-23.21-29.86-1.07-1.39-1.23-3.47-2.18-6.36,10.92.36,13.36,12.95,24.94,12.91-4-5.47-7.17-10-10.48-14.39-2.64-3.51-1.93-5.94.33-6.87,5.7,2.08,9.87,4.39,14.3,5.06,11.41,1.72,12.73,2.82,13.45,14,.49,7.63,1,15.27,2,22.85a6,6,0,0,0,3.43,4.26,6.2,6.2,0,0,0,5.25-1.72c2.09-2.39,3.18-5.63,5.13-8.17,5.61-7.31,11.44-14.45,17.71-22.31l-12.6-14.71L640,843.46c-4.18-13-12-21.17-24-24l-13.3,8-12.55-9.31-6.47,8.77-32.27-22.65-7.63,8.12c-4.47-1.53-9.71-2.11-13.37-4.83-10.13-7.52-19.6-15.93-29.32-24L508,780.8l-6.44-7.66c2.92-7.1,1.58-16.17,9.86-20.86,1.14-.64,1.83-2.81,2-4.34.71-8.32,1.19-16.65,1.74-24.91,9.39-4.7,10.6,8.37,19.09,9,2.93-5.46,5.91-11.17,9.12-16.75.41-.72,2-.79,3.77-1.44.38,3.29.7,6,1,9l23.33,10.42c.29-13.19-3.31-23.51-9.57-32.14,2-3.26,4.3-6,5.65-9.22s1.86-6.81,2.78-10.43h11c1.89-4.82,2.74-11.82,5.19-12.43,11.74-2.94,20.28-16.92,35.73-8.81,2.17-5.78,4.89-10.41,5.47-15.29.67-5.68,3.24-8.66,8-11.22s11.62-5.44,12.35-9.19c1.45-7.54,6.71-6.4,11-8.84l7.82,10.15c5.79-3.87,5.7-10,3.12-13.17-4.35-5.3-1.32-7.77,2.07-11.87,1.72,5.94,3.26,11.28,4.81,16.62l2.9.2c1.4-2.66,4.17-5.46,3.92-8-.52-5.28-2.61-10.42-4.38-16.74l5.61-7.53c-2.23-4-9.8-2.79-7.95-9.8l12.73-1.23c-.58,11.06,1.92,12.63,17.93,11.18l-3.77-8.13c2.33.61,4.16,1.15,6,1.55,2.32.52,4.66.92,6.3,1.24a48.24,48.24,0,0,1,2.33-6.54,36.13,36.13,0,0,1,3.63-4.74C723.79,566.72,725.43,564.53,727.2,562.27Zm706.26,623.9c3.48,2.13,6.9,5.92,10.45,6,6.65.23,7.21,4.86,10,8.82a58.84,58.84,0,0,0,15.06,15.28c3,2,10.1,1.76,12.6-.51,2.67-2.4,4.42-6.09,8.38-5.36a28.22,28.22,0,0,1,11.24,4.6,29.4,29.4,0,0,0,17.41,5.82l21.43-32.93,10.78-.93.66,1.9-7.64,5.63,4.54,5.56-8.51,15.64-5.66-.9c-3.12,10.17,6.68,14.19,8.1,20.89l20.46-7.07-8.38-12c4-4.71,2.7-14.43,13.79-14.1-1.22,3.69-3.84,7.47-2.85,9.37,3,5.75,7.38,10.79,11.29,16,.91,1.23,3.11,2.37,3,3.35-.87,7.41,6.06,10.2,8.79,15.43.91,1.75,3.42,3.49,3.18,4.89-1.84,10.54,6.06,17.24,10,25.32,2.7,5.52,7.78,9.88,13.09,16.33a52.75,52.75,0,0,0,.9,8.7c1.28,5.5,7.23,10,12,7.8,5.54-2.62,11.77-1.87,17.17-6.73,10.12-9.1,11.61-10.63,6.74-23.08l-15.31,4.5c-5.86-14.65-11.17-27.9-16.46-41.17-2-4.94-3-9.74,2.64-15.06l2.85,11.37h25.42c-1.07-11.86-8-.51-10.39-3.85,1.56-4.39,3-8.51,4.51-12.75-5.43-3.88-11.15-6.34-14.4-10.65-5.92-7.85-10.17-17-21.89-17.45-.64,0-1.34-.9-1.88-1.49q-11-11.94-22-23.9c3.52,1.63,7,3.42,10.58,4.85,3.33,1.32,7.18,1.66,10.15,3.49,5.09,3.13,9.68,7.08,15.75,11.66-.41-9.83-11-16.59-2.33-24.82-8.33-5-8.33-5-6.23-13,1.48-5.6-1.27-12.37-5.42-13.3s-11.82,4.47-12.47,9.37c-.42,3.16.15,6.44.2,9.67,0,2.88,0,5.76,0,11.28-5.1-4.54-7.83-7.46-11.08-9.59-1.08-.7-3.51.65-5.32,1l2.48,4.68c-2.94-1.14-6.11-1.92-8.74-3.56-1.88-1.17-3-3.48-5.09-6l8.07.63c-4-11-6.69-21.32-11.44-30.66-3.56-7-3.14-16.53-11.87-20.69-6.59-3.14-10.87-8.44-13.7-15.13-2.16-5.12-5.85-8.28-11.47-10.11-7.62-2.5-14.81-6.29-22.88-9.82l-6.32,3.07c.89,7.22.88,7.21-4.43,12.88-.78.83-2,1.87-2,2.78.34,9.2-6.93,11.88-11.45,15.24-6.53-2.28-11.8-3.8-16.81-5.92-10.13-4.3-10.1-4.54-4.7-14.65l-6.8-13c-9,1.59-15.94-10.51-25.94-2.19.5-8.18.9-14.78,1.31-21.4-10.18-4.3-10.17-4.28-21.07,1.64a6,6,0,0,1-3.48,1c-6-1.22-10.39,1-13.5,6-2.62,4.2-5.08,8.49-7,11.76,5.73,8.68,8.31-3.78,13.24.77l-11.87,17.72,9.4,8c-16.7-1.11-20.7.94-24.18,11.64-7.44-14.79-5.83-12.82-17.54-12.31l-2.11-5c-3.93,0-9,1.54-10.89-.27-8.44-8.14-18.22-3.81-27.47-4.41-2.75-.17-6.32-.08-8-1.68-4.93-4.63-10-4.15-15.91-2.83-7,1.57-14.06,3-21.24-1.5-2.61-1.64-7.9-.21-11.48,1.13-8,3-15.5,7-23.37,10.16-5.55,2.25-15.78,13-15.63,17.45.23,7.25.81,14.49,1.06,21.73s-2.32,11.82-7.19,12.14c-7.55.5-6.54-5.39-7.08-10.23-.89-8-3.36-9.81-11.43-7.85-4.7,1.14-9,3.82-13.73,5-3.95,1-9.2,2.57-9.49-5.77,9.67-.53,17.8-3.57,21.75-13a3.63,3.63,0,0,1,1.82-1.6c7.86-3.27,11.17-10,12.52-16.06,18.49-4.56,35.83-7.75,46.7-23-1.63-4.1-2.13-7.15-3.83-9.22-3.24-3.94-6-10.21-12.11-8.78-7.66,1.8-14.56.17-21.73-1.46-5.57-1.26-6.09,2.37-5.89,6.49l.34-.31-5.79-4.59v11.1H1181.3c-1.66,5.35-3.19,10.3-5.19,16.78-3.73,2.29-8.61,6.11-14.13,8.4-4.46,1.86-8.54-1.55-9.57-6.83-1.11-5.71,2-7.15,6.39-6.86.83,3.46,1.5,6.31,2.21,9.31,9.81-1.91,9-10.24,12.29-16-3.3.59-6.57,3.61-8.57,2.92-12.43-4.25-22.73.44-32.94,6.45a4.48,4.48,0,0,1-1.18.34c-10,2.35-20.08,4.2-29.84,7.22-8.6,2.65-16.6,3.09-24.93-3,.39,2.71,1.14,4.53.64,5-4.84,4.5-8.07,9.22-6.2,16.47.36,1.36-3,3.7-5.08,6-4.1-5-3.25-14-11.5-12-6.77,1.64-2.72,8.36-4.43,13.27-9.59-.66-17,4.3-22.81,11.45-2.27,2.81-4.53,9-3.15,10.7,3.94,4.74.56,7.28-.91,10.84a21.44,21.44,0,0,0-1.83,8.87c.18,3.9,1.43,7.75,2.33,12.18,9.82-.82,18.44,2.21,27.4,6,2.06,7.31-1.19,16.44,6.14,22.74.82.71-.45,3.8-.7,5.8-.34,2.66-.63,5.33-1.08,9.24l15.68-3.95c.5,7.41-4.26,8.1-8.64,9.26-3.5.93-9.35,1.12-10,3.08-2.36,6.68-8.68,2.67-12.15,5.22-.41,4.07-.76,7.65-1.13,11.29l10.28,2.39c.26,4.28.46,7.68.69,11.6l8.68-2.9c8,14.71,8,14.71,5.62,22.37-1.7-3.58-3.16-6.64-4.82-10.12-6.48,8-6.24,11.51,1.25,26.58l49.46-31.17c-.85-2.63-1.83-5.62-2.37-7.29l23.58-3.82c1.37,5.22-6.57,8.68-1.06,14.53l14.89-8.42-7.8-7.21,12.93-1.69c.78-2.71,1.51-5.26,2.28-7.92,8.66-.83,17.21,6.54,24.45-2.71L1190.3,1240c-1.68,3.71-3.21,7.43-5.09,11-.39.71-2.12.71-3.6,1.15.24-2.93.45-5.41.84-10.22-24.88,8.53-46,21.58-67.44,30.35-5.86-2.72-6.41-11.64-12.16-8.33l-8.17,17.83c1,1.85,2.77,4.19,3.64,6.82,1,3.07,1,6.47,1.9,9.6,3.4,12.13,9.14,16.48,21.32,15.74l-2.54-8-.3.18,7.53-1,10.56,25.81-5.55,7.7c2,.88,3.24,1.13,4.07,1.87,7.43,6.63,14,14.25,23.85,17.87,1.82.67,2.72,4.68,3.41,7.31s.56,5.34.91,9.41c3.61-1.13,6.71-1.23,8.48-2.81,6.63-5.93,13.82-11.63,19-18.75,6.89-9.59,16.21-10.49,26.22-11.73.56,5.73,1,10.43,1.49,15.14l-6,1.79c4.57,2.66,6,9.23,12.76,8.41l-7.17-10.51,16.37,2.78c2.25-3.41,3.75-7,6.43-9.21,1.63-1.33,5.46-1.16,7.6-.15,1.12.53,1.5,4.53.85,6.51-.89,2.71-3.09,5-5.67,8.87,5.43-.42,9.17-1.42,12.57-.72,2.14.44,5.43,3.49,5.34,5.22-.34,6.29-1.93,12.52-3,18.78-.35,2.16-.42,4.37-.62,6.56,11.62,1.09,5.51-11.18,11.44-13.89l11.28,8.66,16.95-15.33-10.12-18.27-14.84-2c1.46-3.4,2.44-5.69,3.05-7.13,5-2.12,10.94,8.72,13.83-2-6.75-5.68-16-6.38-20.9-12.69,16.05-6.51,31.9-10.29,48.25-3.59,1.2-7.17,2.13-12.78,3.2-19.17l-15.47,4.25c-.87-6.77-1.65-12.8-2.57-19.93l-13.92,7.29c-10.45-9.31-10-13.86,2.2-17.74,9.45-3,16.2-8.51,20.75-17.06-8.16-8.12-11.58-9.35-24.82-11.77-4.09-.75-8.18-3.27-11.5-5.94-3.06-2.46-5.07-6.22-7.48-9.31,9-17.27,11.76-18.31,32.38-11.86-.54,2.46-1.07,5-1.71,7.91,14.26-3.75,22.93-11,23.78-26.08.26-4.49,3.48-8.85,5.59-13.14.39-.79,2-1,3-1.43l9.59,7.7c1.5-6.64,2.62-11.58,3.26-14.39l14-16.26c8,3.48,14.52-.26,21-5.16,5.12-3.87,10.72-7.12,17.24-11.38,3.82,10.49,11.94,15.52,20.78,20,6.14,3.13,11.73,7.31,17.57,11l-12.71,1.28c-.16.84-.33,1.67-.5,2.51,3.25,1.29,6.65,3.88,9.72,3.53C1433.9,1193.59,1435.08,1189.84,1433.46,1186.17Zm193.81,573c-8.88,5.46-9.84,7.74-6.51,16.46,2,5.1,4.17,10.1,6.5,15.72,8.8-9.91,17.23-17.17,29.7-14.14,7.19,7,1,20.48,12.66,23.62l17.4-9.42c11.53,7.14,16.49,17.63,16.06,31.67,8.71-3.86,6.52-11.74,10.58-16.59l-12.06-10.24c9.69-3,10-9.85,10.4-17,.17-2.91,2.64-5.82,4.46-8.47,2.54-3.71,3.24-7.17.64-10.75l-16.16,4.84c5.12-9.44,1.86-21.2,16.32-21.45-4.65-6.45-7.44-12-3.1-18.78,1-1.58.13-4.57-.28-6.85q-1.92-10.8-4.16-21.53c-1.62-7.76-3.42-15.48-5.6-25.3,0,0,1.41-2.36,2.29-3.85-2-3.32-4.71-5.76-4.71-8.2s2.8-4.6,4.37-6.9l-1.67-1.58-9.43,5.07c-7.77-20.58-8-41.57-9-62.25-.66-13.58-3.75-25.66-11.27-36.82-3.14-4.66-3.93-9.55-.22-15.47l10.68,8.22c1.82-8.59-4.47-13.12-3.83-19.83l-6,3.89c-3.49-7-5.62-13.09.84-19,4.43.61,10.56,2.79,12.23-3.5a18.8,18.8,0,0,0-2-13.52c-1-1.57-7.7.46-11,.77-.37,4.84.53,8.88-1.07,10.59-2.74,2.93-6.72,2-9.93-.81a57.46,57.46,0,0,0-5-3.49l.35.31-3.14-20.11-7,3.68-7.77-8.63c5-2.81,4.84-6.67,1.93-11q-7.07-10.59-13.89-21.31c-3.56-5.57-7-11.23-10.44-16.83-.36-3.93,0-8.48-1.3-12.48-2.73-8.33-4.87-16.32-.79-24.88a15.48,15.48,0,0,0,1.14-8.2c-1-8-2.56-15.88-3.67-22.51-3.92-3-7.66-4.86-10-7.82-6.57-8.51-13.66-15.8-24.65-18.6-3.73-1-7-3.91-10.29-6.25-5.05-3.59-10.16-5.92-19.18-2.75,5.8,3.29,9.18,5.86,13,7.19,3.06,1.06,7.36.78,6.87,5-.36,3.2-2.62,6.43-4.73,9.1-2.42,3.07-6.26,5.12-8.29,8.35-2.74,4.34-4.35,9.4-5.66,12.39l5.86,11.12.2-.14-6.67.74c-3.11,10.25-2.85,19.34,3.4,27.78,1.27,1.72,1.49,4.22,2.19,6.36h.11l-11-4.45v10c-11.43-7.94-11.17-8-16.79-21.41a34.53,34.53,0,0,0-8.35-11.92c-2.93-2.65-7.41-3.6-11.21-5.3l8.69-14.57a14.48,14.48,0,0,0,1.6,2.17,23.15,23.15,0,0,0,2.88,2.09c.46-5.52,1.14-6.39,9.38-11.88l-8.16-4.73c4.42-6.68-4.11-12.3-.36-19.52a37.68,37.68,0,0,0-11.93,1.81c-7.43,2.42-10.29,1.32-13.46-5.71-1.32-2.94-2.52-5.94-3.94-8.83-.26-.53-1.32-.65-2-1l-2.9,3.27c-10-6.84-21.35-4.68-32.05-6,5.43-4.58,1.76-6.12-4-6.7,1.48,2.39,3,4.79,4.42,7.18-3,0-6.83,1.06-8.94-.35-5.22-3.49-10.78-7.41-14.14-12.52-3.48-5.3-7.62-4.58-12.23-4.62l.34.39L1428,1295l-9.3-.43,6.39-7.27,8,3.18c-2.26-3.26-5.5-9.73-6.7-9.37-8.91,2.66-10.89-6.72-17.18-8.47-2.81,2.18-9.41,1.9-6.69,9a23.57,23.57,0,0,1-6.34,2.63c-1.54.27-3.31-.89-5.46-1.57.79,4,1.37,7,2,10l.42-.52-15.76,13.15c-2.11-.2-6.83-1.49-7.31-.57a22.16,22.16,0,0,0-2.53,11.15c.08,1.37,4.85,4,6.59,3.46,6.22-2.09,8.89,1.27,11.89,5.53,1.77,2.51,4.55,4.29,6.74,6.53a17,17,0,0,1,1.91,3.4l-7.81,5.32c3.28,2,6.15,1.84,9,1.78,1.85,0,4.63-.68,5.39.25,4,4.91,9,3.91,15.26,2.32.76,6.4,1.41,11.84,2,16.66l-13.81,9,10,2.28c-3.88,19.49-18.58,30.39-37,26.11,6.88-2.16,7-7.08,8.28-11.78,1.59-5.68,2.11-10.14-5.18-13.63.81,3.53,1.39,6.12,2.09,9.21l-14.81,11.12c-1.19-5.72-2-9.45-2.75-13.22-8.67,1-3.69,9.85-9.65,13l-13.46-5.31,4.12-7.39c-5.06-4.88-7.9.08-11.79,1.44-4.93-2.41-10.26-8.78-16-2.22-3.46,4-6.75,4.12-10.76,2.67-4.68-1.68-8.7-1.47-13.23,3.89l5.65,3.74-4.13,9.81-9.38-12c-2,6.59-3.36,10.87-4.8,15.54-2.3-.26-4.32-.34-6.27-.73-10.66-2.15-18.19,2.5-23.86,11-.46.7.26,2.18.5,3.76l7.76-1.53c2,3.49,6.31,6.08,4.36,11.45h-12.66c2.09,10.79.55,18.53-11.48,21-3.54.73-6.24,5.5-10.35,9.38,5.16,3.06,8.36,6,12.07,7,7,1.8,8,5.82,4.48,14.27l19.52-7.54c7,11.59,7,14.13.11,22.74l-15.81-9.1-8.15,7.6,6,8.27c-4.57,3.59-8.41,7.13-12.77,9.85-3.14,2-4.25-.54-4.32-3.48,2.93-1,6.23-1.76,5.23-6.57-5.28.27-4.8,3.79-4.88,6.93-1.11.47-3.19,1-3.18,1.39.18,6.61-4.41,10.84-7.26,16-2.45,4.47-3.81,9.9.46,14.67,1.06,1.19,2.77,2.72,2.63,3.9-1.28,10.84,5.18,18.54,11.3,27.27L1225.17,1588c-7.12-.86-12.8-1.48-18.45-2.24-9.35-1.26-10.76-2.81-11.55-12.26-.74-8.88-3.23-11.74-12.08-14.35-2.63-.77-5.1-2-8-3.22.77-3,1.54-5.33,1.93-7.7,1.11-6.78-1.42-10.41-7.85-11.08-5.85-.62-11.73-.94-16.82-1.33-9.66,8.36-6.31,23.14-16.87,32.91-1.46-4.61-2.26-7.11-3.34-10.51-9.31,6-18,12-27.09,17.41-7.08,4.18-8.52,10.65-9.82,16.89,5.68.69,10.41.79,14.88,1.93,4.7,1.2,9.25-8.1,14.1.76-1.24,2.6-2.7,5.67-3.8,8l11.87,5c4.94-2.7,9-6.35,13.48-7,7.58-1.18,12.84-4.62,16-10.9l16,1.42c.59,7,1.13,13.33,1.79,21.05-1.29,1.76-2.92,5.45-5.75,7.52-5.25,3.84-11.24,6.68-16.85,10-9.24,5.55-9.28,9.55,0,17.51,1.17-.93,2.74-1.69,3.6-2.94,7.45-10.79,20.17-11.47,30.86-15.66,7.51-2.95,11.38,1,11.38,9.15,0,1.23-.24,2.45-.3,3.68-.37,7.09,1,13.09,9,15.48,4.39,1.33,6.51,4.62,7.16,9.1.4,2.77,1.26,5.46,2.09,8.94,15.34,1.32,28.33-7.77,41.88-7.85,5.57,2.69,10.83,4.67,15.44,7.64,3.94,2.54,10.3,4.78,4.84,11.85-.86,1.12.28,4.63,1.48,6.34,5.07,7.23,12.66,6.06,20.07,5.57,4.37-.3,9.13-1.18,13.09.11,5.67,1.83,10.76,5.42,16.45,8.44,6.47-6.78,13.19-10.17,21-1.94,1.18,1.24,3.76,1.4,5.74,1.61,5.31.58,10.66.91,16,1.33,1-7,4.62-10.21,13-12.59,6.91-2,13.92-4,20.29-7.26,3.37-1.71,6.57-5,9.69-2.12,2.7,2.5,4,6.79,5.17,10.52.51,1.65-.93,3.88-1.42,5.86-2.37,9.51,1.53,14.49,11.06,13.51,3.59-.37,7-2,10.58-3,4.92-1.37,9.86-2.65,14.8-4-.29,4.35-1.36,7.31-3.42,8.44-7.46,4.08-9.06,10.45-7.24,17.77,1.73,7-2.86,11.72-5,17.26s-6.28,8.18-12.72,7c-3.49-.65-7.25.22-10.87.06s-7,.66-7.29,4.73c-.37,5.09,3.79,5.34,7.59,5.88,4.36.62,9.92.29,12.71,2.83,5.09,4.65,13.39,5.82,14.43,14.19,8.06-5,15.69-8.63,22-13.85,7-5.75,16.9-4.77,24.07-11.67-3.79-1.92-6.86-3.89-10.22-5-2.13-.72-5.63-1.23-6.88-.07-6,5.58-14.33,9.23-16.09,18.49l-16.56-8.26-1.64-2.8c14.92.48,16.94-11.78,19.64-19.73,2.75-8.12,5-13.69,14.55-15.24l-8.17-13.55c7.29,3.87,12.15,6.82,17.11,1.1,14.74-17,32.82-15.79,51.52-8.27,5.65,2.28,10.68,3.06,16.56.76a36,36,0,0,1,14.28-2.8c6.8.33,12.94-.08,18.79-4,4.3-2.86,8.18-2,10.85,1.94-3.14,3.54-8.25,7.08-7.7,9.08,1.69,6.19-2.55,6.79-5.78,9-2.84,2-7.4,4.35-7.51,6.73-.28,6-3.37,8.48-8,11-5.27,2.84-10.08,6.54-15,9.83l4.65,11.79c-20.79-8.08-45.15.36-38.26,32.86l18,4.36,5.21,16.89c11.84-2.14,23.47-4,35-6.38,15.86-3.28,24.76-16.72,24.73-33,0-14.4-2.9-29.42,4.83-43.06l-.34.31c2.72.6,5.4,1.34,8.14,1.78,7,1.14,12.75,4,15.89,10.59-4.9,6.75-4.9,6.75-4.69,12.8ZM360.64,1039.82c3.31,5.63,5.95,10.54,2,16.52-.64,1,1.17,3.53,2.77,7.84l5.55-13.66,6.79,18.1,6.87-15.68,27.27,18.47c-.8-11.56-1.44-12.2-9.59-15.24-3.45-1.28-6.51-3.6-9.74-5.44.36-1.1.73-2.19,1.1-3.29,2.81.24,6.17-.42,8.31.91,4.74,2.93,8.3,1.78,12.32-1.15,9.55-7,12.89-25.34,5.68-34.78-2.88-3.77-6.91-6.65-10.38-9.9a23.15,23.15,0,0,1-2,1.46c-1,.54-2,1-3.36,1.6-.92-1.78-1.75-3.15-2.35-4.62-4.13-10.11-4.09-9.93-15.68-8.49-5.1.64-9.88-.22-11.51-6.48-2.73-10.49-8.25-18.78-18.54-23.45-2.11-.95-3.63-3.22-6.15-5.55,9.52-8.34-6.09-14.74-1.35-23.72,1.66.08,3.21.28,4.74.2,8-.4,13.24-5,11.65-12.15-1.38-6.18-4.92-12-8.36-17.48-.89-1.42-6.36-2.06-7.34-1-4.48,5.07-14,4.92-14.58,14.07-.12,1.7-2,4.36-3.5,4.68-6.44,1.42-6.6,6.57-7.42,11.3-.91,5.24-1.1,10.62-2.28,15.79-1.35,5.87-1.9,13-5.56,17-6.68,7.42-8.07,15.42-5.69,23.89,4.14,14.79,3.43,29.13-.79,43.63-2.36,8.1-2,15.87,2.18,23.72,2.21,4.1,2.58,9.38,3,14.19.64,7.29.66,14.64.82,22,.05,2,.34,4.4-.59,6-5.3,9-3.16,18-.83,28.27,7.33-2.89,8,2.33,9.88,7.08,1.66,4.16,4.72,7.77,7.16,11.62l-1.49,1-5.29-3c-2.46,2.77-5.36,5.2-7.17,8.28-2.78,4.73-5.11,11.7-.12,14.64,11.52,6.8,4.06,24.79,18.44,29.17.41.13,0,2.38.31,3.53.8,2.71,1.82,5.36,2.43,7.11,7.28,1.69,14.3,2,20,4.94,8.2,4.25,16.71,5.9,25.57,6.91,11.94,1.37,16.72-3.56,14.36-15.23a32.24,32.24,0,0,0-4.4-10c-6.5-10.65-7.06-22,1.64-31.24,10.4-11,10.3-23.22,8.47-36.52-.84-6.11-1-12.33-1.55-20.07l-21.85-17.78-6.27,11.75L361.91,1085l-2.12,1v14.63l-9.56-10.91c1.41,9.39-.07,14.31-7.52,15.18-.42-2.55-.12-5-1.19-6.45-5-6.58-3-12,0-19.13,2.34-5.68-.45-13.56-1.38-20.41-.16-1.12-2.35-2.23-3.8-2.85a76.94,76.94,0,0,0-7.54-2.3c.69-3,1.26-5.54,1.93-8.43l9.45,2.73C346.85,1038.91,346.85,1038.91,360.64,1039.82Zm934-547.5c-5.27,6.78-9,12.35-13.53,17.13-2.84,3-6.45,3.78-11,1.12-10.18-5.89-20.91-8.85-31.91-1.19-1.83,1.28-4.37,1.56-8.07,2.79,3.93,3.48,6.94,8.43,10.45,8.82,8.73,1,12.08,6.79,16.55,13.16V522.64c11.08,9.64,22.92,7.14,33.82,9.66,3.87.9,7.21,2,5.87,7.05-4.48,3.85-11.88-2.57-15.22,4.55,6.65,6.2,9.19,6.17,25.92-.69l1.09,9.13L1291.41,557c-1.76,3.18-2.78,8.1-5.42,9.22-8.14,3.47-6.07,9.1-4.85,16,6-.28,13.69,1.6,17.54-1.4,4.8-3.73,6.47-11.48,9.58-17.68,8.63-1.87,13.52,2.28,15.51,11.07,2.59-12.49,11.35-4,18.23-5.11-1.77-5.62-3.3-10.48-5.18-16.47,11.57,4.26,21.6,7.29,31,11.64,6.48,3,13.28,6.82,12.9,16.08,0,1,2.84,2,5.65,3.89-1.1-9.58,10.76-15.25,1-26l21.52-2.79c2.84,13.23,10.06,22.56,20.09,30.57,3.5-3.1,7.12-4.6,4.09-10.21-1.74-3.22-1-7.81-1.14-11.79,0-.48,1-1,2-2,.89,3.51,1.72,6.72,2.48,9.72,3.31-1.78,5.71-4,8.28-4.28,7.07-.64,9.31-2.65,5.93-8.28-7.78-12.94-11.44-28.93-27.44-36-9.16-4.05-16.55-11.67-28.11-10.36-4.09.46-9.63-2.58-12.83-5.73-5.37-5.3-11.49-8.71-18.06-12-4.94-2.48-9.12-6.5-13.51-10-5.2-4.13-10.78-5.32-18.62-3.37l19.22,16.51c-7.39,3.28-12.53-5.25-20.11.65,3.91,2,6.84,3.06,9.13,4.88s5.42,4.3,5.89,6.9c1.5,8.3,1.94,16.79,2.92,26.48-5.27,0-10.78,1.68-13.84-.35-6.33-4.19-15.88-5.74-16.36-16.45-.13-2.8-2.86-6-5.21-8.07-3.61-3.21-8.43-5.12-11.78-8.52C1298.84,500.65,1297.06,496.31,1294.59,492.32ZM834.08,417.78l4.76-10,7.46,15.49c-2.39,3.58-5.44,6.67-6.71,10.36-2.42,7.06-7.51,7.58-13.49,7.06-2.19-.2-4.37-.43-6.7-.66,0,11.31,7,21.85-1.34,31.84l11.67,3.79c1-3.06,2-6.16,3-9.27l2.52-.21,8.22,16.75c6.58-2.87,6.62-7.59,3.81-12.21-3.83-6.32-1-10.57,2.7-15.1,8.56,2.82,5.63,10.38,7.19,14.63l19.7,3.36c9.89,10.12,5.67,22,8.41,33.2,8.92-.77,17.35-2.06,25.77-2.06,8.86,0,17.71,4.54,27,.81-.65-1.3-.73-1.82-1-2a10.26,10.26,0,0,0-3.23-1.49c-10.51-1.57-15-8.9-17.57-18.12a40.18,40.18,0,0,1-1.5-6c-1.27-10.64-11.54-13.46-17.46-20-.84-.93-3.16-1.25-4.53-.87-7.1,2-8.73-2.94-9.74-7.88-1.18-5.79-1.62-11.72-2.48-18.24-15.62,8.35-18.7-6.64-26.8-12.2,7.78-13.39,20.43-5.16,31.32-8-1.67-7.09-3.22-13.64-4.85-20.57-12.2,2-17.92-3.09-22.68-13.15-3.42-7.23-11-12.9-17.66-18.07-5.07-3.93-9.66-1.32-9.68,5.37,0,7.33-2.66,12.29-8.42,16.61-2.44,1.83-3.38,5.66-5,8.48,5.35,3.22,11.66-1.83,14.2,4.89C822.78,407.16,823,408.91,834.08,417.78ZM1108,415.09l-20.76-6.19c2.27-3.08,4-5.4,6-8.1-14.31-3.27-14-3.16-18,8.67-2,6-4.42,12-10.78,15.59-5.25,2.95-6.06,8.18-4.39,13.77,17-.75,17.62-.24,13.73,11.37-6.61-5.17-14.14-7.58-21.53-3.26-5.26,3.08-9.09,1.55-13-1.58-6.19,5.23-7.4,11.05-4.48,17.4-3.91,1.54-6.83,3.22-10,3.75s-7.31,1.1-9.18-.51c-10.29-8.82-18.72-3.83-27.07,1.92-.36,5.33-.66,10-1.05,15.83,6.27-3.5,12-7.17,18.18-10,3.5-1.58,7.61-2.07,11.51-2.44,5.16-.49,10.5.28,15.54-.66,11.37-2.12,21.94-2.54,29.78,8,.31.42,1.53.17,2.9.28.74-1,2.27-2.23,2.45-3.6.92-6.65,3.73-9.6,11.18-10.07,7.14-.45,14.06-4,21.13-6,4.24-1.2,9.12-3.75,12.73-2.61,3.83,1.21,6.5,6.08,10.17,9.85,5.36-3.87,9.15-11.35,19.82-10-3.52-6.75-6-11.49-8.8-16.86l-9,6.83c-5.57-9.59-10.7-18.32-15.71-27.12A21.87,21.87,0,0,1,1108,415.09ZM788.13,1579.29c-5.73.44-10.2.71-14.64,1.15s-9.76-2.29-13.06,3.77l9.19,7.15c-1,5.51-1.63,10.14-2.69,14.68a6,6,0,0,1-2.74,3.67c-6.73,3.18-4,7.28-1.28,14.37l17.17-26.77,34.11,18.89c1.52,4.49,3,10.32,11.11,11,2.37.21,4.43,4.19,6.58,6.49,1.48,1.59,2.86,3.27,5.4,6.19,2.27-10.3-5.06-16.62-5.44-24.13,4.61-3.63,6.48-.29,9.66,1.77,6.33,4.08,9.56,13.44,19.06,12.37,3.63-6.94,12.44-10.51,9.64-19.39,12.25-5.29,13.11-7.46,8.3-18.61-1.76-4.09-3.37-8.24-5.49-13.44-4,2.33-8.43,3.6-10.46,6.53-1.62,2.35-.33,6.72-.33,12.39L849,1585.19c-1.83,3.76-3.18,6.54-4.33,8.92-5-2.83-9.28-5.95-14-7.63-3.91-1.39-9.23.7-10.82-5.57-.09-.39-4.49-.35-6.36.56s-3.05,3.15-4.91,5.23L778,1559.31l-2.22,1.71ZM102,711.44c12.55-1,20.2-6.76,18.89-16.61-1.17-8.82,3.18-11.57,9.13-14.92A46.43,46.43,0,0,0,140.89,672c2.36-2.48,5-6.31,4.78-9.34-1-14.54-2.63-29.07-5-43.45-.43-2.68-5.2-4.65-9-7.79l-2.14,8.86c-6.25,3.11-11.5,8-16.54,7.76-11.31-.45-12.35,7.62-12.78,14.28-.61,9.31-4.19,17.26-6.92,25.78-2.26,7-3.72,15.28-2.27,22.32C92.54,697.63,98,704.05,102,711.44ZM1316.9,1261.36c4,13.5,7,25.78,11.25,37.6,3.51,9.7,7.4,10.48,17.2,7.18,16.38-5.52,28.26-17.76,41.92-27.33,1.48-1,2.18-3.22,3.5-5.28-7-7.48-15.26-11.1-24.54-13.42-6.61-1.64-13-4.28-19.4-6.66-5.38-2-7.52-5.69-5.41-11.4.11-.28-1.09-1-2.5-2.34l-7.13,4.42,5.2,5.58-9.13,5.76-5.94-4.15-8.81,8.25Zm-963.27,84.12c4.84,8.81,9,17.25,14,25.18,4.55,7.24,10.3,13.72,15,20.91,5.75,8.86,12.1,17.62,16,27.29,5,12.4,7.72,25.73,11.85,38.53,2.9,8.95,8.51,15.65,17.5,18.12,7.37-2.88,8.42-7.59,6.21-14.06-2.37-6.93-3.32-14.43-6.34-21-3.73-8.15-7.35-17.76-14-22.77-6.37-4.8-8.74-9.58-10.52-16.46a45.11,45.11,0,0,0-14.42-23.64c-5.67-4.91-9.43-12.09-13.8-18.42-2.54-3.68-4.14-8.11-7-11.44C364.72,1343.86,360.73,1339.53,353.63,1345.48ZM697.3,1595.37c-1.83-4-3.1-7.53-5-10.65a4.85,4.85,0,0,0-4.17-1.62c-1.27.25-3.19,2-3.21,3.06-.23,12.06-6.4,25.16,6.43,35.11,6.65-1.24,11.74,2.66,16,7.88,12.44,15.2,19.3,17.52,34.94,6.17a38.54,38.54,0,0,1,5.1-2.62l-16.2-22.44c-12.64-5.55-15.2,7-22.34,11.83-6.13-4.53-7-9.95-4.37-16.19C708,1597.63,707.48,1596.7,697.3,1595.37Zm234.56-1073c-7.3-2.71-14.8.67-15.69,4.39-2.16,9-9.82,12.87-13.89,19.73-1.19,2-3,4.67-2.52,6.5,2.81,10.55,6.1,21,9.48,31.38,1.06,3.29,6.73,5.2,2.84,9.93,2.14,1.29,5.2,4.2,6.27,3.6,6.17-3.51,16.72-1.14,17.52-12.27,0-.36,1.18-1,1.71-.89,9.43,1.56,6.42-6.61,9.44-10.17-4.54-4.1-7.91-4.49-12.51-1.6-5.5,3.44-19.46-1.78-18.76-7.27.81-6.42-4.06-8.35-5.74-12.48,5.18-13.26,18.3-8.26,27.73-12.12C923.71,533.36,925.84,535.05,931.86,522.39Zm377.42,1438.68c5.32-3,9.86-1.52,12.91,4,2.76,5,5.77,4.82,10.31.17l-15.72-11.9c5.53-1.38,10.85-2.58,16.1-4,5.44-1.52,10.95-2.26,14.12,3.45,4.57,8.24,10.59,7.55,17.14,4.27,1.35-3.63,2.17-7.14,3.89-10.14s4.24-5.25,6.3-7.7c-3.08-4.87-6.65-3.89-9.74-1.46-4.78,3.75-10.19,6.7-15.74,4-4.5-2.22-7.83-6.8-11.24-9.93-13.24,3.57-24,12.32-35.12,21Q1305.22,1956.08,1309.28,1961.07Zm245.52-702c4,7.41,6.77,12.54,9.56,17.69l-7.82,3.89c2,2.5,3.72,6.32,5.2,6.22,3.1-.21,6.06-2.48,9.57-4.13,9.09,10.45,21.21,17.83,29.83,30.92,2.84-10,5.2-18.59-3.66-23.79-8.23-4.82-13.64-10.81-15.54-20.16-.62-3.07-2.2-5.93-3.24-8.92-1.75-5.06-8-9.62-12-8.38-.73,2.66-1.53,5.52-2.3,8.3Zm-20.16-654.41c-1.67-6.57-5.81-7.75-10.07-9.38a16.36,16.36,0,0,1-7.2-5.67c-5.34-7.66-10-15.75-15.23-23.51-8.42-12.59-20-21.38-35.52-28.23,4.78,8.66,8.17,16,12.66,22.63,5.69,8.36,13.77,15.37,18.15,24.28C1505.27,600.71,1519.57,601.4,1534.64,604.66ZM779.64,1515c-6.67,1-14.46,1.26-21.59,3.54s-6.91,11.36-11.42,19.11c-1.39-5.82-2.19-9.16-3-12.4l-10.71.52c.82,4.93,1.66,10,2.57,15.45,7.3-2.11,13.27,1.36,16.82,5.73h14.83C775.73,1539,786.17,1530.92,779.64,1515Zm405.23-1101.6c4.27,1.7,7.59,4,11.05,4.23,11,.82,21.44,3,31.55,7.71,3.09,1.45,8,0,11.71-1.27,2.21-.76,3.66-3.75,6.92-7.35-12.79-4.46-22.47-11.92-34.91-13.65-6.13-.85-12.07-3-20.15-5.11l-6.17,3Zm150,1672.8c-6.77-5.13-12.32-9.18-17.69-13.47-7-5.6-13.91-11.38-20.85-17.11a22,22,0,0,1-3.5-3.15c-9.18-11.89-18.23-23.88-27.51-35.69-.85-1.08-3.07-1.07-4.65-1.57,2,4.84,5,8,7.93,11.3,2.15,2.44,5.37,4.81,5.92,7.64,3.24,16.68,15.8,27.54,25.44,39.86,4.43,5.65,8.34,17.92,20.74,11.42.14-.07.7.43.9.77C1326.13,2093.69,1330.16,2088.7,1334.9,2086.21ZM1143.73,454.27c4.08,2.56,6.3,3.76,8.3,5.25,2.19,1.64,5.9,3.5,5.93,5.33.13,6,4.17,7,8.31,8.75,3,1.27,5.58,3.46,9.13,5.75-.25-5.33.07-9.88-.8-14.2-1.07-5.36-.76-9.72,4.5-12.57s10-5.23,15.75-.77,13.07,3.76,20.16,4.06a56.68,56.68,0,0,0-12.08-9.2c-4.39-2.51-9.09-4.5-13.65-6.72-4,6.4-11.73-.85-15.45,3.75s-8.17,4.39-12.9,5.32C1155.88,450,1151,452,1143.73,454.27Zm-97,448.32c3.56.51,6.83,1.49,7.12.93,3.06-5.93,8.9-2.22,13.14-4,4.61-2,9-1.74,12.11,4,1.51,2.78,5.94,4,9.05,5.86l-2.28,2.48c-1,2.51-1.93,5-3.14,8.19,8.57,1.48,15.91.72,23-4.2-.36-4-.7-7.79-1-11l16.33-6c-3.53-3.75-6.26-6.63-8.44-8.93-12.2,1.73-14.78,9.09-13.14,20.73L1086,906c1-2.91,1.67-4.38,2.07-5.91,1.69-6.47.07-8.86-6.06-6.82-6.31,2.1-10-.12-13.25-4.73C1060.6,891.32,1052.42,892.85,1046.75,902.59Zm309.37,999.5c-5.11-14.9-8.69-16.69-22.65-13.57-10.24,2.29-20.22,4.5-29.75-4-4.13-3.71-11.39-4.11-17.35-5.5-1.58-.37-4.7.73-5.18,1.92-.78,1.95-.91,5.55.32,6.69a135.53,135.53,0,0,0,18.15,14.49c2,1.28,6.59.49,8.86-1,8.13-5.46,17-8.54,26.09-6.41C1341.59,1896.28,1348.25,1899.3,1356.12,1902.09ZM775.82,406.74,800,428.21l-7.63.56c5.56,9.74,6.53,10,14.93,6.37,3.56-1.55,7.64-1.95,11.13-3.6,2.14-1,3.63-3.42,5.72-5.52-15.26-6.67-15.26-6.67-12.1-19.28Zm27.11,1132.85c8.25-9.77,8.57-11.64,3.52-19.5a107.12,107.12,0,0,0-6.85-10.18c-2.33-2.84,6-5.72-.52-8.87-1.45-.69-.22-7-.22-10.77-7.92-3.11-5,5-7.9,7.47l-5.78-10A51.28,51.28,0,0,0,786,1507c1.48,6.21,4.1,12.14,6.29,18.37-2.8.89-4.6,1.43-6.36,2.06-.12,0,0,.7,0,1Zm335.85,117.55-11.2-1.18-3.2-8.21-13,1.64c7.51,5.4,6,9.47.48,13-1.36.88-3.41,1.26-4.13,2.46-1.29,2.17-2.71,4.92-2.36,7.17.24,1.62,3.77,4.33,5,3.93,6.55-2.17,10.47,2.87,14.78,5C1137.37,1677.23,1133.26,1665.29,1138.78,1657.14ZM954,1495.24c-4.17,1.07-6.28,7.45-10.15,5.09-6.39-5.32,4.86-7.75-.46-12.45s-7.61,3.33-12,2.2c-4.61-4.93-4.61-4.93-11.27-6.53-2.78,10.7,1.85,22.27,11,27.14.36.19,1.3-.7,2.33-1.29l-6.52-7.11c2.68-.94,4.93-2.28,5.39-1.82,6.54,6.54,12.83,13.33,21,22C953,1512.12,958.86,1504.2,954,1495.24ZM975.73,415.91c.72,6.33,1.17,10.32,1.71,15.13-10-1.13-19.05-1.4-27.7-3.36-7.17-1.63-10.78,4.68-16.62,5.71-.8.14-1.86,5.32-1,7.35,2.32,5.17,7.23,5.78,12.5,5.38,7.29-.57,7.78-7.05,10.2-12.66l29.58,9.09C980.75,434.27,988.78,424.29,975.73,415.91ZM814.56,1692.41c2.45,3.45,5.32,7.29,8,11.26,3.93,5.88,8.83,9.65,16.22,10.9,4.89.83,9.39,4,14.06,6.21,2.32,1.09,4.61,2.24,6.91,3.36.29-4.09-.66-8.24-2.61-8.78-9-2.51-12-9.71-15.35-17.07-3.58-7.9-6.2-9.15-14.23-7.93C823,1691,818.55,1691.78,814.56,1692.41Zm-537.1-664.64c-.61,10.28-.77,17.84-1.6,25.33-.66,6,4,11.82,8.73,8.89,5.34-3.29,8.7-.59,13.44,1.39,1.47-13.88-6.63-23.17-11.94-33.24C285.09,1028.24,280.14,1028.43,277.46,1027.77Zm168.75,67.31c3-1.34,5.38-3.25,7.81-3.33,8.55-.27,8.39,0,8.49-7.55.07-5.4-1.28-9.62-6.81-11.72-5.94-2.26-11.71-5-17.78-6.86-1.55-.46-4.49,1.48-5.73,3.13-.66.88.47,4.68,1.58,5.1C443.48,1077.51,444.25,1086.48,446.21,1095.08Zm1242.41,392.76c-1.71-6.25-5.23-11.8-4-15.91,4.18-13.81-5.76-19.37-12.7-27.86C1662.67,1461.91,1668.13,1476.06,1688.62,1487.84Zm-806.5,182.65c-2.4,11.54,5.79,14.43,10.06,19.75,6,7.41,13.43,4.8,21.75,4.58.38-4.8.71-8.91,1.18-14.83l-7.3,4.24ZM1212.88,437.15c.78,16.25,12.24,18.07,21.85,20.92,6.94,2.06,11.61-4.67,8.57-11.37-1.3-2.86-3.31-5.4-5-8.06-4.36,1.09-8.28,3-12.09,2.76C1222.16,441.17,1218.2,438.94,1212.88,437.15ZM775.32,749.75a9.48,9.48,0,0,0,.5,1.68c4.87,8.06,7.61,15.94,1.55,25-2.15,3.23-1.84,8.1-2.77,12.77,8.79-1.06,8-7.43,9.8-12.07s4.56-8.88,4.87-13.45c.31-4.8-3.38-10.06-2.48-14.56,1.2-6,.85-9.93-5.06-14ZM1299.73,431c-2.6-8.63-7.8-13.6-14.36-16.93s-13.46-5.68-20.69-8.66C1269.38,423,1281.58,432.11,1299.73,431ZM876.31,1640.29c-8.72-2.16-17.17-4.52-25.75-6.19-1.82-.35-5,1.28-5.95,2.93-.86,1.49-.19,4.68.93,6.37C854.2,1656.46,867.2,1655.37,876.31,1640.29Zm81-87.55c-1.81-5-3.47-9.49-5.29-14.44l-5,5.57c-5.18-3.27-9.57-9.83-15.74-2.71-1.29,10.53,10.11,14.14,12.31,22.76.15.62,1.11,1,1.52,1.38L956,1561l-9.46-4.22,1.28-2.2Zm24.85-1072c-1.77-9.31-8.44-11.19-15.05-12.6-8.18-1.75-7.4,6.28-9.07,10.22-1.38,3.25.5,8,1.4,12,.12.54,3.29,1.17,4.45.57C970.23,487.67,976.35,484.05,982.19,480.76Zm-591.07-23c-16.76.63-37.91,23.36-43.68,46.8,1.9-.94,3.71-1.25,4.4-2.29,3.57-5.38,7.39-10.7,10.12-16.51,3.94-8.4,9.92-13.74,18.8-16.33C386,467.86,390.63,465.21,391.12,457.72ZM1474,2055.8l.32,2.22c6.88.83,13.81,1.42,20.65,2.54,12.22,2,23.46.81,32.93-9.11-6.09-3.4-11.31-4.31-18.36-1.19-6.8,3-15,3-22.56,4.11C1482.68,2055,1478.33,2055.33,1474,2055.8Zm-883-536-15.32,5.94-9-11.48c0,3.46-.62,5.42.1,6.46,7.13,10.28,14.24,20.6,21.94,30.46,2.35,3,6.38,3.27,9.22-.42-.14-.65-.1-1.2-.32-1.34a41.37,41.37,0,0,0-5.18-3c-11.39-5-12.09-8.86-3.75-19.16C589.87,1525.73,590,1523.26,591,1519.83ZM401.37,883.53c-9.86,11.46-8.45,15.13,9.83,30.8,4.17-2.34,5.94-5,2.59-9.69-2.21-3.12-3-7.2-4.93-10.56S404.36,887.68,401.37,883.53Zm291.3,15.15c14.11-8.37,17.46-15,14-26.59l-8.21,6.84c-3-.51-5.31-1.61-7.11-1-1.38.46-3.1,3.22-2.85,4.66C689.37,887.57,691,892.45,692.67,898.68ZM472.42,1256.44c2-14.42,3.89-27.65,5.74-40.88l-2.57-1.4c1.28,11-7.06,13.51-14.82,17.67C467.84,1238.76,464.47,1249.75,472.42,1256.44Zm1185.3,181.43c8.21-6.24,8.45-7,3.22-12.1a46.93,46.93,0,0,0-8.51-6.93c-7.55-4.47-13.57-1.36-17,10.2l12.19-3.59ZM1329.28,433c-2.54,16.85.59,23.71,11,24.05C1343.21,439.67,1342.58,438.3,1329.28,433ZM199.52,529.76c-10.44,3.33-18.28,5.81-26.11,8.34-2.3.75-5,1.12-6.69,2.63-1.44,1.31-2.7,4.46-2.06,5.93s4,2.57,5.82,2.14c3.45-.84,6.66-4.28,9.87-4.14C190.18,545.1,193.39,538.2,199.52,529.76ZM1627.65,1880.41c10.82-1.13,3.7-15.44,14.44-14.94-1.74-3.48-3.29-6.57-5.61-11.18l-16.25,15.2Zm-279.47-829.2c-6-2.48-11.58-5-18.87,0,.44,4.63.91,9.62,1.25,13.24h13.13ZM357.47,654.66c.54-4.76,2.14-8.47.93-10.57a26.29,26.29,0,0,0-9.21-9.18c-2-1.19-5.65.35-8.55.66.68,2.87.46,6.64,2.23,8.43C346.48,647.63,351.16,650.19,357.47,654.66Zm800.5-123L1142,543.93c.32,1.07.65,2.13,1,3.19,9.47-3.68,18.4-1.14,27.7,1.53C1170.66,539.87,1164.1,537.15,1158,531.65ZM288,1079.42c-3.88-9.82-7.61-12.91-15.33-11.16-2.21.51-5.16,3.18-5.5,5.23-.45,2.73.82,6.15,2.41,8.59.61.94,4.16.19,6.31-.16C279.62,1081.3,283.35,1080.39,288,1079.42ZM1083.82,1624c4.65,3.39,8.22,8.53,13.21,3.43,2.13-2.17,3.72-6.77,2.88-9.41-.9-2.83-5.07-6.66-7.62-6.52C1085.64,1611.9,1085.38,1618.28,1083.82,1624Zm247-595.65c-4.89-.81-8.2-1.48-9.8-6.91-1.74-5.94-8.11-5.22-11.49.74-1.09,1.92-1.52,4.2-2.21,6.17l18,8.18c.44-.75,1.22-2.19,2.11-3.54S1329.27,1030.52,1330.85,1028.39ZM1274.73,446c3-12.63-.66-16.41-15.26-17C1260.52,439.66,1263.46,443.08,1274.73,446ZM504.87,892.57c-1.71.1-3.77-.33-5.25.41-7.1,3.56-10.26,10.11-11.72,17.43-.36,1.84,1.42,4.1,2.21,6.16,2-1.46,4.81-2.5,5.87-4.48C499.08,906.32,501.48,900.17,504.87,892.57ZM570.1,737.12c-3.57,8.92,1.76,14.77,4,21.9,6.57-7.67,9.51-17.64,6.44-21.1ZM420.35,1338.07l20.31,4.49,4.14-10.31C434,1326.57,427.92,1332.78,420.35,1338.07Zm226.36,152.31c-13.54,9.08-13.88,13.09-2.22,19.28C650.69,1500.26,650.71,1500.1,646.71,1490.38Zm1018.73,370.5-4-.24v42.62c1.37-7,3.25-13.86,3.9-20.79C1666,1875.33,1665.44,1868.08,1665.44,1860.88Zm-354.5-936.67,7.67-3.62c2,4,3.8,7.81,5.64,11.61,8.27-4.52,8.27-4.52,1.52-17.42C1315.19,916.25,1315,916.33,1310.94,924.21ZM975.65,448.92c1.8,11.86,10,6.94,15.48,8.12,4.85,1,6-2.65,6.81-6.88l-9.3-6.88C987.34,452.62,980.68,448.3,975.65,448.92ZM610.36,1252.23c5.44,16.8,5.44,16.8,14.18,19.27V1257ZM805,530.18l9.22,14.42,8.1-14.1c-3-1-6.05-1.23-7.49-2.84-1.86-2.06-2.43-5.27-3.79-8.55Zm-359.22,29.1c8.52-2.65,12.37-7.9,15-14.51C452.21,539.71,446.71,544.6,445.78,559.28ZM708,607.82c13.84-6.46,14.5-7.67,10.27-15.85l-11.86,2.69C707,599,707.43,602.73,708,607.82Zm701,1179.31-20.29,1.48c14.13,9.67,14.13,9.67,24.44,7C1411.59,1792.43,1410.08,1789.36,1409,1787.13ZM697.1,816c8-9.77,9.76-19.09,5.24-26.51C697.61,797.55,691.89,804.73,697.1,816Zm521-51.65-13.37-3.51c.32,13.07.32,13.07,15,17.2C1219.19,773.61,1218.65,769.14,1218.08,764.36ZM1478.29,941c-2,3-4.5,5.13-4.2,6.69.75,3.86,2,8.25,4.51,11,3.85,4.15,7,1.28,9.3-2.57ZM806,551.7c6.07-8.86-4.77-10.14-3.63-16.2-5.45,1.6-10,1.92-12.31,8.22ZM1020.32,1188c6.25,1.24,12,2.28,17.74,3.54,5.35,1.18,8.2-.5,8.51-4.7l-23.83-6.65a28.49,28.49,0,0,0-1.83,4A22.32,22.32,0,0,0,1020.32,1188ZM448,1157.23c9.44,16,9.44,16,15.11,14.34l-7.57-19.64ZM894.23,430c3.21,4.35,4.85,7.6,7.41,9.75,2.11,1.77,5.25,2.64,8.06,3.06.81.12,3.22-3.11,2.88-4.12-.94-2.8-2.42-6.64-4.67-7.51C904.21,429.74,899.73,430.33,894.23,430ZM673.47,1493.79c-10.05,3.09-11,5.1-7.81,17.34l10.85-5.43Zm452.26-980c4.28-2.55,5-6,2.41-9.45-4.12-5.57-9.83-5.67-15.34-4.33ZM154.4,589c5.46-8.37-3.27-15.33-.51-23.16-12.09,1.74-3.37,11.25-7.5,16.23C144.63,584.15,149.08,589,154.4,589ZM1022,389.67c2.71-24,2.71-24-.85-25.76C1016.52,379.49,1016.5,383.51,1022,389.67ZM708.75,827c-9.61-.41-8.79,6.14-9.64,10.76-.94,5.05,1.9,7.31,8.36,7.14C707.88,839.11,708.29,833.38,708.75,827Zm308.53,429.33,2.6,1.94c6.95-5.59,14.58-10.81,10.59-22.54Q1023.87,1246,1017.28,1256.36Zm-176.86-714c4.4-2.35,6.74-3.71,9.16-4.88,2.67-1.29,7.9,4,8.26-2.26.31-5.65-6.19-.84-8.29-3.83a3.76,3.76,0,0,0-1.89-1.41c-3-.77-6.84-2.61-8.12,1.76C838.75,534.41,840,537.69,840.42,542.32Zm646.05,432.85,1,2.17c3.5.4,7,1.24,10.49,1a13.11,13.11,0,0,0,7-2.76c.74-.59.18-4.72-.62-5-2.37-.9-5.41-1.48-7.74-.74C1493.06,971,1489.84,973.34,1486.47,975.17ZM815.6,810.39c6-7.78,11.22-14.41,16.4-21.08-2.48-5.1-6.2-3.36-8.8-.85C817.43,794,813.71,800.62,815.6,810.39Zm324.18,42.7c.15,6.3-7.43,11.92.79,16.9L1151,855.42ZM208.45,600.24c-7.42-3.27-10.95-.71-13.17,3.4-.83,1.53-.2,5.12,1.08,6.17s5.26,1.31,6.32.23C205,607.65,206.24,604.2,208.45,600.24Zm1314.81,1398.6c-2.08-6.36-3.85-8.56-6.94-7.91-6.16,1.29-7.9,5.66-7.74,11.72Zm-171.75-776.21c4.26,7.75-3.41,9.95-6.29,14,.85,4.44,1.63,8.54,2.66,14C1356.09,1226.8,1356.09,1226.8,1351.51,1222.63Zm343,351.84-2.49,2.25,15.31,16.58C1706.63,1582.31,1701.94,1577.37,1694.54,1574.47ZM588,447.38l8.23,6.81c8.64-6.76,8.64-6.76,10.87-13.32Zm197.7,129,1.56,2,13.47-5.29-7.43-9.15Zm747.7,432.83c-2.75,7.57-1.56,11.77,3.34,13.55,1.52.56,4.28.17,5.24-.9s1.35-4.33.49-5.26C1539.93,1013.92,1536.68,1011.88,1533.35,1009.26ZM866.42,544.88c6.83-5.75,8.64-12.28,5.55-20.73-1.61.27-4.19.12-4.45.83C865.2,531.28,862.54,537.71,866.42,544.88Zm-353.34,919c2.06-12.65.79-13.82-10.42-11Zm-28.44-286.26c-5.94,7.83-8.22,16.8-5.07,26.78Zm.27,272.49c-.91,6.31-1.32,11.67,4.93,14,1.69.63,4.39-1.45,8-2.81Zm1009.66,512L1484,1976.36C1496.43,1974.78,1496.43,1974.78,1494.57,1962.09ZM1069.91,567.54h-18.57c-.78,6,3.42,6.71,7.5,6.45S1068.66,575,1069.91,567.54Zm-901.8-9.1c5.61,1.23,9.22,2.7,12.75,2.54,2-.1,3.85-2.89,5.76-4.46-2.45-1.52-5.08-4.49-7.3-4.21C176.12,552.71,173.22,555.48,168.11,558.44ZM729.58,866.51c9.27-4.92,10.15-7.69,4.88-16C729.29,854.88,727.15,859.9,729.58,866.51Zm648.51,184c-7.34-2.5-12.91-4.3-16.95,3.61C1367.78,1057.05,1372.7,1056.44,1378.09,1050.53ZM685.68,396l1.58-1.82c-1.24-3-2-6.3-3.88-8.78-1.08-1.42-4-1.46-6.06-2.13-.07,2.16-1.07,5.12,0,6.32C679.53,392.16,682.82,393.87,685.68,396Zm343.75,1505.69c-2.45-10.47-3.53-10.85-16.12-6.32Zm212.86-986.31,16.24-2.55c-.27-3.13-.48-5.51-.7-7.94C1246.15,907.15,1246.15,907.15,1242.29,915.33Zm199.88-390.51c4,6,7.56,8.78,13.47,8.62C1453.79,524.3,1453.11,523.8,1442.17,524.82ZM910.84,831.22A12.12,12.12,0,0,0,917,818.5c-.44-3.45-4.2-4.55-8.54-2.18C909.18,820.81,909.92,825.43,910.84,831.22Zm426.29,501.08c-2.45,3.74-4.58,7-6.72,10.27,4.51,3.89,8,2.19,11.25-1.82A21.06,21.06,0,0,1,1345,1338ZM1195.45,967.73l-10.89-2.31c-1.14,6.44.78,10.7,8,13ZM1372.82,1243l-16,11.63C1367.75,1257.06,1372.76,1254.26,1372.82,1243Zm-41.55,678.83c6.68-2.53,7.21-5.92,4.41-10-3-4.45-6.42-3.75-10.34-.43ZM918.1,1282.18c-10.81-3.8-10.81-3.8-13.77,4.47C909.27,1286.93,914.66,1290.26,918.1,1282.18ZM905.16,448.55c3.51,3.6-.18,11,6.66,12.75C917.14,453.17,916.33,451.37,905.16,448.55ZM1084.7,551.6V541.35l-10.69,2-.45,2.18Zm121.24-62.78,10,6.5,2.18-1.62c-.48-2.46-.15-5.75-1.63-7.18C1213.66,483.77,1210,483.94,1205.94,488.82ZM587.5,375.93c5.21-5.42,5-10.79-.25-17.5C581.83,365,585.41,370.51,587.5,375.93Zm772,845.87,17.94,7.57C1369.5,1218.39,1366.76,1217.27,1359.49,1221.8ZM1057.63,583.54c2.95,4.23,5.49,7.86,8,11.5l2.38-.83c-.61-4.27-1.21-8.54-2-13.72Zm145.56,888.11,2.79.76c1.56-5,3.11-9.92,5.07-16.16C1201.7,1459.76,1201.26,1465.23,1203.19,1471.65Zm-364.91-26.17c.26,4.32-2.51,9.58,3.51,11.2,1.12.29,3.77-1.71,4.27-3.14C848.31,1447,842.19,1447.27,838.28,1445.48Zm566-66.83-2.62-2-10.21,8.41,3.27,7.81Zm-59.64-746.23c-5.1,3.1-7.69,6.66-3.88,10.21,3.09,2.87,7.33,1.92,10.11-2.75ZM1064,547.09c-9.08,6.13-9.33,9.28-2.37,15.61C1062.37,557.84,1063,553.61,1064,547.09ZM472.58,1282.64c.7-3.66,1.39-7.33,2.51-13.21C467.51,1273.92,466.13,1277.43,472.58,1282.64Zm46.69-7.22c2,4.82,4.19,8.26,9,5.67,1.42-.76,2.77-4.74,2.05-5.81C527.46,1271,523.72,1272.67,519.27,1275.42ZM708.85,958.79l-2.58,3.31c.91,5.45,4.33,6.95,12.9,4.93Zm-1.06,687.88c-3.63-12.12-7.68-15.61-13.18-13.1Zm96.84-907c6.31-3.44,5.74-7.07,3-10-1.59-1.69-4.76-1.89-7.22-2.76L799,729.31ZM711.42,388.55c6.72-8.38,6.25-9.84-4.83-14.3C708.4,379.61,709.75,383.62,711.42,388.55ZM1292.93,1937.7c5.29,2.69,6,9.36,13.54,6C1303.46,1939.53,1304.32,1931.33,1292.93,1937.7ZM366.83,600.33c-7.54.64-10.68,3.22-9.67,10.73C363.05,610,365.3,606.76,366.83,600.33ZM1229,480.74c-6.29,9.77-6.21,10,3.72,12C1231.63,489.1,1230.69,486.06,1229,480.74ZM652.28,903.94l9.15-5c-1.65-2.39-3.25-4.8-5-7.11a12.17,12.17,0,0,0-2.55,1.07C653.53,895.28,653.15,897.93,652.28,903.94Zm1086.26,430.54c4.34-4.89,5.21-8.54-.67-11-1.22-.52-3.35,1.13-5.8,2.07Zm-345.8,14.23c-.61,3.88-1.11,7-1.68,10.66h13.07ZM1123.54,913.4l-3.55-.75L1117,924C1126.13,921.78,1126.57,918.21,1123.54,913.4Zm264,1199.66c1.32,3,2.12,6.93,7,4.94,1-.42,2-3.52,1.42-4.74C1393.88,2108.41,1390.88,2109.32,1387.58,2113.06ZM840,524.41l14.58-6c-4.11-1.94-7-4.45-8.49-3.78C842.61,516.24,837.57,517.94,840,524.41Zm339.31,852.4c-4.56,2.54-6.65,5.26-3.08,9,1,1.07,4.53,1.58,5.17.84C1184.35,1383.29,1183.16,1380.07,1179.33,1376.81Zm35.5,54.75c-.31,1-.63,2-.95,3l12.5,5.33C1224,1434.25,1221.27,1429.25,1214.83,1431.56ZM956.68,754.49c-.92-1.06-1.85-2.11-2.78-3.17-3.36,4-9.45,4.95-9.79,12.42Zm472.21-52.64-.56-3.91-13.61,2C1420.52,704.15,1424.68,706.68,1428.89,701.85ZM1163.06,376.2c7.94.26,7.94.26,12.67-3.35C1170.79,368.91,1167.08,369.6,1163.06,376.2Zm10.41,1230.43c-8.24-2.53-8.24-2.53-10.08,5.68Zm69.19-203.2c-3.69,1.81-7.3,3.67-5.87,8.57.27.94,4.31,1.92,5.68,1.17C1247.1,1410.65,1246.55,1407.2,1242.66,1403.43ZM868.51,795.27c7.27,2.45,7.27,2.45,12.83-8Zm617.61,486.94c9.14,7.53,13.84,8.28,18.42,3.9Zm169,559.93-7.38,4.6,9.51,7.07Zm-985-965.27c4.58-4.75,5.58-8.41.92-12.58C666.53,869.93,666.53,869.93,670.2,876.87Zm639.3,467.56,14.17-4c-.33-1.14-.66-2.29-1-3.43C1317.24,1335.76,1313.62,1341,1309.5,1344.43ZM1657,1818l2.84,2.2,9-12-2.59-1.94ZM1202.56,981.57l12.41,8.65C1215.07,981,1215.07,981,1202.56,981.57ZM902.71,394.84c8.12-4.5,8.12-4.5,3.82-11.37Zm67.77,99.71L969.27,492c-3.07,2.81-8.8,1.66-8.79,9.18Zm332.85,400.93c1.93,4.29.61,9.24,7.57,9C1311.57,899.14,1310,896.34,1303.33,895.48ZM1022.69,601c-3.76,1.13-6.31,4-5.93,8.11.14,1.51,3.56,2.73,5.93,4.4ZM439.57,902c-2.22,3-4.53,4.76-4.41,6.34.13,1.79,2.43,3.43,3.8,5.13,1.38-1.6,3.6-3.06,3.9-4.84C443.12,907,441.23,905.08,439.57,902Zm147.74,292,2-1.78c-.88-2.83-1.75-5.65-3.17-10.21l-5.56,8.51Zm1146.14,457.11-4.13.18c.23,2.26.4,4.53.84,6.76a9.79,9.79,0,0,0,3.14-.24A62.26,62.26,0,0,0,1733.45,1651.08Zm-1020.79,6.05-.78,2.89,12.63,4.5.93-2.73ZM372,937.65c-1.65,5.93-2.56,9.19-3.88,13.92C378.44,949.05,376,944.84,372,937.65Zm682.48-58.37c-2.22-1.71-3.49-2.95-5-3.66-.37-.17-2.37,1.71-2.22,2.09a27.31,27.31,0,0,0,2.8,4.55Zm163.33,620.51-10.17-1.63C1210.17,1504.36,1213.39,1506.35,1217.81,1499.79ZM419.44,1162.62l-2.91,3.33c1.9,1.23,3.79,2.48,5.76,3.6.08,0,1.39-1.49,1.26-1.69C422.29,1166,420.83,1164.34,419.44,1162.62ZM967.81,601.78l3.28-.3c.54-3,1.08-6,1.7-9.43l-9,1.07Zm-64.23,1186.9c1.17,8.07,1.17,8.07,8.32,9.17Zm821-5.2-7.25-4.55C1716.47,1787,1716.47,1787,1724.61,1783.48Zm-482.19-394c1.59-3.55,3.07-5.46,3.06-7.36,0-1.34-2-2.67-3.18-4-1.45,1.53-3.9,3-4.07,4.62S1240.24,1386.17,1242.42,1389.47Zm-439.2-644c-.41,3.55-.81,7.09-1.27,11.12C814.8,753.71,802.65,749,803.22,745.49ZM1170.6,973.85l-1.84,2.63c1.66,1.66,3.14,4.28,5,4.64,1.29.23,3.17-2.71,6.06-5.43Zm-236.11-423-2.82-1.1q-1.42,2.84-2.86,5.67l4,1.76ZM786.2,705.67c-9.37-2.5-9.37-2.5-11.78,4.41Zm171,828.22,2.79-2.73-6.05-5.52-2,2Zm143.39-11.43c-1.58,4.89-2.41,7.48-4,12.41C1103.31,1531.31,1103.07,1528.44,1100.55,1522.46Zm74.36-551.19c-9-11.75-9-11.75-12.51-4.59Zm426.39,98.85c4.49-3,5.56-5.54,2.56-9.36C1599.6,1062.87,1597.51,1065.06,1601.3,1070.12Zm132.08,316.1c5.07-4.16,7.08-7.7-1.61-9C1732.41,1380.8,1732.9,1383.51,1733.38,1386.22Zm-1011-557.65,2.68-.11-.69-12.63-2,.14Zm617.79,545.79c3.2-7.24-2.29-8.52-4.81-11.82l-2.29,1.58Zm-128.65,105.78c-4.47-2.31-7.59-2.25-8.11,2.24-.15,1.26,2.73,2.88,4.81,4.91Zm456.31-126-3.33-2q-1.82,3.23-3.61,6.45c1,.5,2.69,1.6,2.84,1.42C1665.2,1358.13,1666.46,1356.08,1667.79,1354.1ZM966.43,451c-3.89,7-3.89,7,0,12.13Zm336.51,1379-3.66-1.28-2.73,6.76,4.22,1.54Q1301.87,1833.5,1302.94,1830ZM1188,569l-6.14,8,10.31-1.26Zm468.14,753.72-7.08,8.92C1654.67,1330.89,1659.76,1332.28,1656.12,1322.71ZM1357.46,582.66c4.28,4.27,4.28,4.27,8.16.51ZM1200.8,547.28c-7.54-2.23-7.54-2.23-8.42,3.32ZM1512.16,1023c1.64-2.44,3-3.77,3.37-5.34.15-.64-2.4-2.75-2.81-2.53a7.26,7.26,0,0,0-3.3,3.54C1509.15,1019.4,1510.73,1020.81,1512.16,1023Zm87.35,801.81,5.35,10.29C1606,1830.7,1609.87,1826.27,1599.51,1824.78ZM338.07,436.09l-2.12.19v9.51c2.05-3.72,3-4.68,3-5.69A14.71,14.71,0,0,0,338.07,436.09ZM841.19,1677.23c-6.34-3.49-6.34-3.49-7.83,1.89Zm237.86-123c-1.3,2.28-2.78,4.49-2.6,4.63a23.45,23.45,0,0,0,5.6,3.32c.33.14,2.18-2.13,2-2.34A64,64,0,0,0,1079.05,1554.21ZM1326.33,485.72l2.31-2.32-6.2-5.1c-.57.62-1.15,1.24-1.72,1.87Zm-273.19,793.54c-1.42-1.28-2.44-2.75-3-2.59-1.31.37-2.39,1.53-3.57,2.36.81,1,1.74,2.91,2.42,2.83C1050.29,1281.7,1051.44,1280.41,1053.14,1279.26Zm30.69-701.5c2.73-6.56,2.73-6.56-1.76-10.69C1082.77,571.34,1083.3,574.55,1083.83,577.76ZM712.56,886.43l4.12.09v-7.16c-1.18,0-3.33-.1-3.39.19A55.88,55.88,0,0,0,712.56,886.43ZM556.35,739.59c-1-3.74-1.65-6.13-2.52-9.39C548,734.66,548.84,737.1,556.35,739.59ZM1338.55,1964l3.93-5.31a37.28,37.28,0,0,0-4.41-3c-.21-.11-2,1.62-1.88,2.28C1336.52,1959.73,1337.48,1961.42,1338.55,1964ZM1135.29,874.6l-1.4-2.44-6.13,3.23c.56.91,1.54,2.64,1.62,2.6C1131.41,877,1133.34,875.77,1135.29,874.6Zm-272.67-121c1.9,7,4.77,5.35,9.39,1.12Zm297.5-395.1,2.12-2.12-6.83-5.76-1.67,2Zm69.09,1037.93c-5-2-7.76-1.42-8.27,2.87-.1.82,2.93,2.88,3.11,2.73A56.88,56.88,0,0,0,1229.21,1396.39Zm88.66,531.28c-6.76-.66-7.88,2-7.25,6.65ZM777.9,536c-6.69,4.73-6.69,4.73-3.47,12C775.39,544.72,776.35,541.36,777.9,536ZM595.61,1588.76c4.71,3.47,7.27,5.47,12.07.68Zm409.64-1059-1.83-2.12c-2.13,2.1-8.7-.83-5.85,8.54ZM725.11,797.61l-3,.37,2,12.74,2.31-.32Zm-35,8.21c-8,3.2-8,3.2-4.28,8.27Zm-113-461.93c-1,1.46-2.42,2.89-2.23,3.15.86,1.13,2.11,2.52,3.33,2.63.83.08,1.84-1.8,2.77-2.8ZM1455.85,514c-.4.87-.79,1.75-1.19,2.62,1.77.76,3.53,1.54,5.34,2.19a7.89,7.89,0,0,0,.87-1.86C1459.26,515.89,1457.54,515,1455.85,514Zm-101.38,860.8,1.72,1.81c2.24-1.11,6.87-.28,3.65-6.46ZM586.31,730.73l1.36,2.27,6.57-4.25-.83-1.41Zm481.33,838.11,3-1c-.78-1.78-1.54-3.57-2.42-5.3,0,0-1.88.63-1.85.81C1066.69,1565.16,1067.19,1567,1067.64,1568.84ZM894.31,517.38c.73-.74,1.46-1.48,2.18-2.23-1.64-1.13-3.27-2.29-5-3.31a6.58,6.58,0,0,0-1.26,1.52C891.54,514.76,892.93,516.06,894.31,517.38ZM681.72,1488c-.36-.72-.72-1.44-1.09-2.16l-5,2.63c.46.62,1.15,1.85,1.35,1.77A52,52,0,0,0,681.72,1488Zm737.21-903.34-2.48-.47c-.45,2.13-.9,4.27-1.36,6.4l2.63.51C1418.12,589,1418.53,586.81,1418.93,584.66Zm84,1418.5-2.48-2.33-4.8,5.77,1.92,1.67ZM232.73,566c-1.59-1.12-2.61-2.23-3.81-2.51-.62-.15-1.59,1.19-2.4,1.86a16.8,16.8,0,0,0,2.85,3.18C229.63,568.71,231,567.3,232.73,566ZM767.5,1688.7l1.08-1.63-5.08-3.94-1.55,2.81Zm20.87,3.08,1.2-1.23-5-5.22-1.68,1.72Zm329.82-701.23c-4.75,5.22-4.75,5.22-.64,9.09C1117.77,996.49,1117.94,994.06,1118.19,990.55ZM679.6,716.82c1.66.88,3,2,3.41,1.74a16.53,16.53,0,0,0,3.12-3.18c-1.09-.72-2.39-2.21-3.2-2C681.76,713.74,681,715.33,679.6,716.82ZM667.2,1487.4l1.66-2.94c-1-.55-2.1-1.59-3.05-1.49-.76.09-1.38,1.55-2.06,2.41ZM128.45,589.28c-.36,1.26-.71,2.53-1.06,3.79l6.58,1.18c.13-.75.56-2,.33-2.18C132.42,591,130.42,590.18,128.45,589.28ZM1154.24,982.65c-1.65-.33-2.63-.77-3.52-.62-.51.09-1.34,1.52-1.22,1.66.64.75,1.59,1.83,2.32,1.75S1153.12,984,1154.24,982.65ZM1336.09,997c-5.76-2.77-8.46-2.94-10.39,3.86Zm-750.82,582.3,1.62-.56c.08-1.12.5-2.37.14-3.33a16.23,16.23,0,0,0-2.41-3.42l-2.15,1.12ZM728.69,287.8l-1.57-2.22-4.1,3.66,1.1,1.39Zm-390.57,324L336.49,613a32.58,32.58,0,0,0,2.5,3.95,14.45,14.45,0,0,0,2.48-1.35Zm880.2,418.38,2.49,1,2.66-6.17-3.1-1.18C1219.68,1025.92,1219,1028,1218.32,1030.17Zm-23.13-708.61,2.11.78,2.4-6.49-2.06-.77ZM1131,1043.35l-1.16,1.71a65.37,65.37,0,0,0,6.62,5.19c.34.22,2-1.65,3.68-3.08Zm114.74,3c-.32,1-.64,2.07-1,3.11l8.17,1.95.6-1.93Zm193.72-111.18,1.63,1.13,3-4.42-1.53-1.07Zm-160.08,134.61,3.64-3.81c-1.82-1.24-3.64-2.49-5.52-3.64,0,0-1.26,1.31-1.11,1.65C1277.28,1065.92,1278.39,1067.81,1279.41,1069.73ZM1075.06,369.4c-.6-1.46-.76-2.86-1.53-3.41s-2,.07-3,.17a12.3,12.3,0,0,0,.92,3.82C1071.64,370.32,1073.49,369.68,1075.06,369.4ZM1308.84,620c-.56,1.38-1.36,2.44-1.29,3.45s1.08,1.74,1.67,2.61l3.07-2.44Zm2.59,457.12c-1.17-.83-2.15-2-2.78-1.85-1,.24-1.69,1.42-2.52,2.19.71.73,1.53,2.12,2.1,2C1309.21,1079.26,1310,1078.18,1311.43,1077.08Zm-121.74-439.4c.4-.43.8-.87,1.21-1.3a15.9,15.9,0,0,0-2.6-2.7,14.54,14.54,0,0,0-3.49-1.21l-.78,1.8ZM1189,505.43c-.8,1.21-1.92,2.16-1.82,3s1.34,1.57,2.09,2.35c.84-1,1.67-2.05,2.51-3.08ZM361.49,1324.57l-2,.61,2.1,6.42,1.77-.54C362.74,1328.89,362.11,1326.73,361.49,1324.57Zm1143.9-6.33-1.66.79c.4,1.28.53,2.75,1.29,3.76s2.08,1.4,3.15,2.07l1.21-1.46ZM1319.27,1076c.16.9.32,1.8.49,2.7l7.08-1.57-.57-2.36Zm-564-335.55c-5.24.31-7.65,2.42-6.09,9.31C751.93,745.64,753.62,743.07,755.3,740.49ZM327.49,1267.14l-2.75.29.92,5.41,1.83-.18Zm1065.8-64.8a26.62,26.62,0,0,0-4.86-2.32c-.38-.1-1.87,2.35-1.77,2.44a44.49,44.49,0,0,0,4.31,3.24Zm26,600.25c.19.53.38,1.06.58,1.59l6-2.16c-.22-.52-.43-1-.64-1.58ZM1729,1717l2.37-1.77c-1.08-1.27-2.12-2.58-3.31-3.75a5.92,5.92,0,0,0-1.67,1.08C1727.14,1714.06,1728.06,1715.51,1729,1717Zm-265.52-465.22c.12.79.23,1.59.35,2.38l6.3-1.23c-.09-.6-.17-1.19-.26-1.79ZM602.54,693l-1.85-.75-2.84,5.42,2.91,1.16C601.35,696.91,602,695,602.54,693Zm193,5.09-2.8-1.63c-.88,2-1.75,4.11-2.62,6.16l2,1Zm535,1054.38.34-2.78h-5.44c-.07.53-.15,1.06-.23,1.59ZM824.65,705.59l-2,.65.32,5.65a17.77,17.77,0,0,0,2.22-.37C825.11,709.54,824.87,707.57,824.65,705.59Zm122.64,3.67-1.89-.67q-1.12,3.35-2.27,6.68l1.68.6ZM797.37,711l-2.1-2.1c-1.39,1.44-2.78,2.89-4.18,4.33l2.39,2.17Zm467.77-245.38-.47-1.85-4.33,1.17c.16.58.31,1.16.47,1.74ZM163.57,573.12c1.52-1.73,2.73-2.69,3.3-3.94.24-.52-.86-1.65-1.36-2.5-1.09.85-2.45,1.53-3.16,2.64C162,569.85,162.89,571.17,163.57,573.12Zm953-83.36c-3.5-1.17-5-2.18-5.92-1.84s-1.73,2-2.57,3.06c1,.44,2,1.28,2.89,1.2C1112.15,492.07,1113.29,491.22,1116.54,489.76ZM1726.36,1702c.38-.61,1.08-1.26,1-1.83s-1-.92-1.47-1.37c-.39.61-1.11,1.26-1.06,1.82S1725.82,1701.5,1726.36,1702Zm-683.19-506.28c-2.63-.62-3.79-1.12-4.93-1.09a11.66,11.66,0,0,0-3.11,1c.76,1.08,1.35,2.41,2.37,3.11C1037.89,1198.94,1039.27,1197.79,1043.17,1195.67ZM1310.2,435a20.31,20.31,0,0,0-2.87-2.17c-.14-.08-1.38,1.14-1.26,1.48a13.35,13.35,0,0,0,1.7,2.76ZM895.31,732l2.1.85c1.06-2.5,2.11-5,3.17-7.49l-2-.84ZM431.79,1142.89c-.83-1.16-1.28-2.45-2.07-2.72s-1.9.55-2.87.89c.63,1.2,1.27,2.4,1.91,3.6Zm1149.09,705.5,3-.71c-.25-2.1-.46-4.21-.84-6.29a8.69,8.69,0,0,0-2,0C1580.86,1843.73,1580.88,1846.06,1580.88,1848.39ZM1120.1,1257.3a17.35,17.35,0,0,0-2.68-1.44c-.13,0-1.18,1.51-1,1.77a11.53,11.53,0,0,0,2.31,2.07ZM993.68,1873.73l1.73-2.24L990,1868.1l-1,1.4Zm658.22,3.89,1.92.84,2.85-6.31-2-.87Q1653.3,1874.46,1651.9,1877.62Zm-618.76-584.35c-.62-.38-1.32-1.14-1.83-1s-1,1-1.44,1.61l2.53,1.49C1032.65,1294.65,1032.9,1294,1033.14,1293.27ZM849.24,767c-1.4.93-3.08,1.57-3,2.12.07,1.21,1,2.38,1.57,3.56.77-.77,1.89-1.42,2.22-2.35C850.26,769.53,849.61,768.43,849.24,767Zm-91.18.71-2.56,1.73q2.22,2.85,4.42,5.71l1.69-1.24ZM676,629.46c1-.92,2.27-1.5,2.44-2.3s-.64-1.91-1-2.87a12.85,12.85,0,0,0-3.12,2.17C674,626.73,675.2,628.16,676,629.46Zm1052,734.3c-.4,1.59-1.09,2.76-.78,3.53s1.61,1.28,2.47,1.9c.44-1,1.38-2.08,1.19-2.92S1729.28,1364.87,1727.92,1363.76ZM510.46,362.62l1.22,1,2.91-3.43-1.25-1Zm978.48,255c-.21,2.1-.52,3.23-.3,3.35a21.34,21.34,0,0,0,3.44,1.24Zm195,766.82-2.36,1.47c1.14,1.41,2.26,2.84,3.5,4.17a6.73,6.73,0,0,0,1.57-1C1685.79,1387.49,1684.84,1386,1683.91,1384.47Zm78.62,11.55a25.77,25.77,0,0,0-1.31-3c0-.09-1.83.52-1.82.73a19.1,19.1,0,0,0,.76,3.27Zm-576.66-342.94,2-3.61c-.65-.26-1.67-.91-1.89-.7a25.14,25.14,0,0,0-2.55,3.14ZM801.49,325l1.93-3c-1-.47-2.06-1.44-2.91-1.26s-1.43,1.51-2.13,2.34Zm663.25,1641.89a20.69,20.69,0,0,0-1.36,4.59c-.05.64,1.32,1.39,2,2.09l3.11-3.26Zm-180.81-943.22,5.19,7.57C1291.27,1026.42,1291.52,1023,1283.93,1023.62ZM523.57,1530.41l-1.71,1.83,4.81,4.42,1.09-1.18Zm731.67-912c-1.32-1-2.11-2.13-3-2.25s-2.1.68-3.15,1.09c1,1,1.74,2.33,2.91,2.9C1252.51,620.37,1253.77,619.19,1255.24,618.36ZM985.61,541.48v-2.33H980a11.31,11.31,0,0,0,.2,2.23C982,541.52,983.81,541.48,985.61,541.48ZM242.22,1011a11.08,11.08,0,0,0-2.67-1.56c-.34-.09-1,1-1.48,1.49a16.93,16.93,0,0,0,2.38,2C240.58,1013,241.38,1011.94,242.22,1011ZM1587.16,2018.42a11.86,11.86,0,0,0-2.44-2c-.29-.13-1.09.84-1.65,1.31a21,21,0,0,0,2.21,2.31A17.74,17.74,0,0,0,1587.16,2018.42Zm-193.92,44.81c-1.34-1.23-2-2.19-2.38-2.11a8.94,8.94,0,0,0-2.5,1.37ZM1430.74,937l-2-2.18-4.24,4.77,1.52,1.51Z" transform="translate(-46.08 -207.4)"/><path d="M1666.59,835.71c-1.17-3.47-2.86-6.86-3.4-10.42-1-6.48,2.27-11.55,7.22-12.39,5.13-.88,9,2.61,11.15,10.72l6.25-5.11c1.38,3.09,2.79,5.78,3.83,8.61,3.24,8.82,6.95,16.83,15.67,22.31,4.75,3,7.42,9.27,10.86,13.84-3.53,6.09-7.66,8.49-13.41,9.26-4.11.56-7.21.09-9.71-3.27-4.61-6.19-9-12.59-14-18.46-4.7-5.54-10.07-10.52-15.14-15.75l4.25-2.35-2.4-2Z" transform="translate(-46.08 -207.4)"/><path d="M1611.13,731.61c8.61,8.91,7.35,18.51,11.94,26.17-8.81,4.55-13.06-.24-16.63-5.22C1600.23,743.89,1610,740.05,1611.13,731.61Z" transform="translate(-46.08 -207.4)"/><path d="M1792.81,1577c1.68,8.47,3.23,16.27,5,25l-18.51-1.18c-3.13-9.73-5.08-20.18-9.77-29.23-5.3-10.24,3.73-20.2-3.36-30.33l11.94-2.85c.34-2.86.69-5.83,1-8.8,5.45,11.82,12.09,23.1,7.57,37.4l-7.71-6.58V1583l5.48-8.16Z" transform="translate(-46.08 -207.4)"/><path d="M1786.79,1702.7c.54-5,1.1-10-6.91-8.18,3-5,7.44-9.57,8.55-14.83s-1-11-2.19-16.47c-.18-.84-2.79-1.16-4.21-1.69.33-10.83,3.52-21.37.07-32.19a35.84,35.84,0,0,1-1-14.6c.45-4,2.74-7.71,4.21-11.55l3.1.37c.79,3.34,2.81,7,2.12,10-1.75,7.62.57,14.43,2,21.63,2.1,10.79,4.88,21.88,4.23,32.66-.69,11.47-5,22.73-7.86,34.06-.09.37-1.43.43-2.2.63Z" transform="translate(-46.08 -207.4)"/><path d="M1802.64,1587.18c0-5.1.11-7.72,0-10.32-.15-2.76-.57-5.51-.9-8.59l11.31-2.89C1811,1572.75,1811.68,1580.38,1802.64,1587.18Z" transform="translate(-46.08 -207.4)"/><path d="M1797,1610.67v9.06C1791.82,1616.27,1793.06,1613.45,1797,1610.67Z" transform="translate(-46.08 -207.4)"/><path d="M1786.7,1702.5v15.82l-2.7-.2c1-5.1,1.9-10.2,2.82-15.36Z" transform="translate(-46.08 -207.4)"/><path d="M1794.34,1557.45V1563l-1.83.22q-.39-2.7-.79-5.4Z" transform="translate(-46.08 -207.4)"/><path d="M1528.63,839.24c.54-11.83,1.7-23.73-2.55-35.18-1.82-4.91-3.6-10-6.35-14.38A65.25,65.25,0,0,1,1510,760.9c-.47-5,1.48-10.22,2.72-17.69l-15.82-15.37L1506,719c-.17,8.66,1,14.68,9.79,15.19,1.9.11,4.88,2.18,5.3,3.87,2.59,10.37,10.72,19.19,8.49,31-.41,2.17,1.85,5.13,3.44,7.33,2.12,2.94,5.3,5.18,7.13,8.25,10.81,18.12,21.36,36.4,33.38,57-7.26-7.09-12.13-13.12-18.21-17.45-6.53-4.66-14.2-7.72-22.18-11.9-1.63,9-3.23,17.85-4.83,26.68Z" transform="translate(-46.08 -207.4)"/><path d="M1634.73,950.62,1621,957.19c-.35-4.56-.66-8.59-1-12.74-8.14-.42-6.79,5.31-6,9.9s2.49,9,3.85,13.77c-6.12.93-7.59-2.3-7.84-5.51-1.42-18.07-6.2-35.9-2.45-54.4,1.12-5.49-1.47-12-3.22-17.73-2.2-7.3-5.27-14.33-8.65-23.3C1605.76,876.34,1616.14,899.05,1634.73,950.62Z" transform="translate(-46.08 -207.4)"/><path d="M827.05,951.65l20,6c.41,4.84-.53,11.47,8.31,12-3.15,9.6-1.13,16.91,6,21.38-.78,7.36-2.89,14.28-1.79,20.65,1,5.65,4.66,11.53,8.78,15.7,2.6,2.64,8.19,2.32,12.83,3.41l4.38-11.67-9.28-6.47c4.53-2.93,7.86-6.09,11.78-7.24,2.21-.64,5.88,1.46,8,3.32,3.2,2.78,5.62,6.44,9.22,10.72l-11.81,19.43c-2.53-1.68-4.9-4.34-7.47-4.55-1.56-.13-3.43,3.53-5.38,5.74a3.59,3.59,0,0,1-.95-.43c-1.87-1-4.84-3.34-5.43-2.85-5.92,5-17.36-6.27-19.8,6-1.39,7-5.81,6.29-11.52,8.16-1.26-8.45-2.43-16.25-3.6-24.06-8.9-3.58-3-14.53-8.18-18.43-4.54-2.65-6.77,8.65-10.17-.43l-16.76,12.43-6.43-5c2.17-8.92,4.17-17.14,6.47-26.57l10.39,3.86c-.5-8-1-16.32,7.8-19.78C821.93,959.49,821.93,959.49,827.05,951.65Z" transform="translate(-46.08 -207.4)"/><path d="M1290.1,1564.19c-1.27-3.22-2.33-6.54-3.85-9.63-1.73-3.51-4.08-6.71-5.79-10.23-2.2-4.53.71-7.62,3.33-10.94,1.07-1.37.79-3.77,1.24-5.68.37-1.55.73-4.29,1.4-4.39,8.31-1.2,10.72-10,17.38-13.2,3.28-1.58,6.58-3.14,9.72-5,7.12-4.16,8.37-3.94,15.16,3.49,9.78-5.82,9.78-5.82,10.77-13.32,9.38,4.76,9.76,5.64,6.33,16.54l21.78,16.05-4.48,11.43-2,0c-.61-2.26-1.21-4.51-1.94-7.2l-10.27,4.43-14-12.58c-6,6.13-6,6.13-4.32,17l-7.5,2c-2-4.56-3.73-8.47-5.92-13.47L1304.32,1552l8.7,5.26c0,.47.32,1.59,0,1.89-8.47,7.13-10,17.63-12.26,27.29-3.49,15-2.82,15.19-18.47,17.18l-8.71-10.42-14.8,3.35c1.2-14,2.55-26.59-3.44-39.25l8.26-1.44c.82-2.56,1.83-5.68,2.83-8.81l2.44-.56c2.53,4.81,5.05,9.62,7.72,14.69l13.86,2.74-9,6,9.11,4.92c2.67-3.7,4.87-6.76,8.33-11.58Z" transform="translate(-46.08 -207.4)"/><path d="M1665.53,1565.62c-3.87.29-6.68.78-9.45.64-2.31-.12-5.33-.23-6.72-1.64-6-6-14.24-9.66-17.49-18.71-2.4-6.69-7-12.59-10.82-19.24.74-3.65,2.54-8.12,2.28-12.47-.23-4-2.68-7.79-4.15-11.67l2.08-1.2c2.92,2.65,5.87,5.25,8.74,7.94,7,6.57,7.45,6.63,17.12,1.37,2.93,2.33,6.36,4.48,9.08,7.33,5,5.2,10.81,10.07,9,18.78a10.36,10.36,0,0,0,1.34,7C1671.89,1552,1668.45,1559.17,1665.53,1565.62Z" transform="translate(-46.08 -207.4)"/></svg>