<svg version="1.1" xmlns="http://www.w3.org/2000/svg" xmlns:xlink="http://www.w3.org/1999/xlink" x="0px" y="0px"
	 viewBox="0 0 2004 2621.6"
	 style="overflow:visible;enable-background:new 0 0 2004 2621.6;" xml:space="preserve">
<style type="text/css">
	path{fill:var(--c__quahog--dark--trans15);stroke:var(--c__quahog--dark--trans15);}
</style>

<path d="M46.12,974.87c10.08,0,6.38,10.7,11.49,16.12,29.37,27.43-17.71,57.28,33.16,80.57-3.47,10.38-11.62,8.69-18.56,4.07-11.81-5.42-7.72,10.57-14.63,15.2-5.16,4.66-5.32,17.74,0,22.14,13.15,12.72-2.64,36,8.32,49.19,15.33,23-5.42,66.58,9,90.41,13,11.11-10.58,17.4-4.23,47.61.25,8.81,10.7,12.2,8.31,21.54-6.2,18.45,15.11,24.11,16.35,39.27,1.53,14.3-4.32,32.25,2.44,44.73,5.76,3.78,6.07,9.11,5.42,15-2.46,9.35,10.46,12,8.39,21.52-2.56,32.38,1.6,18.69,8.15,40.24,1.39,10.53-4.78,23.77,5,31.43,5.15,3.38.79,11.51,6.65,15,4,2.38,4.68,6.3,4.6,10.59,1.72,12.29-5,28.78,3.83,38.45,3.61,2.37,4.46,5.94,4.27,9.94-.41,6.11-1.39,14.4,7.18,14.14,12.93-2,19.31,3.16,17,16.26,1,8.82,10.95,11.94,8.19,21.54-.41,3.8-.74,8,2.95,10.4,11.27,12.13,2.74,32.38,5,47.75,6.48,21.82,10.72,7.2,8.13,41.06-.64,9.28,10.06,12.64,9.07,22.3,1.64,4.18,7.73,5.53,7.31,11.17a11.58,11.58,0,0,0,3.07,8c13.66,18.64-6.15,16.67,24.45,40.77,10.43,22.94,31.16,39.12,49.25,57.32,6.57,11.84,11.76,24,23.93,32.11,9.7,6.44,2.28,19,5.57,27.2,4.08,12.66,15.75,23,15.89,36-.39,3.84-.54,7.89,3.15,10.34,13.6,12.09-2.7,36.08,8.39,49.1,11.83,9.73-1.35,29.15,7.9,40.26,17,9.07,10.47,26.25,15.79,40.37,7,10.27,21.75,16,22.35,29.39,1.06,4.74,8,6,7.51,11.94.12,11.59,16.29,14.91,16.67,26.33.12,1.88,1.68,5.11,2.9,5.27,8.65-.1,13.14,8.33,20.65,9.6,15.4,2.66,3.52,20,26.69,26,34.52,15.8,67.81,34.66,102.53,50,10,14.94,25.32,14.56,41.83,13.68,10-1.27,7.08,9.74,11.17,14.95,4.6,4.19,7.91,10.62,15.92,9.91,6.71,3.66,13.27,10.19,22.55,7.59,31.56-1.16-.43,19.35,31.66,27.93,8.12,10.19,18.14,14.35,31.22,13,7.58-.77,8.88.91,10,8.47.75,4.79,2.85,7.51,7.79,7.57,12.09,5.14,22.34,15.22,34.23,21.54,5.34,5.15,9.81,11.94,18.73,11.35,5.73,2.55,9.9,8.43,17,8.59,14.17,9.89,29.38,19.17,44.27,27.68,25.59,28.32,60,45.47,90.19,66.09,14.43,11.32,24.55,31.43,42.5,36.24,5.67,2,10.49,8.26,14.3,12.74,8.7,10,21.44,14.21,32.22,19.38,5.54-.31,7.35,5.13,11.3,7.14s9.47.12,12.49,4.75c5.89,8.75,18.37,1.24,26,4.89,15.7,5,32.18,24.22,47.72,11.15,5.2-4.87,10.88-5.12,15.57.12,8.42,8.66,21.24,2.89,31.86,4.51,8.4-1.08,10.78,9.7,19.3,8.14,10,1.73,22.82-3.95,30.53,3.83,7.86,8.81,20.87,2.16,31.09,4.43,19.48,4.55,35.78,21.16,55.43,24.34q29.31-.15,58.61,0c7.9.06,9.18,1.48,10,9.38h30.94c-.28-11.58,11.6-7.17,17.31-13.69,8.55-7.19,21-2.78,31.38-3.9,7.77,1,10.18-8,17.65-8.3a14.28,14.28,0,0,0,7.62-3.74c21.43-13.6,54.36,5.74,75.09-9.5,11-8.61,30.15,3.69,39.83-7.53,2.53-3.56,6.47-3.68,10.32-3.47,10.19,2.06,14.77-8.61,25-8,13,2.16,23.77-18,36.94-4.81,40.92,22.46,78.09-40.76,105.18-64.94,5-8.6,16.86.6,16.67-12.4,12.63-21.57,35.66-36.86,52.37-55.69,6.42-4.72,2.43-13.58,9-18.24,9.89-9,17-19.81,24.27-30.79,6.71-7.56-.36-22.17,13.93-24.11,37.92-3.44,18.94,5.36,37.47-27.57,3-2.77,4.34-8.05,5.19-12.45s2.12-7.73,6.23-9.71c13.58-11-.36-28.25,16.63-38.47,15.89-16,50.58-43.51,33.57-67.09-5.21-5.33-15.6-12.72-8.25-20.57a23.55,23.55,0,0,0,5.53-13.12c1.23-12.85,23.52-24.24,25.14-5.73,19.33,15.32-2.72-46.51,12.15-50.86,20.27-12.63,2.5-29.44,17.67-40.84,4.49-4.22,4.49-19.59-1.54-22.49-7.56-2.7-2.5-12.69-8.93-17-14.47-16.73,10.83-30.8-1.44-49-.06-19.35,8.87-37.7,4.78-57.57-2.72-18.12-3-35.94,1-53.9.44-4-.61-7.59-3.86-10.21-6.26-5.06-4.27-14.3-8.71-20.46-7.72-9.7.19-22.07-8.14-31.4-4.38-12.17-10.34-23.79-14.64-36.13-1-8.59-12-9.56-15.85-16.66-9.33-3.13-10.23-24.24-1.48-26.06,12.82,1.42-2,24,12.61,23.26,15.49,2.75,19.27-6.69,12.4-21-2.46-14.82-5.51-25.88-18.56-34.76-7.59-6.52,2.71-12.82,8.24-16,11.13-6.77,3.35-22.77,4.89-33.4-1.2-7.91-11.29-15.35-20.19-15.36-22.54,5-8.17-22.19-28-47.93-22.16-29.14,10.84-18.44,5.84-36.87-8.77-13.82-27.67-16.44-30.2-34-16-30.81-24.69-67.86-51.65-91.15-9.4-6.07.39-10.1-1.81-17.81-6.23-7.71-.06-21.47-12.32-24.46-8.64-2.81-8.14-13.94-13-20.43-7.28-9.08,1-22.12-8.36-29.47-4.43-13.08-13.84-26.07-11.23-40.9,5.28-21.59-27.24-8.76-24.25-30.11-2.39-16.31,4.18-35.73-4.12-50.25-3-3-2.47-6,.41-9.21,6.88-7.75,3.89-17.73-6.15-20.73-5-1-6.63,7-11.73,4.47-3.27-1.68-2.64-4.79-2.61-7.85,6.5-25.25-29.53-45.63-11.44-68.25-3.3-6.34-3.63-19.46-12.8-19.14-5.6.24-8.35-2.92-10.06-7.72-4-12.38-8.11-24.8-18.3-33.52-3.06-3-4.53-5.64-2.88-10,8.46-13.72-26.56-16.74-3.46-26.93,1-1.47-.84-3.82-2-5.64-4.41-4.92-3.9-13-11.59-14.18-15.93-3.31,6.87-18.35-5.56-26.51-7.83-26.8-12.24-7.36-28.37-19.85-21-3.22-13.62,30.45-14.36,43.38,2.35,10.23-12.41,14.93-4.13,24,3.39,4.75,3.39,4.75-1.13,9.14-9.78,13.51,24.39,19.93,21.25,35.44,1.85,10.21-6.25,28.39,7.72,31.35,5.33,1.34,10.05,7.85,15.13,2.34,6-5.37,6.17-5.22,11.25.92,5.36,4.94,8.71,13.39-2.37,12.85-6.86.86-9.22,5.27-4.92,10.5,9,12.61,9.62,28.4,13.47,42.9,1.72,11.42,18.42,7.7,16.84,20.13,1.86,10.22-5,24.31,4.32,31.69,4,7.29,7.74,15.73,11.94,23.31,9.28,12.23,6,27.15,13.48,39.88,6.53,14.26,20.12,36.21-2.52,43.4-13,4.12-29.58-5.08-28.45-19.71,2.55-11.86-7.53-15.35-15-22.07-17.51,13-2.72,28.27,4.09,41.9,4.23,6.27,3.64,13.94,12.63,16.36,8.17,5.76-9.61,10.84-12.35,15.23-8.49,7.48-5.82,20.05,1.88,26.74,5.31,15.36,14.41,29.07,21.79,43.91,13.38,36,53.55,76.6,52.33,113.41-1.26,5-.91,8.93,3.34,12.3,10.11,10.32,7.66,30.33-4.4,38.37-21.18,8.07-87.62,4.79-58.45-32,9.87-8.91,9.82-12.32-1-19.89-13.19-6.41-11-35.44-28.2-33.92-12.76,2.45.85,51.64-25.15,26-2.46-7.67-7.74-12.85-13.39-18-5.45-5-5.42-7.66-.37-12.81,22-20.76-43.24-25.61-22.64-47.55,11.45-16.93-6.59-62.09-22.3-25.35-12.32,18.82-19.12-14.85-33.54-3.25-36,44.51,12.13,30.16,26.89,62.75,5.17,10,29.86-2.31,21.41,14.6-12.72,10-14.32,33,6.14,32.07,6.87-2.28,16.51-3.55,20.62,3.6,10.49,33.17-19.79,5.22-28.91,20.1.4,42,32.64,80.57,48,120.48,12.84,14,3.4,99.49,25.29,84.87,5.12-3.43,7.36-13.26,15.07-10.15,2.74,2.52,1.12,9.4-2.15,11.85-28.28,20.5-22.69,55.19-23.6,85.78-1.2,10.58,12,14.54,10.14,25.48-.52,8.66,10.49,11.79,8.48,21,.9,11.83-3.91,25.4,3.79,35.59,3.62,5.13,8.28,13.31,1.86,18.07-4.69,3.6-6,8-4.58,13.63s-.37,10.81-3.1,15.61c-13.78,20.51-41.28-21.16-24.44-35.05,5.24-14.93-19.9-7-27.94-9.24-10.15-.7-3.52-14.23-7.59-19.91-5-12.68-22.74-18.19-24-30.82-3-14.27,19.58-50.69-1.18-54.63-7.21.65-13.15,8.65-19,.83-6.21-9.58-11,4-19.06.1-8.39-4.75-25.76,3.91-18.82,13.65,7.51,6.67,3,16.88,3.07,25.46-6.56,12.26-7.82-9.22-16.43-9.38-6.67-2.65-1.68-8.82-.75-13.49,4.52-19.62-33.87.36-27-20.74,3.85-40.91,10.58-19.59,38-16.63,2.11.09,4.65,2.72,6,4.81,4.66,10.47,36.39,8.14,27.47-4.55-13.8-14.12-18-35-.43-47.48,10.68-5.59,5.89-43.66,22.55-31.47,4.28,6.3-3.56,18.38,4.68,21.35,9.72-4.63.5-21,1.81-29.66-6.15-43.13-38-77-50.82-118.24-9-9-15.51-71-33-46.63-4,9.42-3.29,19.29,1.45,28.44-8.38,10.7-32.18-12.5-29.21,10.62,7.55,41.46-28.27,26.41-17.74-6.8,18.23-17-7.08-35.53,9.37-35.11,24.76,13,18.41-10.88,41-9.92,14.27-5.41,3.38-29.92,1-41.28-3.17-6.41,1.44-18.87-7.48-21.76-8.35-1.25-10.83,9.12-13.23,15.15-3,10.57-21.19,6.64-15.61-4.77,3.12-6.26,10.65-8.69,9.33-16.91-4-22.49,27.22-4.26,24.07-24.39-2.38-14.69,5.28-33.49-3.89-45.84-5.79-5.64-4.94-14.89-13.12-18.59-9.49-7.39-11.93-29.93-28.71-19.75-6.47,7.37-21.48.57-21.65,12.35-.27,25.48,5.28,39-26.24,27.37-15.39-1-10.33-20.19-20.42-27.51-10.11-9.12-16.32-20.38-22.45-32.07-5.59-11.93-18.72-18.45-18.94-32.82.32-16.81-26.75-13.87-23.91-34.65,4.67-19-15.37-31-17.15-47.86,2.21-31.89,5.61-31.65-24.42-41.92-30.93-18.23-32.5,21.28-47.7,9.19-10.66-10.67-29.93-1.23-31.59,12.94-.11,5.57-2.43,7.59-6.38,7.84-18-.58-10.72-20.41-.07-26.38,14-12.73-4.64-25.94-12.73-35.88-9.62-10.09-21.84.49-33.07-3.17-26.34-5.16-40.85,5.22-17.34,26.22,11.69,9.7-8.68,11.94-3.37,48-.48,10.4,16.13,4,21.5,14.43,6.81,41.94,13.31,21.51,27.48,52.18,2.72,7.93,7.34,11.27,15.57,11.33,21.26-.79-2.87,31.72,20.69,32.79,19.58,2.23,6.56,23.49,16.46,32.69,7.84,8.53,10,21.56,20.71,28.16,12.86,11.22,12.21-20.37,23.32-8.19,17.86,14.21,23.6-7.6,33.11-4.78,5.34,5.28-5.34,14.15-9.91,17.92-4.31,7.82-26.47,31.78-7,33.74,7.62,1.46,26.15,4.89,19.64,15.18-3.37,5.7-3.07,6.92,2.72,10,7.46,4.51,18.09,8.71,17.67-4.45,5.75-16.69,22.4,6.65,18.08,16.57.49,36.71,29.83-2.17,40.44-13.32,6.5-7.43,10.93,6,15.3,9.79,20.43,33-43.87,11.78-28.94,43,18.7,21.41,17.82,54.63,40,73.27,12.86,12.08-7,13.72,1.38,37.72,4.4,29.8,26.25-13,34.07,15.21-1.59,21.41-36.51-6.71-27,23.28,5,16.77,7,34,7.3,51.36.3,8.93,2.68,12.24,9.78,13.5,23.91,2.78,19.49-33.79,19.19-49.27.85-16.27,23.28-19.48,30.83-33.19,5-10.68-2.48-24.45,11.11-31.52,8.71-1.89,7.9-35.52,15.1-18.54-.09,5.21,2.1,8.66,6.68,11.1,8.13,5.78,2.71,18.13,5.68,26.6.68,4.16,0,7.21-3.08,10.23-19.93,24.61-13,16.26-40,25-10.08,6.78-11.41,32.91,2.74,35.08,19.1-1.24,43.88,28.53,27.83,44.61a6.38,6.38,0,0,1-7.55,1c-12.69-6.23-26.18-2.56-39.31-3.15-12,3-9.09,27.83-25.77,11.69-12.85-10.36-14.47,15.58-17.78,23.51-3.75,8.57,9.65,15.07,15.87,9.49,5.61-6.86,17.76-3.49,19.31-13.81,1.57-11.81,34.8-13,28,2.75-7.12,32.54-11-1.87-37.08,30.56-18,9.1,9.5,19.34-1.78,31.47-7.71,9.06-25.16-3.14-23.12-14.2,1.68-10.64-4.5-18.71-8.35-27.52-6.84-8.77-23.74.4-26-14.33-34.18-25.66-12.14-71.23-32.2-102.43-13.82-24,2.94-18.3-26.64-33.08-16.65-17.2,22.71-18.93,15.49-38.18-6.47-14-6.26-36.31-18.28-45.69-8.44-.68-8.74,12.41-18.1,9-7.65-.34-17.18-2.8-23,3.82-12.88,10.12-27.45.12-13.41-13.48,12.44-13.55-5.51-23.75-3.92-37.19.82-16.8-22.87-30.72-37-36.12-10.82-13.55-27.62-.89-39.94-10.18-12.43-5.2-19.3-21.48-33.56-20.92-17.49,5-21.28-14.33-35.25-16.7-19.65,1.62-2.26-17.2-21.81-23.86-6.54-3.9-6.1-3.42-5-10.49,3-11.76-3-26.06,5.23-36.11,25.07-20.43,23.84,56.9,51,15.57,9-9.07,22.88,6.59,14.46,15.87-5.16,9.23-.45,19.54,9.64,21.12,15.76,3.75,10-17.64,21.23-23.09,7.43-11.54-7.65-26.71-13.48-36.67-6-3.24-11.44-6.67-16.28-11.55-12.13-5.17-12.68-23.59-26.44-24.36-5.93,1.31-30.08-15.81-15.7-18.26,17.75,4.14,31.66-7,14.44-19.21-19.65-5.61-14.59,20-34.39.68-20.69-7.11-26.27-21.69-26.58-42.21-7.94-16.22-13.18-41.13-33.89-44.4-7.56-8.28-21.53-10.23-23.43-24.18-3-10.64-18.94-5.45-24.55-15-7.45-6-23.34-2.68-27.47,6.34-12.48,19-16.79-9.36-30.14-6.63-10.43-2.3-8.6,21-15.88,9.75-22.83-26.82-26.19-10.91-50.06-7.47-9.67,2.5-15.05-.9-15.71-11.13-.35-9.2-13.46-20.24-20-10.49-5.81,7.69-13.23,13.52-20.75,19.33-7.8,7.89-16,.06-25.11-.12-13-.91-13,17.66-2.13,21.28,11.81,3.18,17.06,19.15,30.5,15.85,9.62-.88,5.55-10.4,3.51-16.3-2.95-11.31,11.62-7.69,18.2-7.53,18.83,3.12,25.37,28.63,45,32.56,28.63,12.08,53.24,31.25,78.18,49.39,4.15,3.07,8,4.24,12.78,2.13,13.09-2,19.57-13,9.59-24-5.89-5.09-3.76-16-13.12-16.54-10.84-.59-11.45-21.55.87-17.17,19.51,13.72,31.27,34.37,41.09,56.06,9.14,15.74-17.63,7.68-25.33,11-20.3,11.85,56,38.56,61.56,49.19,22.72,16.92,60.62,49.11,20.25,71.08-2.3,1.37-9.27,2.5-4.7,5.36,18.52,11.48,6.71,28.5-5.68,35.86-10.64,5.88-1.81,18.31-.88,27.23,2.63,15.41-18.87-3.89-14.54-14.49,1.22-15.3,5.5-45-19.28-33.27-23.39,5.2-3.83-31.17-12.06-38.18-3.08-1.08-8.27-7.55-10.22-3.43,1.62,6.94-.41,11.9-6.85,15.58-6.24,8.08-15.4,20.26-26.56,12-15.5-9.93,16.15-22.79-4.1-30.16-10.59-6.36-21.13-14.84-34-16-6.47.21-12.11-.28-16.66-6.11-3.21-4.12-9-3.42-13,.21-8.11,6.19-12.28,16.07-23.16,4.66-12.26-12.1,11.7-30.53,24.22-25.44,11.73,3.53,17-8.52,28.5-11.1-14.27-11.8-53.15-50.69-62.52-18.11,1.76,16.61-20.73,22.89-16.2,41.12,2,13.55-20.88,29.21.77,37.44,10.93,7.84,24.45,13.17,34.67.84,1.6-.57,4.23-1,5.24-.1,7.34,5.91,16.68,9.22,22,17.55,2.27,6,7.75,35.73-5,33.74-8-1.42-12.18-10.58-20.46-9.8-6.83.69-11.51-2.26-14.35-8.34-3.63-8.27-18.27-12.65-23.31-3.64-11.87,17.18-33.55-12.18-47.08-.46-5.89,14.06,8.9,17.85,14.09,26.15-.7,16.2-21.46-12.89-29.11-14.23-1.75-1.49-3.68-3.78-3.88-5.87-1.86-12.42-16-16-20.83-27.12-16.77-11.73-7.66-25-18.55-38.41-6-5.26-.21-11.4,4.35-15.63,18.94-15,13.3,18.33,41.75,14.34,10.41,2.07,17.51-6.93,23.81-13.62,9.88-15.22-12.09-18.21-19.86-25.91-22-16-18.38-27.16,9.08-19.48,8.91,2.92,12.84-6.8,20.86-7.95s10.46,6,7.23,12.52c-7.34,20.59,27,9.57,24.81-4.8.87-16.48-18.25-14.44-24.72-26.16-4.86-6.38-14.93-4.6-19-12.38-3.13-3.93-7.13-7.11-12.47-6.54-29.53,4.87-29.55-48.15-57-36.2-21.14,13.05-11.05-14.23-26.19-14.31-17.42,3.51-30.8.18-42-14.36-10.73-8.14-.37-26.94-18.91-25.29-16.59,1.25-16.8-13.62-24.81-23.45-8.66-2.48-13.48-9.78-20.23-14.59-8-4.61-16.78-6.11-21.59-14.72-19.32-21.12-31.26,26.3-42.76-18.95-1.7-16.45-26.07-6.65-32-21.48-9.05-14.24-28.64-6.35-38.48-19.85-22.52-26.23-55.86-29.1-88.29-26.18-7.3.17-7.49,1-10,8-10.93,23.12-44.73,28.56-68.23,24.42-23.78-6.84-59,30.4-55.25,49,2,4.66,3.75,10.32-.91,14.22s-10.46,4.89-14.88,2.58c-15.62-7.54-23.72,32.71-35.16,41.94-12.54,12.59,3.92,26.75-2.43,25.51-7.48-3.84-10.61-3-13.63,4.69-3.53,17.6-9.27,36.36-5.05,54.27,3,9.44-12.49,24.17-22.34,20.88-14.27-1.84-32.53-4.56-44.35,4.37-4.07,4.43-12.07,3.88-17.15-.28-7-4.86-11.51-14.51-21.06-13.9-4.8.26-7.84-2.17-11.18-5.37-8.74-11.28-28.43-17.4-29.48-32.55,3.08-17.09,19.31,20.23,39.4-8.85,5.92-5.92,13-4.22,18,2,53.49,34.3,12.4-24.27,46.64-66.51,20.81-36.36,44.74-70.39,72.87-101.48,24-35.91,62.51-56.86,106.12-51.13,25.09-5.25,34,41.1,55.73,22.54,8.89-12.26-20.12-22.48-5.81-28.34,9.37-3.54,4.29-20.19,17.77-17.94,3.9.4,5.87,2.92,6.26,6.41,3.93,29.58,40.28,20.18,57,33.69,12.11,22.05,46.81,8.48,57.67,28.5,4.66,16.86,26.54,9.28,39.33,15.8,13.09,2.93,23.45,12.55,36.8,14.57,7.42,6.93,18.86,10.72,24.38,19.19,2.54,7.66,8.76,11,15.51,13.17,11.19,3.54,18.81,12.81,30.39,16,8,1.87,14.5,8,22.88,7.21,9.5.71,24.93,21,32,3.29-1.84-39.78,40-2.66,59.63-12.58,17.29-9.37-6.95-22.54-12.5-31.56-4.74-5.79-13.55-4.87-20.33-4.07-12.75,3-8.82-12.88-17.58-17.59-10.05-5.09-6.81-20.65-18.75-22.89-54.73-23.3-19-3.44-56.52-45.7-5.44-16.47-18.48-10.66-29.4-3.43-6.93,2.66-11.78-4.16-16.07-8.63-6.56-9.43-19.51-4.31-27.38-12.32a14.75,14.75,0,0,0-7.89-3.57c-14.43.52-15.74-18.9-30.32-16.87-22.56-.27-55.14,1.79-66.55-20.77-3.24-10.16-3.57-10.5-14-11.06-44,4.2-24.77-21-53.22-37.59-12.19-9-.34-37.4-24.2-27.84-13.75,1,7.83,61-22.49,53.4-3-4-7.71-4.74-12.21-5.34-7.66-8.76-19.7-9.71-28.1-17.63-12.7-10.57-34.19-19.33-34.05-38.41-.47-15.22-30.78-5.74-14.13-25.67,18.52-11.85-7.31-22-1.92-36-.31-7.4,4.5-16.65,12.23-17.79,8.65,3.18,12.74,13.53,23.93,12.28,9.23,1.13,24.08,16.28,30.65,2.47,13.71-18.66,53.8-44.8,65.63-11.16,2.64,16.28,39.14,5.35,52.15,7.9,35.18-.85,11.29,36.08,25.56,49.9,8.39,6.2,19.05,5.57,27.17,11.35,14,10.69,36.81-4,41.92,22.47,6.07,16.11,24.43-6.66,31.68,10.32,13.88,22,21.49-.26,47.2,10.58C701,902.25,691.45,877,707,884c37.29,11.24,19.09-34-6-12.17-10.66-11.53-.19-32-20.85-33.81-8.13-2.32-14.86-6.66-22.81-9-6.78-10.11-23.81-5.18-26-19.41-1.68-8.07-7-11.21-14.47-11.73C598,799,580.15,792.64,567.14,779c-8.09-11.66-24.87-.73-33.43-10.31-19.07-12.54-65.32,12.64-30.14-31.33,6.82-6.77,11.25,14,20.83,9.78,12.88.1,11.44-20.4.91-21.38-15.26-2.44-1.95-25.64-17.28-27-20.11,0,.42-23-17.76-23.31-12.33,3.58-20.58-5.28-31.67-8-7.07-1-9-3.26-7.82-10.18,12.71-45.78-43-22.94-65.18-34.85-6.09-6-11.43,2.47-15.62,6.73-19.25,21.66-50.8,9.34-74.84,21.69-15,3.86,8.23,21.46-24,28.76-27.74-3-5.16-23.39-47.31,9-8.32,6.82,8.2,15.15-3.54,20.51-5.49,3.79-10.59,6-16.92,1.31-48.85-15.28,2.07-23.88-14.28-45.27C167.18,628.8,244,602,268.81,595c10.34-7.23,32.79-2.91,37-15.85-1.2-13.86-19.95-3.56-25.85-12.58-7.45-5.4-19.8-16.63-4.68-22.16,11.28-1.42,13.3-1.64,14.37-12.59.4-16.91,19-8.77,26-19.78,13.07-18.6,35.48-3.82,51.63-14.67,27.09-12.9,69.44,5,89.92-16.68,7.2,9.29,56.66,10.57,39.42-7.54-36.16-29-33.5,17.31-52.35-6.42-10.62-25.72-24.81,11-41.32,5.36-17.18,4.81-31.8-18.26-46.26-4.1-6.47,8.4-16.91,2.14-25.8,4-14,.78-18.93-14.06-25.88-23.61-16.11-26.58-55.39,27.37-59.79,43.8-11.33,14.2,13.52,24.21,1.21,37.43-6.61,9.23-13.43,1.74-20.77-2.42-9.39-5.17-16.76,8.79-26.78,1.17-18.85-3.56-32.77,17-44.13,29.34-6.51,10.27-19.43-4.16-13-11.25,9.38-6.74,18.21-16.7,30.65-16.55,6.12.08,11-2.23,13.42-8.53,2.31-15-11.49-27.81-3.92-43.92,5.58-13-7.59-21.65-13-32.24-7.59-9.54,7.95-36.15,16.66-18.88,2,7.7-3.08,21.58,6.51,25.39,3.73.35,7.78-4.25,8.87-7.88,6.27-16.57,19.45-27.09,32.76-37.45,15-9,18.47-11.08,16.88-28.39,1.58-5.86,6.48-6.19,10.31-1.69,12.31,16.57,43.42-4,.34-15.14,7.66-6.62,20.32-3.17,29.83-4.86,4.93-.12,6.61,1.88,7.61,6.77-.92,26.91,36.64,17.15,30.8-5.28-3.72-13.4,20.39-4.78,16.7-19.76,1.06-4.82,5.21-6.76,8.17-3.17,12.81,11.56,54.66.53,70.67-3.46,4.2-.45,8-1,11-4.26,7.34-5.73,17.95-2.56,26.4-5.86,18.8,3.28,22.59,6.2,43.06.59,17.58-1.84,11-33.78,37.82-23.48,7.46,4.57,6.88,15.65,8.67,23.32.54,8.79,9.11,18.2,17.77,13.65,16.33-10.95,35.35-4.18,53.14-3.46,16.57,4.25,27.49,22.45,46,25.07,10.17,1.52,21.22-7.09,29.48,3.55,16.3,18.42,28-16.73,42.72-8.83,19,11-5.15,25.95-2,41.18-.6,10.23,14.45,16.73,21.27,7.87,23.63-33,49.61,21,75.6,21.25,10.34-.57,27.44-2.22,13.84-13.63-5.14-4.88-9.42-11.22-18.22-10.52-4.27.34-6.22-3.83-7.56-7.51-3-8.64,14.4-10.86,3.72-18.75-8.7-14.09-30-7-37.55-22.48-6.22-19.06,34.52,14.67,34.57-18.63-6.34-14.52-23.7-17.28-36.66-24.4-5.95-2.93-5.31-3.23-11.41.79-35.92,21.85-42.42-19.32-15.84-36.73,12.29-6.77,1.58-18-10.29-10.91-13.49,3.52-17.67-15.58-30-17.1-25.23,2.1-31.64-15.23-54.78,1.33-24.81,5.1-37.46-22.71-61.18-24.8-10.13-.75-17.73-7.32-21.5-17.27-2.22-5.86-3.25-6.78-9.42-6.86-21.54.42-12.83,12.14-46.06,8.42-11.09-1-16-13.76-28.56-8.76-3.62,1.35-4.33,6.08-.32,8,11.86-.91,17.33,14.31,5.5,17.33-7.79.27-11.73,6.21-17,10.21C475,236.87,480.6,252.14,468.43,259c-8.33,9.11-19.51,9.39-30,13.28-11.19,16.66-27.68-.17-15.78-12.5a42.58,42.58,0,0,0,12.9-19.26c7.72-10.59,17.15-25.13,32.44-22.75,10.1,3.81,20.33-7.27,10.38-13.5-12.15-2.9-15.86-15.5-26.53-20.24-16-2.64-22.56-24.86-38.42-23.61-34.27,17.48-26.59-12.32-4.8-8.38,6.94,1.84,7.07,1.94,10.9-3.52,6.71-9,19.42-.18,27.15-9.38,11.75-6.38,21.37,4.34,31.69,7.93,8.25.32,9.31,11.9,3.1,15.94-13.44,5.5-11.95,21,4.16,16.05,11.09-1.83,3.6-17.92,14.88-21.41,5.82-3.83,9.69-8.7,7.2-17.18,31.46,11.95,14.35-14.27,27.56-20.1,3.58-.78,6.42,1.39,7.41,4.78,2.5,15.44,18.49,33.35,34.57,35.3,12.18,7,25.62,20.9,41.21,16.23,11.39-6.45,26.82,7.3,36.64-3.06,12.09-17.81-36.08-34.4-16.48-45.81,13.87-4.87,10.19-23.69,4.57-34.35-4-16.6,26.21-21.22,2.34-35.71-35.2-1-19.37,43.52-71.19-5.27-17.5-9.38-41.08-1.53-60.66-4.38-4.84-.07-8.78.79-12.35,4.64-9,11.52-15.61-4.47-24.74-4.59-7.06.13-9.78-13.6-16.34-4.91-3,3.46-6.49,4.29-10.73,4.59-10.38-.34-6.71,7.31-9.31,14.43-4.82,9.51-5.74,18.47,2.54,26.77,5.7,5.92-.94,13.44-7.54,9.77-8.43-2.66-7.3-12.42-11.92-18.79-4.27-5.41-2.19-14.17-10-16.26-4-1.22-4.47-4.23-3.49-7.85C409.2,31.94,389,76.67,378,73.08c-6.86,1.18-11.49,7.56-15.06,13.8-10.84,32.33-43.69,4.56-54.24,30.89-4,9.69-12.68,16.39-17.11,25.34-.59,6.27-4.6,10.07-8.72,14.11-8.14,10.89-25.59,19.33-24.95,34.29.36,6.08-.87,10.84-7.49,11.07-9,.28-12,9.94-18.92,14.13-10.46,4.06-12.54,24.89-23.44,20.56-11.22-6.14-17.06,4.25-24.61,11.14-6.06,4.45-14.09,3-18.38,10.21-3.64,4.45-10.23,8.35-12.47,13.61.82,8.77-6,12.93-11,17.93-6.59,4.42-4.55,12.59-9.66,17.74-6.46,4.56-4.24,12.16-4.33,18.78,3.18,10.79-7.4,13.45-8.27,23.17-1,8.75,3.33,18.62-5.24,25-7.38,23.38-.84,51.47-2.68,76.31,2.47,10-9.62,12.24-8.49,21.52-2.65,23.91,6.54,51.44-4.77,73.19-3.59,7.68-10,16.26-11.47,24.57,1.23,14.81-14.5,26.42-16.27,40.74,3.69,10.78-6.82,13.72-8.08,23.16-1,9.06,3.34,19.07-5.41,25.75-11,16.39,9.32,75.08-10.87,80.28,3.44,14.42-11.78,218.45,15.26,158.2.2-9.59-2-19.71,1.07-28.94,7.27-9.34,16.38,14,22.32,18,11.45,18.56-23.84,30.45-34,38.76C39.47,934,49.22,960.55,46.12,974.87ZM550.32,116.8c0-7.34,13.85-6.89,16.54-.79,2.38,4.31,6.35,5.08,10.5,3.79,8.72-7,18.54-15.26,28.78-5.42,7,7.28,19.3,12.16,17.91,24.41-.16,5.44-.87,16-8.78,12.08-15.14-12.4-47.36,10.76-49.46-14.73C569.08,116.1,557.38,127.49,550.32,116.8ZM525.29,92c4.12-4.08,5.19-4.78,8.64-.68C531.12,95.8,530,95.4,525.29,92ZM658.81,344.27c.86-6.86,5.84-4.44,8.29-.7C664,346,661.35,349.18,658.81,344.27ZM478.88,297.6c2-8.37,17.41-8.15,16,3.48C494.08,315.94,479,308,478.88,297.6ZM417.42,316c-5,4.52-8,12.05-15.84,11.27C353.46,320.18,436.59,267.49,417.42,316Zm-60.05-67.92c-.58-7.89,21.07-18.23,11.53-27.09-6.29-6.42-15.1-18.47-9.06-26.72,6.67-9.87,28.74-32,28.06-7.09-1.89,7.17-9.24,11.31-8,19.54-.15,5.24,1.17,9.16,5.37,12.73C398.14,236.43,369.6,244.26,357.37,248.08Zm-52.8-21.22c14.62-5.1,21.12,19,3.33,17.26C292.93,245.75,294.44,230.28,304.57,226.86ZM283,217c-.41,8.85-10.62,5.47-9.93-1.87C273.47,207.67,283.8,209.4,283,217Zm-26.26,62.2c1.42-9.25,16.74-9.31,17.22-.12.26,7.86,5.85,7.28,10.86,10.79-3.69,6.49-7,8-10.63,4.26C268.88,287.39,253.73,291,256.77,279.16ZM243.64,269c6.34,6.06-3.85,16.72-11.24,15.79C214.83,284,235.11,262.29,243.64,269Zm45.62,207c4.69,4.4,1.18,12.16-3.59,16.22C281.56,486.7,281.92,474.76,289.26,476ZM591.37,820c11.74-.73,15.77,13.09,4.23,17.38C579.91,843.13,574.19,819.31,591.37,820ZM384.76,688.64c4.53-4.38,10.3-7,11.6-14,8.55-14.3,18.84,11.6,30.45,7.55,13.76,3.25,33.83,11.83,34.75,28.19-.13,5.66-3.15,11.7-9.74,8.8-10.59-4.26-23.52-8.65-21.95,8.37-6.28,18.87,23.35,4.32,16.11,18.58-4.94,4-8.59,14.93-16.08,12.63-12.69-2.48-17.49-16-29.51-18.7-10.6-1.48-9.57-16.8,1.09-17.3,7.31-.16,18.34.75,17.9-9.61C420.78,697.61,373.46,707.32,384.76,688.64Zm304.35,335.55c15.23-8.26,19.77,14.68,2.89,16.79C681.06,1040.73,684.34,1029.61,689.11,1024.19ZM604.68,989.5c4.94.09,8.15,3.07,10.61,6.62,5.83,11,19.9,7.31,26.75,16.77,7.67,12,22.13,10.66,31.92,20.13,7.37,3-1.14,16.22-5.25,17.37-26.8,5.16-36.15-30.5-58.16-33.29C589.23,1022.55,582.93,990.5,604.68,989.5Zm-49.48,2.34c12,.4,4.11,19.86-3.08,18.93C535.55,1010.37,543.72,992,555.2,991.84ZM422.7,935.52c6.5-1.73,9.39,9.85,17.52,7.16,15.18-3.51,22.16,14.38,5.62,18.08C436.54,956.8,410.3,947.53,422.7,935.52ZM412.58,1003c2.57-2.3,3.28-3.76,5.74-1.06C416.44,1004.59,416,1005.33,412.58,1003Zm-126.41-69.4c-3.57-2.44-3.45-3.51-.84-7.52C288.52,929.45,289.27,930.47,286.17,933.58Zm43-238.64c-8.94-10.51-27.55,9.09-29-4.93C312.61,637.17,369.1,707.2,329.14,694.94Zm-17.26,33.54c7.29-11.73,24.52-.28,27.36,9.79C330.31,740.33,315.77,738.29,311.88,728.48Zm67.85,215c4.16,8,16.84,8.7,16.86,18.83-1,18.31-25.15,15.66-25.65-.72,0-5.22-2.06-8.46-6.57-11C353.89,942.87,375.48,931.76,379.73,943.47Zm-148,91.09c.36-9.18,5.11-11,13.28-11.91,17.33,1.47,3.36,18.56,4.82,28.58-.28,11.77-12.16,7-18.92,3.81C222.64,1050.79,232.53,1041.14,231.7,1034.56Zm0-56.52c-.34-8.49,6.57-12,10.94-17.24,14.47-7.91,10.32,23.6,32.23,12.11,10.26-1.25,16.78,10.6,24.57,15.8,28.6,15.87,25.49-32.08,45.14-39.65,14.12,4.23-6.44,28.61,9.55,35.69,5.65,4.48,13.26,9.92,5.39,16.31-4.33,3.89-7,10.88-13.91,9.53-37.5-13.25-40.41,30.56-54.28,8.65-2.7-6-.27-14.15-6.39-18.53-35.76-41.06-32.34,6.69-53.21-5C221.89,989.37,227.72,985.11,231.68,978ZM245.17,730.4c13.76,5.35,24.81-15.22,36.58-5.1,8.28,7.59,3.15,18-8,15.47-18.39-3.07-15,26-33.86,24.24C215,763.85,222.4,727.7,245.17,730.4Zm855,591.3c-3.81,5.07-5.38.55-9.52-2.3C1096.19,1314,1096.54,1318.21,1100.21,1321.7Zm220.46,9.24c-6.14,27.29-29.21,2.14-22.44-15.41,3.79-8.8-18.15-25.74,2.15-24C1318.38,1298.76,1316.39,1315.77,1320.67,1330.94Zm3.65,73.06c-2,10.84-16.33-2.32-12.15-7.65C1317.38,1390.47,1323.81,1395.61,1324.32,1404Zm13.71-29.65c0,1.17-.72,1.36-1.6.61C1336.64,1373.87,1337.34,1373.4,1338,1374.35Zm101.62,97.83c-4.34-4.8-8.8-7.94-15.48-6.94-8.68,1.43-13.44-7.87-21.93-8.23-10-1-23.24,6.75-22.47-10.58,11.44-12.08,6.58-35.67,29.21-32.18,14.4,2.84,34.09,16.51,37.64,31.11C1446.05,1455.15,1461.75,1482.13,1439.65,1472.18Zm59.19,93c-7.77,18.06-36.61,36.73-38,5.36,3.47-13.4-10.48-10-11.88-19.47,1.57-5.15,8.3-1.74,10.53,1.19C1469.48,1563.19,1485.43,1560.57,1498.84,1565.16Zm-2.9-27.16c-8.38-4-21.27-20.32-9.43-27.5C1493,1501.34,1520.14,1537.35,1495.94,1538Zm21.38-51.53c-.86,2.22-2.53,4.13-4.66,7.28C1504.32,1488.18,1512.93,1478.74,1517.32,1486.47Zm-13.49-35c1.77-10.08,2.53-19.64,3.94-29.66,5.26-13.14,13.55,1.57,12.56,9.55C1524.28,1440.23,1510.94,1464.33,1503.83,1451.52Zm271.31-49.59c-1.76,6.29-4.86,3.11-9.67.41C1769.1,1397.58,1775,1394.94,1775.14,1401.93Zm228.35,682c15,9,10.34,27.35,31.88,3.43,5.07,8.46-3.58,14.2-7,21-7,2.19-15-2.79-20.78,5C1994.93,2123.91,1994.93,2085.48,2003.49,2083.91Zm-298.14-22.17c-6.1.39-16.37-9.22-15.89-14.6C1693.31,2029.53,1729.43,2058.81,1705.35,2061.74Zm41-220.67c10.3,6.59-1.1,19.71,2.69,29.53,2.06,8-5.6,10-12.09,9.34C1707,1882.83,1721.59,1824.14,1746.3,1841.07Zm34.15,139.5c-.53,36.75-42.26-8.94-17.65-27.74,5.62-11.08,29.72-15.66,25.4,2.89C1786.14,1964.55,1778,1970.71,1780.45,1980.57Zm-.22-148.57c-11.2.29-23.51-8.8-10.72-17.51C1778.25,1809,1793.61,1829.34,1780.23,1832ZM1748,1763.75c-6.68-11.55,7.37-15.17,15.69-18.35,9-4.21,7.94,8.88,9,14.35C1775.53,1777.19,1753.82,1779.94,1748,1763.75ZM1737.45,1661c-1.42-11.89,15.43-22.41,20.28-8.11C1771.42,1670.32,1736.35,1686.64,1737.45,1661Zm34.92,44.4c-6.77,10.34-16.58,14.63-28.53,9,2.23-7.92,17-3.41,19.39-14.28C1766.68,1693.81,1772.29,1700.51,1772.37,1705.35Zm16.64-20.89c3.14,37.78-34-8-18.73-17.06C1787.24,1664.1,1790.61,1671.35,1789,1684.46Zm8.94,192.86c-5.63,10,7.2,37.93-10.31,35.84-4.6-1.78-4.17-6.65-2.2-10.35,5.91-17.06,1.25-35.56,2.41-53.15C1796.21,1855.74,1798.69,1867.15,1798,1877.32Zm23-443.7c.24,10.41-12.91,10.73-12.41.43C1808.56,1422.83,1821.16,1422.7,1820.93,1433.62Zm25.75,103c3.75,2.89-.21,11.42-5,12.05-3.11,2.15-25.23-25.86-20.38-29.52,3.48-13.7,5.64-28.52,3.22-42.43-9.29-7.81-.64-12.12,3.5-19.12,5.21-5.79,9.47,1.26,9.88,6.57,2.25,7.48,8.77,12.17,8.69,20.35C1853.45,1502.9,1856.92,1518.39,1846.68,1536.59Zm-6.33,33.43c7.44.36,4,6.43,0,10.64C1836.34,1576.47,1833.67,1571.22,1840.35,1570ZM1919,1771.17c-9.89,7.54-8.61,18.89-8.54,29.82,1.83,12.62-1.07,32.79-17.76,20.43-12.58-8.06-5.36-25.31-10.84-36.63-17.36-44.25-30.51-87.26-48.86-131.11-3.94-10-4-10.15-13.13-4.24-19.69,5.16-2.42-22.33,4.66-27.41,25.78-25,26.49-18.49,56.5-10.4,14.28-27.86-31.17-9.55-34.56-16.09-3.92-12.58,14-17.18,21.35-24.41,15-4.06,21.14,21.86,30.27,30.54,16.47,28.28-22.56,21.78,8.29,63.45C1922,1694.39,1941.73,1742.14,1919,1771.17Zm-77,118c3.08,1.47,2.31,3.52-.53,5.79C1839.11,1892.12,1838.58,1889.88,1842,1889.13Zm2.94-25.21c-.23-11.21,14-3.52,14.63,3.23C1858.76,1875.92,1843.43,1874.66,1844.94,1863.92Zm106.58-3.06c3.59,23.67-15.46,6.86-21.86,21.89,1,12-22.21,52.32-31.6,29.17.12-12.51,3.52-26.55,11.75-36.42,8.41-7.9,2.46-20-8.39-21-2.5-.22-4.92-1.21-4.72-4.44,4.2-17,19.1-3.14,29.36-3.79C1938.39,1846.36,1954.76,1843,1951.52,1860.86Zm4.78,42.41c-3.19,1.48-5.09-.54-6.3-3.23-2.18-6.42-9.61-14.31,0-18.72C1952.51,1888.42,1964.18,1897.39,1956.3,1903.27Zm-156.41,416.4c4.35.29,9.78-.71,11.59,4.87.28,7.15,16.09,15.89,4.36,20-11.21,3.14-16-7.67-21.83-15.16C1786,2324.55,1793.16,2319.16,1799.89,2319.67Zm-12.62-48.52c.39-14.11,16.46-7.67,15.77,3.47C1802.48,2285.28,1785.7,2280.24,1787.27,2271.15Zm-27.62,108.7c5.17.06,7.71,8.58,2.79,11.38C1755.8,2390.86,1753.45,2381.86,1759.65,2379.85Zm-49.4-36.17c7-.13,4.42,6.26.36,10.47C1706.56,2349.37,1704.08,2346.22,1710.25,2343.68Zm2-35.82c-1.57-1.37-1.83-2.66,0-3.32C1714.28,2305.14,1713.85,2306.48,1712.3,2307.86Zm-9.92-64.42c31.72-45,63.17-91.18,75.77-145.79-.26-26.91,13.42-51.64,16-77.38-8.88-39.63-17.34-7.81,10.46-42.25,13.64-12.51,21.71,20.36,33.53,24,13.36,5.89-4.87,20.85,4.76,31,16.19,33.6-7.14,69.91-10.15,104.48-1.69,8.65,6.65,7.58,11.66,3.44,16-6.86,10.19-72.25,17-92.24,11.18-26.1-17.41-44.12-4.45-48.07,11.37-1,30.72-23.81,16.48-30.36-6.34-.19-13.06.09-13-8.14-1.15-12.59,3.16-25.77-4.52-37.31-2-2.77-.23-6.17,3.3-6.84,13.15-5,29.88,6.86,26.17,21.77-1,3.83-3,8.35,1.69,11,4.3,2.46,6.87-1.62,9.79-3.81,21.26-19.06,33.26,10.27,52.77,5,12.64-5,24.77,16.56,13.47,25.66-5.89,6.06-6.37,16.58-.38,22.65,11,16.38,2.64,39.71,4.78,58.66-.11,7.16-7.77,11.81-7.19,19.14,1.32,13.58-5.17,31.8-20.55,31-2.49-9.12,8.11-11.69,8.14-20.27.46-16.26,11.32-32.49-6.6-43-24.83-17.58-22.22,67.76-25.85,82.26-5.83,13.22,22.79,23.18,6,32.61-20.94,14.27-19.18,91.89-35.89,119.55-23.23,49.62-80.31,8.93-54.5-33.28,9.61-26.45,11.62-56,20.23-83.23,2.23-28.63-21.47,9-31.37,11.11-12.52,11-18.23,29-24.17,44.39-5.94,12,5,15.71,8.08,25.39-4.64,10.66-18.94,6.31-19.31-5.91-10.92,3.7-2.39,16.15-13.18,20-12.43,9.73-16,26.38-32.7,32.2C1708.1,2309.62,1682.28,2269,1702.38,2243.44Zm5-145.54c-2.64,9.32-15.27,17.88-18.42,4.56C1686.26,2087.8,1709.8,2083.39,1707.43,2097.9ZM276.92,1215.8c0-3.82,2.54-2.34,5.16-1.51C282.39,1217.67,279.41,1216.48,276.92,1215.8Zm128-79.16c.23,6.94-9.63,18.41-15.79,19.06C370.57,1155.07,398.87,1101.55,404.88,1136.64Zm47.4,11.6c-8.76-7.34,7.36-9.24,12.05-10.43C484.17,1139.72,459.57,1152.89,452.28,1148.24ZM474.33,1115c-.35-.52-1.1-1.25-.32-1.68C475.22,1113.71,475.2,1114.15,474.33,1115Zm148.93,59.26c-11.76-2.9-24.65.15-35.34-6.35-13.18-13.42-33.53,19.62-38.29-5.32-2.28-10.82-16.29-4.24-24.08-20.78-7.78-9.74-9.79-15.85-.08-25,6.77-9.58,20.72-2.08,30.53-3,43.12-7.57,5,26.87,28.16,21.69,4.73-8,12.08-4.67,16.1,2.1,5.61,15.17,28.37,0,32,13.29C632,1158.75,636.33,1176.89,623.26,1174.25Zm111,270c10.15,1,4.81,15,12.09,20.19,8.54,8-4.13,16.94-10.54,9.3-6.86-5.54-11.62-26.92-22.51-20.3-7.07,10-27.44,13.71-22-3.66,4-8.22,6.34-21,17.83-20.76C719.31,1430.7,721.84,1445.48,734.29,1444.3Zm-40.78-53.36c1.76-6.94,5.71-10.31,13-11.53C738.27,1385.57,690.21,1412.32,693.51,1390.94Zm20.29,97.21c10.84-.13,17.73,16.38,7.31,23.41C708.14,1516.65,694.24,1488.44,713.8,1488.15Zm26,36.51c0,7.11-10.44,7.22-10.34-1C732.23,1519.85,739.4,1517.41,739.78,1524.66Zm1.93-97.61c2.19-17.16,39.43,10.26,29.83,19.79C761.32,1451.24,748.39,1433.85,741.71,1427.05ZM773,1513.67c-13.77.69-15.66-11-2.87-12.61C778,1500.57,778.74,1510.48,773,1513.67Zm4,62.06c-5.36-12.31-20.24-12.43-25.23-25C763.52,1514.16,797.43,1587.9,777,1575.73Zm4.37,84.56c-30-.88,6.61,40-20.19,36.57-8.61-3.07-8.43-11.56-8-19.28-5.09-14.66-9.92-15.91-8.7-34.12-.3-10-13.37-5.11-17.41-13-13.2-10.79-22.76-30.13-38.95-35.46-25.73-4.35,1.22-30.9-15.38-42.37-41.6-29.67,1.62-51.66,19.46-16.29,3.17,19.56,30.13,26.63,30.13,46.1-.58,4.59,1.14,8.28,4.31,11.75,15.08,9.34,17.28,37.63,28.07,40.1,9.28,3.21,13.49,7.21,23.66,3.14C799.53,1637.32,806.41,1658.65,781.4,1660.29ZM613,1557c-3.23,5.15-.76,9,2.9,12.82,5.31,33.38-28.72,8-35.29-7.88C585.84,1540.34,629.37,1518.68,613,1557Zm-42.65-232.1c5.58-.11,10.59,4.09,10.7,8.53C578.88,1346.55,555.88,1327.26,570.36,1324.85Zm40.88-9.79c3.08-.15,4.49,4.3,5.08,7,10.55,13.88,28.16-4.36,29.42-17.35,12,1.34,13.81,8.67,6.75,14.83-6.89,6,1.54,27.82-13,21.07-8.06-3.77-16.61-1.33-21.57-10.3C613.37,1326.43,601.92,1320.83,611.24,1315.06ZM653.9,1732.3c18.79-2.36,44,4.79,51.7,23.47,1.14,3.41,2.09,6.44,4.74,9.1,10.11,10.94-11.4,20.68-20.2,17.5-15.34,2.74-26.58-10.72-34.15-22C655.83,1750.86,634.9,1735.46,653.9,1732.3Zm140.29-326.21c-1.38,3.71-3.61,1.87-5.81-.7C791.54,1402,792.86,1402.8,794.19,1406.09Zm18.59,172.57c-2.49,7.78-13.95,21.69-22.9,14.49-7.46-8.62,10.58-8.83,9.58-18.36C802.3,1566.69,813.91,1569.41,812.78,1578.66Zm-8.69,176.59c9.73-9.08,16.21,3.83,17.4,12.63C820.28,1790.33,790.93,1767.68,804.09,1755.25Zm31.79-51.84c2,3.76,3.08,8.33-.3,12.17-12.7,6.71-28.7-14.41-25.81-27.77-4.91-15.06,23.05-38,27.19-14.93C839.07,1683.51,830.68,1693.37,835.88,1703.41Zm31,43.52c6.26.71,7.4,1.9,5.36,7.56-4.47,11.28,3.71,24.8-8.1,33.06-6.36,6.75-12.67.11-17.09-5.31-10.12-8.46-.48-16,3-25.24C844.07,1745.33,858,1743.78,866.88,1746.93Zm25.54-189.65c-.6,5.43-11,13.66-17,13.66-5.49.6-11.78-6.28-11.53-11.51C865.3,1551.82,895.44,1542.46,892.42,1557.28Zm9.15-17.33c-7.81-3.28-23.74-6.44-24.49-16.1,6.18-6.6,21.31-7.15,27.31,2C915.61,1530.23,912.54,1538.92,901.57,1540Zm15.7-76.78c-1.52-1.48-3.14-2.82-.82-4C918.57,1460.28,919.47,1460.74,917.27,1463.17Zm24.37,48.42c-.17,8.57-11.5,8.52-11.39.23C930.2,1504.86,942.81,1503.43,941.64,1511.59Zm35.84,177.93c-3.21,11,2.69,30.74-7.91,36.94-12.36.66-18.47-13.37-20.45-23.74-1-11-19.82-22.77-1-29.35C958.92,1671.65,977.82,1675.71,977.48,1689.52Zm4.72-50.87c-9.46.56-26.4-10.36-11.48-17C976.32,1621.33,996.4,1636.47,982.2,1638.65Zm57.43-172.48c-4.27-4.31-7.52-10.53.15-10.58C1046.44,1456.89,1043.81,1462.16,1039.63,1466.17Zm36.73,132.39c-.56,22.81-26.46,38.25-45.53,24.85-20.87-19.78-32.19-49.8-44.58-75.52-5.47-18,6.63-30.5,19.78-40.82,12.28-5.94,32.09,13.82,38.44,24.46C1056.26,1553.33,1071.44,1573.86,1076.36,1598.56Zm38.2,70.17c-15.72,7.71-34.1-13.61-11.08-18.43C1112.53,1649.72,1126.31,1663.06,1114.56,1668.73Zm15.06-55.53c1.11,23-15.8,8.29-15.57-5.27C1116.13,1594.71,1132.22,1602.36,1129.62,1613.2Zm-31,346c4,19.22-16,25.18-28.16,32.32-7.1,7.89-14.34-.1-20-5.67-18-17,10.39-35.19-12.48-54.26-4.17-13.16,14.9-27.75,25.84-16.21,9.78,10,21.28-1.38,31.34-4.72,12.79,7,30.23,2.35,36.41,17.75C1140.94,1964.49,1078.64,1898.12,1098.59,1959.24Zm-69.84,109c.11-20.76,7.75-40.09,24.51-52.62,7.43-12.26,29.09,3.95,17.22,10.87-8.07,7.39-8.9,19.88-19.86,25.91-4.7,5-10.57,9.21-10.41,17.47C1040,2078.12,1027.41,2076.78,1028.75,2068.27Zm-5.64,218.92c-28.81,5.86-15.28-19.69,3.68-16.88C1045.25,2277.58,1044.46,2290.14,1023.11,2287.19Zm81.33-105.12c6.9-14.11,18.5-8.12,23.22,4,2.56,11.73,20.94,6.81,19,19.79-.67,10.65-.15,25.12-14.16,25.95-11.06,2-20.75,6.92-32.14,6.91-9.33,2-14.11-5.34-19.37-10.94-1.49-7.31,2.37-24.7,11.58-25,3.55.21,6.49,2.87,6.47,8,1.69,20.11,29.41,29.18,28.7,3C1130.8,2181.75,1099,2201.74,1104.44,2182.07Zm6.9,138.48c13.49-10.88,28.55,13.46,8.74,15.86C1112.78,2336.87,1103.63,2327,1111.34,2320.55Zm25-30.76c-2.39,3.31-3.33.87-6.08-1.08C1133.65,2285.48,1134,2287.45,1136.32,2289.79Zm5.93-142.67c10.21-3.58,13.73,7.49,20.7,12.37,5.43,4.94,13.48,3.67,18.07,9.72,10.15,8.88,4.07,22.37-8.73,20.4-12.14,1.61-17.14-15.76-30-15.06-7.36-2.67-13.81-11.56-15.11-19.3C1125.49,2145.64,1136.41,2148.59,1142.25,2147.12Zm17.52,130.55c21.75-.27,11.55,25.64-5.49,16.32C1143.86,2286.4,1147.17,2276.2,1159.77,2277.67Zm-3.85-169c-2.1-4.55-3.18-8.76-.87-13.82C1163.21,2094.76,1163.13,2107.13,1155.92,2108.66Zm6.83-81.35c12-6.65,23,2.22,33.42,6.71,10.72,4.82-1.65,15.13,17.4,13,.47-7.5-.38-12.14,6.61-16.32,4-3.14,7.26-7.58,13.17-6.79,5.23.75,14.39,1.84,11.91,9.31-3.73,18-21.26,15.88-31.87,26-29.65,9.18-29.85-28-62.45-12.89-2.51.28-5.43-.41-5.45-3.44C1146.23,2033.61,1158.56,2035.05,1162.75,2027.31Zm112.75-56.77c.47,3.63-1,7.2-5,8.36-13.94,1.86-23.57-17.25-32-26.49-6.1-9,8.56-12,12.89-18,15.39-10.3-13.66-20.81-4-31.85,4.26-6.16,11.77-.8,17.06-3.4,8.39-5.92,31.22-8.81,28.45,6.75C1298.19,1937.46,1272.12,1942.68,1275.5,1970.54Zm3.16-360.46c4.39-3.39,6.77-8.44,9.77-1.77C1288.83,1616,1283.16,1614.86,1278.66,1610.08Zm-61.29,404.64c-3.82,6.54-9.93,5.85-15.82,5.06-17.57-4.09,24.64-53.64,29.25-4.86C1225.08,2014.34,1221,2008.38,1217.37,2014.72Zm-53.75-408.4c-11.61-.28-7.16-16.2,2.32-16.64C1174.71,1590.57,1169.33,1606.72,1163.62,1606.32Zm48-16.1c7.92,12.77-24.7,30.23-20.05-13.84C1198.67,1565.49,1207.94,1584.35,1211.63,1590.22Zm10.06-31.26c-9.66,5.59-19.33-8.1-19.7-18.81C1206.39,1522,1226,1551.68,1221.69,1559Zm28.18,328.43c-4.2,19.21-28.35,33.92-25.4,53.24,4.23,7.68,5.71,15.6-2.44,21.7-6.32,6.22-7.87,4.38-15.79.33-25.78-2.45-22-32.33-36-48.37-2.33-4-2.76-7.85.41-11.25,7.74-7.75,2.46-19.79,10.67-27.33,21.11-21.52,25.91-51,24.07-79.94.61-70.37-8.79-14.3-25.34-36-.86-21.76-25.87-5.92-18.55-25.74,4.14-10,18.58-10,15.22-22.89,1.18-8.52-5.56-25.61,4.67-28.91,10.12,4.53,2.52,22.12,12,30,0,14.65,12.65,14.28,9.62-.08-3.62-15-10.54-30-10.67-45.57,2.77-35.55,48.69-34.27,59.08-3.47C1273.41,1714,1276,1838.13,1249.87,1887.39Zm-68.2-89.91c13.65-3.39,23.89,8.58,8.59,16.68C1170.84,1821.72,1152.53,1796,1181.67,1797.48Zm91.27-238.23c-23.74,1-20.76-26.6,3.46-22C1302.78,1535,1298.07,1558.08,1272.94,1559.25Zm31.1,278.37c14.91,1.49,5.48,22.79-6.32,17.14C1286.48,1850.33,1292.76,1837.18,1304,1837.62Zm2.33,123.29c7.42-18.91,33.39-26.07,33.27-49,12.5-11.6,13.53,19.53,6,25.55-5.44,5.86-4,13.51-5.54,20.63C1338.39,1971.42,1304.69,1980.18,1306.37,1960.91Zm8,64.8c-.16-17.87,32-4.58,24,8.07C1332.17,2041.83,1313.16,2036,1314.4,2025.71Zm24.65-296.29c2.82-10.26,11.39-.92,15.15,3.66,7.93,6.49-5.83,12.53-4.07,20.72,1.39,10.19-12.32,13.35-9.57,23.58,5.13,13-18.68,26.94-19.15,8.57C1318,1763.37,1341.47,1750.48,1339.05,1729.42Zm29.17-60.21c-3.29,11.86,7.27,36.32-8,39.85-20.26,3.67-8-29.09-37.63-24.22-6.09.21-18.13,2.09-17.08-7.51,2.1-9.27-2.58-24.08,7.38-29.2,4.69-1.52,8.72.24,11.3,4.27,5,8.71,14.53,6,22.8,6.67,11.51,1,13.67-25,27-13.15C1384.51,1654.84,1368.5,1660.1,1368.22,1669.21Zm39.88,178.06c-.31,20.26-23.21,9.19-26.07,27.9-1.64,5.75-6.11,11.5-12.83,12.29-9.15-.53-18.56-15.83-10.68-23.28C1373.45,1851.92,1400.89,1806,1408.1,1847.27Zm-18.89-118.74c3.64-4.81,8.4-11.57,14.46-12.77C1434.28,1722.33,1382.5,1749,1389.21,1728.53Zm29,56.67c-1.54,1.86-1.92,3.68-4.29.82C1415.59,1784.74,1417.07,1782.51,1418.19,1785.2Zm17.38,489.4c1.32-10.31-17.72-18.46,4.3-22.34,13.07-1.65,14.07-19.71,26.08-23.42,37.87,7.35,15.88,15.77,2.28,34.65-13.37,27.32-30.78,43.22-61.14,34.59C1404.24,2278.92,1429.67,2285.94,1435.57,2274.6Zm62.51-46.82c-7.29,4.27-11.17-3.29-12.61-9.14-1.59-11.89,15.6-4.68,17.78-15.64,6.22-11.55,14.65,1.36,19.36,7.23C1526.7,2220.56,1504.42,2222.24,1498.08,2227.78Zm20.11-42.73c5.78-52,60.84,9.81,41.07,12.6-11.71,3.09-22-3.19-33.17-3.4C1519.42,2196.19,1518.21,2190.24,1518.19,2185.05Zm-72-258.94c-8.55-5.53-29.78-18.33-20.19-29.3C1441.27,1889,1447.89,1914.4,1446.15,1926.11Zm59.84-13.5c-.57-.66.38-1,.88-1.37C1507.31,1912.32,1507.29,1912.82,1506,1912.61Zm36.6,15.84c-3.45-15.09,8.14-22.67,13.78-5.19C1567.31,1938,1537.13,1957.27,1542.59,1928.45Zm20.94,102.74c-6,19.49-20,45.15-11.81,64.72,8.14,15.28-10.36,15.84-12.23,1.28-15.36,11.86-18.82,34.22-35.88,46.22-12.67,6.93,7.13,16.77-2.85,24.16-4,1.59-5.5-1.45-6.38-4.31-10-21.7-37.76,20.35-37.45-14.63,3.07-15.86-12.09-15.27-23.27-16.28-4.68-2-6.28-9.28.58-9.46,24.89-6,31.4-35.65,46.77-53.18,10.58-9.26-15-17.77,1.29-26.07,20.48-.47,16.18-24.42,18.65-38.94,2.67-17.42-12.54-10.74-19.9-19-2.85-20.47,15.21,8.78,20.4-5.82,16-41.5,31.65-14.91,57.94-24-2.82,7.65-8.1,7.93-2.61,15.68,8,13.8,1.77,30.1,8.72,44.26C1567.91,2021.1,1566.91,2026.21,1563.53,2031.19Zm10.47,59.47c-.91,3.85-3.06,3.19-5.47.08C1570.52,2087.43,1572.57,2087.61,1574,2090.66Zm8.32-49.31c-2.65,5.08-7.38,1.86-10.41-1.21C1572.07,2035.26,1583.91,2035.21,1582.32,2041.35ZM1607,1891.91c-1.54-7.07,4.12-17.78,9.92-9.06C1621.73,1897.38,1608.66,1918.06,1607,1891.91Zm24.33,55.12c.06,11.68-21.88,36-32.5,23.54-10-16.41,20.74-20.23,11.55-35C1608.31,1921.33,1632.65,1939,1631.28,1947ZM1617,1998.89c-.31,12.4-16.39,16.36-18,.85C1601.09,1986.6,1612.66,1987.65,1617,1998.89Zm40.44,2.91c-18.44,9.83-10.83,25-39.18,13.44-3.11-4.79,5.38-5.17,7.59-8.86,11.46-8-9.7-20.67,4.9-27.63,8.94-4.07,20.1.73,26.06-9.64C1669.56,1954.32,1671.91,2003.79,1657.46,2001.8Zm11.24,364.36c8.12,3,4.87,12.55-3.93,11C1650,2377.52,1655.51,2358.26,1668.7,2366.16Zm-47,17.68c8.32,4.61-1.93,12.38-6.2,15.85C1601.11,2402.67,1614.78,2384.71,1621.74,2383.84Zm-311.44,3.47c4.69-28,49.61-13.88,45-44.49.47-5.8,3.54-9.63,9.17-11.08,19-9.49,47.34,11.82,61-.55,5.36-5.24,9.54-3.66,12.18,3.28,7,20.13,51.3-19.73,62.37-26.37,51-36.57,72.74-101,107.69-151.33,7-11.71-8.86-15.08-8.24-25.6-3.85-16.38,6.67-16.39,19.52-19.53,9-2.3,16.86,4.07,26,1.75,60.14,7.52,30.78,32.22,17.52,69.53-7.73,10.78-5,26.86-13.5,36.39-25.17,21.78-36.81,56.87-57.54,82.88-26,33-52.9,64.49-91.6,80.76-10.29,10.85-14.43,32.8-28.77,10.94-2.33,7.73.14,15.47-9.05,15.48-18.69-.43-46.54-3.75-56,16.47-12.51,22.61-14.94-12-43-1.28-10.06-4.48-15.75,15.76-23.22,6.15C1326.43,2417.46,1302.33,2410.53,1310.3,2387.31Zm27.23-149.08c-2.18-5.22-1.89-6.79,3.23-8.66,8-3,13.21-8.06,14.38-16.79,9.67-21,24.09-4.42,7.44,9.72-17.08,12.34-9.06,35.9-26.83,47.64C1333.11,2260.35,1344.73,2249.59,1337.53,2238.23Zm-46.63,37.92c4.81-3.31,4.91-5.76,8-1.61C1296.28,2277.83,1295.35,2278.81,1290.9,2276.15Zm-46.79-93.92c-12.17,5-16-13.32-2.69-14.1,7.63-4,6.29-14.21,6.55-21.42-2.77-19.21,15.5-20.67,27.08-28.48,37-21.7,57.5,44.3,56.13-39.63-5.81-20,25.11-29.34,33.84-13.31,10.28,17.74-25.29,25.15-13.54,40.61,8.07,8.79,13.4,10.94,18.45,7.44,8-11.63,40.24-31.64,29.5-2.15-8.67,9.4-5,30.58-21.8,30.53-9.3,0-11.36-1.53-13.82-10.88-2.64-10-16.12-5.06-23.69-5.5-9.77,4.11-10,13.14-23.18,18.66-15.52,14.34-51.4-8.3-57.45,20.87C1257.92,2173.73,1250.62,2177.72,1244.11,2182.23Zm-137.25,213.5c-8.17-19.5-30.13,2.14-7-36.45,35.56-37.52,79.4,9.26,118.61-4.84,21.08,6.23,46.52,25.39,30.49,49.33-6.45,7.25,1,11.77,3.18,18.78,1.75,8.11-8.52,7.63-11,1.65-2.57-10.66-31.76-6.18-38.76-1.26-6.33,5.58-6.52,5.13-14.06.9C1165.43,2403.75,1126.94,2416.43,1106.86,2395.73Zm-27.77,15.05c2.59-24.37,49.32,10.68,13,14.95C1079.2,2426.46,1077.35,2423.21,1079.09,2410.78Zm-20.58-221.05c2.17-17.28,23.72,6.29,7.2,8C1061.54,2197.7,1058.5,2194.31,1058.51,2189.73ZM1037,2131.9c-.69-26.2,25.86-19.92,36.73-35.56,17.17-23.59,44.75-54.12,39.29-1.11,2.34,43.12-9.45,43.34-47.46,38-3.7.06-7,.84-9.46,3.77C1050.87,2143.36,1033.21,2143.71,1037,2131.9Zm-191,187c.75-8.28,13.82-6.81,13.44-17.22,17.22-56.32,105-4.48,138.11,12.25,40.47,26.53,22.76-4.92,45.16-3.59,8.13-3.23,18.92,7.9,7.29,9.44-13.66,0-19,19.22-32.08,21.21-16.82,4.28-9.09,33.33-38.77,27.5-11.6-3.36-22.05-11.41-34.93-8.21-4.73,1.1-8.61-.57-12.36-4.23-10.11-11.48-23.94-15.91-38.57-18.5C878.22,2332.09,857.1,2330.14,846.07,2318.93Zm100.89-76c19.73-21,25.38-13.19,43.52,4.2,11.59,15.45-12.21,25.28-20.91,37.27-1.06-12.52-13.78-27.46-25.43-18.72-7.6,8.84-30.8,8.82-27.94-6.58,2.84-13.61-14.82-13.74-22.89-20.39-5.57-1.81-14.7,2.54-17.46-5.09-3.57-12.33,15.92-29.15,27.75-21.63,4.59,2.27,8.21,1.79,11.79-1.85,5.91-10.67,14.75-13.93,26.11-16.72,22.1-1.62-6,26.09-12.79,31.07C918.66,2234,941.62,2251.63,947,2242.94Zm-43-289.24c-28.67,4.44,10.75-35.49,13.48-16.6C919.58,1949.54,916.58,1953.21,903.94,1953.7Zm-427-299.28c9.22,6.07,20.22,29.17,32.12,17.12,19.52-21.84,57.73,6.64,49.62,32.39-8.81,9-7.9,19.57-7.47,31.66-.73,55.48,33.81,50.92,40.65,81.7-1.52,36.85,66.48,21.1,43.15-10.9-4-15.08-34.58-40.89-7.56-49,23.78,11.74,2.21,25,30.78,45.41,11.75,12.07,13.87,11.82,30.34,10.13,20.59-4.57,26.27,25.27,41.19-7.36,5.27-12.27,19.32,8,24.94,12.43,9.27,11.4,23.54-12.43,47.93-4.28,7.79.14,10.33,10.19,18.39,8.24,6.4.46,22.19-8.34,22.78,1.57-.94,12,4.44,25-5.37,35.91-2.89,3.22-1.33,7.43,1.93,10.12,7.1,14.31,25.78,6.33,26.07-8.14-.66-10,5.36-15.46,11.5-21.12,15.61-11.91,32,7.89,31.42,23.43-.76,7.49,1.6,15.58,9.52,17.71,12.82,2.71,17.92-17.43,10-25.23-12.7-22.85,31.17-27.29,21.09,18.63-.27,5.16,1.14,9.53,5.52,12.84,13.47,10.22-12.92,46,17.88,31.69,11.88-10.36,33.6-3.44,32.73-23.81,2-15.61,25.37-11.42,29.34,2.9,6,11.49-10.46,13.91-17.94,17.25-24.7,18.07,10,53.75-46.28,29.49-48.12,4-18-10-40.61-30.75-8.54-10-18.08-26.09-33.48-24.88-16.81,7.35-5.45,31-22.71,37.83-14.77,8.88-24.36-8.94-37.64-6.58-11-.46-20.43-14.17-25.75-22.24-3.47-8.5,1.21-20.73-.9-29.69-16.22-41.23-36.28-35.41-64.79-8-4.93,4.69-9.08-.86-8.54-6.22.44-10.28-12.19-4.52-16-11.73-9.91-6.45-28.82-5.44-39.15.28-28.17,24.62-32,28.47-11.53,61.42,3.77,3.16,4.76,7.94,2.21,11.78-12.93,25.49-39.07,4.52-33.3-18.22-.71-19-23.23-17-31.29-29.89-5.54-3.75-9.86-15.27-17-7.66-21.66,15.07-26.05-27.58-48.62-21.36-8.36-3.8-18.07-7.72-26.33-12.15-8.54-5.46-12.36-17.05-22.08-20.92-7.4-3.55-21.22-16.25-14.59-24.17,5.68-3.43,7-12.41,15-9.9,9.76,1.4,8.51-16.93,2.57-21.9-7.81-5.89.09-13.81-.66-20.94-12.7-31.09-25.47-9-39.95-53.38C442.84,1658,457.87,1642.5,476.91,1654.42Zm76.8-382c3.66-.7,5.29.46,5.71,4.14C555.82,1277.19,554.33,1275.85,553.71,1272.4ZM429.26,1538.21c-10.88-1.78-21.53-10.91-10.95-21.56-4.45-6-8.41-11.54-17-10.8-12.66-2.64,4.12-20.15,11.72-17.57,11.71,2.38,16.56,16.4,29.51,16.74,6.35,2.56,11.28,9,19.1,7.6,24.12,5.46,40.14,31.9,59.28,46.94,6.26,5.31-.59,13.17-6.84,13.06-9.54.8-19.94-7.91-28.44-4.33-7.2,8.39,3.89,20.47.67,31,1.26,8.28-6.68,12.69-7.28,20.69.31,8.55-11.36,9.31-11,.41-.12-3.6-.95-8.87-5.43-8.62-11.61-.26-27.69-19-11.5-24.49,23.74-12,18.07-15.38,9.19-34.42C457.52,1539.16,441,1536.79,429.26,1538.21Zm67.43-90.46c-.11,11-15,10.75-14.47-.55C482,1436.43,497.26,1437.67,496.69,1447.75ZM173.53,1374c3.92-.45,7.76,0,10.21,3.6,8.68,9.41,24.31,2.87,35.79,4.75,12.16.53,34.42,22.61,25.34,34.64-4,4.46-6.8,4.89-13,2-9.67-7.75-27.73,8.89-19.53,18.54,15.06,24.35,34.85-6.8,52.74-2,10.61,7.29,21.72.4,33.08,1.31,15.22,5.53,15.47-32.83,14.26-41.89-4.3-3.67-16.1,14.49-26.58-.74-4.08-11.69-18.63-30.1-31.53-19.78-3.89,2.37-9.8.36-10.65-3.83,0-10.89,21.58-5.43,5.73-22.72-17.52-19-41.61,24.45-62.18-4.42-12.19-27.87,34.48-21.59,44.5-37.78,8.81-11.32,16.35-2.26,24.87,3,7.6-.35,14,13.66,20.26,5.12,7.91-14.4,29.25-27.88,22.34-46-5-5.44-16.35,2.37-19.19-9.32-5.09-13.3,34.13-25.33,40-15.18,13.83,13,21.69-12.4,35.63-14.67,9.26-6.08-.06-11.1-7.45-8.61-10.6.82-15.57-8.83-22.17-15.31-9.52-24.08,24.25-13.39,29.52-23.41,12-8.41,33.56,1.63,41.82,13.32a5.63,5.63,0,0,0,7.82,2.28c6.35-3.09,12.39-6,14.14-14.34,4.46-18.77,18.26-.12,29.24-1.93,8.35-.79,16.78-.63,25.18-.81,38.33,6.1,39.76-23.45,57.25.53,27.54,18.15,62.68,18.23,91.73,34.12,28,15.42,5.41-30.15,34.29-29.38,11.77-2.27,6.17,12.67,13,18,3.68,3.85,3.29,6.8-.5,10.6-5.5,9.18-16.1,3.81-21.74,11.47,15.58,8.64,32.55,14.45,48.81,21.73,17.14,6.55-.68-13.68,8-19,13.27-2.82,13.21,15.77,4.72,22.09,12.63,21.93,92.92,47.38,66.44,76.69-36.36,33-37.71,7.76-71.08,2.88-5.29,2.4-17.1-5.92-16.47-13.2.12-2-2.41-4.75-4.43-6.07-12.79-6.34-24.22-18.82-38.45-12.71-30-23-70.73-43.37-108.77-43,28.53,13.37-15.32,30.07-11.52,14.23.32-6.77,9.22-18.66-1-21.3-8.1-1.32-18.81-7.09-22.77,3.47-8.86,15.56-14.75-5.29-22.55-8.68-8.62-.1-17.25.52-25.86,1-13.32,8,10.52,7.7,11.72,15.59,6.41,12-15.93,14-21.43,5.78-4.52-4-11.26-10.45-17.64-6.47-13.09,9.47-32.51,13.76-40.81,28.16,3,9.37,13.36,25.9-5.55,23.76-11.17-4.64-19.19-5.3-23.31,8.47-4,18.87-28.93,14-28.72,36.65,18.71-11,32.87-29.11,54.94-34,37.07-7,78.49-21.64,114.66-4.57,15.09,9.38,19.46,27.85,9.57,40.69-17.73,23.33-50.65,12-75.84,16.29-13.49.67-.81,11.86,1.19,18,3,11-15.38,10.35-20.35,4.28-6-5.17-11.48-17-20.65-11.19-20.45,9.4-23.36,40.9-16.22,59.48,11.64,17.92,7.87,43.34-8.56,56.79-8.44,8.42-1.51,25.54,11.87,18,7.88-2.32,21.92-1.88,24.86,6.12-5.58,14.43-41.18-2.46-46.65,9.21-2.75,3.74-6.6,5.24-10.71,4.29-10.84-2.83-28.67,11.08-19.23,21.08,4.72,7.15,12.05,8.88,19.44,11.87,5.69,8.52,15.62,5.11,24.06,5.89,8.42-1.93,11.18,10.38,19.48,6,10-3.32,25-12.65,31.88.3,3.33,14.2-37.16,31.48-7.47,41.84,16.51,5.51-.47,22.42-5.89,30.6-16.68,15.87-34.64-14.64-40.4-28-8.22-10-8.65-29.32-21.52-33.36-15.52-12.62-39.3-3.08-40.67-29.23-3.38-13.89,7-52.68-17.42-46.67-6.49,2.51-8.27,1.34-8.43-5.57.39-18-21.68-16.11-18.08,1,3.22,10-8.85,7.21-14.85,7.37-15.16.44-14.27-13.58-13.71-24.81.55-13.23-17.12-4-22.68-10.39-1.18-7.75-6-13.49-9.77-19.83,5.55-48-25.39-36.59-24.71-68.41C180.86,1388.72,159.14,1378,173.53,1374ZM113.9,809.62c.94,11.07-10.14,2-13.36-2-15.36-13.61-13.31,20-26.5,21-6.84-1-4-12.07-5.17-17.16-.85-8.14,1.88-21.17,11.77-11.08C90.73,807.46,105.67,785,113.9,809.62Zm-11.69-75.81c-1.5-8.92,8.76-13.45,10.69-4.95C113.8,735.66,106.05,739.05,102.21,733.81Zm12.15-158.3c-3.34,11.79-16.58,10.31-12.31-3.27C104.35,564,114.64,566,114.36,575.51ZM152.78,712.2c-2.76,13.77-21.7,5.1-18.58-9.52-1.29-9.74,6.07-16.79,10.4-24.93,1.73-3.26,6.75-3.07,9,.22C163.33,689,154.22,700.29,152.78,712.2ZM145,755.49c5.67,1.75,5.29,4.28,1,9.19C141.46,761.48,138.28,755.75,145,755.49Zm32.37-124.28c-.51,14.55-18.16,7.11-16.82-3.1C162.45,617.2,177.05,622.28,177.33,631.21Zm17.38,294.12c1.39-12.34,24.86-8,27.15,1.67,1.2,6.7-6.18,11-11.45,12.66C201.37,941.34,199.27,930.87,194.71,925.33Zm9.34,97.27c9.69,3.24-.69,11.75-6.09,13.45C188.29,1036.08,193.39,1021.47,204.05,1022.6ZM191.21,802.67c20.23.5.84,29.61,17.22,36.32C216.94,863.89,148.48,808.15,191.21,802.67ZM163.1,1008c-5,1.62-9.33,3.07-13.15,6.89-5.13,6.4-20.18-6.53-14.35-12.49,7-6.13,12.62-17.3,22-19.17,11.31.28,13.82-11.77,22.9-16.72C194.45,981.72,176.33,999.88,163.1,1008Zm12.83,43.21c-9.71-4-8.13-10.55,2.51-9.9C186.91,1043.23,184.13,1050.86,175.93,1051.24Zm-14.62,21.22c8.93,1.12,13.81,13.18,19.63,19.37C185.54,1126.09,121,1070.88,161.31,1072.46Zm-19.23,113.11c11.55-1.67,18.81,21.53,3.61,20.45C128.08,1206.46,123.46,1189,142.08,1185.57ZM116.9,910.22c-6.14-1.35-8.87-6-8.39-12-1.08-18.33,18.7-79.31,43.89-58.08,16.37,9.07,38.14,22,35.89,43.28-2.9,13.31-19.22,14.35-29.28,8.35-8.85-4.78-15.07,10.61-20.84,15.55-5.53,13.45,12.59,11.33,18.75,4.5,30.13-6.56-1.69,64.3-21.11,45C113.35,940.33,152.88,925.07,116.9,910.22Zm-9.18,225.59c.61-13.81,19.34-15.55,20-1.43C127.83,1144.26,107.27,1149.15,107.72,1135.81Zm-14.43,41.12c2.84-12.87,13.57-1,11.21,7.38-.53,10.51,14.58,16.56,4.71,26.85-14,30.08-17.1,4.75-15.7-13.1C93.75,1191.5,92.78,1183.84,93.29,1176.93ZM87.7,1149c-5.93-2-8.28-6.63-11.56-12C85.85,1113.69,105.44,1154.45,87.7,1149Zm8-140.46c11.11-.28,7.14,14.84-1.29,14.58C85.56,1022.67,84.92,1007.62,95.69,1008.57Z" transform="translate(-44.91 -40.35)"/><path d="M1113.42,508.15c4.88,4.94,17.48,10.92,11.59,19.07-7.45,8.24,5.62,18.85,14,16.68a18.78,18.78,0,0,0,10.59-7c9.33-12,14.29,9.67,24.75,7.52,12.05-2.49,7,10.61,9.27,17.78,7.24,20.73,10,46.1,32.42,55.85,8.29-.95,10.34,10.37,18.26,8.26,7.77-2.56,68.32-19.51,43.71-28.41-5.13-.58-7.29-3.42-8.42-8.31-3.95-14.46-18.66,12.81-40.71,0-8.64-11.67-41.24-26.57-24.82-42.46,11.8-10.85,35.62-17.82,29,6.78-3,9.27,7.16,13.34,10.9,4,6.95-9.92,21.11-.56,31.36-4,18.14,1.22,12.72,21.45,11.35,33.5-2.51,12.59,11.44,19,20.41,11.43,1.94-2.61.07-5.23-2.17-7-12.76-9.88,6.51-37.26-13.4-40.3-2.3-.41-5.65-.79-6.54-2.33-7.75-12.11-23.54-1.34-33-11.7-9.28-8.75-24.35-14.49-25.55-28.9,0-1.48-2.88-3.85-4.82-4.39-7.2-.92-8,14.8-16.23,6.36-6.88-15.07-13.86-17-29.92-19.7-29.86-21.36,4.43-16.2-6.86-41.31-8.55-41.78,43.23-18.31,33.7.8-6.25,11.68,3.37,18.72,7,28.64.43,7.68,10.08,21.81,17.47,13.25,8.28-10.91,33.17,5.2,34.4-11.47-2.62-19.55,11.65-18.35,20.3-5.19,7.57,8-14.88,19.07-.55,23.63,15.57,6.39,27.23,23.33,34.33,37.75.62,5.88,1.76,7.06,7.51,7.6,15.65,5.94,25.58,22.83,39.66,32.17,8.36,13.51-11.9,13.15-16.95,21.93-15.19,8.44,8.55,26.33,16.11,15.88,20.42-38.1,25.87,17.22,40.66-10.4,4.25-3.24,10.37-2.36,10.81,3.69-2.27,12,19.38,15,13,26.68-4,11.27,11,21.76,16.85,30.58,7,13.1,19.1-6.34,28,6.54,46.17,43.36-16.4,37.47-31.23,5-5.94-14-20,2.46-26.51-10.05-8.2-9.5-14.46,10.76-6.69,15.47,5.5,7.88,14.88,8.73,22.32,13.89,4.94,5.92,13.42,1.07,17.86,7.7,10.07,11.34,23.23,26.51,40.15,20.33,13.63-6.1,22.17,6.55,33.64,10.67,8.61,3.2,17,7.27,19.47,17.86-5,4-12.06,2.12-16.74,7.54-8.21,5.2-14.37-11.81-26.24-6.91-10.78-.66-19,20.17-4.29,19.85,9.25.84,19.82-2.91,26.94,5,5.76,6,31.36,31.73,30.46,10.77-19-33.58,28.93-1.87,5.57,9.19-2.71,12.2,26.79,17.56,16.31,30.6-34.38,25-20-6.56-20.47,51-2.35,8.63-9.68.88-14-1.83-12.86-9.26-10.63-29.06-21.77-40.84-4.65-12.22-20.51-6.61-26.5-16.31-5.07-11.07-13.28-17-25.92-16.88-28.06,2.15,15-24.84-28.15-51-6.94-1.32-4.6-12.41-11.83-11.49-4.65,1.26-2.08,5.52.24,7.21,6.52,2.56,3,8.28,4.31,13.41.93,7.53-.5,9.82-7.5,11.92-22.81,6.81-14.22-21.86-24.68-32-4.85-8.61-13.48-9.74-21.71-14.09-15.71-11.88-30.49-24.27-45.9-36.52-7.46-3.24-10.59-10.53-15.15-16.54-12.07-8-12.72,13.74-1.92,16.13,12.82,6.61-14.87,21.66-2,42.63,10.92-3.44,23.89-18.34,35.62-10.16,5.49,5.66,13.78,11.51,8.36,20.23-3.36,5.71.32,10.95,4.61,15,8.4,9.34-9,17-15.07,9.43-16.86-7.65-25.53-4.23-37.34-23.48-11.11-8.73-45.13-29.29-19-41.12,10.71-.36,25.36-9,12.73-19-13.56-11.2-20,8.9-30.55.31-19.09-9.83,6.17-20.58-.5-32.07-11.62-16.13-21.91-7.29-33.41-16.49-6-6.64-17.33-.87-23.59,2.2-10.78,9.86-34.16-3.33-34.46,17.65,5.75,18.49-20.64,25.48-23.15,7-.61-10.08,11.23-29.47-9.11-24-7.38,6.31-49.89-15.53-45.89-26.21,6.71-32.49,49.53,24.92,66.64-1.79,8.5-20.75-23.69-18.45-34.09-25.79-8.23-5.71-19.61.57-28.84-5-10.39-9.85-.89-23.87-17.46-34.8,12.6-10,6.72,9.13,16.83,8.37-3.25-20.14,8.65-21-10-38.2C1099.16,511.14,1105.06,502.6,1113.42,508.15Zm234.92,176.41c11.75-2.94,17,12.12,27.15,10.33,4.8-13.35-10.83-28.19-22.27-32.13C1323.26,663.46,1322.93,675.32,1348.34,684.56Zm27-45.65c.65,12.68,16.23,12.11,24.75,16.93,5.1,2.64,8.72-1.42,8.36-8.78C1408.28,631.14,1380.05,621.41,1375.34,638.91Zm-65.82-1.36c-10.06-10.54-47.15,5.23-31.4,17.67,6,2.28,12.08,4,16.79,9.65C1294.57,651.94,1306.88,645.53,1309.52,637.55Zm10.93,14.67c-3.33,2.14-2.48,4.25-.84,7.17C1321.77,655.91,1321.77,655.91,1320.45,652.22Z" transform="translate(-44.91 -40.35)"/><path d="M1114,328.89c10.09,14.28-9,25.13-18.92,32.35-17.2,13.21-24.85-22.58-41.72-21.21-12.78-1.73-28.54,4.67-39.33-3.57-9.55-7.09-28.89-13.22-22.16-28.42,2.45-14.75-20.14-5.62-24.85-17.67-7-8.19-11,12.08-18.6,2.69C926,274.32,915,252,885,247.19c-10-11.82-19.2-21.85-33.6-26.87-19.36,0-18-.17-33.18-13.64-7.05-4.86-20.49,20.52-34.56,7a363,363,0,0,0-45.41-20.16c-13.93-2.05-3.58-18.32,6-14.23,13.1,3.3,23.85,16.24,37,15.68,11.22.46,12.64-11.19,3.91-16.78-6.9-2.83-13.56-4.19-15.63-12.41-3.38-9.3-15.73-9.19-20-18.19-14.52-8.85-40.7-.91-58.95-7.35-13.69-3.38-8.33-19.3-23.82-26.15-11-13.56,13.16-24.33,21.4-12.3,6.3,8.27,10.75,1.3,13.83-5.3,11.25-10.53-13.66-20.8-1.43-30.71A6.74,6.74,0,0,1,709.53,67c6.65,7,18.49,4.48,24.1,13.33.4.63,2.09.32,3.09.69,14.43,8.52,29.65,13.19,43.06,22.68,5.57,1.69,14.46-.69,20.58,1.09,21.7,5.29-10,24.81,17.06,42.29,9.26,4.52,5.56,15.95,11.15,23,5.45,5.48,3.54,14.25,8,19.85,9.45,7.22,5.06,26.7,20.72,24.17,33.31-3.26,19.14-2.58,35.61-23.26,22.7-23.72,48.38,62.54,57.35,8.65,3.95-12.42,22.78-1.11,10.07,7.37-9.81,16.37,20,27.25,29.56,36.92,15.82,0,22.47,15.55,37.39,16.31,6.83,0,12.47,2.74,15.26,10,4.53,7.39,15.08,9.56,21.94,14.38,10.46,6.5,9.44,23.7-6.42,17.22C1063.15,334.47,1099.32,307.14,1114,328.89ZM729.05,113.08c-8.94-3.37-14.57,9.48-24,3.22-3.06-1.08-6.61-4.26-8.71,1-4.06,11,13.08,15.55,18.95,11.95C737.14,139.4,762.23,123,729.05,113.08Zm299.76,174.2c-.35,9.35,15.81,12.86,14.46,1.78C1043.24,277.24,1028.15,275.55,1028.81,287.28Zm-30-22.43c-17.27.5,7.1,27.56,8.11,9.25C1007,268.76,1003.66,265,998.78,264.85ZM959.62,230.7c-3-6.71-4.58-8-10.19-8.27C950.33,229.29,953.71,232,959.62,230.7Z" transform="translate(-44.91 -40.35)"/><path d="M573.69,436.8c6,2.52,41.16.06,30.36,11.29-4.94,1.42-11.87,2.74-11.06,9.5,16.81,22.88,43.39-28.67,41.35,37.57,4,14.2-20,10.48-25.32,20.63-8.1,21.77,14.49,23.79,26.06,32.86,8.88,16.83,37.94,12.16,26.4-9-2.62-7.82-25.8-17.35-9.12-22.11,12.62,3.58,15.23-29.67,25.27-15.18-.72,16.75,12,19.52,22.39,8.66,6.52.13,10.94-3.51,16-6.77,6.76-3.39,24.4,1,17.23-12.45-3.3-6.87-7.34-12.72-16.31-12.27-7.78-2.12-13.37-8.58-21.82-3.12-5.54,2.57-8.47.63-7-5.16,3.22-27.81-33.34-35.07-50.54-46.31-9.83-11.68-24.21-10.75-38.33-10.58-13.08-2.35-24.39-10.07-38-10.63-13.33-3.1-7.26,13.54-14.52,19.38C541.63,436,566.07,441.17,573.69,436.8Z" transform="translate(-44.91 -40.35)"/><path d="M520.11,446.06c36.6-3.05,9.63-24-4.85-36.7-16.13-10.84-23,10.88-53.45,5.19-4.06.06-7.54-.92-9.93-4.37-9.49-15.24-34.5-16.43-48.3-7.41-10.62,9.55-28.82-2.07-39.15,7.23-7,9.3-20.23-.53-26.7,10.05-5.74,4.28-14.06,6.18-14.28,15-5.21,35.33,22.78,7.61,38.75,10.84,17.22,4.1,22.16-17.45,37.6-16.27,19.09-.2,36,8.23,55.54,7.68,12.62.2,18.76,21.84,31.92,13.19C497.89,435,505.34,446.49,520.11,446.06Z" transform="translate(-44.91 -40.35)"/><path d="M986,475.49c3-5.94,2-14.05-5.74-14.49-8.56,2-2.59,15.48-10.82,20.53-9,12.62,14.68,15,21.32,7.85,2.53-2.44,5.3-1.24,8.1.58,16.88,6.57,27.83,21.28,41,33.07,10.88,4.51,18.92,11.32,28.78,18,13.92,2.51-6-15.74,5.79-22.26,10.52-10.06,10.3-13.15.28-23.18-14.9-22.15-42-41.66-68.73-26.3C999.67,472,993.18,481,986,475.49Z" transform="translate(-44.91 -40.35)"/><path d="M1397.19,791.89c-12-4.86-20.09,9.58-12.13,19.33,6.53,7.39,20,15.79,7.24,24.55-10.94,4.81-5.89,20.12-17.19,24-5.94,2-12.14,4.86-9.91,12.18,6.86,10.77,5.91,24.3,13.31,33.85,6.64,5.1,21.81,21.17,25.41,5.41-9.52-36.28,15.83-7.38,15.51-27.37,6.48-25.17-21.85.15-28-16-3.18-10.16,14.06-2.73,14.53-13.44,4.48-8.12,14.12-16.92,23.69-13.17,8.09,5.91,20.3-4.49,11.59-11.87-5.68-5.71-6.86-5.84-13.53-1.13C1407.63,840.28,1406.39,803.31,1397.19,791.89Z" transform="translate(-44.91 -40.35)"/><path d="M1619.13,906.63c-14.38,1-8.8,10.61-8.56,21.31-8.45-6.24-36.57-17.62-32.74.92,7.42,19.29,23.57,31.46,33.46,48.8,4.11,7.42,15.59,5.22,22.91,5.35,10.79-1,7.14-18.1,3.49-24.83-6-6.72,7.48-13.73-.09-20-3.82-6.24-13.07-22.56-6.73-27.66C1654.35,896.57,1613.67,882.24,1619.13,906.63Z" transform="translate(-44.91 -40.35)"/><path d="M836.31,319.48c-4.73,19.45,25.49,5.55,18.4,23.42-1.36,8.72-.57,17.15-5.68,24.8,2.19,6.71-.51,28.46,11.33,18.13,1.55-7.2,8.27-13.75,2.73-22-5.09-7.17,2.63-15.65,10.41-6.5,14.69,9.68-15.14,18.14,1,25.18,9.38,4.31,21,1.45,28,10.83,6.27,2.75,15.43,11,22.1,7.36,25.06-22.73-21.06-35.62-34.91-46.47-8.93-7.25-15.85-17-26.92-21.71-1.86-.79-3.65-4.22-3.65-6.43C860.33,311.73,833.8,301.23,836.31,319.48Z" transform="translate(-44.91 -40.35)"/><path d="M827.77,560.19c-3.07,19.45,29,41.76,45.23,45.87,7.93,6,19.51,15.39,29.63,6.1,11.61-14-29.25-35.2-39.4-42-9.3-2-14.49-8.12-17-16.75C840.69,537.15,823.41,545.65,827.77,560.19Z" transform="translate(-44.91 -40.35)"/><path d="M770.69,503.63c-12.59,3.17-40.78.26-37,17.85,3.44,10,10.73,13.76,20.77,10.55,5.88-1.88,7.88-1.14,9.2,5.16,2.18,14.45,17.37,16.81,28.73,21.52C820,559.73,785.49,506.18,770.69,503.63Z" transform="translate(-44.91 -40.35)"/><path d="M984.18,1178.48c36.31-2.28-16-37.57-23-49-13.36-6.46-21.91-27.13-38.38-22.13-15.34,9.05,8,21.75,12.76,30.71,8,7.86,12.07,23,24.52,24.24C972.64,1160.37,973.28,1179.94,984.18,1178.48Z" transform="translate(-44.91 -40.35)"/><path d="M1084.3,405.37c13.15-3.31,20.52,22.82,33.18,6,5.33-9.7,13.66-7,22.2-3.78,14.14,6.85,17.89-10.52,6.62-17-14.72-19.12-26.4,17.16-41.51-2.73-3.25-3.08-6.34-5.72-11.14-5.82C1075.57,366.44,1057.32,408.24,1084.3,405.37Z" transform="translate(-44.91 -40.35)"/><path d="M1460.25,903.17c-11.3-6.28-53.46,41.13-31.75,47,11.18,4,17.85-8.17,28.4-9,9.43-2.19,10-2.78,11-12.19C1470.83,914.38,1488.72,901.42,1460.25,903.17Z" transform="translate(-44.91 -40.35)"/><path d="M817.56,1040.4c28.72-7.48-12.69-26-18.63-36.38-4.78-3.7-11.61-3.9-15.8-9.08-12.06-10.85-31.65,18-12.87,20C793.28,1017.48,789.6,1045.76,817.56,1040.4Z" transform="translate(-44.91 -40.35)"/><path d="M548.71,487.33c2.8-18.88-30.72-11.2-29.65,1.45,2.41,8.6,16.28,3.52,16.08,13.61-3,13.94,14,22.53,22.31,11.35,4.33-15.38,33,7.6,32.46-12.11C585.79,474.67,547.42,511.75,548.71,487.33Z" transform="translate(-44.91 -40.35)"/><path d="M1487.48,1347c-.36,7.26,1.76,14.92-4.5,20.45-15.71,15.72,17.75,38.51,18.62,11.79-1.76-9.53,8.42-13.37,9.07-22.24C1515.86,1331.64,1482.65,1308.71,1487.48,1347Z" transform="translate(-44.91 -40.35)"/><path d="M1556.39,1106.44c-32.85-.06,7.39,53.19,23.13,46.63,5.62-8,5.93-32.12-5.61-36.4C1567.68,1113.82,1563.66,1104.22,1556.39,1106.44Z" transform="translate(-44.91 -40.35)"/><path d="M1100.54,690c27.94-4.61,29.59,12.77,36.26,4.66,5-4.31,17.23-20.63,3.3-19.52-19.95,2.62-39.76-1.43-59.79.25C1057.57,687.55,1089.53,692.34,1100.54,690Z" transform="translate(-44.91 -40.35)"/><path d="M523.81,673.63c3.94-.5,7.86.66,11.17,4.84,12.49,11.2,33-2,19.26-17.14C516.24,633,493,674.74,523.81,673.63Z" transform="translate(-44.91 -40.35)"/><path d="M845.42,138.53c-23.16,2.85,3.85,23.78,11.74,29.83,9-1,16.33,4.7,24.78,5.81,18.36,1.64,2.7-18.61-6.79-20.57C865.23,148.13,858.71,138.4,845.42,138.53Z" transform="translate(-44.91 -40.35)"/><path d="M806,630.26c1.28,11,10.35,33.73,25.22,26.33C849.48,643.64,804.72,597.36,806,630.26Z" transform="translate(-44.91 -40.35)"/><path d="M893.21,283.42c23.33-8.14-24-37.26-30.7-28.87C852.78,271.52,878.48,281.57,893.21,283.42Z" transform="translate(-44.91 -40.35)"/><path d="M1478.12,1315.78c1.54-10.1-10.13-12.17-11.06-21.19-1.09-12.24-13.7-5.17-18.36.57-8.22,10.1,7.93,14.3,9.78,23.3C1461.88,1326.35,1480.49,1328.05,1478.12,1315.78Z" transform="translate(-44.91 -40.35)"/><path d="M1670.63,1320.05c-28.94,4.27-1.25,34.7,15.53,28.54C1696.22,1339,1681.55,1318.61,1670.63,1320.05Z" transform="translate(-44.91 -40.35)"/><path d="M364,845.33c-1.39,28.74,32.1,15.46,21.82-7.54C381.47,823.9,359.09,829.42,364,845.33Z" transform="translate(-44.91 -40.35)"/><path d="M1979.62,1617.13c5.92-22.88-21.62-33.15-7.44,11.87C1980.84,1659.34,2007,1630.42,1979.62,1617.13Z" transform="translate(-44.91 -40.35)"/><path d="M1631.58,1806.84c-20.92-2.68-17.82,28.26,2,23.84C1651.6,1828.39,1651.26,1804.39,1631.58,1806.84Z" transform="translate(-44.91 -40.35)"/><path d="M1062.5,572.65c13.72-39.49-38.68-14.8-10.64,4.78,4.36,3,18.86,24.93,18.94,10.44C1066.46,583.16,1062,581,1062.5,572.65Z" transform="translate(-44.91 -40.35)"/><path d="M869.15,1406.38c20.91,2.78,16.23-18.35.33-22.12C851.1,1381,847.59,1413.13,869.15,1406.38Z" transform="translate(-44.91 -40.35)"/><path d="M1452.76,885.28c18,2.13,6-31.1-8.34-22.25C1432.92,870,1438,888.48,1452.76,885.28Z" transform="translate(-44.91 -40.35)"/><path d="M411.4,873.63c-.14-9.5-1.91-11.37-10.55-11.18-18.14-2.1-16.65,25.91,1.47,23C409.89,885.26,411.53,883.13,411.4,873.63Z" transform="translate(-44.91 -40.35)"/><path d="M1005.92,440.58c1.85,11.37,12.4,21.72,22.23,10.31C1037.05,439,1008.72,419.25,1005.92,440.58Z" transform="translate(-44.91 -40.35)"/><path d="M1373.38,1127.23c-3.16,16,23.39,13.06,22.15,2C1396.32,1115.2,1372,1106.87,1373.38,1127.23Z" transform="translate(-44.91 -40.35)"/><path d="M713,967.27c18-.53-1.22-30.28-12.23-21.81C686.13,953.09,703.56,968.15,713,967.27Z" transform="translate(-44.91 -40.35)"/><path d="M849.25,1178.49c24.43-.9-4.44-36.16-13.11-17.56C833.3,1170.52,839.25,1178.49,849.25,1178.49Z" transform="translate(-44.91 -40.35)"/><path d="M874.22,1080.51c16.25.11,8.59-24.52-5.09-21.79C855.39,1059.47,858.92,1083.34,874.22,1080.51Z" transform="translate(-44.91 -40.35)"/><path d="M682.65,958.39c15.63-4.79,2.25-21.77-9.14-22.34C655.68,936.25,669.22,960.12,682.65,958.39Z" transform="translate(-44.91 -40.35)"/><path d="M1355.14,840.63c1.45-11.61-5.09-10.87-14.48-10.37C1315.09,835.68,1358.72,870.51,1355.14,840.63Z" transform="translate(-44.91 -40.35)"/><path d="M1104.3,459.21c-1,11,13.76,23.73,22,12.46C1131.4,462.65,1101.66,438.34,1104.3,459.21Z" transform="translate(-44.91 -40.35)"/><path d="M1244.67,1480.3c5.38,22.36,32-6.89,15.59-15.76C1250.56,1459.85,1244.64,1472.48,1244.67,1480.3Z" transform="translate(-44.91 -40.35)"/><path d="M730.46,981.22c-.07,7.27,2.62,10.09,9.54,10C770.65,989.44,731.84,949.23,730.46,981.22Z" transform="translate(-44.91 -40.35)"/><path d="M1233.93,436.91c2.6-12.07-21.14-22-21-7.7C1217.6,436.41,1233.63,456.18,1233.93,436.91Z" transform="translate(-44.91 -40.35)"/><path d="M1640.4,1017.17c14.87-1.22,7-20.42-3.1-21.62C1624.64,998.75,1626.25,1016.8,1640.4,1017.17Z" transform="translate(-44.91 -40.35)"/><path d="M973.19,429.45c18.6-4.86-13.57-25.37-19.79-20.84C955,418.09,960.79,430.78,973.19,429.45Z" transform="translate(-44.91 -40.35)"/><path d="M1193.19,399.06c3.71-18.66-27.38-23.91-20.81-10.45C1177.69,392.21,1188.48,410,1193.19,399.06Z" transform="translate(-44.91 -40.35)"/><path d="M1683.24,1482.73c.4,8.5,5.2,13.37,12.08,12.81C1713.29,1493.11,1684.1,1459,1683.24,1482.73Z" transform="translate(-44.91 -40.35)"/><path d="M1675.56,935.74c-21.82,1.38,13.11,38.23,11.43,17.09C1680.93,948.35,1684.18,936.12,1675.56,935.74Z" transform="translate(-44.91 -40.35)"/><path d="M956.9,485.66c-1.92-5.65-8.32-16.81-16-12.53C931,481.18,957.77,506.5,956.9,485.66Z" transform="translate(-44.91 -40.35)"/><path d="M923.68,439.36c13.88-7.43-5.29-9.15-13.2-19.66C889.8,407.24,914.47,438.26,923.68,439.36Z" transform="translate(-44.91 -40.35)"/><path d="M667.09,47.5c-9.15,2.63-4.11,12,2.9,14.61C686.27,67.18,681.85,43.74,667.09,47.5Z" transform="translate(-44.91 -40.35)"/><path d="M1608.76,851.27c.68,8.61,11,19.23,18.61,15.6C1632.35,861.64,1612,839.8,1608.76,851.27Z" transform="translate(-44.91 -40.35)"/><path d="M1043.28,368.54c2.21,4.58,11.8,14,17.1,10.11C1061.91,373,1045.15,357.41,1043.28,368.54Z" transform="translate(-44.91 -40.35)"/><path d="M1231,681.94c3.6-7.45-4.31-12.72-7.2-19.12C1204.83,657.49,1224,678,1231,681.94Z" transform="translate(-44.91 -40.35)"/><path d="M454.92,162c8.5-.71,7.16-10.2-1.25-9.43C444.66,153.38,445.2,162.74,454.92,162Z" transform="translate(-44.91 -40.35)"/><path d="M1054.34,1391.56c2.21,4.22,4.33,5.67,8.33,3.67C1060.87,1391.75,1058.75,1390.27,1054.34,1391.56Z" transform="translate(-44.91 -40.35)"/><path d="M1000.86,1353.28c2,1.86,2.79,2.66,4.47.21C1003.55,1352.05,1003,1351.05,1000.86,1353.28Z" transform="translate(-44.91 -40.35)"/><path d="M1121.82,1426.9c-.57.39-1.48.78-.63,1.27C1121.81,1427.81,1122.68,1427.53,1121.82,1426.9Z" transform="translate(-44.91 -40.35)"/><path d="M1507.77,1421.86c-1.41,10-2.17,19.58-3.94,29.66" transform="translate(-44.91 -40.35)"/><path d="M1542.59,1928.45" transform="translate(-44.91 -40.35)"/><path d="M1506.87,1911.24c-.49.32-1.45.71-.88,1.37C1507.29,1912.82,1507.31,1912.32,1506.87,1911.24Z" transform="translate(-44.91 -40.35)"/><path d="M1938.28,1993.16c-5,3.47-7.15,11.42-2.41,14.53C1943.4,2006.8,1943.13,1998.16,1938.28,1993.16Z" transform="translate(-44.91 -40.35)"/></g></svg>