<?xml version="1.0" encoding="utf-8"?><svg class="qh__icon__svg qh__icon__alarm-bell" xmlns="http://www.w3.org/2000/svg" viewBox="0 0 32 32"><path class="qh__icon__path qh__icon__alarm-bell__path" d="M28.4 4.8L27 3.4l-3.7 3.7 1.4 1.4 3.7-3.7zM6.3 12H1v2h5.2v-2zm2.4-4.9L5 3.4 3.6 4.8l3.7 3.7 1.4-1.4zM16 28c1.7 0 3-1.3 3-3h-6c0 1.7 1.3 3 3 3zm9.7-16v2H31v-2h-5.3zm-2.2 1.8c0-3.6-2.5-6.5-6-7.3v-1c0-.8-.6-1.5-1.5-1.5-.8 0-1.5.6-1.5 1.5v1.1c-3.4.7-6 3.6-6 7.3 0 4.8-1.7 6.2-2.6 7.2-.3.3-.4.6-.4 1 0 .8.6 1.5 1.5 1.5h18c.9 0 1.5-.7 1.5-1.5 0-.4-.1-.7-.4-1-.9-1.1-2.6-2.5-2.6-7.3zM8.7 21.3c1-1.3 2.1-3.5 2.1-7.5 0-2.9 2.3-5.2 5.2-5.2 2.9 0 5.2 2.3 5.2 5.2 0 4 1.1 6.2 2.1 7.5H8.7z"/></svg>
