<svg viewBox="0 0 450 450" xmlns="http://www.w3.org/2000/svg">
  <style type="text/css">
  path{fill:var(--c__quahog--dark--trans15);stroke:var(--c__quahog--dark--trans15);}
</style>
<path d="m0 105.4c0 33.4 0 45.6.3 45.6s.3-.3.2-.6c-.1-.4 0-.6.3-.4.6.2.6.6-.2 1.2-.7.5-.7 1.5-.2 2.4.2.3.2.4 0 .2-.5-.3-.5.5 0 1 .3.3.3.4 0 .4-.5 0-.5 18.4 0 18.7.2.1.2.4.1.7s0 .7.4.9c.5.4.5.4 0 .9-.5.4-.5.4 0 .4s.5-.1.5-.3.1-.2.3 0c.2.1.2.4 0 .7-.2.5-.2.5.4 0 .6-.6 1-.7.7-.2-.1.2 0 .3.5.3s.7.2.7.6 0 .4.5-.2c.5-.7.5-.7 1.1-.2.3.3.7.4.9.3s.3 0 .3.1.2.3.5.3.5.2.6.4c0 .3.3.1.7-.3l.6-.7.9.8c1 1 1.7.7 1.5-.5-.2-.8-.1-.8.3-.2.4.5.5.5.7.2s.3-.3.4 0c.2.5 2.1.7 2.1.2s-.2-.3-.4-.3-.4-.2-.4-.4.2-.3.7 0c.4.2.7.4.6.6 0 .1.3 0 .9 0 .6-.2.9-.2.8 0-.1.1 0 .4.4.6s.6.6.6.8c0 .3 0 .3-.2 0-.1-.2-.6-.2-1-.1-.7.2-.7.2-.1.3.4 0 .9.2 1.1.4s.7.4 1.1.4.9 0 1.1.2c.2.1-.2.2-.8.3-.7 0-1.4-.2-1.6-.4-.3-.3-.6-.5-.8-.5-.9 0 1.5 1.3 2.6 1.4 1.2.1 1.3 0 1.3-.6 0-.4.2-.9.3-1.2.4-.5.3 6.3-.3 24-.2 5-.3 10.4-.3 12s-.2 6.3-.4 10.4-.3 8.9-.3 10.5c0 1.9-.2 3.6-.5 4.5l-.5 1.5-3 .2c-1.7 0-3.1.3-3.3.4-.1.2-.4 2.6-.5 5.4s-.3 5.8-.3 6.6-.2 3.7-.3 6.4c-.2 5.9-.8 16.5-1 19.8-.2 2.4-.3 4.2-.6 10.2 0 1.7-.2 4.1-.3 5.4 0 1.3-.2 3.4-.3 4.5l-.2 2.1h-2.1c-1.2-.1-2.3 0-2.5.1-.5.4-2.1.5-2.6.2-.2-.1-.4 0-.4.1s-.3.3-.6.2c-.6-.2-.6 0-.6 4.8v4.9h4.2c2.6 0 4.2.1 4.2.3s-1.2.3-3 .4c-1.6 0-3.2 0-3.4.1-.3 0-.8 0-1.2.1h-1.2v17.3h.9c1.2 0 1.2.1 1.4 2.4 0 1 .2 2 .2 2.1v.4c0 .1.2.2.4.2s.6.2.7.4.1.3 0 .2-.6 0-.9.2c-.4.3-1.1.5-1.7.5h-1v110.9h189.7c180.3 0 189.7 0 190.1-.6.4-.5.4-.5.6 0 .4 1 .8.6.8-.8 0-1.8-.6-4-.9-3.5-.1.2-.2-.3 0-1.2.1-1.5.1-1.6-.5-1.6s-.7.2-.7.7-.1.6-.3.5-.3.5-.3 1.3c0 2.3-.1 2.7-.4 2.5-.1 0-.3 0-.4.3-.1.2-.1 0 0-.3 0-.4 0-.9-.4-1.2-.4-.4-.4-.6-.1-1 .3-.3.3-.5 0-.5s-.2-.3.1-1c.3-.5.5-1 .5-1.1 0-.8 0-.9.3-.5.2.3.4.4.5.3s0-.4-.3-.7c-.4-.4-.5-.4-1 .5l-.5 1v-1.2c0-.9-.1-1.1-.5-1s-.5-.1-.5-1.3-.1-1.5-.3-1.5-.3.1-.3.3-.3.2-.6.1c-.6-.1-.6 0-.6 1.2 0 .8-.1 1.6-.3 1.9s-.3-.3-.2-2c0-1.3 0-2.4-.1-2.3-.1 0-.3 0-.4-.3s.2-.5 1.6-.7c1-.1 2-.1 2.2 0 .3.1.4 0 .3-.1-.1-.2-.4-.3-.6-.3s-.7-.3-.9-.7c-.3-.4-.5-.5-.5-.3s-.3.3-.6.2c-.9-.2-1.3-.5-1.1-.8.1-.2-.3-.3-.8-.3s-1 .2-1 .5-.2.5-.4.6c-.2 0-.3.3-.1.5.1.2.5.3.9.2.7-.2.8.1.1 1-.4.6-.5.6-.5 0 0-.3-.3-.6-.6-.6-.5 0-.6-.2-.5-1.3.1-1.3-.3-1.7-1.1-.9-.3.3-.4.1-.4-.7 0-.6 0-.8-.2-.5-.5 2.2-.5 2.2-.8 1.7-.2-.3-.3-1-.3-1.6 0-2.4 0-3.5-.3-3.5s-.3.3-.3.7c0 1-.9 4.1-.9 3.2 0-.7-.7-1-.7-.3 0 .3-.1.2-.3 0-.5-.7-.4-1 .3-1s.6-.2.6-.8-.6-1.2-.7-.4c0 .2-.1.1-.3-.2-.2-.6-.3-.5-.3.3 0 .5-.3 1.4-.7 1.9-.3.5-.6 1.5-.6 2.2s-.2 1.2-.4 1.2-.3-.9-.2-3.2c.1-2.5 0-3.2-.3-3.1-.2 0-.5 0-.6-.3-.2-.4.2-.6 1.9-.9.3 0 .8-.1 1-.1.6 0 .5-.7-.2-.9-.4 0-.6-.3-.6-.5s.3-.1.6 0c.4.2.6.2.6.1s.2 0 .4.2c.3.3.8.3 1.9 0 .8-.2 1.5-.5 1.5-.6s-.4-.5-.8-.8l-.8-.6 1-.3 1-.3h-1.1c-.6 0-1-.2-.9-.3 0-.1-.2-.4-.6-.6-.6-.3-.7-.3-.6 0 .1.2-.2 0-.7-.2-.8-.5-.9-.5-1.3 0-.5.6-3 .6-3 0 0-.2-.2-.3-.5-.2s-.5 0-.3-.1c.1-.2 0-.4-.1-.6s-.3 0-.2.2c0 .2 0 .4-.3.3s-.4 0-.4.3-.2.2-.4.1c-.5-.3-2.5-.4-2.3-.1s-.6.6-1.3.6-.5-.2-.5-.5c0-.4-.4-.6-1.1-.5-.1 0-.2-.1 0-.3.1-.2-.1-.3-.5-.4-.5 0-.6 0-.2-.2.3 0 .6-.3.6-.4s-.2-.2-.5-.1c-.5.2-.6-.2-.2-.7.2-.2-.3-.3-1.3-.4-.9 0-1.8-.2-2-.4s-.6-.3-.9-.3c-.9.1-1.8-.4-1.7-.9 0-.3.1-.6.1-.8 0-.1.3-.3.6-.3s.4 0 .2-.2c-.2 0-.5-.1-.6-.1s-.4-.2-.7-.5-.4-.4-.3-.2c.2.4-.9.4-1.3 0-.5-.5-1-.2-.8.4.2.7-.6.9-1 .3-.1-.2-.3-.2-.5-.1s-.5 0-.9-.1c-.5-.3-.5-.3.1-.3.4 0 .9-.2 1.1-.5s.6-.4.8-.3c.3.1.5 0 .5-.5s-.2-.7-.6-.7c-.3 0-.8 0-1 0-.3 0-.6.1-.7.3s-.2.2-.2 0-.3-.4-.7-.4c-.7 0-.7 0 0 .3.6.2.6.3 0 .4-.4.1-.6 0-.5-.1 0-.2 0-.3-.1-.3s-.2-.3-.1-.6c.1-.5 0-.6-1.2-.5-1 0-1.3 0-1.1-.3s.1-.3-.3 0-.6.3-.9 0c-.2-.3-.7-.5-1.1-.5s-.8-.1-.9-.3c-.2-.4-1.1.4-1.1.9s-.1.3-.3.3-.2.3-.1.6c.2.5.1.5-.2 0-.2-.3-.3-.7-.3-1.1 0-.5-.1-.5-.6-.2s-.6.2-.6-.3c0-.8-.5-.8-1 0-.4.8-1 .8-.9 0 0-.3-.2-.7-.7-1s-.8-.6-.7-.9c0-.4 0-.5-.4-.3-.3.1-.5 0-.5-.3s.2-.4.6-.3.5.1.2-.1c-.3-.3-1.3-.6-2.3-.6-.2 0-.4-.2-.4-.4s.1-.3.3-.2.4 0 .5-.1c.1-.2-.2-.2-.7-.1-.5 0-1 .3-1.1.5s-.5.2-.9.1c-.6-.2-.7-.1-.5.2.1.3.1.3 0 .2-.3-.3-.3-.4-.4-1.4 0-.9-.7.2-.7 1.3 0 .5-.1.9-.3.9s-.3-.8-.3-1.9 0-2-.2-2.1c-.1-.1.2-.4.7-.6.7-.3 1.2-.3 2.2 0 .7.2 1.7.5 2.2.6.5 0 1.3.2 1.7.3.7.2.7.2.4-.5-.2-.4-.6-.6-.8-.5-.3.1-.4 0-.3-.3s0-.5 0-.4c-.2 0-.6 0-.9 0-.5 0-.5-.1.3-.4.9-.3.9-.3.2-.8-.4-.3-.6-.6-.5-.7 0-.2-.1-.2-.5-.2s-.7 0-.8-.2-.7-.2-1.4-.1c-1.1.2-1.2.1-1.4-.5s-.3-.6-.4-.3c-.4 1-.8 1.3-1.2.8-.2-.2-.4-.7-.4-1s-.1-.4-.3-.3-.3 0-.3-.1c0-.6-1.3-.3-2.1.5-.4.4-.8.7-1 .5-.1-.2 0-.4.1-.5.5-.3.4-1.1-.1-1.1s-.6-.3-.8-.7c-.3-.5-.5-.6-1.3-.5-.6.1-.9 0-.9-.1s-.2-.3-.5-.3-.5.2-.5.3-.5.3-1 .2c-.7 0-1-.3-1-.5 0-.3 0-.3-.3-.2-.5.3-3.1.2-4.3-.3-.8-.3-1-.5-1-1.2s-.1-1.3-.3-1.9-.4-2.6-.5-4.4c0-1.8-.4-3.8-.6-4.4-.3-.7-.4-1.5-.3-2.2.2-.9.1-1-.5-.9-.4 0-.7.4-.7.6s-.2.5-.4.5-.4.8-.4 1.5c-.1 2.7-.2 2.8-.6 1.9-.2-.4-.5-.9-.7-1s0-.5.5-.9c.8-.6.8-.7 0-.5l-.7.2.5-1.1c.3-.6.7-1.1 1-1.1.5 0 .5 0 0-1.1-.4-.8-.5-.8-.7-.2-.3.8-.8.9-.8 0s-.2-.6-.7-.4c-.6.2-.6 0-.4-.8.1-.5.3-1.1.5-1.3.3-.4-.5-.9-1-.6-.2.1-.4 0-.5-.3-.3-.7-.6-.6-.7.2 0 .9-.7 1.6-.8.7 0-.6-.2-3.4-.3-4.2 0-.2-.2-.4-.4-.4s-.3.1-.2.3c0 .1 0 .8-.2 1.5s-.3 1.5-.3 1.7c0 .3 0 .4-.2.2-.1-.1-.3-.8-.3-1.4-.1-1.3-.4-1.7-.7-1.1-.2.4-.3.4-.4 0 0-.2-.2 0-.2.4 0 .5-.2 1-.5 1.2s-.5.7-.5 1.1 0 .8-.2.9c-.1.1-.2 1-.1 1.9 0 .9 0 1.6-.1 1.5-.3-.3-.6-6.4-.2-6.8.2-.2.2-.7 0-1.2s-.2-.6-.3-.2c0 .7-.4.7-.9.2-.2-.2-.4-.2-.4 0-.2 2.2-.5 2.8-1.3 2.5-.7-.3-.9-1.4-.4-2 .6-.6.6-1.5 0-1.3-.3 0-.5 0-.6 0 0-.2 0-.4.2-.4.3-.1.3-.2 0-.2-.2 0-.4-.2-.4-.5s-.2-.5-.4-.5c-.4 0-1.6.8-1.6 1.1 0 .1 0 .4-.1.7 0 .3-.2.7-.3 1-.2.8-1.1.6-.9-.2.2-.7.2-.7.4 0 .2.6.2.6.3 0 0-.4-.1-.8-.3-.9s-.2-.4 0-.8c.4-.8.4-1 0-1s-.6-.3-.8-.6c-.3-.5-.7-.6-2.3-.5-1.1 0-2 0-2.1-.2s-.4-.2-.7 0c-.8.4-1.7.3-1.9-.2-.2-.3-.3.2-.5 1.2-.1.9-.3 1.7-.4 1.9-.4.4-.7-.7-.5-2.1.1-.8 0-1.5 0-1.6-.1 0-.3-.7-.3-1.3v-1.2s-.3 1.4-.3 1.4c-.3 1.7-.6 2.1-.6.9v-.9l-.9 1.1c-.5.6-1 1.5-1.1 2.1s-.4 1.1-.7 1.2-.4.4-.3.7c.2.6-.2.6-.7 0-.3-.3-.3-.2-.2.7.1.8.1 1-.1.6-.4-.6-.4-1.8 0-2.6.3-.6.3-.6-.2-.4-.3.1-.7 0-.8-.2-.2-.3-.3-.3-.3.1 0 .3-.2.7-.5.9-.4.3-.5.2-.7-.6-.2-1.2-.8-1.3-.8-.2s-.1.8-.3.8-.4.2-.4.4-.1.1 0-.2c0-.3 0-.6-.2-.6s-.3-.3-.3-.6 0-.4.2-.2c.3.7.7.4.7-.4s-.1-.8-.2-.7c-.1 0-.7 0-1.2-.1-1.1-.2-2-1.7-2-3.2s0-.8-.6-.2c-.4.4-.7 1.4-.9 2.5l-.3 1.9v-1.4c-.1-1.1-.2-1.3-.4-.8-.2.6-.3.5-.3-.3 0-.5-.1-.7-.2-.4 0 .3-.3.5-.6.4-.3 0-.5 0-.5.2s-.2.6-.5.9c-.4.4-.5.3-.5-.7 0-.9 0-1.1-.3-.7s-.3.4-.3 0c0-.3-.1-.5-.3-.4s-.3 0-.4-.2c0-.2-.1 0-.3.4-.2.6-.3.6-.3.2 0-1-1.4-.5-1.7.6-.6 1.9-.5 1.9-1 1.4-.3-.2-.6-1-.8-1.7-.3-1.3-.5-1.2-.8.5-.1.6-.4.9-.8.9s-.6-.1-.4-.8c.1-.4 0-.9-.2-1s-.3.1-.3.6-.1.8-.3.6c-.2-.1-.3.1-.3.5 0 .7 0 .7-.4.1-.2-.3-.6-.5-.8-.4-.4.3-.7-1.3-.3-1.7.5-.5.1-.9-.6-.7-.5.2-.7.5-.7 1.1s-.1.8-.3.7c-.2 0-.5.2-.8.6-.5.6-.5.6-.3 0 .2-.7-.6-1.7-.9-1.1-.2.6-.6.1-.7-1-.2-1.7-.4-1.5-.8.9-.4 2.3-.9 2.8-1 .9 0-1 0-1-.3-.2-.1.4-.3.7-.3.5s-.2-.1-.3.2c-.3.4-.3.3-.3-.2 0-.4-.1-.7-.3-.7s-.3.5-.3 1.1-.1 1.1-.5.9c-.3-.1-.5-.7-.5-2 0-2-.4-2-.9.1-.2.7-.3 1-.3.7 0-.4-.2-.5-.5-.4-.2 0-.6 0-.8-.2s-.4-.2-.4-.1c0 .6-1-.8-1-1.5v-.7s-.4.8-.4.8c-.3.7-.4.7-.5.2-.2-.7-1-.7-1 0s-.2.4-.3.3-.3-.4-.2-.7c0-.2 0-.4-.2-.4s-.3.6-.2 1.6 0 1.6-.2 1.5c-.2 0-.3-.9-.3-1.8s-.1-1.7-.3-1.7-.3-.2-.3-.5c0-.4 0-.4-.4 0-.2.2-.5.8-.7 1.2-.2.6-.3.6-.6.4-.2-.2-.6-.3-.8-.3s-.5-.3-.6-.9l-.2-1v.9c0 .5-.3 1-.8 1.2-.4.2-.8.5-1 .7-.1.2-.2 0 0-.6l.2-1-.6 1-.6 1v-.9c-.2-.9-.6-1.2-.9-.5-.1.3-.2.3-.5 0-.2-.3-.3-.3-.3-.2 0 .2-.2.1-.3-.2-.3-.4-.3-.4-.6 0-.2.3-.3 1.1-.3 1.8v1.3s-.6-1.3-.6-1.3c-.4-.8-.7-1.1-.8-.8-.4 1.3-.5 1.3-.4.2.1-1.4 0-1.4-.7-.7-.5.5-.5.5-.6 0-.1-.7-.7-.7-.7 0s-.6.6-.9-.2c-.3-.7-.3-.7-.8.4q-.5 1.1-1.2.5c-.8-.7-1.4-.8-1.8-.1s-1.5.6-1.8-.1c-.2-.5-.3-.4-.5.7-.2 1-.4 1.3-.6 1-.2-.2-.3-.8-.3-1.3 0-.7 0-.7-.6.3l-.6 1.1v-1.3c0-.9-.1-1.2-.3-.8-.3.4-.3.4-.3 0s0-.4-.3 0-.3.4-.3 0c0-.3-.2-.6-.4-.6s-.6-.3-.8-.7c-.3-.7-.3-.7-.9.4l-.5 1.1.2-1.1c.2-1 .1-1.1-.6-1.2-.4 0-.8 0-.8.3s-.2.6-.5.8c-.3.3-.5.3-.5.1s-.2-.3-.5-.2-.6 0-.7-.3c-.2-.5-.2-.4-.4.1s-.6.6-1.4.7c-.6 0-1.1 0-1.1-.2s-.2-.2-.6-.2c-.6 0-3.8-.9-4.7-1.6-.4-.2-1.2-.5-1.9-.7-.7-.1-1.4-.3-1.4-.3-1.6-.4-2.4-.5-3.6-.1-1.4.4-1.5.5-1.9 1.9-.3.8-.5 1.3-.5 1.1s-.3-.4-.7-.4c-.5 0-.6.2-.6 1.1s-.1 1.1-.3 1c-.2 0-.3-.5-.2-1 .1-1.2-.4-1.8-.6-.7-.3 1-.7 1.1-.8.2 0-.4-.3-.7-.5-.8-.2 0-.3.1-.2.6.1.6 0 .5-.3-.2-.3-.5-.5-1.1-.5-1.4 0-.2-.2-.3-.3-.2-.2.1-.3-.2-.3-.8s-.1-1-.3-1.1c-.2 0-.2.1-.1.5 0 .4-.1 1.8-.5 3.1-.6 2.3-.6 2.3-.8 1.2-.1-.7 0-1.4.2-1.8.3-.5.3-.7-.1-1.2-.5-.5-.5-.5-.5.1s-.2.7-.3.7-.3-.4-.2-1c0-.6 0-.9 0-.6-.1.2-.3.3-.5.2-.2 0-.3 0-.3.3 0 .7-.5.6-.9-.2l-.3-.7v.7c0 .8-.6 1.2-.8.7 0-.2-.2-.1-.2.2 0 .5 0 .5-.3.2-.2-.3-.2-.7 0-1s.2-.8.1-1c-.2-.4-.3-.4-.6 0-.2.2-.4.6-.4.8s-.1.3-.3.3c-.4 0-.4-.7 0-1.7.2-.7.2-.8-.2-.8s-.4.1-.3.3 0 .4-.1.5c-.2.1-.3.5-.3.8s-.2.6-.7.5c-.6 0-.7-.3-.6-1.5 0-.8 0-1.4-.2-1.4s-.3-.2-.3-.5c0-.4-.1-.4-.8 0-.6.4-.8.4-.8.1s-.3-.3-.6-.2c-.4.1-.6 0-.6-.6 0-.4 0-.7.2-.6.2 0 .6 0 1.1-.2l.8-.4-.7-.4c-.4-.2-.8-.4-1-.4s-.5 0-.8-.1c-.4-.2-.2-.3.6-.4l1.1-.2-1.3-.2c-3.2-.6-3.6-.8-3.5-1.5 0-.4-.1-.7-.4-.6-.2 0-.4 0-.4-.2 0-.6 0-.7-1-.4-.6.2-1 .2-1.1 0s0-.3.1-.3.2-.2.1-.5 0-.5.2-.5.4-.2.4-.3-.1-.3-.3-.2c-.2 0-.5 0-.7-.4-.3-.4-.3-.6 0-.7.2 0 .3-.3.2-.4 0-.2 0-.3.3-.3s.4-.1.3-.3-.6-.3-1-.3c-.8 0-.8 0-.2-.6.3-.3.9-.5 1.2-.4.4 0 .6 0 .6-.4s-.4-.5-2.8-.5c-1.5 0-4.2 0-5.8-.2-2.7-.2-3.1-.3-3.8-1.1-.4-.5-.7-.7-.6-.5s0 .4-.3.4-.5-.1-.5-.3-.2-.3-.5-.3-.5.1-.5.2-.4.3-.9.4c-.7 0-.9 0-.8-.3 0-.2.3-.3.4-.2h.7c.3-.2.2-.3-.2-.5s.4-.2 1.9-.2c1.4 0 2.5 0 2.5-.2 0-.1-.3-.2-.8-.2s-1.2-.2-1.8-.5c-.8-.4-1.1-.4-1.2-.2 0 .2-.3.3-.5.2s-1.9-.2-3.9-.3-3.2 0-2.9 0c1.2.3 1.2.6 0 .8-2.3.4-6 .1-6.6-.4s-.6-.5-.4 0c.1.3 0 .6-.1.6s-.3-.2-.3-.4-.2-.3-.5-.2-.4 0-.4-.2-.4-.4-1.2-.5c-.9 0-1.1 0-.8.2s.3.3.1.3-.4 0-.5-.2c-.1-.1-.7-.2-1.3-.3-.6 0-1.8-.2-2.7-.4q-1.6-.3 1-.3c3.6 0 3.7 0 3.7-.4s-.1-.2-.3-.1-.3 0-.3 0c0-.1-2.1-.3-4.6-.3s-4.3 0-3.9.1c.4 0 .8.3 1 .5.5.4-4.2.2-5.6-.3l-1.1-.4h1.3c.7 0 1.2-.1 1-.3-.3-.3-1-.4-4.6-.6-2.4-.1-3.3 0-3.1.2.1.2.1.4 0 .4s-1.7 0-3.5.2c-1.8.1-3 0-2.8 0 .6-.5 0-1.1-.9-.8-.4.1-1.9.2-3.3.3-1.7 0-2.6.2-2.8.5-.1.2-.3.3-.3.3s0-.4-.1-.8c0-.5 0-.6 1.1-.4.6.1 1 .1.8 0-.2 0-.4-.4-.4-.7 0-.4 0-.4-.3 0-.2.3-.3.3-.5 0-.1-.2-.7-.4-1.2-.4s-.9.1-.7.4.1.3-.2 0c-.3-.2-.7-.3-1.1-.1-1 .4-3.6-1-3.2-1.7 0-.1 0-.3-.2-.3s-.3-.2-.2-.6c.1-.3.3-.8.4-1.2 0-.4.3-.8.6-1s.4-.5.1-.9c-.2-.4-.2-1.3 0-2.4.1-1 .3-2.7.4-3.9l.2-2.1 2.5-.2c1.9-.2 2.6 0 2.9.2.2.2.3.5.2.6-.2.2 2.4.4 3.2.2.1 0 .2 0 .2.3s-.6.4-1.4.4c-1.1.1-1 .1.6.2 1.7 0 6.8.4 11.4.9 2.8.3 6.7.2 11.2-.3 2-.2 2.6-.2 3.4.2 1.1.5 3.9.8 5 .4.7-.2 2.4 0 4.6.9 1.3.5 4.2.8 7.6.8.6 0 1.3.1 1.5.3s2.4.4 4.8.5c2.4 0 5.2.2 6.1.3.9 0 1.8 0 1.9-.2s.4 0 .7.2c.3.3 1.1.7 1.8 1s1 .5.6.4c-.4 0-1 0-1.4.1s-1.4.3-2 .4c-1.2.2-1.2.1-.7-.4s.4-.6-.9-.6c-.8 0-1.8-.2-2.3-.3s-1.2-.1-1.6 0-.7.1-.7 0-.4-.3-1-.4c-.7-.1-1.1 0-1.6.5-.7.8-.8 1.2-.2 1.1.9-.1 1.5 0 1.5.4s-.1.2-.3.1-.3 0-.3.1-.2.3-.5.3-.5.1-.5.2 1.2.2 2.7.2 2.8.1 3 .4c.1.2.7.4 1.3.5 1.4.1 1.6.8.4 1-1.7.3-1.1.8 1 .8 1.5 0 2-.1 2.1-.6.3-.9 1-1.3 1.9-1.3.5 0 1.4 0 2-.1 3.4-.5 4-.6 4.1-.9.2-.4 1.7-.3 1.7 0s0 .3.4 0c.2-.2.6-.3.9-.2.3 0 .2 0-.3-.3-.4-.2-1-.6-1.2-.8-.3-.3-.3-.4.3-.4.5 0 .6 0 .3-.3-.6-.4-.2-1 .6-1s.8-.5.3-.8c-.2-.1-.2-.3-.1-.5s0-.3-.3-.3-.5-.3-.5-.7c0-.7-1.2-1.4-1.7-1-.2 0-.2 0 0-.2.2-.3-.2-.4-1.2-.4s-.7-.1 1-.3c1.3-.1 3.4-.3 4.6-.5 1.2-.1 2.3-.2 2.4-.2 0 0 .6 0 1.2.2.8.2 1 .4.9.7-.1.4 0 .4.5.3.4 0 .6 0 .5.1 0 .2.1.3.5.3s.7.1.7.3.3.3.6.3c.7 0 .9.5.2.8-.3.1-.2.2 0 .1 1.6-.1 3.5 1.4 3.2 2.7 0 .3 0 .8.3 1 .3.4.3.5-.2.5s-.5 0 0 .8c.3.5.4.8.2.8s-.3.1-.2.3.4.2.7.1c.3 0 .5 0 .5.2s-.1.4-.3.4-.3.2-.3.5.1.5.3.5.2.2 0 .7c-.3.5-.3.7 0 .9.2.1.4.7.4 1.4 0 .9.2 1.2.7 1.2.6 0 .6 0 0 .3-.4.2-.5.3-.3.5.2.1.3.7.2 1.3-.2 1.2 0 1.4 1.6 1.8.9.2.9.2-.5.3-.8 0-1.1.1-.7.2.9.2.9.5 0 1.3-.5.4-.7.9-.6 1.2.2.5 1.1.7 1.1.2s.6-.4.8.2c.3.7 0 1.2-.6.8-.3-.2-.5-.3-.6 0-.1.2 0 .3 0 .3.3 0 1.7.8 1.7 1.1s-.4.3-.9.3h-.9s.9.3.9.3c1.2.4 1.1.9-.3 1h-1.2s1.3.9 1.3.9c.7.4 1.5.8 1.8.7.5 0-.4.4-1.4.7-.4.1-.5.3-.3.6.1.2.3.5.3.7s.4.3.9.3c.7 0 .8 0 .5.3s-.6.5-.9.6c-.5.2-.2.4 1.4.7.5.1.9.4.9.7 0 .4.3.5 1.7.4 1 0 1.7-.2 1.6-.3 0-.1 0-.4.3-.6.7-.6.4-.8-1.2-1.1-1-.2-1.2-.3-.9-.5s.9-.3 1.4-.3h1s-.8-.5-.8-.5c-.4-.3-1.2-.5-1.6-.5-.7 0-.7 0-.2-.2 1-.2 1.7-1 1.5-1.7 0-.3-.3-.6-.4-.5-.1 0-.5 0-.8-.3-.6-.4-.6-.5.5-.4.7 0 1.1 0 1.2-.3 0-.3-.2-.4-.8-.4-.8 0-.9 0-.3-.5.6-.4.6-.5-.3-.7-1.1-.3-1.1-.6-.2-.9.7-.2.7-.2 0-.5-.4-.1-.8-.2-.9 0-.2 0-.2 0 0-.2.1-.2 0-.4-.4-.4-.3 0-.2-.1.3-.3.5-.1 1.1-.2 1.3-.1.2 0 .7 0 1-.2.5-.3.5-.3-.3-.3-.5 0-.9-.2-.9-.3s-.2-.3-.5-.3-.5-.1-.5-.3c0-.3 1.8-.8 2.6-.7.3 0 .6 0 .6-.3s-.1-.3-.3-.2-.3 0-.3-.1-.3-.3-.6-.3c-.5 0-.5 0 0-.5.6-.4.6-.5-.3-.5s-.9 0-.2-.3c.6-.3.7-.4.3-.8-.2-.3-.6-.4-.8-.3-.6.2-.9-.4-.3-.9.3-.3.6-.5.8-.5s.2-.4.1-1c0-.5-.3-1-.4-1s-.2-.1-.1-.3.7-.2 1.2-.1c.8.1.9 0 .6-.1-.3-.2-.6-.2-.8-.1s-.2 0-.1-.3c0-.2.7-.7 1.5-.9l1.3-.5-1.1-1c-.6-.5-1.1-1.1-1.1-1.4s-.2-.4-.4-.4-.3-.3-.2-.8c0-.4 0-.8 0-.8-.2 0-.7-1.2-.7-1.7 0-.1-.1-.2-.3-.2s-.2-.2-.1-.4c0-.2 0-.5-.4-.6-.5-.2-.5-.3 0-.7.3-.4.3-.6 0-.7-.8-.3-.4-.7.8-.9.6-.1 1-.3.9-.4s-.3-.3-.3-.5-.2-.6-.3-.9c-.2-.4-.1-.5.1-.4s.4 0 .4-.3.4-.5 2.4-.4c1.3 0 2.5 0 2.6-.2 0-.2-.2-.3-.6-.3-1.2 0-1-.6.4-.9 1.5-.4 4.2-.4 4.2 0s.3.3.6.2c1.3-.1 1.7.1.6.3l-1.3.2h1.5c1.2 0 1.5 0 1.5-.4s.3-.5.6-.5.4 0 .2.2c-.7.3-.4.7.6.7s1-.1 1-.3.2-.3.5-.3.4.1.3.3c0 .1.6.3 1.5.3s1.5 0 1.5-.1c-.2-.2.5-.9 1.9-2 1-.8 1-.8 1.1-2.4 0-1.3 1.5-2.2 4-2.5 2.2-.3 3.5-.8 2-.9h-1s1-.3 1-.3c.5-.1 1.7-.4 2.5-.5 1.3-.2 1.5-.3 1.3-.8-.1-.3 0-.6.1-.6s.3-.3.3-.7-.3-.9-1.1-1.3c-.6-.3-1.4-.9-1.7-1.2-.6-.6-.6-.6 2.4-.4 1.7.1 6.3.2 10.3.2s7.3.1 7.1.3c-.1.2.4.3 1.4.3s1.7.2 2 .5c.4.4.3.5-.2.4-.3 0-.8 0-.9 0-.2.1-2.1 0-4.3 0-5-.3-14.3-.2-14.6 0-.1.1-.2.3-.1.4 0 0 2.1.2 4.6.3 2.4 0 4.5.2 4.6.3s-1.6.2-3.7.3c-6.3.3-5.9.8.7.9 3.1 0 5.7-.1 5.7-.2s-.4-.4-.9-.6c-.7-.3.5-.4 5.7-.4 3.6 0 7.6-.1 8.8-.2 2.9-.3 4.4 0 5.5 1 .8.7 1.1.8 3.1.8 1.2 0 2.7 0 3.2.2.6.2 1 0 1.2-.2.4-.6 0-2-.6-2.4-.9-.6-.2-.9 3.1-1.5 2.6-.4 4.6-.4 13.4-.2 9.4.3 148.2.6 153.4.3 1.6 0 2.2-.2 2.2-.6 0-.6.9-.6 1.1.1.1.5.1.5.2 0 0-.5.7-.6 9-.6s9 0 9.6-.6c.8-.8.8-2 0-3-.6-.7-1.1-.9-4.1-1.2-1.8-.2-3.7-.4-4-.4s-.6-.1-.6-.3c.1-.2-1.8-1-6.3-2.6-.8-.3-2.7-.6-4.1-.8l-2.7-.2-.4-1.3c-.5-1.6-1.5-2.4-2.9-2.4s-1.1-.1-1.1-.2c0-.6.6-1 1.7-.9.8 0 1.1 0 .9-.3-.2-.2-2.2-.3-4.6-.3-3.5 0-4.4-.1-5-.6-.4-.3-1.2-.5-1.7-.5s-.9-.1-.9-.3-.7-.3-1.6-.2c-.9 0-1.9 0-2.4-.3-.6-.3-1.1-.3-1.8 0-.7.2-1.1.2-1.3 0s-.5-.3-.8-.2c-.2 0-.4 0-.4-.2 0-.4-2.2-.3-2.9.1-.3.2-.8.3-1.3.4-.4 0-.9 0-1.1.1-.9.2-1.5 0-1.3-.5.3-.7-.4-.9-1-.4-.4.4-.8.4-1.3.2-.8-.3-3.4-.3-3.7 0-.1.1-.5 0-.9 0-.4-.2-1.7-.2-2.8-.2-1.3 0-2.1 0-2.1-.2s-.2-.1-.5.2c-.4.4-.7.4-1.3.2-.4-.2-1.7-.2-2.8-.2-1.3 0-2.1 0-2.1-.2s-.3 0-.7.3c-.5.4-1.2.6-2.4.7-1.7 0-1.7 0-1.5-.7.2-1-.1-1-1.2 0-.6.5-1.2.7-2.4.7-1.4 0-1.6 0-1.7-.7-.1-.9-.2-.9-1.2-.1-.6.4-1.1.6-1.8.4-.6-.1-2-.2-3.2-.2s-2.2-.1-2.2-.3-.3 0-.7.3c-.5.4-1.2.6-2.4.7-1.7 0-1.7 0-1.6-.7.2-.8-.2-1.1-.6-.4-.4.6-2.1 1.3-2.5 1.1-.2-.1-.7-.2-1-.1-.5 0-.6 0-.2-.4.6-.8.2-.9-.4-.2-.4.5-.7.6-1.3.3-.4-.2-1.7-.2-2.8-.2-1.2 0-2.1 0-2.1-.2s-.3 0-.6.3c-.6.6-2.6.9-3.6.6-.3-.1-.5-.4-.4-.8.2-.6-.4-.9-.7-.3-.4.6-2.2 1.3-2.5 1-.2-.2-.5-.2-.7-.1-.2 0-.4 0-.4-.2s.2-.4.4-.5c.3 0 .3-.2 0-.4-.2-.1-.6 0-.8.2s-.7.4-1 .3c-.3 0-1 .2-1.6.7-.8.6-1.1.8-1.3.4-.2-.3-.5-.3-1.2.3-1.1.8-1.7.9-1.4.2.2-.5-.2-.6-1.4-.6-.2 0-.3-.1-.2-.3 0-.2 0-.3-.1-.3s-.5.4-.7.8c-.3.5-.6.7-1 .6-.3 0-.6 0-.8.2-.1.2-.5.3-.9.3s-.9.3-1.1.6c-.3.3-.4.4-.4.2s-.3-.4-.6-.4-.7-.2-.9-.4c-.2-.4-2.3-1.5-3.3-1.8-.3 0-1.1-.2-1.8-.2s-1.4-.2-1.6-.3c-.1-.1-.6 0-1 .1-.6.2-.9.2-1 0 0-.2-.3-.2-.7.2s-1.2.6-2.4.6c-1.7 0-1.7 0-1.5-.7.2-.9-.2-1-1-.3-.4.4-1 .5-2.9.4-1.3 0-2.5-.2-2.6-.3s-.5 0-.9 0c-.5.2-.8.2-.9 0 0-.3-.4-.2-.9.3-.5.4-1.2.6-2.2.6-1.3 0-1.4 0-1.4-.7.1-.9-.4-.9-1.7.1-.9.6-1.2.8-1.5.5-.2-.2-.7-.3-1-.1-.5.2-.6.2-.2-.3.6-.7.2-1.1-.5-.5-.3.2-.8.4-1.2.5-.4 0-1.1.4-1.5.7-.8.8-1.2.9-1.3.4 0-.2-.5 0-1 .3-.9.7-1.7.9-1.4.3.1-.2 0-.6-.1-.9-.2-.3-.3-.4-.3-.1 0 .2-.2.3-.3.2-.2-.1-.3-.3-.2-.4 0-.1-.1-.3-.5-.3-.3 0-.6 0-.6.3 0 .5-.9 1.2-1.5 1.2s-.9.3-1.3.6c-.8.7-2.9.9-4.5.3-.8-.3-1.1-.3-1.5 0-.3.3-.5.3-.5 0s-.3-.4-.6-.4-.6.2-.6.7c0 .6 0 .7-.3.2-.2-.3-.6-.6-.9-.6s-.7-.1-.8-.3c-.4-.6-3.7-1.3-4.9-1.1-2 .4-2 .3.2 2.1.6.5 1 .9.9.9-.4 0 .7.9 1.4 1.1.8.2.9.6.4 1.5-.4.7-1.3.8-1.9.2-.2-.2-.5-.4-.7-.4s-.5 0-.6 0c-.5 0-2.9-2.5-2.9-2.9s-.3-.5-.7-.8-.6-.5-.4-.5c.4 0-.7-1.7-1.3-2-.2-.1-.4-.4-.3-.5 0-.1 0-.4-.3-.5s-.4-.4-.3-.7 0-.5-.3-.5-.5-.3-.5-.7-.1-.6-.5-.5c-.3.1-.5-.1-.6-1.1 0-.8-.3-1.4-.6-1.6-.8-.5-1 0-.4 1l.5.9-.8-1c-.8-1-1.1-1.6-.5-1.3.2.1.3 0 .3-.2s0-.7.2-1.1c0-.4-.2-.9-.6-1.3s-.8-.9-.9-1.3c0-.4-.4-.8-.7-1-.4-.2-.7-.7-.7-1.2-.1-.9-.5-1.2-.8-.5-.1.3-.2.3-.2 0 0-.2-.2-.6-.5-.9-.6-.6-.6-1.2 0-1.8.4-.4.3-.5-.5-.7s-.9-.3-.9-1.2.1-1 .3-1 .3-1.9.2-5.2c-.4-12.6-.5-17.6-.6-17.8 0 0-.1-1.7-.2-3.5 0-1.8-.2-3.8-.4-4.2-.4-.9-1.2-1.2-1.2-.4s-.3.5-1.1.5-1.3 0-1.7.2c-.4.1-.5 0-.3-.1.1-.2 0-.4-.3-.5-.6-.2-1.2 0-.9.4 0 .1-.2.2-.7.1-.7 0-.8 0-.2.2.5.2.3.3-.7.2-1 0-1.4-.2-1.5-.6-.3-.9-.8-.6-.6.4.1.5 0 1.1-.1 1.4-.4.4-.3 6.9 0 8.9.3 1.6 1.3 2 2.7 1.1 1-.6 1.1-.7.4-.7-.4 0-.7-.3-.7-.5 0-.5 2-2.4 2.4-2.4s.6-.6.9-1.3c.5-1.3.5-1.3 0-.8-.7.7-1.6.5-2.6-.6s-.6-1.4 1.8-1.5c1.1 0 1.9-.2 1.9-.4s0-.5.3-.7c.2-.3.2-.6-.1-.9-.4-.5-.3-.5.7-.3 1.5.3 1.7.6 1.4 1.7-.3 1.2-.4 1.5-.4 4 0 2-.1 2.2-.7 2.2s-.6.1-.5.5 0 .7-.5 1.1l-.7.6h.7c.4 0 .7.2.7.4 0 .6-2.3 2.8-2.8 2.6-.3-.1-.4 0-.4.5s-.3 1-.7 1.4-1 1.2-1.3 1.6c-.3.5-.8.9-1.1.9-.5 0-1.4-.7-1.4-1.2 0-.1-.4-.8-1-1.4l-1-1.1v2.7c0 2.6 0 2.7 1 3.8q1 1.1 0 .3c-.5-.5-1.2-.9-1.4-.9s-.4-.2-.4-.4-.9-1.3-2.1-2.4-2.1-2.1-2.1-2.2.9.6 1.9 1.7c1.1 1 2 1.8 2 1.7 0 0 0-1.3-.2-2.6-.3-1.9-.6-2.7-1.2-3.6-.5-.6-.8-1.3-.7-1.5s0-.4-.5-.5c-.4 0-.7-.3-.7-.5s-.2-.2-.5-.1c-.4.1-.5 0-.3-.2 0-.2 0-.7-.4-.9-.3-.3-.9-1.1-1.3-1.8s-.9-1.3-1.1-1.3c-.3 0 0 6.5.3 7.1.1.2 0 .2-.4 0-.5-.3-.6-.8-.6-3 0-1.4-.1-3.2-.3-3.8-.2-1.1-.3-1.2-.8-.8-.4.4-.5.3-.3 0 .1-.3 0-.7-.2-.9s-.3-.4-.1-.4-1.3-1.8-2.6-3.1c-.4-.4-.9-.7-1-.6-.2 0-.3 0-.3-.2s-.2-.3-.3-.3c-.4 0-1.4-.9-1.2-1.2.2-.2-3.5-4-3.9-4s-.3-.2-.3-.4-.2-.3-.5-.2-.5 0-.5-.3-.2-.4-.5-.3c-.4.2-.9-.4-1-1.1 0-.1-.5-.6-1-1.1s-1.6-1.5-2.5-2.2c-.8-.8-1.5-1.3-1.5-1.2s-.3 0-.6-.3c-.4-.4-.7-.4-1-.1s-.4.3-.4-.2-.3-.5-.9-.5-.8 0-.5-.4c.5-.5.5-.9-.2-.9-.4 0-.4-.1.2-.4.7-.4.7-.4.2-.8-.5-.3-.5-.4-.1-.7s.4-.4 0-.8c-.3-.4-.3-.6 0-.9s.4-.2.4.1.2.6.5.7c.4.1.5 0 .3-.3-.1-.3-.2-.7-.2-1s-.3-.5-.6-.5c-.7 0-1.1-.4-1.7-2-.2-.6-.5-1.1-.6-1-.3.2-.9-2.1-.9-3.1s.1-.9.3-1.1c.4-.4.5-11.5.2-24.3-.2-5.8-.3-10.9-.4-11.3 0-.4-.1-2.8-.2-5.3 0-3.3-.1-4.1-.3-2.9-.2 1.1-.2.8-.1-1.2 0-1.6.1-4 .1-5.4s0-2.4.1-2.3c0 .2.4 1.4.8 2.6.4 1.3.8 2.3.9 2.3.5 0 .1-3.8-.6-6.7-.5-2-.8-2.8-1-2.4s-.3.2-.5-.8c-.1-.7-.4-1.3-.5-1.2-.2 0-.3 0-.3-.2s-.2-.3-.4-.2c-.3.1-.4-.3-.4-1.2s.1-1.3.2-1.2c.1 0 .2-.1.2-.4s0-1.6 0-2.9c0-1.9 0-2.4-.5-2.8-.3-.3-.6-.7-.6-1 0-.8-1.2-2.4-1.4-2-.1.2-.4.3-.5.2-.7-.4-1 .3-.3.9.6.6.6.8.2 1.3-.2.3-.7.6-1 .7-.3 0-1 .2-1.4.3q-.8.2 0-.2c.5-.2.7-.7.7-1.2 0-.6 0-.7-.3-.4-.2.3-.2.6-.1.7 0 .1-.1.4-.5.6s-.6.7-.6 1.1c0 .8-.8 1.3-1.7.9-.3-.1-.5-.4-.4-.8.1-.5 0-.6-.9-.6s-1.2-.3-1.8-1c-.9-1-1.6-1.3-1.6-.5s-.1.5-.3.5-.3.2-.4.5c-.1.5-6.2 2.8-6.7 2.5-.1 0-.3-.4-.3-.7 0-1-1.1-2.4-1.8-2.3-.6 0-2.1 1.3-2.1 1.7s.2 0 .4-.2c.6-.6.9-.5.9.2s-.6.9-2.1 1.6c-1.2.6-2.1 1.2-2.1 1.5s.1.5.3.5.3-.1.3-.3.3-.4.6-.4c.5-.1.6 0 .6.4s.3.6.7.7c.4 0 .7.3.8.7 0 .4 0 .4-.1 0-.2-.6-.7-.6-.7 0s-.2.4-.4.4-1.1.1-1.9.2c-1.3.2-1.5.1-1.5-.3 0-.8-1.5-1-3.3-.4-.9.3-2.2.4-2.9.4s-1.4-.1-1.5-.1-.5-.5-.7-1.2c-.4-.9-.4-1.2 0-1.4.3-.2.3-.3 0-.3-.8 0-1.4.5-1 .8.4.2.5 1.8.1 1.8-.5 0-5.7-1.2-6.7-1.5-.6-.2-1.1-.2-1.2-.2 0 0-1.3-.2-2.7-.6s-3.1-.9-3.8-1.1c-1.1-.2-1.3-.4-1.2-1 0-.4 0-.7-.2-.7s-.3.1-.3.3c0 .6-1.4.3-5.7-1.3-2.4-.9-4.5-1.7-4.8-1.7-.2 0-.4-.5-.4-.9 0-.9-.4-1-1.7-.5-.6.2-1.5 0-4.3-1.4-1.9-.9-4.5-2.1-5.7-2.6-1.9-.8-2.7-1.4-1.8-1.4s.4-1.2-.2-1.4c-.3-.1-.5 0-.5.4 0 .9-1.4.8-3.2-.3-1.4-.9-4.8-2.6-10.6-5.7-2.6-1.4-2.7-1.5-2-2.2.5-.5.5-.6 0-1-.8-.6-1.1-.6-1.1.2s-.2.6-.4.6-.3-.2-.2-.5 0-.6-.3-.7c-.2 0-.4-.4-.3-.6 0-.2 0-.5-.2-.5s-.3-.3-.2-.9c.2-.8 0-1-5.7-4.4-3.2-1.9-6.6-3.9-7.5-4.5-.9-.5-1.7-1.1-1.7-1.3 0-.4-.7-.7-1.2-.5s-.5 1.7 0 1.7.3-.1.3-.3c0-.4.7 0 3 1.4 1.5 1 4.4 2.7 7.7 4.8.9.5 1.9 1.1 2.4 1.3 1.7.7 2.2 1.3 2.4 2.9.2 2 .2 2 .5 1.4.3-.4.3-.4.2 0-.2.7-.9.7-1.8 0-.5-.4-.6-.6-.2-.5 1 .3.6 0-.6-.7-1.2-.6-3.3-1.8-5.6-3.2-.7-.4-1.7-1.1-2.4-1.4-.7-.4-2.1-1.2-3.3-1.9-1.1-.7-2.7-1.5-3.4-1.9-1.4-.7-1.8-1.6-.8-1.6s.7-.3.8-.6c.1-.5 0-.6-1.1-.8-.7-.1-1.2-.3-1.2-.5s-.2-.3-.5-.3-.4-.3-.4-1c0-.5.2-1 .3-1 .4 0 1.5-1.2 1.5-1.6s-.6-.4-.7 0-2.9-1-7.9-3.9c-1.3-.8-2.9-1.6-3.6-2-.6-.3-1.3-.7-1.4-.9-.4-.7-1.1-.3-1 .6 0 .5.2 1 .4 1s.2.1 0 .2c-.1.1-.4.2-.6.2s-.4.5-.4 1 .1 1 .4 1c.2 0 .4 0 .4.2s-.4.3-.9.3-.9 0-.9.2-.5.3-1 .3h-1s0-2 0-2c0-1.4 0-1.8-.2-1.2-.2.4-.3 1.3-.3 1.8 0 .7-.2 1-.5 1s-.5.1-.5.3-.6.3-1.3.3c-1.4 0-1.8-.6-.4-.7.7 0 .5-.1-.8-.7-1.2-.4-2.4-1.3-3.7-2.6-2.6-2.5-4.5-4.2-9.3-8.2-2.2-1.8-3.9-3.4-3.9-3.5s-.1-.3-.3-.3c-.5 0-9.6-7.6-9.8-8.2 0-.3-.4-.5-.6-.5s-1.5-1-2.9-2.2-3.6-3-4.9-4-2.5-2.1-2.7-2.4-.6-.6-.8-.7c-.5-.2-8.8-7.1-10.6-8.8-.8-.7-1.5-1.4-1.7-1.4s-1-.6-1.8-1.4c-.9-.7-3.5-3-6-5-2.4-2-4.5-3.9-4.7-4.3s-.3 19.5-.3 45zm56.9 1.1h1.4c.4 0 0-.1-.7-.1s-1.1 0-.7.1zm16.2 4.6c.5 1.7 1.8 3.5 2.7 3.7 1.1.3.9.3 2.8.6.9.1 2.1.5 2.6.7 1.2.5 2.3.6 1.8.1-.2-.2-1.6-1-3.2-1.8s-3.6-2-4.5-2.5c-.9-.6-1.8-1.1-2-1.3-.3-.2-.4 0-.2.5zm-1.3 1.6c-.3.5.1.8.5.4.2-.2.2-.4 0-.5s-.4 0-.5.1zm5 1.4s.5.4 1 .7l1 .5-.8-.7c-.8-.6-1.3-.8-1.3-.5zm-.9 1.9c0 .2 1.4 1.3 3.1 2.3s3.6 2.3 4.2 2.9 1.2 1 1.3.9 0-.4-.3-.6c-.3-.3-.6-1-.6-2 0-1.3-.2-1.6-.8-1.9-.4-.2-.7-.4-.7-.5s-.3-.1-.6 0c-.3 0-1.6-.2-2.8-.7-2.6-1-2.7-1-2.7-.4zm-7.4 1c.5 1 1 1.1.9.1 0-.4-.4-.8-.7-.8-.5 0-.5 0-.2.7zm18.5-.6c-.4.4-.3.7.3.9s1.4 0 1.4-.5-.2-.2-.4-.2-.6 0-.7-.1c-.2-.2-.4-.2-.5 0zm-11.5 1.9c.2.3.3.7.2 1-.4 1.1 2.6 4.6 4 4.6 1 0 2.2 1 2.2 1.9s.2.8.6.9c.4 0 .7.4.7.7s.1-.3.2-1.2c.3-2.6.1-3-1.1-3.5-.6-.2-1.1-.5-1.1-.7 0-.3-2.7-2.2-3.1-2.2s-.7-.4-1.3-1c-1.1-1-2.1-1.3-1.4-.5zm13.9-.2c-.6.5-.4 1.3.5 1.9.5.4 1 .7 1.1.7s.7.4 1.3.8 1.2.8 1.4.8.4.1.4.2.3.4.7.6 1.6.9 2.7 1.5c4.2 2.5 5.7 3.3 6.3 3.5 1.3.5-1-1.1-7.8-5.1-5.8-3.5-6.7-4.1-6.3-4.4.3-.2.4-.5.2-.6s-.4 0-.6 0zm-4.4 1.3c.1.2.3.3.3.3s.1-.1.1-.3-.2-.3-.3-.3-.2.1-.1.3zm-.3 5.3c-.1.1-.2 1-.2 2 0 1.5.1 1.9.7 2.4l.7.6-.2-2.4c-.2-2.3-.5-3.1-.9-2.7zm1.9 2.7c.2 2.6.3 3.1 1 3.7.4.4 1 .7 1.2.7s.5.1.5.3 1.2 1.3 2.6 2.5c1.5 1.2 2.9 2.5 3.3 2.9.4.3 1.6 1.4 2.7 2.3s2.8 2.3 3.7 3.1c3.1 2.7 2.9 3 2.7-2.6-.1-2.7-.2-4.9-.2-4.9-.2-.2-2.7-1.7-4.5-2.7-1.7-.9-11.4-7-12.7-8.1-.3-.3-.4.2-.2 2.7zm-85.5-1c0 .2.3.3 1 .4 1 .1 1.1 0 .6-.3-.7-.5-1.3-.5-1.6-.1zm74.4 0c0 .2 5.6 5 6.6 5.6.2.1.4 0 .4 0 0-.4-6.4-5.8-6.8-5.8-.1 0-.2.1-.2.3zm29.2 2.2c0 .2.4.5.8.8.8.5.8.5.5 0-.4-.7-1.3-1.2-1.3-.7zm2.6.6c0 .4 0 .4.2.2 0-.2 0-.5 0-.6-.1-.1-.2 0-.2.4zm-99.4 1.1c.3 1.5.4 1.5.4.1s-.1-1.2-.3-1.2-.2.4-.1 1zm102 .3c-.1.2 0 .3.1.3s.3-.1.3-.3 0-.3-.1-.3-.2.1-.3.3zm-.3 1.1c.3.3.7.5.9.5s1.4.7 2.7 1.5c2.7 1.6 6.6 3.6 7 3.6s-3-2-6.3-3.8c-1.8-1-3.5-1.9-3.7-2-.2-.2-.5-.3-.8-.3-.4 0-.4.1.1.5zm-.5 1c-.1.1.8.8 1.9 1.5 1.2.7 2.9 1.7 3.9 2.3s2.1 1.2 2.5 1.3c1.5.5 3.8 2.1 4 2.8v.7c.1 0 .2-.7.2-.7 0-.4.2-.7.4-.7s0-.2-.4-.4-2.9-1.6-5.4-3c-2.6-1.4-5.1-2.8-5.6-3.1-1.3-.8-1.3-.8-1.5-.6zm-6.9.8c.3.2.8.7 1.1 1s.7.6 1 .5c.6 0-.3-.8-1.8-1.5-.5-.3-.7-.3-.4 0zm-85.4 2.9c.1.4.7 1.4 1.2 2.1l.9 1.3v-1.4c-.2-1.2-.4-1.5-1.3-2.1l-1.1-.7.2.8zm70.9-.4c0 .5.7 1.2 3.2 3.2 2.8 2.2 3.2 2.5 3.2 2.1s-1.4-1.5-3.2-2.9-3.2-2.5-3.2-2.4zm17.6 3.7c0 1.9 0 4.1-.2 4.8-.2 1.1-.1 1.3.5 1.8l.7.5-.3-4.8c-.3-5.8-.9-7.4-.8-2.3zm2-2.9c-.2 1.7-.2 10.7.1 11.2.6 1.1 1.9 2.4 2.3 2.4s1 .4 1.6.9c1.4 1 2.6 1.1 3.2.2.3-.6.4-.4.4 1 0 1.3.2 1.7.7 2 .4.2.8.3 1 .2s.3.1.3.5.2.7.4.7.5.2.7.5 1 .6 1.9.6c1.3.1 1.5 0 1.2-.3-.3-.4-.3-.5 0-.6.2-.1 0-.1-.5 0l-1 .2.9-.5c1-.5.9.2 1-8.9 0-1 0-2-.1-2.1-.3-.4-2.4-1.8-3.1-2-.4-.1-.8-.4-1-.7s-.7-.5-1.1-.5-1.2-.5-1.8-1.1c-1.3-1.3-6.8-4.2-6.9-3.6zm14.6 1.5c.2.2.5.3.6.2 0 0 0-.3-.4-.4-.5-.2-.5-.1-.2.2zm-100.4 2.9c0 1.9.3 3.2.5 3.5.3.3.4-.2.4-2.6s-.1-3.1-.5-3.5c-.5-.5-.5-.3-.4 2.6zm11-1.3c-.3.5 0 .7.6.4.3-.1.4-.3.3-.5-.2-.4-.7-.4-1 0zm-1.5.2c-.4.1-.5.3-.2.7.2.4.2.6 0 .6s-.3 0-.2.2c.1.1 1.1 0 2.2-.2 1.6-.3 1.9-.4 1.2-.6-.4-.1-.9 0-1.1 0-.4.4-.9.3-.7 0 .3-.4-.5-.9-1.2-.8zm3.9 0c.3.1.6.3.7.5s.3.2.5 0c.3-.3-.5-.9-1.2-.8-.4 0-.4 0 0 .2zm91.2.5c.3.4 2 .9 2 .6s-1.8-1.1-2.1-1.1 0 .2.2.4zm-.8 1.2c-.1.2 0 .3.2.3s2.4 1 5 2.3c4.2 2.1 4.6 2.3 4.6 3.1s0 .8.6.3c.4-.4.5-.6.2-.7-.2 0-.3-.3-.2-.4.1-.2-9.3-5.1-9.9-5.1s-.2.1-.3.3zm4.8.7c1.3.7 4.3 2 4 1.7 0 0-1.1-.7-2.3-1.3-2.4-1.3-3.7-1.6-1.7-.4zm-32.8 1.4c0 .4 6.1 5.3 6.3 5.1.1-.1.1-.2 0-.3 0 0-1.4-1.1-2.9-2.3-3.7-3-3.5-2.9-3.5-2.5zm37.5.6s.4.5 1 .8c.5.4 1 .5 1 .3s-.4-.6-1-.8c-.5-.3-1-.4-1-.3zm-12.7 6c0 4.7.1 5.7.8 5.7.2 0 0-9.8-.2-10.5-.4-1.3-.6.2-.6 4.8zm1.6-1.3c.1 2.1.2 4.9.2 6.2 0 2.2 0 2.3.7 2.3s.7 0 0-.7q-.6-.7.2-.4c.4.1.8.3.9.3.2.2-.5 2.5-.8 2.6-.2 0-.3 0 0 0 .2 0 .2-.3-.1-.6-.6-.6-.8-.6-.8 0s-.1.5-.3.5-.3-.3-.3-.6c0-.9-.9-1.2-1.4-.5-.4.5-.4.5-.6 0-.2-.6-1.8-1.2-2.2-.8-.3.3 1.8 1.7 2.9 2 3.6 1 4.2 1.1 4.6.7.3-.3.5-.3.5 0s.3.4.6.4.7.1.8.3.7.3 1.2.3c.6 0 2 0 3.2.2 2 .2 2.2.2 2-.3-.1-.3-.2-.7-.2-.9s-.1-.2-.2-.2-.5 0-.9-.1c-.5-.2-.5-.3.4-.3h1s0-4.4 0-4.4v-4.4s-2.6-1.1-2.6-1.1c-1.5-.6-4.1-1.8-5.8-2.6l-3.2-1.5.2 3.8zm16.1-2.1h.6c.1-.1 0-.2-.4-.2s-.4 0-.2.2zm.9 1.7c1.1.5 2.6 1.2 3.5 1.5 2 .7 2.4 1 2.4 1.9 0 .6 0 .6.3.2.4-.7 0-1.9-.5-1.9s-1.9-.6-3.6-1.3c-3.7-1.5-5-1.7-2.1-.3zm-104.9.2c-2.3.3-3.2.6-3.7 1.1l-.6.7 1.1-.2c.6-.1 2.3-.3 3.7-.5 2.8-.3 2.9-.4 2.7-1 0-.4-.6-.4-3.1 0zm111 .8c.2.2.5.3.6.2 0 0 0-.3-.4-.4-.5-.2-.5-.1-.2.2zm-145.2.5c0 .2.2.4.4.5.2 0 .3.4.2.7-.3.8-.3 1 .2 1 .3 0 .5 0 .5-.2s-.2-.3-.4-.3-.3 0 0-.2c.2-.1.3-.6.4-1 0-.4 0-.6-.1-.4-.1.3-.3.3-.6 0-.3-.2-.4-.3-.4 0zm2.2-.1s.2.2.5.3.4 0 .3-.1c-.2-.3-.8-.4-.8-.2zm33.4.8c-.7.4-.2.9.9.7.5 0 1-.3 1-.6 0-.5-1.2-.6-1.9-.2zm-4.3.9c.3.2.9.4 1.4.3.4 0 .9-.1 1.1-.2.1 0 .2-.2.2-.3s-.7-.3-1.6-.2c-1.4 0-1.5.1-1.1.5zm19-.1c0 .6-2 1.1-2.2.5 0-.2-.4-.4-.8-.4s-.5.1-.4.4c.2.3 0 .3-.5.2-.8-.2-.8-.4 0 1.8.5 1.4.8 1.8 1.4 1.8.5 0 .5 0 .1.2-.7.2-.4 1.1.3 1.1.3 0 .4 0 .1.2-.5.2-.5.5 0 1.5l.3.8 1-1.1c.5-.6 1-1.5 1-1.9 0-.7 0-.8-.8-.6-.5.1-.8 0-.8-.2s.4-.4.8-.4c.7 0 .8-.1.8-1.4 0-.7 0-1.8.1-2.2 0-.5 0-.9-.2-.9s-.3.2-.3.5zm83.9 3.3c0 2.7 0 4.1-.2 4.6-.5 1 0 1.9 1.2 1.9s.9-.2 1.2-1.1c.3-1 .3-1.1-.4-1.3s-.8-.3-.8-3.9c0-2.8-.2-3.8-.5-3.9-.4-.1-.4.6-.3 3.7zm1.6 0v3.8s1.1.2 1.1.2c.8.1.9.2.5.5-.4.2 0 .4 1.3.5l1.8.2h-1.7c-1.5 0-1.7.2-1.7.9s0 .8 3.6.9h4c.3-.2.5-1.1.5-3 .1-3.2-.2-4.2-1.2-4.5-1.8-.5-7.2-2.5-7.4-2.8-.7-.6-.8 0-.7 3.5zm14.3-3.5h.6c.1-.1 0-.2-.4-.2s-.4 0-.2.2zm-151.1.3c-.1.1-.1.4 0 .7.1.4.2.4.5 0 .5-.7.1-1.3-.4-.7zm53.8.5c0 .9.5 1.1 1.8.6.6-.2.5-.3-.3-.5-.5-.1-1.1-.4-1.2-.6s-.2 0-.2.5zm-17.5.4c-1.1.2-2 .4-2.1.4 0 0 .1.2.4.4s1.2.4 2.1.4c1.3 0 1.4 0 .7.2-1 .2-1.2.7-.4 1.1.9.6 1.5 0 1.5-1.6s0-1.4 0-1.4-1 .2-2.1.4zm71.3-.1c0 .3.9 1.2 2 2 2.4 1.9 2.8 2.1 2.8 1.7s-1.1-1.2-2.4-2.3c-1.4-1.2-2.4-1.8-2.4-1.5zm43.5.1c.8.2 1.6.4 1.8.4.6 0-1.9-.9-2.6-.9-.4 0 0 .2.8.5zm-105.9-.1c0 .4 1.1 2.4 1.3 2.4.4 0-.3-1.8-.9-2.3-.3-.2-.5-.3-.5-.2zm-43.1.7c0 .3.1.4.3.3.1 0 .2-.3 0-.5-.3-.4-.4-.4-.4.2zm151.3 0s.5.3 1 .5c.6.2.9.2.7 0-.4-.3-1.8-.8-1.8-.6zm-104.9.5c-.8.2-.7.2.7.3.9 0 1.8-.1 1.9-.3.2-.3-1.2-.3-2.6 0zm107.1.3c0 .3.1.8.3 1.2.2.5.3.4.2-.6 0-.7-.2-1.2-.3-1.2s-.2.3-.2.6zm34.6-.4c-1 .2-1.7 1.1-1.2 1.6.5.6 1.7.3 1.8-.5 0-.4.4-.8 1-1l.9-.3h-.8c-.4 0-1.2.1-1.6.2zm-189 .5c-.2.6 0 .9.7.9.3 0 .4 0 .2-.2-.2-.1-.4-.4-.5-.7-.1-.4-.2-.4-.3 0zm26.9.5c-.1.7.2 1 3.6 2.7 2 1.1 4.3 2.3 4.9 2.7 1.4.9 1.5.9 1.5.3 0-.2-.4-.7-.9-1s-1.4-1-2-1.4c-4.5-3.4-5.5-4.1-6.2-4.1-.6 0-.8.2-.9.7zm16.5 1.1c0 2.1 0 2.2.8 2.2s.9-.2-.3-2.9l-.6-1.4v2.2zm-39.8-1.3c0 .2.1.3.3.3s.5.3.6.7c.3.7.3.7.2-.1 0-.5-.3-.9-.6-1-.3 0-.6 0-.6.1zm155.1.6c.4.2.9.3 1.3.3.5 0 .5 0-.2-.3-1.1-.3-1.9-.3-1.1 0zm24.3.5c-.8.9-.4 1.4.9 1.4s1.5-1.4.4-1.9c-.6-.3-.8-.2-1.4.4zm-176.4.4c-.3.8-.3 1 .2 1.1.3 0 .7 0 .9-.3.3-.4.3-.4-.2-.4s-.6-.2-.5-.6c.3-1 0-.8-.4.3zm35.5-.3c-.3.5-.2.6.1.4.3-.1.5-.4.5-.6 0-.6-.2-.6-.6.2zm-36.9 0c0 .1.3.3.6.3.4 0 .6 0 .6-.3s-.3-.3-.6-.3-.6.1-.6.3zm140.2 1.4c0 1.8.3 3.1.6 3.1.2 0 .2-.3 0-3.4 0-2-.7-1.7-.7.3zm1.3.7v2.5s2-.2 2-.2c1.1-.1 1.9-.1 1.7 0-.1.1-1 .3-1.9.4-1.2.1-1.7.3-1.7.7s.5.5 2.3.6c1.5 0 2.3 0 2.3-.3s.3-.3.6-.2c1.1.4 2.6-.1 2.6-.9s-.1-.6-1.2-.5c-.7.1-1 .1-.8 0s.4-.4.4-.6.3-.5.6-.4c.5 0 .5 0 0 .3-.4.2-.3.3.3.3s.7-.1.6-1c0-1-.2-1-3-1.9-1.6-.5-3.4-1-3.9-1.1l-1-.2v2.5zm14.4-2.2h.6c.1-.1 0-.2-.4-.2s-.4 0-.2.2zm15.1.5c0 .4 0 .6.2.4 0-.2 0-.6 0-.8s-.2 0-.2.4zm1.4-.2c-.8.8-.6 1.7.3 1.9 1 .3 1.5 0 1.5-1s-1.1-1.6-1.7-.9zm-8.9.3c-.1.3 0 .5.1.5s.3-.2.3-.5 0-.5-.1-.5-.2.2-.3.5zm24.9-.1c-.2.4.6.8 1.1.5.2-.1.3-.3.3-.5 0-.4-1.2-.4-1.4 0zm-190.6.3c0 .2.1.2.3.1s.3-.3.3-.3-.1-.1-.3-.1-.3.2-.3.3zm5.5.5c0 .4 0 .4.2.2 0-.2 0-.5 0-.6-.1-.1-.2 0-.2.4zm158.3-.1c.2.4 1.1.3 1.1 0s-.3-.3-.6-.3-.5.2-.5.3zm-157.7.1c0 .2-.1.6-.2 1-.2.6-.2.6.2 0 .2-.3.3-.7.2-1s-.2-.3-.2 0zm32.3.3c0 .2.3.4.6.4s.6-.2.6-.5-.3-.4-.6-.4c-.4 0-.6.2-.6.5zm78.9-.2c-.1.2 0 .3.3.3s.6-.1.7-.3 0-.3-.3-.3-.6.1-.7.3zm68.2 0c-.1.2 0 .3.1.3s.3-.1.3-.3 0-.3-.1-.3-.2.1-.3.3zm-184.6.2h.6c.1-.1 0-.2-.4-.2s-.4 0-.2.2zm42.2.1c-.2.4.8 2.9 1.1 2.9s.3-.2-.3-1.4c-.3-.6-.5-1.2-.5-1.4 0-.5-.1-.5-.4-.1zm3.3-.1h.6c.1-.1 0-.2-.4-.2s-.4 0-.2.2zm75.8.2c.2.2.8.4 1.3.4s1.7.2 2.8.4c1 .2 2.2.3 2.6.3 1.3 0-.4-.7-2.1-.8-.9 0-2-.2-2.4-.3-2.2-.5-2.4-.5-2 0zm40.7-.1c-.3.2-.3.3 0 .3.2 0 .5-.1.6-.3.2-.4.1-.4-.5 0zm16.2 0c-.1.2 0 .3.1.3s.3-.1.3-.3 0-.3-.1-.3-.2.1-.3.3zm14 .4c0 .4 0 .6.2.4 0-.2 0-.6 0-.8s-.2 0-.2.4zm-190.9-.1c-.7.2-.7.7 0 .7s.6-.2.6-.5 0-.5 0-.4c0 0-.3.1-.6.2zm1.3.3c.3.5.3.7 0 .9-.3.1-.3.2 0 .2.7 0 .8-.7.3-1.2s-.5-.5-.2.2zm185.7.2c0 .5 0 .7.2.4 0-.3 0-.7 0-1 0-.2-.2 0-.1.6zm.6-.3c0 .3.1.4.3.3s.2-.3.1-.5c-.3-.4-.5-.4-.5.2zm-36.5 1.7c0 1.5 0 1.7.5 1.6.3-.1.8-.2 1.2-.2s.6-.2.5-.5 0-.5 0-.5.3.2.4.4c.2.5 3.8-.4 4-1 .2-.5-2.7-.5-3 0-.1.2-.4.3-.5.3s-.2-.1 0-.4c.2-.2.3-.5.1-.6-.3-.3-1.9-.3-2.1 0 0 .1 0 0 0-.1 0-.2-.2-.4-.5-.5-.6-.1-.6 0-.6 1.6zm33.7-1.5c-.6.6-.5.9.3.9s.6-.2.6-.6c0-.7-.3-.8-.9-.3zm-179.8.5c-.2.5-.1.5.2.2.2-.2.3-.5.2-.6 0 0-.3 0-.4.4zm31.8-.3h.6c.1-.1 0-.2-.4-.2s-.4 0-.2.2zm113.4 1.3c0 1 .1 1.7.3 1.7s.3-.5.1-1.5c-.3-2.1-.5-2.1-.5-.1zm31-.7c0 .8 0 .8.5.4.3-.3.4-.7.3-.9-.4-.6-.8-.4-.8.5zm-143.1.9c0 1.5.7 2.5 1.8 2.4 1.3 0 1.5-.4.7-2.2-.6-1.4-.8-1.7-1.6-1.7s-.9 0-.9 1.4zm82.5-.6c-.2.8.2 1.1.6.5.1-.2.7-.3 1.4-.3 1.4 0 1-.5-.6-.8-1.1-.2-1.2-.1-1.3.6zm43.8-.5c-.1.2 0 .3.3.3s.5-.1.5-.3-.1-.3-.3-.3-.4.1-.5.3zm14.6.1c-.6.6-.5.9.3.9s.6-.2.6-.6c0-.7-.3-.8-.9-.3zm-142.6.2c-.1.2 0 .3.3.3s.5-.1.5-.3-.1-.3-.3-.3-.4.1-.5.3zm-14.9 2.8c0 2.8 0 2.8.3 1.1.2-.9.4-1.7.6-1.7.6 0 .3-1.6-.3-1.9s-.6-.2-.6 2.5zm102.6-2.4c-.1.2.2.3.6.3s.8-.1.8-.3-.3-.3-.6-.3-.7.1-.8.3zm9.9 0c-.8.2-.6.3.9.3 1.2 0 1.8 0 1.7-.3-.2-.4-1.1-.4-2.6 0zm41.5 0c0 .2.3.3.4.3s.4-.2.4-.3c0-.2-.1-.3-.4-.3s-.5.2-.4.3zm13.4.1c-.3.4-.3.5 0 .5.2 0 .6-.1.9-.3s.3-.3 0-.5c-.3-.1-.7 0-.9.3zm-191.7.2c0 .2.2.2.5.1s.5-.2.5-.3-.2-.1-.5-.1-.5.1-.5.3zm112.3-.1c0 .2 3.1 2.8 4.1 3.4s-.2-.7-1.9-2.2c-1.8-1.5-2.2-1.7-2.2-1.2zm-73 .4c.6.4 1.1.4.8 0-.1-.2-.4-.3-.7-.3-.5 0-.5 0 0 .3zm124.4-.1c0 .1 0 4.2.1 9 .4 14.3.6 27.5.3 25.9-.1-.8-.3-2.3-.3-3.3 0-1.1-.2-1.8-.3-1.7-.2.1-.2 1.8-.1 4.2l.2 4.1 1.2 1.1c.7.6 1.8 1.6 2.5 2.2.8.7 1.1 1.1.8 1.2-.6.3-.5.8.2.8s.6.2.6.6c0 .8-.3.8-1.4 0-1.1-.9-1.1-.3 0 .8.8.7 1 .8 1.2.4.1-.3.6-.6 1-.7.6-.2.7-.1.7.5s-.2.9-.4 1.1-.3.6-.2.9.3.5.4.3c.1-.1.5 0 1 .3.4.3.7.4.7.2s-.3-.4-.6-.6c-.8-.5-.8-1.1-.1-1.7.5-.4.8-.3 1.2.8 0 .2.2.2.4 0 .2-.3.5-.1 1 .6 1.1 1.4 1.4 1.2 1.2-.8l-.2-1.8 1 .2 1 .2-.7-.8-.7-.8 1.1-.2 1.1-.2-1.2-.5-1.2-.5 1.2-.6 1.2-.6h-1c-1.1-.2-1.4-.7-.6-1 .3-.1.5-.5.5-.8 0-.6 0-.6-.5-.1-.7.7-1.3.4-1.2-.7 0-.5-.1-2.2-.4-3.8l-.4-2.9v3.4s-.2 3.4-.2 3.4l-.2-2.4c-.1-1.3-.3-8.3-.5-15.5-.1-7.2-.3-14.1-.3-15.3s-.1-2.8-.1-3.6v-1.4s-1.8 0-1.8 0h-1.8s.2 4.9.2 4.9c.7 16.7 1 29.8.6 31s-.4 1.2-.4-1.4c0-4.4-.6-4.3-.7.2v3.8s-.3-4.3-.3-4.3c-.1-2.4-.3-11-.5-19.2l-.2-14.9h-2c-1.1-.1-2.1 0-2.2.1zm9.5 1c0 .8 0 1.1.1.7 0-.4 0-1 0-1.4s-.1 0-.1.7zm1 3.2c0 2.5 0 3.6.1 2.3 0-1.3 0-3.4 0-4.6 0-1.3-.1-.2-.1 2.3zm11.7-3.9c-.3.4-.3.5.3.5.8 0 1.2-.5.6-.7-.2 0-.6 0-.8.3zm-131.8.2c-.2.2-.7 1.1-1.2 2l-.9 1.6.8-1c2.2-2.6 2.5-3 2-3s-.6.2-.8.4zm.8 3.9c-1.8 2.3-3.2 4.5-3.2 4.9s.4.8.9 1 .9.6.9.7 1 .9 2.3 1.6 2.6 1.6 3 1.8l.7.5v-5.9c0-4.9 0-6-.4-6-.6 0-.9-.9-.9-2 0-.5 0-.9 0-.9s-1.5 1.9-3.3 4.3zm108.2 3.8c0 4.6.1 11.1.1 14.6s.1 6.3.3 6.3c.3 0 .1-16.5-.3-24.5-.2-3.9-.2-3.3-.1 3.5zm-155.2-7.6h.6c.1-.1 0-.2-.4-.2s-.4 0-.2.2zm130.3-.1c0 .3 2 .4 2.1.1 0-.1-.3-.3-1-.3s-1.1 0-1.1.1zm23.3 18c.2 17.2.2 18.2.8 18.8s.6.6.4-4c-.1-2.5-.3-5.1-.3-5.8 0-.6-.2-6.9-.4-14-.1-7.1-.3-12.9-.5-13-.1 0-.2 8 0 18zm18.9-17.8c-.1.2-.2.5 0 .6.3.3.6-.1.4-.6-.1-.3-.2-.3-.4 0zm-37.4.8c0 .5.1.8.4.7.2 0 .4-.4.4-.7s-.2-.6-.4-.7c-.3 0-.4.2-.4.7zm15.9-.3c-1.1.3-1.3.5-1.2 1.3 0 .5.2 7.8.3 16.2.2 15 .3 15.3.9 15.7.4.2 1 .8 1.4 1.1.4.4.8.6.9.6.3-.3-.4-35.2-.7-35.3-.2 0-.9.1-1.6.3zm-38.9.6c.4.4.9.8 1 .8s.6.3.9.7l.6.7v-1.2c0-1.1 0-1.2-1.4-1.5-1.9-.5-2-.5-1.1.4zm3.1.4c-.4.4-.3 1.9.2 2.3.3.3.4 0 .3-.8-.2-1.6-.2-1.7-.5-1.5zm1.1 1.5c0 1.7 0 1.7 1.8 3.1 1 .8 2.5 2 3.4 2.8.9.7 1.6 1.4 1.6 1.4.1 0-.1-8.2-.3-8.3 0 0-1-.2-2.1-.2s-2.5-.2-3.2-.3l-1.3-.2v1.7zm30.1-1.5c-.3.1-.4.6-.2 1.7 0 .8.3 7.2.5 14.3.3 12.4.4 12.8 1 13.5.4.4.8.7.9.7.2 0 0-29.2-.2-30-.1-.4-1.2-.5-2-.2zm2.6 5.2c0 3.1 0 4.3.1 2.8 0-1.5 0-4.1 0-5.6s-.1-.3-.1 2.8zm-5.8-4.9c-.3.1-.4 1.9-.3 7.9 0 5 0 7.2-.1 6.3-.2-.8-.3-4.2-.3-7.6s-.1-6.1-.3-6c-.1 0-.2 3.4-.1 7.3.1 5.3 0 7-.2 6.9-.3-.2-.4-2.4-.4-7.4v-7.2l-.9.2c-.5.1-1.6.2-2.4.2h-1.6s.2 8.3.2 8.3c.1 5.7.1 8.3-.1 8.3s-.4-.7-.4-1.5c-.4-13.2-.5-14.6-.8-14.7-.3 0-.3 2-.2 8.9l.2 9 .8 1.2c.7 1 1.2 1.4 2.1 1.5 0 0 .4.3.8.7.9.9 1.6.8 1.6 0s0-.6.5.9c.2.9.3.9.5-.5l.2-1.4v1.5c0 1.5.7 2.2.8.8 0-.7 0-.7.3 0 .3.9.1 1.4-.3 1.1-.2-.1-.3 0-.3.2s.1.3.3.3 1 .6 1.8 1.4c.9.8 1.6 1.4 1.7 1.4 0 0 0-2.7 0-6-.1-3.3-.3-9.6-.4-14.1-.1-5-.4-8.1-.6-8.1s-.3 2.4-.2 6.8c.1 7.9 0 10-.2 9.8-.1-.1-.2-3.7-.3-8 0-4.3-.2-8-.3-8.2-.2-.3-.4-.4-1-.1zm36.3.1h-1.2v2.8c0 1.5.1 2.7.3 2.7s.9-.7 1.6-1.5c1.1-1.3 1.3-1.8 1.3-2.9 0-.9-.1-1.3-.4-1.3-.2 0-.9.1-1.6.2zm2.4.8c0 .7 0 1 .1.6 0-.4 0-1 0-1.3s-.1 0-.1.7zm.9-.4c0 .4.1.6.3.5s.3-.4.3-.7-.1-.5-.3-.5-.3.3-.3.7zm-160.9.1c0 .4-.2.5-.4.3-.2-.1-.3 0-.1.2.3.5 1 0 .7-.7-.1-.3-.2-.2-.2.2zm1.7 0c.4.3.6.6.6.8s.2.3.6.2c.6 0 .6 0 0-.5-.3-.2-.9-.6-1.2-.7l-.6-.3zm100.2-.2c-.4.4-.3 8.1.1 8.8.8 1.4 1 .5.9-4.1 0-4.4-.3-5.4-1-4.7zm41.9 9c0 5.2.1 11.6.1 14.1 0 3.1.1 4.7.3 4.7.3 0 .3-4.1-.4-21.3-.3-6.8-.3-6.8-.1 2.4zm11.7-6.8c0 1.4 0 2.7.2 2.8s.2-.9.1-2.1c-.2-3.3-.3-3.6-.4-.6zm-51.1 1.2c.1 1.8.2 4.2.2 5.4v2.2s1.4 1 1.4 1c.8.6 2.2 1.8 3.3 2.6 1 .9 2.1 1.8 2.3 1.9.3.3.4-1.4.4-8v-8.3h-1.2c-.7 0-2.4-.1-3.9-.1h-2.7s.2 3.2.2 3.2zm48-3c-1.2.5-1.1 1.1.3 2.3 2.7 2.2 2.5 2.2 2.5-.3v-2.3h-1c-.6 0-1.3.2-1.7.3zm-48.7 4.8c0 2.8 0 5.1.2 5.2.1 0 .2-1.4.2-3.3-.2-6.3-.3-7-.3-1.9zm28.8-4c0 .5 0 .7.2.4 0-.3 0-.7 0-1 0-.2-.2 0-.1.6zm36.2 0c0 .5 0 .7.2.4 0-.3 0-.7 0-1 0-.2-.2 0-.1.6zm-56.3 7.9c0 4.7.1 8.6.3 8.6.3 0 .3-10.2 0-14.2-.1-1.9-.2.1-.2 5.7zm49.7-5.7c-1.2 1.4-1.2 1.5-1.1 3.7 0 2.2.1 2.3 1.4 3.4l1.3 1.2v-3c.1-1.7 0-3.9 0-4.9l-.2-1.9-1.2 1.5zm2 3.3c0 2.6.2 4.3.3 3.8.3-1.2 0-8.5-.2-8.5-.1 0-.2 2.1 0 4.7zm-158.1-4.1c0 .2.2.3.4.4.4.1.5 2.7.2 3 0 0-.5.2-.8.2-.4 0-.6.2-.5.3 0 .1-.2.3-.7.3s-.7 0-.5.2c.2 0 0 .6-.7 1.3-1.3 1.2-1.7 1.4-1.6.5 0-.3 0-.7-.3-.8-.4-.1-.4 0-.1.4.2.4.2.7 0 .8-.3.2-.4 0-.4-.5 0-.1-.2-.3-.4-.4-.2 0-.4 0-.4.4s.1.6.3.5c.2 0 .3.1.3.3s.2.3.6.2c.4 0 .5 0 .3 0-.2.1-.3.3-.2.5s-.1.2-.6 0c-.5-.1-.8 0-.8.2s.2.3.4.1c.2-.1.3 0 .1.2-.2.3-.3.3-.7 0s-.5-.3-.4 0c0 .3-.1.4-.4.4-.4 0-.4 0 0 .4.3.4.3.5 0 .7s-.3.1-.1-.2.1-.3-.1-.2c-.3.2-.3.3 0 .6.4.4-1.1 1.5-1.8 1.3-.2 0-.4 0-.4.2s-.1.3-.3.2c-.4-.3 0-1.4.6-1.5.3 0 .2-.2-.4-.3-.8-.2-.9 0-.7.5.1.4 0 .6-.2.5-.2 0-.5-.5-.5-.8 0-.4-.2-1-.2-1.4s-.1-2.1-.2-3.7c0-5.2-.3-3-.5 4.9l-.2 7.7 2.6-2.7c1.4-1.5 4.6-4.7 7.1-7.2 4-4 4.5-4.6 4.5-5.6 0-.9-.2-1.2-1-1.6-.5-.3-1-.4-1-.3zm84.5.6c0 .2.8.9 1.8 1.6 2.1 1.6 2.4 1.3.4-.3-1.7-1.4-2.2-1.7-2.2-1.3zm-48 .5c0 .3.3.4.8.3.4 0 .8-.3.8-.4s-.4-.3-.8-.3-.8.2-.8.4zm126.5 2.6c0 1.8 0 2.4.1 1.5s0-2.4 0-3.2-.1 0-.1 1.7zm-20.3-2.3c-.3.7.1 9.2.4 9.2s0-9.3-.2-9.5c0 0-.2 0-.3.3zm.8.2c0 .4 0 .6.2.4 0-.2 0-.6 0-.8s-.2 0-.2.4zm21.2.3c.1.6.3 1.4.5 1.8s.2.3 0-.5c-.1-.6-.3-1.4-.5-1.8s-.2-.3 0 .5zm-19 1.1c0 .4.3 1.5.6 2.4l.5 1.7.9-1c1.1-1.1 1-1.5-.7-2.9-1.3-1-1.3-1-1.3-.3zm8.5.1v1.8l.2 1.6v-1.8c0-1.7 0-2.2-.3-1.6zm-147.8 2-1.5 1.5v3.6c0 3.2 0 3.6.6 3.7.3 0 .8 0 1-.1.7-.4 1.9-.3 1.8.1 0 .2-.8.4-1.8.4h-1.6s0 2.5 0 2.5v2.5s1.3-.2 1.3-.2c.8-.1 2.3-.3 3.4-.4s2.3-.3 2.6-.4c.3 0 1.1-.2 1.8-.3.7 0 1.6-.2 2.1-.2.4 0 2-.2 3.4-.3 6.7-.5 7.1-.7 5.9-1.9-.4-.4-.9-.8-1.2-.8s-.6-.2-.8-.5-.9-.5-1.7-.5-1.2-.1-1.1-.3.3-.2.5-.1.3 0 .3-.2c0-.5-3.4-.6-4.1-.1-.2.1-.7.2-1.1.2s-1 0-1.3.2c-.3.1-.8 0-1.1 0-.4-.2.3-.4 2.5-.7 3.3-.4 4-.9 2.6-1.8-.4-.3-1.2-.9-1.7-1.2-.5-.4-1.2-.6-1.8-.6-.7 0-1.1-.1-1.4-.6-.4-.6-.3-.6.3-.5.9.2.9-.3 0-.6-.4-.1-1.5-.7-2.5-1.3s-1.9-1-2-.9c0 0-.3 0-.5-.3s-.6-.5-.8-.5-.5-.1-.5-.3-.8.4-1.6 1.2zm126.5-.1c0 .9 0 1.2.1.7 0-.5 0-1.2 0-1.6s-.1 0-.1.9zm11.8 1.4c0 1.9 0 2.9.3 2.8.4-.2.4-4.2 0-5.1-.2-.4-.3.4-.3 2.3zm8.3-2.2c-.4.8-.4.9.2 1.3.5.3.6.2.4-.8-.1-1.3-.2-1.3-.7-.5zm-156.8.4c-.3.6-.3.7.1.2.2-.3.5-.5.7-.3.1.1.2 0 .2-.2 0-.6-.6-.4-1 .3zm31.1 1.7c-1.8 3.3-1.8 4 0 4.9.7.4 1.4.6 1.5.6 0 0 0-1.9 0-4.1v-4s-1.5 2.6-1.5 2.6zm-32.2-1.8c-.1.2 0 .2.3.1.6-.2.7-.4.2-.4s-.4.1-.5.3zm95.8 1.2c0 .4 3.6 3.3 3.8 3 .2-.2-2.3-2.5-3.3-3-.3-.2-.6-.2-.6 0zm-129.5.2c.1.1 0 .4-.3.7-.6.4-.7 1.5-.3 1.9s2.1-.2 2.1-.7 0-.4-.5 0c-.4.3-.5.3-.3-.1.1-.4 0-.5-.2-.4-.2 0-.4.4-.3.7.1.5.1.5-.2 0-.2-.3-.2-.7.1-1.2.4-.5.4-.8 0-.9-.2-.1-.3-.1-.2 0zm50 .5c-.1.2.1.3.5.3.8 0 .9-.2.2-.4-.3 0-.6 0-.7.1zm-.7.7c.1.3 0 .6-.1.6s-.4.1-.4.3c0 .5.6.4.8-.2.1-.3 0-.7-.1-.9-.3-.2-.3-.2-.1.2zm140.1 2.8c0 3.2 0 3.1 2.2 2.7 1-.2 1-.3 1-1.9s0-1.8-1.2-2.7c-.7-.5-1.4-1-1.6-1s-.4 1-.4 2.9zm-138.5-2.1c.1.3 0 .4-.3.3-.3 0-.5 0-.5.2 0 .5.6.8.8.4.1-.2.4-.2.5-.1.2.1.2 0 0-.5-.4-.8-.8-.9-.6-.2zm137.5 2.2c0 1.7 0 2.8.3 2.8.4 0 .4-2.1 0-4.2-.2-1.3-.3-1.1-.3 1.4zm-109.6 1.3c-3.1 4.7-3.1 5.2-.4 6.6 1.1.6 2.5 1.3 3 1.6l1 .6v-4.3c0-3.3-.1-4.5-.5-5.3-.3-.6-.4-1.4-.3-2 .4-1.8-.5-1-2.9 2.7zm-37.1-3.1c-.4.4-.2.7.2.7s.5-.2.6-.5c.2-.5-.5-.7-.9-.3zm129.8 1.6c0 1.1 0 1.4.1.9 0-.6 0-1.4 0-1.9s-.1 0-.1 1zm5.8.8c0 1.5 0 2.1.1 1.4s0-2 0-2.7-.1-.1-.1 1.4zm5.1-1.3c0 .6 0 .9.1.6 0-.3 0-.8 0-1.1s-.1 0-.1.6zm4.8-.2c-.7.8-.7.9-.4 2.3.8 2.7 1.4 2.1 1.2-1.1v-2s-.9.8-.9.8zm-186.8.5c-.1.2 0 .4 0 .5.1 0 .3 0 .3-.3 0-.5-.1-.6-.4-.2zm192.5 1.2c0 .9 0 1.7.2 1.7s.2-.5.1-1.2c-.2-2.1-.3-2.2-.4-.5zm11.7 6.9c.1 4.6.3 8.5.3 8.6 0 0 .1-2.2.2-5.1v-5.2s.3 6.1.3 6.1c.2 3.3.4 8.5.6 11.5l.3 5.4v-6.2c-.2-3.4-.3-8.9-.4-12.3-.2-5.8-.1-6 .3-4.4.3 1 .7 2.3.9 2.9l.5 1.1v-2.1c0-1.2-.2-2-.3-1.8 0 .2-.2-.4-.2-1.2s-.3-2.2-.5-3c-.4-1.1-.5-1.2-.3-.4.3 1.5-.1 1.3-.6-.5-.2-.8-.6-1.6-.8-1.6-.3-.1-.3 1.7-.2 8.3zm-166.7-5.5-2.4 2.5h1.1c1.4 0 1.4.6 0 .7-1.5 0-1.6 0-2.3.5-.5.3-.2.3 1 .2 1.1-.1 1.6 0 1.6.2s-.8.4-1.9.6c-1.7.2-2 .4-4.1 2.3-1.2 1.1-2 2-1.8 1.9.9-.3 10.4-1.4 10.7-1.2.1 0 .2-1 .2-2.4s-.2-2.5-.3-2.4c-.1 0-.6 0-1-.1-.7-.3-.7-.3.3-.3h1s.1-2.3.1-2.3c0-1.3.1-2.3.1-2.4 0 0-1.1 1.1-2.5 2.5zm3.6-2.1c0 .2.3.4.6.4s.6-.2.5-.4c0-.2-.4-.4-.6-.4s-.5.2-.5.4zm-11.9.5c-.3.2-.3.3 0 .3.2 0 .5-.1.6-.3.2-.4.1-.4-.5 0zm48.1.3c-.2.4-.3.6-.2.6s.3-.3.5-.6c.2-.4.3-.6.2-.6s-.3.3-.5.6zm116.1.5c0 .8.1 1.1.5.9.7-.2.9-1.1.5-1.6-.6-.7-.9-.5-.9.7zm-151.9-.3c-.5.2-.5 1 0 1s.8-.9.6-1.1c0 0-.3 0-.5 0zm143 .4c-.5.9-.4 1.9 0 1.9.7 0 1.1-.6.9-1.6-.2-1.1-.5-1.2-1-.3zm-171.3.1c0 .2.1.2.3.1s.3-.3.3-.3-.1-.1-.3-.1-.3.2-.3.3zm146.4 5.3c0 3.2 0 5.8.2 5.8s.2-2.1.2-4.7c-.1-7.1-.3-7.6-.3-1.1zm-22.9-5c.2.5 2.4 2.2 2.6 2 0 0-.3-.5-.9-1-1.4-1.2-1.9-1.5-1.7-1zm34.4.5c0 .4 0 .4.2.2 0-.2 0-.5 0-.6-.1-.1-.2 0-.2.4zm-76.9 0h.6c.1-.1 0-.2-.4-.2s-.4 0-.2.2zm-85.5.6c0 .3.3.4.5.3.4-.2.4-.4-.2-.6-.3-.1-.4 0-.3.3zm32.4.1c0 .2.2.3.5.3s.5-.1.5-.3-.2-.3-.5-.3-.5.1-.5.3zm8.5 0c0 .1 0 .3.3.4.7.3 1.1.2 1.1 0s-1.2-.7-1.4-.4zm39.4 0c-.3 0-.6.2-.6.3 0 .5 2.3 7.1 2.4 7 0 0 0-1.6-.2-3.4s-.3-3.4-.2-3.5c.2-.3-.7-.6-1.5-.4zm-41.5.4c-.4.2-.2.3.6.3s1 0 .6-.3c-.3-.2-.6-.3-.6-.3s-.4.1-.6.3zm8.8.3c.1.2.5.3.8.3s.6-.1.6-.3-.4-.3-.8-.3-.7.1-.6.3zm-38.6.2h.6c.1-.1 0-.2-.4-.2s-.4 0-.2.2zm36 .1c.1.2.5.3.8.3s.7-.1.8-.3-.2-.3-.8-.3-.9.1-.8.3zm33.5 0c0 .2.1.4.3.5s.3 0 .3-.3-.1-.5-.3-.5-.3.1-.3.3zm-35.7.3c.1.2.5.3.8.3s.7-.1.8-.3-.2-.3-.8-.3-.9.1-.8.3zm103.5.3c0 .4.1.6.3.5s.2-.4.1-.7c-.3-.7-.4-.6-.4.2zm-113.9.2c0 .4 0 .4.2.2 0-.2 0-.5 0-.6-.1-.1-.2 0-.2.4zm8-.2c.6.4 1.6.4 1.6 0s-.5-.3-1-.3c-.8 0-.9 0-.6.3zm-2.2.3c.6.4 1.6.4 1.6 0s-.5-.3-1-.3c-.8 0-.9 0-.6.3zm99.8 0c0 .2.1.4.3.5s.3 0 .3-.3-.1-.5-.3-.5-.3.1-.3.3zm-101.8.3h.8c.2 0 0-.2-.4-.2s-.6 0-.4.2zm40.6 2.2c-1.7 3.3-1.6 3.5 1.5 5.2 1.4.8 2.7 1.4 2.7 1.4.1-.1-2.4-7.7-2.8-8.4-.2-.3-.6.1-1.4 1.8zm86 2.3c0 2.5 0 3.6.1 2.3 0-1.3 0-3.4 0-4.6 0-1.3-.1-.2-.1 2.3zm21.2-4.2c0 .1 0 .8.1 1.5l.2 1.3v-1.5c0-1.5 0-1.8-.4-1.3zm.7.7c0 1.1 0 1.1.8.5.7-.7.6-1.4-.1-1.4s-.6.2-.6 1zm-155.7-.3c.1.2.4.3.7.3s.5-.1.5-.3-.3-.3-.7-.3-.6.1-.5.3zm3.5.2c-.6.5-.6.5 0 .5.4 0 .7-.2.7-.5 0-.6 0-.6-.8 0zm46.6-.4c0 .4 1.1 2.7 1.3 2.7s0-.6-.3-1.4-.6-1.4-.8-1.4-.2 0-.2.2zm101.4.1c-.2.3.3 5.5.5 5.7 0 0 .7-.5 1.4-1.4 1.1-1.4 1.2-1.7 1.1-3v-1.5h-1.5c-.8 0-1.5.1-1.5.2zm-46.8.7c.4.4 1.1 1 1.6 1.4l1 .7-1-1c-.5-.6-1.2-1.2-1.6-1.4l-.6-.3.6.7zm44.3 1.4c0 1.6.1 2.2.6 2.6.6.6.6.6.6-.3 0-1.2-.6-4-1-4.2-.2-.1-.3.7-.3 1.9zm1.3-1.8c0 .1.1.5.3.9.2.6.3.5.3-.2 0-.5-.1-.9-.3-.9s-.3.1-.3.2zm-3.8 1.1c0 .6.3 1.1.8 1.4l.8.5v-1.4c0-1.3 0-1.4-.8-1.4s-.8.2-.8.9zm2 .6c0 1 0 1.4.1.9 0-.5 0-1.3 0-1.8s-.1 0-.1.9zm-145.3.5c0 1.1.3 1.3 1.1.8.4-.2.3-.3-.2-.7-.4-.3-.5-.4-.2-.5.6-.3.5-.8-.2-.8s-.6.2-.6 1.1zm32.4 2.2c0 1.3-.2 7.8-.2 14.5 0 18.1-.4 34.8-.6 35.1 0 .2.1 1.1.5 2 .8 1.9.8 1.9 4.2 2.3 1.2.1 2.2.4 2.3.5 0 .2.2 14 .3 30.8 0 16.8.2 30.6.3 30.7.3.3 5.4.3 5.5 0 0-.1.4-.3.8-.3s.6-.2.6-.5.1-.5.3-.5.3.2.2.4c0 .5 4.3.6 4.6 0 .2-.2.3-.2.5 0 .1.2.7.3 1.4.2.6 0 1.5-.2 1.9-.2s1-.2 1.2-.3c.5-.3 2.6-.4 5.7 0 2.8.3 3.6.3 12.8.1 4.6 0 6.2-.2 6.6-.5.4-.4.5-.4.5 0 0 .3 0 .3.2.1.4-.5 1.1-.5 1.6-.1.4.3.5.3.7 0s.4-.3.9-.1c.9.5 2.7.7 2.7.4s1-.3 2.2-.3c3.1 0 4-.1 4.8-.6.9-.5 1.9-.5 2.4 0 .2.2 1.1.5 1.9.6 1.1 0 1.6 0 1.8-.4s.8-.6 1.8-.6 1.4.1 1.4.3.2.2.6 0c.3-.2.8-.2 1 0s.6.2.7.1c.1 0 .4.1.7.5.2.4.5.7.7.7s.2 0 0-.2c-.1-.1.1-.5.5-.8.9-.7 3.5-.9 3.6-.4 0 .2.6.4 1.1.4s1-.2 1.1-.7c0-.4.4-.6.6-.5.3 0 .4 0 .3-.3-.2-.6.4-.9 1.1-.5.3.2.4.3.2.3s-.3.3-.3.6c.1.7.6.6 1.7-.4.9-.9 1.3-1 1.3-.4 0 .3.1.2.3 0 .3-.4.5-.4 1.5.2 1.3.7 2.5.6 3.6-.4.6-.5 2.1-.6 2.4-.1.1.2.9.3 1.8.3 1.3 0 1.7-.1 2.1-.7.5-.7.5-.7.8-.2.2.3.5.6.8.6s.5.2.5.5.3.5.9.4c.5 0 .9-.3.9-.6 0-.7.8-.8 1 0 .2.6 1.2 1.1 1.5.8.2-.2 0-36.3-.3-45.7-.1-4.5-.4-8.1-.6-9s-1.1-2.6-1.9-3.7c-.8-1.2-1.5-2.4-1.5-2.7s-.1-.6-.3-.6-2.9-1.4-6.2-3.1c-6.9-3.7-11.1-5.9-15.6-8.3-1.8-1-4.2-2.2-5.2-2.8s-1.9-1.1-2-1.1-2.8-1.5-6.1-3.2c-3.3-1.8-7.1-3.8-8.4-4.5s-4.2-2.2-6.4-3.4-7.1-3.8-10.9-5.8c-8.3-4.3-10.9-5.7-11.4-6.1-.2-.1-2.3-1.3-4.8-2.6-3.8-2-6.2-3.3-9.1-4.8-4-2.2-12-6.4-13-6.9l-1.3-.7v2.3zm24-1.6c-2.1 3.4-3.4 6-3.4 6.7s.4 1 2.4 2.1c1.3.7 2.4 1.3 2.5 1.3.3 0 .2-9.7 0-10.3-.4-.8-.8-.7-1.4.1zm57.7 1.2c0 1.1.1 2.2.3 2.5s.3-.2.3-1.8c0-1.3-.1-2.4-.3-2.5s-.3.6-.3 1.8zm41.7-.8c0 .7.1 1.8.3 2.6.2 1.3.3 1.2.3-1.2 0-1.6 0-2.6-.3-2.6s-.3.5-.3 1.2zm-1.7.4c-1.2 1.2-1.2 1.3-1.2 3.8v2.6l1.3 1c.7.6 1.4 1 1.5.9 0 0 0-2.3-.1-4.8l-.3-4.7zm-105.7.3c.1.3.3.9.4 1.3.2.7.6 1.2.9.9.2-.2-.9-2.8-1.2-2.8s-.2.2 0 .6zm92.6 1.1v1.4s-.3-1.3-.3-1.3c-.1-.8-.2.3-.3 3.3 0 3.9 0 4.6.5 4.8.3.1.6 0 .7 0 .3-.4 0-9.4-.3-9.4s-.3.6-.3 1.4zm-87-.4c-.2.4-.3.7-.3.8 0 0 .3-.2.5-.5.2-.4.3-.7.3-.8 0 0-.3.2-.5.5zm52.8-.1c0 .3.8 1.1 2 2 .3.2.6.3.6.1 0-.4-2.6-2.5-2.6-2.1zm40.6.4c0 .4.1.6.3.6s.2-.3.1-.6c0-.4-.2-.6-.3-.6s-.1.3-.1.6zm-5.1 2.8c0 1.7.1 3.5.3 3.9l.2.8.2-.8c.1-.4.1-1.9 0-3.2 0-1.3-.2-2.7-.2-3.1s-.2-.7-.3-.7-.3 1.2-.3 3.1zm-120.6-2.1c-.4.2-1.1.2-1.5.1s-.8 0-.9.1c-.1.2-1 .3-2 .4-1 0-4.5.4-7.8.8s-6.3.7-6.8.7h-.8c0-.1-.2 7.1-.2 7.1l-.2 7.3 1 .8c.9.8 1.1.8 1.8.4 1-.5 18.9-18 18.4-18-.2 0-.7.1-1.1.3zm121.9 2.6v3s.9-1 .9-1c.9-1 1.2-2 .6-2s-.3-.5-.3-1.1-.2-1.2-.6-1.4c-.6-.3-.6-.2-.6 2.6zm23-2.8v4.4l.2 4.2v-3.4c.2-2.6.3-2.9.4-1.4 0 1.2.2 1.7.4 1.5.2-.3.4.1.8 1.4.3 1 .7 1.8.9 1.8s.3-.3.2-.6c0-.3-.5-1.9-1-3.6-.9-3.1-1.6-4.8-1.8-4.3zm-14.7.5c0 .2.1.2.3.1s.3-.3.3-.3-.1-.1-.3-.1-.3.2-.3.3zm-99.2 1.2c-.3.8-.3.8.1.3.3-.3.5-.7.5-.9 0-.5-.2-.3-.6.6zm10.9-.2c0 .6 1.6 5.7 1.8 5.7s.1-1.1 0-2.4c-.1-1.7-.3-2.6-.7-3-.7-.7-1.1-.8-1.1-.3zm87.4 0c-.5.5-.5 1.1 0 1.5.4.3.5.2.5-.8s0-1.3-.6-.8zm.9.8c0 .7.1 1.4.3 1.5.4.3.4-1.8 0-2.4-.2-.4-.3-.1-.3.9zm-33.3 1.5c0 1.1.1 2.2.3 2.3s.3-.6.3-1.9-.1-2.2-.3-2.3-.3.6-.3 1.9zm22.5-.9c0 .7 0 1 .1.6 0-.4 0-1 0-1.3s-.1 0-.1.7zm4.9-.7c-.1.3-.2.7 0 .8.3.3.6-.1.4-.8-.1-.6-.1-.6-.4 0zm10.1 2.3c0 1.2 0 2.1.2 2 .1-.1.2-1 .2-2s0-1.9-.2-2c-.1-.1-.2.8-.2 2zm-163.7-1.1c-4.1.5-5 .7-5 1.1 0 .5 2.3 2.4 5.2 4.7.7.5 2.2 1.8 3.4 2.8s2.3 1.8 2.5 1.8.3-1.6.3-5.5c0-5.3-.1-5.5-.7-5.6-.4 0-2.9.3-5.7.6zm7.4.3c-.1.4 0 .6.6.6s.8-.2.8-.6c0-.8-1.2-.8-1.4 0zm112.6.3c.5.5 1.1 1 1.2 1s0-.4-.6-1c-.5-.5-1.1-1-1.2-1s0 .4.6 1zm-49.5-.4c0 .6.7 2.3 1 2.3s.1-.5 0-1c-.4-1.1-.9-1.9-.9-1.3zm-45.9 8.4c-4.6 4.6-8.5 8.7-8.6 9.1-.3.8-.2 1 1.1 2.1s5.1 4.3 9.3 7.6c.8.6 1.6 1.3 1.8 1.5 1.4 1.4 4.5 3.6 4.7 3.4.3-.4.7-32.1.4-32-.2 0-4 3.7-8.6 8.3zm43.9-6.4c-.6 1.1-1 2.2-1 2.6.1.4 3.8 2.8 4.4 2.8s-2-7.1-2.2-7.3c0 0-.6.8-1.2 1.9zm87.6-.2c0 .7 0 1 .1.6 0-.4 0-1 0-1.3s-.1 0-.1.7zm.5 1.7v3c-.1 0 1-.2 1-.2.6 0 1.2-.2 1.2-.3 0 0-.2-1-.6-2.1l-.8-2v1.4c-.3 1.4-.3 1.4-.5-.6l-.2-2.1v3zm-149.2-1.2c0 1 0 1.3.4 1.4.7.2.9 0 .9-.8s-.2-.6-.5-.4c-.3.1-.5 0-.5-.1s.2-.3.5-.3c.6 0 .4-.7-.3-.8-.4 0-.5.2-.6 1.2zm147.8-.7c-.3.4.2 4.9.5 4.9s.2-1.1 0-2.5c-.2-2.6-.3-2.8-.6-2.4zm-1.1 1.1c-.2.2-.4 1.2-.4 2.2v1.8s-.3-1.4-.3-1.4l-.2-1.4v1.5c0 1.4 0 1.5.7 1.5 1 0 1.1-.2.9-2.5-.2-1.6-.3-1.9-.6-1.6zm4.4-.1c0 .2.4 1.1.8 2l.8 1.7v-1.3c0-.9 0-1.2-.3-.8-.2.4-.4.3-.5-.6-.2-1-.8-1.8-.8-1.1zm-81.5 2.7c-1.8 3.6-1.7 3.9.5 5.1 1 .5 1.9 1 2 1 .2.1.1-8.2-.1-8.6-.5-.8-1.2-.1-2.4 2.4zm94.5 1.7c0 2.5 0 3.4.1 2.1 0-1.3 0-3.3 0-4.5s-.1-.1-.1 2.3zm-100-3.6c0 .5 1 2.5 1.2 2.3.3-.3-.5-2.5-.9-2.5s-.3 0-.3.2zm53.4 1c.4.5.9.8 1.1.8.4 0-.4-.9-1.2-1.3-.6-.3-.6-.3.1.5zm-132.5 3.4c0 2.2-.2 6.8-.2 10.3s-.2 8.6-.3 11.3-.2 5-.1 5.1c0 0 3.3-3.1 7.3-7l7.2-7.2v-2.7s0-2.7 0-2.7l-1.6-1.3c-.9-.7-1.9-1.5-2.3-1.9-.4-.3-2.3-2-4.3-3.6-2-1.7-3.9-3.3-4.3-3.7-.4-.3-.8-.6-.9-.6s-.3 1.8-.4 3.9zm15-3.4c-.3.3 0 .8.8.8s.6-.2.6-.5c0-.5-1-.7-1.4-.3zm144.6 1.5c-.6 1.1-.5 1.5.3 1.1.3-.1.5-.6.5-1.2s0-1 0-1-.4.4-.7 1zm8.6-.6c.1.7.5 1 .5.4s-.1-.6-.3-.7-.3 0-.2.3zm-152.7.5c-1 .4-.9.9 0 .9s.8-.2.8-.6 0-.6 0-.6-.4.1-.8.3zm76.8 1.1c0 .3.3 1 .5 1.7.6 2.3 1 2.3 1 .2 0-1.5-.1-2-.5-2.2-.8-.3-1.2-.2-1 .3zm48.6.1c0 .4 0 .4.2.2 0-.2 0-.5 0-.6-.1-.1-.2 0-.2.4zm26.5-.1c0 .3-.1.5-.3.5s-.3-.1-.3-.3-.4-.3-.8-.3c-.8 0-.8 0-.9 2.6v2.6s-.2-2.5-.2-2.5c0-1.9-.2-2.5-.6-2.5s-.5.6-.4 3.4v3.4s.3-3.4.3-3.4c.2-3 .2-2.8.3 2.6 0 3.3.2 6.5.3 7.3s.1 1.4 0 1.5c-.2 0-.3-.4-.3-1.2v-1.4s-.3 1.1-.3 1.1c-.2.9-.2.7-.3-1.1-.1-6-.5-12.3-.7-12.3s-.3 1.4-.3 3.1v3.1s-.2-3-.2-3c-.1-2.4-.3-3-.7-3s-.5.5-.7 2.1l-.2 2.1v-2.1c-.1-1.5-.2-1.9-.4-1.4s-.3.6-.3 0c0-.7-.9-.7-1.8 0-.6.5-.6.8-.6 7.5 0 5.3.2 7.2.5 7.5.4.4.4.3.6-1.1l.2-1.6v1.8c0 1.7.2 1.8 1.4 2.7.7.5 1.3 1.2 1.3 1.5s.2.6.5.6.4.3.4.6c0 .4.2.5.7.5s.8.1.9.5c.1.3.4.5.6.5s.5 0 .6.3.4.4.7.3.5 0 .5.5.2.7.6.7c.5 0 .5 0 0 .3-.6.2-.6.3 0 .6.4.2.9.3 1.2.2s.5 0 .5.3.2.5.5.5.5.2.5.5.3.5.6.5.6.1.6.3.2.3.4.3.6.3.8.6c.4.5.4.3.5-1.7 0-1.2 0-2.5 0-2.8 0-.5.1-.5.8-.3.8.2.8.2.4-.3s-.4-.6.1-.7c.4-.2.5-.3.1-.5-.3-.2-.3-.4.2-.8.6-.5.6-.5-.1-.5s-.7-.1-.5-.5c.1-.4 0-.5-.4-.3-.5.2-.6 0-.4-.5.1-.5 0-.6-.2-.5-.3.2-.4-.2-.4-1.4 0-2.2-.4-3.2-.7-1.5-.2 1.2-.2 1.1-.2-.6 0-1.1-.2-1.8-.4-1.7s-.3-.2-.3-.9-2-7.1-2.4-7.5v5.4 5.5c.1 0-.2-4.8-.2-4.8-.4-7.4-.6-8.2-.4-2.6.1 4.4 0 5-.3 4.2-.6-1.3-.6-12.2 0-12.1.5 0 .5-.8 0-1-.2-.1-.3 0-.3.3zm1 .8c0 1.2 2.3 8.8 2.9 9.5.2.2.4.8.6 1.3.4 1.2.4-3.2 0-4.7-.2-1-.3-.8-.3 1.1s-.1 1.7-.3-1.4-.4-3.9-1.1-5.4c-1-2-1.8-2.2-1.8-.4zm-32.2-.2c.3.4.9.8 1.2 1 .5.2.4 0-.3-.7-1-1.1-1.9-1.4-1-.3zm10.2.1c0 .5 0 .7.2.4 0-.3 0-.7 0-1 0-.2-.2 0-.1.6zm-131.6.2c0 .5.1.6.7.4 1-.3 1.1-.4.6-.8-.8-.5-1.3-.3-1.3.4zm170.3 1c.2.9.5 2.1.7 2.5s.5 1.3.7 1.8c.2 1 .8 1.8.8 1s-1.7-6.2-2.1-6.6c-.3-.3-.3 0-.1 1.3zm-93.3-.4c.1.6.3 1.3.5 1.4.4.5.3-.5-.2-1.6l-.5-1 .2 1.1zm90.5 3.7c0 2.6 0 3.7.1 2.3 0-1.4 0-3.5 0-4.8s-.1-.1-.1 2.5zm-92.4-2c-.5.9-.9 1.8-.9 2.1 0 .4 3.5 2.8 3.7 2.5.2-.2-1.6-6.3-1.8-6.3 0 0-.6.8-1.1 1.7zm-74.7-1.2c-.6.2-.5 1 .2 1s.6-.2.6-.5c0-.6-.3-.8-.9-.6zm82.9 1.6c-.2.5-.7 1.7-1.2 2.8-1.2 2.7-1.1 3.1.7 4 .8.4 1.6.8 1.7.9 0 0 .2-1.7.3-3.9 0-3.4 0-4-.4-4s-.5-.1-.6-.3c0-.2-.3 0-.5.6zm60.8 4c0 2.7 0 3.8.1 2.5 0-1.4 0-3.6 0-5s-.1-.2-.1 2.5zm-144.1-3.6c0 .7 0 .7.8.4.7-.3.6-1.1-.1-1.1s-.6.2-.6.6zm125.4-.4c0 .1.4.5.8.8s.8.5.8.3c0-.1-.4-.5-.8-.8s-.8-.5-.8-.3zm-47.5 1.3c.2 1 .4 1.2.6 1 .3-.3-.2-1.8-.5-1.8s-.2.4 0 .9zm90.2.6c0 .9 0 1.2.1.7 0-.5 0-1.2 0-1.6s-.1 0-.1.9zm-26.1.1c-.4 1.7-.5 3.5-.2 3.5s.3.2.3.3-.1.3-.3.2c-.4-.3-.4 4.3 0 4.8.8.9.9.3.9-4 0-4.4-.3-6.6-.7-4.9zm22.6 4.4c0 2.6 0 3.7.1 2.3 0-1.4 0-3.5 0-4.8s-.1-.1-.1 2.5zm-75.5-3c.1.6.4 1.6.6 2.2l.4 1.1v-1.8c0-1.5 0-1.9-.6-2.2s-.7-.3-.4.7zm58.8 2.6c0 1.8 0 2.4.1 1.5 0-.9 0-2.4 0-3.2s-.1 0-.1 1.7zm-1.4-2.2c0 .3-.1.4-.3.3s-.4 0-.5.1c-.1.2 0 .3.3.3.4 0 .5.6.6 3.3v3.3c.1 0 .2-3.9.2-3.9 0-2.2 0-3.9 0-3.9s-.2.2-.2.5zm-58 .8c0 .6.3 1.2.5 1.4.5.5.4-.4-.2-1.6l-.5-1 .2 1.1zm76.8 2.2c.2 4 .3 4.2.4.5 0-1.8 0-3.3-.2-3.3s-.2 1.3-.1 2.8zm-78.3-.6c-1 1.9-.9 2.4.7 3.4.7.4 1.4.8 1.5.7s-1.1-5-1.3-5.2c0 0-.4.4-.8 1.2zm7.2-.4c-.3.4-2.1 5.5-2.1 5.8s.6.6 1.4 1.1l1.4.8v-4c0-3.6-.2-4.6-.8-3.7zm-94.2.7c0 .4.2.6.4.6.6 0 .8-.3.6-.8-.3-.7-1.1-.5-1.1.2zm171 1.8c0 1.2 0 1.7.1 1 0-.7 0-1.7 0-2.2 0-.6-.1 0-.1 1.2zm-9-.3c0 .9 0 1.2.1.7 0-.5 0-1.2 0-1.6s-.1 0-.1.9zm10.9.8c0 2.2 0 2.2.2.7.2-1.6.2-1.6.3.8 0 2 .1 2.2.3 1.1l.2-1.3.3 1c.4 1.6 1 1.7.7.2-.3-1.6-1.5-4.9-1.8-4.9s-.2 1-.2 2.3zm-83.6-.9c.2.6.5 1 .6 1 .3-.2-.3-2.1-.7-2.1s-.1.5 0 1.1zm-89.4.2c-.2.7 0 .8.7.3.5-.5.5-.9 0-.9s-.5.3-.6.6zm168.4 1.1v1.4s-.3-1.1-.3-1.1c-.2-.9-.2-.8-.2.8 0 1.1 0 1.6.2 1.1.1-.7.2-.5.4.6.2 1.2.2.9.3-1.4 0-1.5 0-2.8-.1-2.8s-.2.6-.2 1.4zm2 .7c0 1.1 0 1.4.1.9 0-.6 0-1.4 0-1.9s-.1 0-.1 1zm-71.1-.6c0 .5.1 1.2.3 1.5.2.5.3.3.3-.9 0-.8-.1-1.5-.3-1.5s-.3.4-.3.9zm-.8.7c-.2.4.1 1.7.5 1.7s.2-.4 0-.9c-.3-1.1-.3-1.2-.6-.8zm-94.9 1.7-1.9 1.6v6.9c-.2 4.4 0 6.9.1 6.8.2 0 1.6-.1 3.2-.3 2.9-.3 5.9-.5 13.1-.8 2.1 0 4.1-.3 4.4-.3.9-.3.7-.9-.6-1.9-.6-.5-2.8-2.3-4.9-4.1-2.1-1.7-4.2-3.5-4.8-4s-1.5-1.2-1.9-1.7c-1.4-1.2-2.3-2-3.6-2.9l-1.2-.9zm93.7.7c-.8 1.6-.7 2 .7 2.7.7.4 1.3.6 1.3.5 0-.6-1.1-4.3-1.3-4.3s-.5.5-.8 1.1zm5.9.4c-1 2.1-1.4 3.8-1.2 4.2.1.2.6.5 1.1.8l.9.5v-3.5c0-1.9 0-3.5-.1-3.5s-.4.7-.8 1.5zm-3.9.3c0 .4.1.9.3 1.1.3.4.3.4.3 0 0-.3-.1-.8-.3-1.1l-.3-.6zm65.7 2.7c0 1.7 0 2.4.1 1.5 0-.8 0-2.2 0-3s-.1-.2-.1 1.5zm6.3-1.1c0 1-.1 1.8-.3 1.8s-.3.3-.3.6c0 .4 0 .5.3.1.2-.4.3-.4.4 0 0 .2.2-.6.2-1.9s0-2.3-.1-2.3-.2.8-.2 1.8zm-24.3-1c0 .4 0 .4.2.2 0-.2 0-.5 0-.6-.1-.1-.2 0-.2.4zm-4.7.2c.1.2.3.3.5.3s.2-.1.1-.3-.3-.3-.5-.3-.2.1-.1.3zm-141.9.7c-.2.2-.3.5-.1.6.1.1 0 .2-.2.2s-.4.5-.4 1.3.1 1.3.6 1.3.6-.2.6-.6-.2-.6-.5-.4c-.3.1-.5 0-.5-.2s.2-.4.4-.4.4-.4.4-1.1c0-1.3 0-1.3-.5-.7zm107.5.1c0 .4.1.8.3.9.4.2.4 0 0-1-.3-.6-.3-.6-.3 0zm67.7.6c.2.4.3 1.2.4 1.8 0 .7.3 1.2.4 1.2s.3.4.5.8c.1.5.3.8.4.6.3-.3-.9-4.3-1.4-4.7-.4-.4-.5-.3-.2.2zm-68.3.4c0 .4.1.8.3.9.4.3.4-.5 0-1.1-.3-.4-.3-.3-.3.2zm66.6.9c0 .5 0 .7.2.4 0-.3 0-.7 0-1 0-.2-.2 0-.1.6zm-62.3.7c-.6 1.2-1.5 3.9-1.5 4.4 0 .3 1.9 1.3 2.1 1.1s.1-1.6 0-3.4v-3.3s-.7 1.2-.7 1.2zm-118.8 4.9c-3.2 3.2-5.8 5.8-5.8 5.9s.5 0 1 0c.6 0 2.2-.2 3.6-.3 5-.4 7-.5 7.1-.6 0 0 0-2.5 0-5.4v-5.3s-5.9 5.7-5.9 5.7zm113.4-4.8c-.8 1.4-.7 1.7.6 2.5l1.2.7-.2-.9c-.4-1.8-.8-3.3-.9-3.3 0 0-.3.4-.6 1zm62.6 1.6c0 1.3 0 1.9.1 1.2 0-.7 0-1.7 0-2.4s-.1-.1-.1 1.2zm-60.9-.9c0 .5.1.9.3 1s.3-.1.1-.7c-.3-1.2-.4-1.3-.4-.3zm39.5-.1c.1.2.3.3.5.3s.2-.1.1-.3-.3-.3-.5-.3-.2.1-.1.3zm-147.7 1.1c0 .4.2.8.4.9.3.1.3.2 0 .2-.7 0-.5 1 .2 1s.6-.2.6-1.4 0-1.4-.6-1.4-.6.2-.6.8zm115.9.3c0 .5-.1.8-.3.7s-.3 0-.3.3.1.6.3.7c.3.2.8-2 .5-2.3-.1-.1-.2.2-.2.7zm-1.6 2.6c-.5 1.2-.5 1.7.2 2.1 1.1.6 1.2.4.9-1.3-.2-.9-.4-1.6-.5-1.6s-.4.4-.6.8zm57.7 1c0 1.1 0 1.4.1.9 0-.6 0-1.4 0-1.9s-.1 0-.1 1zm-172.1-.8c-.1.5 0 .6.6.6s.8-.2.8-.6-.2-.6-.6-.6-.7.3-.8.6zm119.1.1c-.3.5-.7 1.5-.8 2.3-.2 1.2-.1 1.5.5 1.8.4.2.8.3.9.2 0 0 .1-1.3 0-2.7v-2.5s-.7.9-.7.9zm33.4-.4c0 .2.2.3.3.3s.2-.1.1-.3-.3-.3-.3-.3-.1.1-.1.3zm-36.8.2c0 .1.1.5.3.9.2.6.3.5.3-.2 0-.5-.1-.9-.3-.9s-.3.1-.3.2zm62.8.8c.1.3.3 1.1.5 1.7.4 1.5 1 2.4 1 1.7 0-.8-1-3.5-1.4-3.7-.2-.1-.3 0-.1.3zm-178.6.8c-.2.6 0 .7.8.5.4-.1.7-.4.7-.6 0-.5-1.3-.5-1.5.1zm122.7.3c-.1.3-.2.7-.2.9s.2 0 .3-.4c.2-.4.2-.8.2-.9s-.2.1-.3.4zm-122.2.9c-.8.6-.7 1.1.2 1.1s.8-.2.8-.6c0-.8-.4-1-1-.5zm162.7.7c0 .7.1 1.4.3 1.5s.3-.3.2-1.2c-.2-1.8-.5-2-.5-.4zm13.2 1.5c0 1.6 0 2.3.1 1.5 0-.7 0-2 0-2.9 0-.8-.1-.2-.1 1.3zm-81.1-1.9c0 .2-1.1.4-2.5.4s-3 .1-3.7.2-1.2.1-1.2.3-1 .4-4.4.8c-.4 0-1 .2-1.3.4-.9.5-1.1.4-.9 0 .1-.2 0-.1-.3.2-.3.4-.8.5-1.3.4-.4 0-.7 0-.7 0 0 .1-.1.4-.5.6-.5.3-.6.3-.4 0 .1-.3 0-.5-.2-.5s-.4.2-.4.5-.1.4-.3.3-.3 0-.3.4c0 .5 0 .5-.3 0-.2-.6-.2-.6-.4 0-.2.8.7 1.2 1.3.6.3-.3.3-.2.3.1s0 .5.2.5.5.1.8.3.4.2.2-.2c-.2-.5-.1-.5.7 0 .5.4.8.4.6.1s-.1-.4.3-.1c1 .5 6.6 0 7.8-.6.4-.2.6-.2.6 0s0 .3.4 0c.4-.4 1-.5.8 0 0 .2.4 0 1-.3.7-.3 1.3-.5 1.5-.4s.2 0 .1-.3 0-.5.5-.4c.4 0 1-.1 1.5-.4.4-.2 1-.4 1.2-.4s.3-.2.2-.6c-.2-.5-.1-.5.7 0 .5.3.8.4.7.2-.2-.2 0-.4.4-.3 1.2.1 1.5 0 1.1-.5-.2-.3-.3-.7-.2-.9.2-.3.1-.3-.2 0-.2.2-.7.4-.9.4-.4 0-.4 0 0-.3.5-.4.5-.4-.9-.5-.6 0-1 0-1 .3 0 .2-.1.1-.3-.1-.2-.3-.3-.3-.3-.2zm26.3.7c-.6 1-.5 1.6.3 2 .4.2.7.3.7.3s0-.8-.3-1.5c-.3-1.4-.4-1.4-.7-.7zm3.8.8c-.8 1.7-.8 2.7 0 3.2s.9.2.8-2.4v-2.4s-.8 1.5-.8 1.5zm-2.5-.2c0 .5 0 .7.2.4 0-.3 0-.7 0-1 0-.2-.2 0-.1.6zm43.6-.2c0 .2 0 .5.3.7.4.3.5.3.5-.1 0-.6-.5-1-.8-.6zm-166.6.6c0 .3.2.4.5.3s.6-.2.8-.2.3-.1.3-.3-.4-.3-.8-.3-.8.2-.8.5zm174.3 3c0 1.8 0 2.6.1 1.7 0-.9 0-2.4 0-3.4 0-.9-.1-.2-.1 1.7zm-1.7-.5c0 .4 0 .4.2.2 0-.2 0-.5 0-.6-.1-.1-.2 0-.2.4zm6.1.8c0 .8 0 1.1.1.7 0-.4 0-1 0-1.4s-.1 0-.1.7zm2.1-.9c.2.2.4.7.4 1.1s.3 1.1.6 1.6c.8 1.2.8.8.1-1.2-.3-.8-.8-1.6-1-1.7-.4-.2-.4-.1-.1.2zm-53.1.6c-.3.5-.3.8 0 1.1.7.8 1.2.5 1-.5-.2-1.2-.6-1.5-1-.6zm1.3.1c0 .4 0 .4.2.2 0-.2 0-.5 0-.6s-.2 0-.2.4zm2.3.3c-.7 1.6-.4 3.1.8 3.1s.1-2.7-.1-3.3c-.2-.5-.3-.5-.6.3zm40.3 1c0 .4 0 .4.2.2 0-.2 0-.5 0-.6-.1-.1-.2 0-.2.4zm1 .3c0 .4 0 .4.2.2 0-.2 0-.5 0-.6-.1-.1-.2 0-.2.4zm-161.5.1s-1.4.2-2.9.3c-1.6.1-3.4.2-4 .3-.6 0-1.4.1-1.7.1-.5 0-.6.4-.6 3.6s-.1 3.5-.3 3.5c-.3 0-.4-.4-.3-1.4 0-.4-.2-.6-.6-.6s-.7.2-.7 1-.2 1-.5 1-.5-.6-.5-3.2-.1-3.2-.4-3.3c-.5-.2-3.3 0-4.1.3-.3 0-1.1.2-1.9.3-.8 0-2.2.2-3.2.3s-2.2.2-2.6.2c-1.6 0-2.6 2.9-1.8 5.6l.4 1.4 1.6-.2c.9-.1 6.2-.4 11.7-.7 13.4-.7 19.5-1 22.4-1.4 1.3-.2 2.8-.3 3.2-.3 1.4 0 2.7-4.1 2-6.3-.2-.6-.5-.6-7.7-.6s-7.5 0-7.5 0zm122.2 1.5c-.2.6 0 1 .2 1.2.8.5.9.3.7-.6-.3-1.3-.7-1.6-1-.6zm1.2-.1c0 .4 0 .6.2.4 0-.2 0-.6 0-.8s-.2 0-.2.4zm-134.5.9c0 1.1.1 1.3.6 1.3s.6-.2.6-.5-.2-.4-.5-.3-.5 0-.5-.3.2-.5.5-.5.5-.2.5-.5-.3-.5-.6-.5c-.5 0-.6.2-.6 1.3zm136.4 0c-.3.6-.5 1.9-.2 1.9s.4 0 .6.2c.4.2.5 0 .5-1.1s-.4-2-.9-1zm44.6 2.9c0 1.5 0 2.1.1 1.4 0-.7 0-2 0-2.7s-.1-.1-.1 1.4zm2.2-1.1c.2.6.6 1.3.8 1.5.5.5.5.2-.1-1.1-.6-1.5-1.2-1.8-.7-.4zm-183.2.6c0 .6.2.8.6.8s.6-.2.6-.6-.3-.7-.6-.8c-.5-.1-.6 0-.6.6zm137.7 2.6c0 .4 0 .4.2.2 0-.2 0-.5 0-.6s-.2 0-.2.4zm6.7.7c0 .4.1.7.3.7s.3-.2.3-.5-.1-.6-.3-.7-.3 0-.3.5zm40.6.4c0 .3.2.8.5 1.1.6.8.6.2 0-.8-.3-.5-.5-.6-.5-.3zm-38.4 1.2c0 .2.1.4.3.5s.3 0 .3-.1-.1-.4-.3-.5-.3 0-.3.1zm-3.6.7c0 .4 0 .6.1.6s.3-.3.3-.6 0-.6-.1-.6-.2.3-.3.6zm24.4.1s.3.3.6.5.6.3.6.2-.3-.3-.6-.5c-.4-.2-.6-.3-.6-.2zm-21.4 1.1c-.6.4-.7.8-.8 2.3v1.8s-.3-1.8-.3-1.8c-.1-1.2-.3-1.6-.5-1.2-.1.3-.4.5-.5.4-.1 0-.2.3-.3.9 0 .5-.2 1.1-.4 1.3-.5.5-.4.8.3.8s.6.1.6.3.1.3.3.3.3-.2.3-.5.1-.4.3-.3c.2 0 1-.6 1.9-1.7 1.5-1.7 1.6-1.9 1.1-2.3-1.2-.9-1.5-.9-2.3-.5zm-3 .6c-.1.3-.1.6 0 .7 0 0 .3 0 .4-.4.1-.3.1-.6 0-.7 0 0-.3 0-.4.4zm11.2.6c0 .3 0 .6.3.8.4.3.4.2.4-.5 0-.9-.4-1.1-.7-.4zm2 .9c0 .3-.1.5-.3.4s-.3 0-.3.3.1.5.3.5c.4 0 .8-1.2.5-1.5-.1-.1-.2 0-.2.4zm-13.2.8c-.1.5 0 .7.1.4.2-.2.3-.5.2-.8 0-.2-.2 0-.3.3zm5.2 2.1c-1.6 1.7-2.5 2.9-2.5 3.4 0 .7.1.7 2.5.7s2.5 0 2.7-.7.9-.6.9.1.6.4 2.3.3c2.3-.1 3.1-.4 3.1-1.1 0-.6-5.2-5.3-5.9-5.3-.4 0-1.6 1.1-3.1 2.6zm9.3-1.6c0 .3.1.5.3.5s.2-.2.1-.5-.2-.5-.3-.5-.1.2-.1.5zm41.3.4c0 .3.1.4.3.3s.2-.3.1-.5c-.3-.4-.5-.4-.5.2zm1.4-.2c-.1.2 0 .4.1.5.2.1.3 0 .3-.3 0-.6-.2-.6-.5-.2zm2.4 0c0 .2.1.3.3.3s.3-.1.3-.3-.1-.3-.3-.3-.3.1-.3.3zm1.1 0c-.1.2 0 .3.1.3s.3-.1.3-.3 0-.3-.1-.3-.2.1-.3.3zm-29.1.6c.3.4.7.6.7.6s-.1-.3-.4-.6c-.3-.4-.7-.6-.7-.6s.1.3.4.6zm24.8.4c0 .2.1.3.3.3s.3-.1.3-.3-.1-.3-.3-.3-.3.1-.3.3zm-21.5 2.1c.4.4.9.7 1.1.7s0-.2-.3-.4c-.4-.2-.9-.5-1.1-.7-.3-.2-.2 0 .3.4zm21.3.7c.2.8 0 1-.3 1-.5 0-.6.8-.1 1.1.2.1.3.4.2.6-.3.9.5.8 1.6-.3 1.3-1.2 1.3-1.5-.6-2.8l-1-.7.2 1zm-188-.5s-2.5.2-5.4.3c-3.3.1-5.9.4-7 .7-2.6.7-6.5 2.1-6.9 2.4-.4.4-.8 48.7-.4 49.1 0 0 1.4 0 2.8-.3 2.7-.5 3.9-.5 13.4-.3 5.8.1 8.5 0 9-.5.1-.2.3-2.6.4-5.4 0-2.8.2-7.1.3-9.6 0-2.5.3-7.7.4-11.7s.3-9.3.4-11.8c.1-2.6.2-6.2.2-8.1v-3.5s-2.9-.7-2.9-.7c-2.8-.7-4.1-.9-4.4-.6zm153.5 1.2c-.1.4-.1.8 0 .8 0 0 .3-.1.4-.5s.1-.8 0-.8c0 0-.3.1-.4.5zm14.6-.2s.4.4.8.7c.5.3.7.4.6.2-.2-.4-1.5-1.1-1.5-.9zm-13.4 1c-.1.3 0 .7.2.9.3.3.4.1.4-.5 0-1-.2-1.1-.5-.4zm1.4.6c-.1.3-.2.7-.2.9s.2 0 .3-.4c.2-.4.2-.8.2-.9 0 0-.2.1-.3.4zm15.8 1.4c.8.7 1.6 1.4 1.7 1.4s-.3-.5-1-1c-1.9-1.6-2.3-1.8-.8-.3zm-18.8 3.5c.1 2.6.3 7.1.4 10 0 2.9.2 5.9.3 6.6 0 .7.2 3.7.3 6.7s.3 5.5.3 5.6c0 0 .1 2.1.2 4.5 0 4.5.2 5.2.6 4.9.2 0 .3 0 .3.3s.1.5.3.5c.6 0 .8.1 1.2.4.6.4 1.2-.6.9-1.5-.2-.9.2-1.7 1-1.7s.4.2.2.5c-.1.3 0 .5.1.3.4-.3 1.8.7 1.5 1.1-.1.2 0 .3.5.1.5-.1.9 0 1.3.3.5.5.6.5.6 0 0-.7 1-1.4 2.2-1.7.6-.1 1.5-.5 1.9-.8.8-.5 1-.6 1.7-.2.5.3 1.2.4 1.8.3s1.2 0 1.4.1c.2.2.8.3 1.3.4.5 0 1.2.2 1.5.4s.6.2.6 0c0-.1.2 0 .3.3.3.6.4.6.8 0 .2-.3.6-.6.8-.6s.5 0 .6-.1c.1 0 2.3 0 4.7-.1h4.5s0-3.9 0-3.9c0-2.1 0-5.5-.2-7.5l-.3-3.6-2.5-2.6c-3.7-3.7-12-10.9-14.7-12.7-.4-.3-2.5-1.8-4.8-3.4-4.3-3.1-11.5-7.8-11.9-7.8s-.1 2.1 0 4.7zm4.1-3.6c0 .3.1.5.3.5s.3-.1.3-.3-.1-.4-.3-.5-.3 0-.3.3zm1.2.3c-.1.3-.2.7 0 .8.3.3.5-.2.4-.8s-.1-.6-.4 0zm-22 .8c-2.7.3-2.6.9.6 4 1.4 1.4 2.8 2.5 3.2 2.5.8 0 5.8-5.3 5.8-6.1s-.2-.6-3.9-.6c-2.2 0-4.7.1-5.7.2zm23 .5c0 .3.1.5.3.5s.3-.2.3-.5-.1-.5-.3-.5-.3.2-.3.5zm14.7.3s.3.3.6.6c.5.4.5.4.1-.1s-.7-.7-.7-.4zm19.3 2.5c-.6.6-1 1.2-1 1.4 0 .4 2 2 2.5 2s.4-4.2-.1-4.4c-.2 0-.8.4-1.4.9zm-48.4 1.9c-1.3 1.4-2.5 2.8-2.7 3.1-.2.4.4 1.1 2.4 3 4.1 3.9 4.4 3.7 4.2-3-.1-4.6-.3-5.7-1.1-5.7-.2 0-1.4 1.2-2.8 2.6zm-12.7-1.6c-.4.4-.6 9-.2 10 .1.3.4.5.7.5.8 0 5.5-4.8 5.5-5.6 0-.6-4.7-5.3-5.4-5.3s-.5.2-.7.4zm46.2 1.2c.3.3.7.5.7.5.2-.2-.7-1.1-1-1.1s0 .3.3.6zm8.4.6c0 .2.1.3.3.3s.3-.1.3-.3-.1-.3-.3-.3-.3.1-.3.3zm-19.4.7c0 .4 0 .6.2.4 0-.2 0-.6 0-.8s-.2 0-.2.4zm22.4 1.3c-1 1.5-1.2 2.1-1 2.5.4.7.9 4.5.7 5 0 .2-.3.3-.5.2-.5-.3 0 .6 2.3 3.2 3.1 3.7 3.7 4.3 2.5 2.6-.6-.9-1.7-2.2-2.4-3-1.2-1.3-1.3-1.7-1.5-3.6 0-1.2 0-2.2 0-2.3.5-.3 1.1.4 1.1 1.4 0 .5.1.9.3.8.1 0 .3.2.4.5.1.4.3.6.5.5.4-.3 1.2 1.2 1.1 2.1 0 .6 0 .9.4.9s.5.2.5.3.2.2.4.1.5 0 .6.2c.2.3.3.3.5-.3.1-.4.3-.7.4-.7.3 0 .1-1.5-.2-2-.2-.2-.4-1.5-.5-2.8 0-1.4-.4-3-.8-3.9-.7-1.6-2.5-3.8-3.1-3.8s-1 .9-1.7 2zm-52.5 5.6c-3.9 4-3.8 4.1 2.9 4.2 4.5 0 5.4 0 5.8-.4.3-.3.5-.7.5-.8 0-.5-5.5-5.7-6.1-5.7-.3 0-1.7 1.2-3.1 2.8zm49.2-.1s.4.5 1 1c1.1 1.1 1.3.9.2-.3-.7-.7-1.2-1-1.2-.7zm-46.7 6.9c-6.2.1-6.5.6-2.5 4.5 1.5 1.4 2.9 2.6 3.3 2.6.7 0 5.9-5.4 5.9-6.1s-.6-1.2-1.6-1.1c-.4 0-2.7 0-5.1.1zm5.5 5.6c-1.5 1.5-2.7 3.1-2.7 3.4s1.2 1.7 2.7 3.2c2.4 2.3 2.8 2.6 3.4 2.3s.6-.7.6-4.6c0-4.8-.3-6.7-.9-6.9-.3 0-1.6 1-3.1 2.7zm-13-1.3v5.5c.2 4.2.3 4.8.8 4.9.7.1 5.7-4.9 5.7-5.7 0-.7-5-5.4-5.7-5.4s-.7.3-.8.7zm65.4 2.7c0 .2.3.5.6.8.5.4.5.4 0-.2-.3-.4-.5-.7-.6-.8zm-9 .5v1.4c.2 1.1 1.2 1.3 1.7.4.3-.4.2-.7-.4-1.4-.9-.9-1.2-1-1.4-.4zm1.9 2.4c-1 1.1-.7 1.7.7 1.7s1.8-.3.7-1.4c-.9-.8-.9-.8-1.4-.3zm-53.1 3.7c-3 3-4.8 5.7-4.8 7.1s.4 1 1 1.4c.5.4 1 .5 1 .3s.7-.3 1.6-.3 1.7-.2 1.8-.4.9-.3 2.3-.1c1.2.1 2.4.2 2.7.2s.6.1.6.3c0 .5 1.3-.4 1.5-1.1.1-.4.4-.5.8-.4.3 0 .8 0 1-.3.4-.5 1.8-.6 2.1 0 .1.2 0 .3-.1.1-.2-.1-.4 0-.4.4s.1.6.5.5c.8-.3.1-2.6-1.3-4.3-1.2-1.3-6.3-6.2-6.7-6.3-.2 0-1.8 1.3-3.4 3zm52.5-1c0 .2.6 1 1.3 1.7l1.3 1.3 1.1-1.1c1.1-1.1 1.1-1.2.6-1.7-.7-.7-4.3-.8-4.3-.1zm-1.1 1.4c-.3.8.2 4.3.6 4.3s2.4-2 2.4-2.4-2-2.4-2.5-2.4-.4.2-.6.5zm5.4.8-1 1.1 1.2 1.2c.7.7 1.3 1.2 1.4 1.2.4 0 .2-3.4-.2-3.9s-.5-.5-1.4.5zm-69.3 1.9c.2 3.6.3 4 .3 1 0-1.6 0-3-.2-3-.1 0-.2.9-.2 2zm73.1 0c.1 3 .7 4.6 1 2.8v-.7c.1 0 .2.7.2.7 0 .9.5.9 1.3 0 .6-.6.7-.6.7-.2s.1.5.3.5.3-.1.3-.3c0-.4-2.3-2.8-2.6-2.7-.2 0-.3-.1-.3-.4s-.2-.6-.5-.9c-.4-.4-.5-.2-.4 1zm-6.6.9c-1.7 1.8-1.6 2 1.4 2s3.2-.4 1.1-2.1l-1.3-1.1zm171.1.9c-.2.1 0 .3.8.3.9 0 1 0 .6-.2-.8-.3-.9-.3-1.4 0zm-65.7.3c.2 0 .4.3.4.4s-.2.2-.5 0c-.3-.1-.5 0-.5.4s.2.5.5.4.6-.2.6-.2.1-.3.1-.6-.2-.6-.6-.6c-.3 0-.4 0-.2.2zm15.6.1c.1.2 0 .3-.1.3s-.3.2-.3.5c0 .7.9.6 1.2 0 .1-.3.4-.7.6-.8s0-.2-.6-.2c-.5 0-.8.1-.7.3zm18.4.2c.3.4.3.5-.1.3-.7-.3-.7.6 0 1.2.4.3.5.3.3 0s0-.6.3-.9c.3-.2.4-.5.3-.5-.2 0-.1-.2.2-.3.4-.2.3-.3-.4-.3-.8 0-.9 0-.5.5zm6.2-.1c-.3.8.2 1.2.9.8.3-.2.6-.5.5-.6 0-.2 0-.3.2-.4.2 0 0-.2-.5-.2s-1 .2-1.1.4zm4.5.1c-.3.7-.3.8.6.8s.8-.2.9-.6c.1-.5 0-.6-.6-.6s-.8.2-.9.5zm-90.3.1c.1.2 0 .3-.3.3-.5 0-.7.5-.2.8h.8c.7-.3.7-1.4 0-1.4s-.4.1-.3.3zm12.9-.1c.2 0 .4.3.4.4s-.2.2-.5 0c-.3-.1-.5 0-.5.3 0 .6.7.7 1.2.1.6-.6.4-1.2-.3-1.2-.4 0-.5 0-.3.2zm-109.3 3.3c0 .4 0 .6.2.4 0-.2 0-.6 0-.8s-.2 0-.2.4zm222.7-.1c0 .4 0 .4.2.2 0-.2 0-.5 0-.6-.1-.1-.2 0-.2.4zm-104.3.3c.1.7.7.7.8 0 0-.4 0-.6-.4-.6s-.5.2-.4.5zm-53.2.1c0 .2.1.2.3.1s.3-.3.3-.3-.1-.1-.3-.1-.3.2-.3.3zm7.7.2c0 .3.2.5.5.5.6 0 .5-.7-.1-.9-.2 0-.4.1-.4.4zm-71.2 1.1c.1.2.4.3.7.3s.4-.1.3-.3-.4-.3-.7-.3-.4.1-.3.3zm42.3 4.1c-.4.4-.2 1.3.3 1.5.3.1.7 0 1-.3.4-.4.4-.6 0-1-.4-.5-1-.6-1.4-.3zm-12.2.4c-.3.5.4 1.1.9.7.4-.4.1-1.1-.4-1.1s-.4.2-.5.3zm-205 2.3c-.4.5-.2.8.5.8s.6-.8.1-1.1c-.2 0-.4 0-.6.2zm156.3-.1c-.1.2 0 .3.3.3s.5-.1.5-.3-.1-.3-.3-.3-.4.1-.5.3zm2.1 0c-.7.2-.7.3-.2.3h1c.2 0 .4.1.4.3s.1.2.3.1.3-.4.3-.7c0-.5-.7-.5-1.9-.1zm-138.3 1c0 .2.1.3.3.3s.3-.1.3-.3-.1-.3-.3-.3-.3.1-.3.3zm-49.9.3c0 .2.5.3 1.1.3s1.1-.1 1.1-.3-.5-.3-1.1-.3-1.1.1-1.1.3zm281.4-.1h1.1c.3 0 0-.1-.6-.1s-.9 0-.6.1zm28.1 0h.6c.1-.1 0-.2-.4-.2s-.4 0-.2.2zm17.6 0h.6c.1-.1 0-.2-.4-.2s-.4 0-.2.2zm40.6 0h1.3s0-.1-.7-.1-1 0-.6.1zm17.9 0h1.3s0-.1-.7-.1-1 0-.6.1zm14.1 0h1.4s0-.1-.7-.1-1.1 0-.7.1zm-371.5 2.4c0 .5.4.6 4.8.6s4.8 0 4.7-.1c0 0-2.2-.2-4.7-.2-3.1 0-4.6-.2-4.7-.4 0-.2-.2-.1-.2.2zm20.8.6-1.1.2h1.2c.6 0 1.8.2 2.6.3 1.2.2 1.5.1 1.5-.3s-.3-.5-1.5-.5c-.8 0-2 .1-2.6.3zm28.4-.2c-.1.1-.2.4-.2.5s3.7.2 8.2.2c6.5 0 7.6-.1 5.2-.3-5.8-.5-13-.7-13.2-.4zm31 .1h2.2s.2-.1-1-.1-1.8 0-1.2.1zm12.2.4c-11.9 0-21.8.3-21.9.4s2.4.2 5.7.2c15.6 0 60.5.7 61.6 1 .5.1 1.9-.5 2.3-1.1.3-.4-.8-.5-9-.4-5.1 0-11.1 0-13.2-.1s-13.6-.1-25.5 0zm-24.7.3c-.1.2 0 .3.1.3s.3-.1.3-.3 0-.3-.1-.3-.2.1-.3.3zm-67.7 3.1v.9l2-.3c3.2-.4 18.4-.3 20.6.2 1.8.4 2 .4 2.2-.2.2-.3.2-.7.1-.7 0 0-4.1-.2-8.9-.3-4.8 0-10.4-.2-12.4-.3l-3.6-.2zm49.2-.1v1.9l.2 1.5h1.8c1.8 0 1.8 0 .8-.5-.5-.2-1.3-.4-1.7-.5-.4 0-.7-.1-.7-.3 0-.3 5.9-.2 8.6.1.9.1 1.6.3 1.5.5-.2.4-.1.4 10.5.3 5.7 0 8.8 0 8.7.3-.1.2-.6.3-1.1.4-.5 0-.2.2.7.3s2.2.2 3 0c1-.1 1.4 0 1.4.2s.9.4 4 .2c2.4-.1 4.4 0 4.9.1.6.2 1.1.2 1.6 0 .5-.3.8-.3 1 0s5.2 1.1 6.9 1.1c1.8 0 4.6.4 4.6.6s-.6.2-1.4 0c-1.7-.3-2.8 0-2.1.3.3.2-.2.2-1.3.1-4.3-.4-7.5-.5-7.1-.2.3.2.3.3-.1.5-.3.1-.9.2-1.3.2s-.8.1-.8.3c0 .4-4.3.4-4.7 0-.2-.2-1.6-.4-3-.5-1.5 0-4.3-.2-6.4-.3-3.2-.2-3.6-.1-3.1.3.3.2.5.5.3.7-.1.1 0 .2 0 .2.2 0 2.4.1 4.9.3 2.6.2 5.9.4 7.5.5 3.3.2 7.5.5 9 .7 3.3.4 6.7.5 6.2.1-.4-.3-.3-.3.3-.3.5 0 .7.1.6.5-.1.3 0 .5.7.5h2.4c.9 0 1.5.2 1.5.4 0 .5 3.5 1.2 5.2 1 .8 0 2-.2 2.8-.3 2-.3 3-.3 6 0 1.4.1 2.8.2 3 .1.6-.2-1.5-1-2.6-1s-.9-.1-.7-.3c.1-.2 0-.3-.4-.3s-.7.1-.8.3c-.2.3-2.2.3-2.6-.1-.1-.1-.5-.2-.9-.2-.5 0-.6 0-.2-.3.2-.2.7-.2 1-.1.3 0 .6 0 .6-.1s.6-.3 1.4-.3h5c2.5 0 3.6.2 3.5.4 0 .2.9.6 2.2.9 2 .5 2.1.6 1 .6-.7 0-1.2.1-1.1.2.2.2 1.5.3 5.6.4 2.4 0 2.7.1 2.5.6s-.1.5.4 0c.5-.4.8-.5 1.3-.2.4.2 1.2.3 1.9.3 1.2 0 1.2 0 .3-.3l-1-.2 1-.2c.6-.1 1.2-.5 1.4-.7.3-.3.3-.4 0-.3-.2.1-.5 0-.6 0-.1-.2-.6-.3-1.1-.3s-1-.1-1.1-.3.4-.3 1.4-.3c1.9 0 3.1-.5 3.5-1.5.3-.6.2-.8-.4-1.2s-.6-.5-.2-.5c.8 0 .4-.8-.5-1.1-.4-.1-3.8-.3-7.6-.4-3.8 0-7.6-.2-8.5-.3-2.5-.3-11.6-.4-10.6-.1.8.2.6.3-1 .3-1.3 0-1.8 0-1.4-.3.3-.2 0-.3-1.4-.3-1.1 0-1.8-.1-1.8-.4s.2-.3.5-.2.5 0 .5-.2.2-.2.5 0 .4.3.3 0c-.5-.8 6.7-1 19.5-.7 7.9.2 9.8 0 5.6-.9-.6-.1-1.3-.4-1.6-.6-.5-.4-15.8-.7-46.9-.8-10.5 0-19.3-.1-19.4-.2-.1 0-5-.2-10.8-.2s-10.8-.2-11.1-.3c-.4-.2-.6-.1-.7.1zm145.3 1.7h.6c.1-.1 0-.2-.4-.2s-.4 0-.2.2zm-116.1.4c0 .1.2.3.5.3s.4-.1.3-.3c0-.1-.3-.3-.5-.3s-.3.1-.3.3zm-104.6.3h1c.2 0 0-.2-.6-.1-.5 0-.7 0-.4.2zm90.7.1c.2.4 1.1.4 1.1 0s-.3-.3-.6-.3c-.4 0-.6 0-.5.3zm-10.5.5h.8c.2 0 0-.2-.4-.2s-.6 0-.4.2zm3.2 0h.8c.2 0 0-.2-.4-.2s-.6 0-.4.2zm23.3.4c1 .3 15.7.7 15.4.5-.2-.2-2.9-.4-10-.6-4-.1-6 0-5.4.1zm139 .3c0 .2-.3.3-.6.3s-.7.1-.8.3c-.2.4 5 .7 6.1.4.5-.2.7-.3.5-.3s-.4-.2-.3-.4c0-.3-.6-.4-2.4-.5-1.6 0-2.5 0-2.5.2zm-162.3.2h.6c.1-.1 0-.2-.4-.2s-.4 0-.2.2zm3.6.1c0 .2.2.3.3.3s.2-.1.1-.3-.3-.3-.3-.3-.1.1-.1.3zm8-.1s1.4.2 2.9.3c2.1.1 2.4 0 1.2-.1-1.6-.3-4.4-.4-4.1-.2zm27.7.3c.1.3.4.5.7.5.5 0 .5 0 0-.3-.4-.2-.2-.3.6-.3s1 0 .6.3c-.4.2-.3.3.5.3.5 0 1.7 0 2.6.2 1.2.1 1.7 0 1.7-.2s-.8-.4-2.2-.4c-1.7 0-1.9 0-1.2-.3.7-.2.4-.3-1.4-.3-1.9 0-2.3 0-2.1.4zm9.4.4c0 .4 0 .4.5 0 .3-.2.5-.4.5-.5s-.2 0-.5 0-.5.2-.5.5zm-2.2-.1c0 .3 1.6.4 1.8.2 0-.2-.3-.3-.8-.3s-1 0-1 .1zm16.1.1h1.1c.3 0 0-.1-.6-.1s-.9 0-.6.1zm-65.4.5c0 .3 1 .5 1.1.2.1-.2-.1-.3-.5-.3s-.7 0-.7.1zm33.9 1.5c.8.1 1.9.2 2.4.2.8 0 .8 0-.3-.3-.7-.1-1.8-.3-2.4-.2-1 0-1 0 .3.3zm133.4 1.5c-1.9.2-1.1.7 1.1.7s1.9 0 1.5-.5c-.2-.3-.6-.5-.9-.4-.3 0-1.1.1-1.7.2zm-112.3 1.2s.4.2.8.3c.4 0 .7 0 .6-.1-.2-.3-1.4-.4-1.4-.2zm19.2.2c0 .2.9.3 2 .3 1.5 0 1.8 0 1.2-.3-1.2-.4-3.2-.4-3.2 0zm-13.5.2h.6c.1-.1 0-.2-.4-.2s-.4 0-.2.2zm-5.5.4c0 .1.4.3 1.1.4s1.5.3 1.8.4.5 0 .5-.1c0-.4-3.2-1-3.4-.7zm25.4.1c0 .5.9.6 1.5.3.4-.3.4-.3-.5-.5-.6 0-1 0-1 .1zm26.3.2c-.2.1 0 .2.4.2s1 0 1.2.1c.2 0 .5 0 .6-.2.1-.4-1.6-.5-2.1-.2zm-63.1.3h.6c.1-.1 0-.2-.4-.2s-.4 0-.2.2zm5.3.9c1.9.5 3.4.6 3.4.2s-2.7-.7-4.2-.6c-.5 0-.2.2.8.4zm57.5-.2c0 .2.1.3.3.3s.3-.1.3-.3-.1-.3-.3-.3-.3.1-.3.3zm60.9 0c.5.5 1.6.6 1.8.2 0-.2-.3-.4-1-.4-.8 0-1 0-.8.2zm-58.4.4c.2.2.9.4 1.5.4 1.1.1 2.4.8 1.5.8s-.3.1-.2.3c.2.3 3.7.4 3.7.2s-.3-.3-.7-.4c-.5-.2 0-.2 1.6-.1 2 .2 2.3.1 2.3-.3s-.1-.6-.3-.7c-.5-.3-9.7-.5-9.4-.1zm-20.1.2c0 .2.2.3.5.3s.4-.1.3-.3-.3-.3-.5-.3-.3.1-.3.3zm23.9.9h.6c.1-.1 0-.2-.4-.2s-.4 0-.2.2zm-32.3.4c-.3.2-.3.3-.2.3s.5-.1.8-.3.3-.3.2-.3-.5.1-.8.3zm35.7.2h1c.2 0 0-.2-.6-.1s-.7 0-.4.2zm50.6.3c1 .6 3.7.7 2.7.2-.3-.2-1.2-.4-2.1-.5l-1.5-.2zm-155.7.2c0 .2.1.3.3.3s.3-.1.3-.3-.1-.3-.3-.3-.3.1-.3.3zm101 .3c-.1.2 0 .3.1.3s.3-.1.3-.3 0-.3-.1-.3-.2.1-.3.3zm1.4 0c0 .2.5.3 1 .3 1.2 0 1.1-.1-.1-.4-.5-.1-.9 0-.9.1zm54.8.6c-.3.2 0 .3.8.3.9 0 1.1 0 .7-.3-.6-.4-1-.4-1.5 0zm-121.7 3.2c-.4.2-.3.3.4.3.5 0 .8-.1.7-.3-.2-.4-.5-.4-1.1 0zm22.8.6h1c.2 0 0-.2-.6-.1-.5 0-.7 0-.4.2zm-29.2.2s.8.3 1.5.5c1 .2 1.3.2 1.1 0s-.9-.4-1.5-.5-1.1 0-1.1 0zm33.6.2c0 .2-.2.3-.4.3s-.7 0-1.1.2l-.7.2.9.5c.8.4.9.4 1.3 0 .2-.3.7-.5 1.1-.4 1.2.1 1.9 0 1.9-.3s-.5-.2-1.1-.1c-.7 0-1.1 0-1.1-.2s-.1-.4-.3-.4-.3.1-.3.3zm-29.9.8c.3.3 1 .5 1.5.5s.9.1.8.4c-.2.5-1.5.6-1.5.2s-.3-.1-.6 0c-.3.2-.7.2-.8.1-.4-.4-6.3-.8-7.1-.5-.5.2-.7 1.1-.3 1 .4 0 2 .8 2 1.1s-.2.2-.6 0c-.3-.1-1.7-.2-3.1-.1-1.4 0-4 .2-5.7.2-4.8 0-2.5.7 3.4 1 1.2 0 2.6.2 3 .4s1.1.3 1.6.2c.4 0 1 0 1.2.2.3.3.4.3.4 0s.2-.3.4-.1c.5.3.6.3 3.9.4 2.5 0 3.1.3 1.3.5-.5 0-1 .3-1 .5 0 .3.9.4 3.5.3 2 0 3.3-.1 2.8-.2-.4 0-.9-.3-1.1-.4-.3-.3 1.3-.8 1.7-.5.2 0 .4 0 .5-.2s0-.3-.1-.1c-.2.1-.4 0-.4-.1s.7-.3 1.7-.3q1.7 0 .4.3c-1.6.3-1 .6 1.6.7 1.1 0 2.3 0 3-.3 1.1-.5 2.6-.5 4.2-.2 1.1.2 1.2 1 0 .8-.5 0-.7 0-.7.5s0 .5-.2.4c-.1-.1-.5 0-.8.1-.8.4-.4 1.3.5 1.1 2.1-.5 2.7-.5 3.7 0 1.1.5 1.1.5.2.5-.6 0-.9.2-.9.5 0 .5.8.6 1.1.1.1-.2.4-.3.6-.2s.5 0 .6-.2.9-.3 2-.2c1 0 1.6 0 1.4 0s-.4-.4-.4-.6-.2-.5-.5-.5-.5.2-.5.4c0 .3 0 .3-.3 0-.2-.3-.8-.4-1.8-.4s-1.5-.1-1.7-.4c0-.2-.5-.5-.9-.6-.6-.1-.7-.4-.6-.9s.3-.7.7-.6c.3 0 .7 0 .8-.2.2-.3-.9-.5-2.7-.4-1 0-2.2-.6-2.2-1.2s-.2-.4-.5-.3c-.3 0-.6 0-.7-.1-.1-.2-.6-.3-1.1-.3-.7 0-.8 0-.4.3.6.4.5.4-1.1.5-.7 0-1.7.2-2.2.3-1.6.3-3.1.4-4.1.1-.5-.1-1.1-.1-1.3 0-.5.3-1.2.4-1 0 0-.2-.5-.3-1.3-.3s-1.4.1-1.3.3-.3.1-.9-.1c-.8-.4-1.2-.4-1.5 0-.3.3-.3.3-.1 0s.1-.4-.3-.2c-.3.1-.5 0-.3-.1.1-.2.6-.3 1.1-.3 2.4.2 3.9 0 4.6-.7.5-.5.8-.6 1.1-.3s.5.2.6 0c.2-.5 1.1-.5 2.4 0 .7.2.7.3.2.7s-.5.4.7.4 2.1-.5 1.1-.7c-.5-.1-.5-.1 0-.2 1.2 0 .5-.6-1.1-.8-.9-.1-2.1-.3-2.6-.5s-1.9-.4-3-.5c-1.9-.2-2-.1-1.5.3zm121.3-.3c-.5.1-.2.3 1 .8 1.8.7 4.1.8 5.2.2l.8-.4-1.1-.2c-1.4-.3-5-.5-5.9-.3zm-101.1 1h.8c.2 0 0-.2-.4-.2s-.6 0-.4.2zm-46.3.7-.8.3h.9c.5 0 .9 0 .9-.3s0-.3 0-.3-.4.1-.9.3zm30.7 0c0 .2.2.3.3.3s.2-.1.1-.3-.3-.3-.3-.3-.1.1-.1.3zm24 .3c0 .4.3.4 1 0 .4-.3.3-.3-.2-.3-.4 0-.7.1-.7.3zm94.5 0c-.7.2-.7.3-.2.5.4.2.5.3.2.5-.7.4-.6 1.3.1 2.1.7.7 1.3.9 3 .8 1 0 1 0 .9-1.2 0-.7-.1-1.4-.1-1.6s-.2-.3-.3-.2c-.3.2-.4-.2-.4-.8 0-.3-2.3-.3-3.1 0zm-154.2.3c-1.5.2-.6.7 1.4.7 4.5 0 5.7.1 5.9.4.1.1.3.1.4 0 .1-.2 0-.4-.1-.4s-.3-.1-.2-.3c0-.1-.9-.3-2.1-.2-1.3 0-2.8 0-3.4-.1-.6 0-1.4-.1-1.8 0zm-9.5.6h.8c.2 0 0-.2-.4-.2s-.6 0-.4.2zm70.1 1.8c.1.3.2.5.3.5s.3-.2.5-.5c.3-.4.3-.5-.3-.5s-.6.1-.5.5zm-46.6.2c0 .2.2.3.3.3h.9c.9 0 .6-.2-.5-.4-.5 0-.9 0-.8.2zm35.8.6c0 .2.3.3.7.3s.6-.1.5-.3-.4-.3-.7-.3-.5.1-.5.3zm-41.5.9h1c.2 0 0-.2-.6-.1-.5 0-.7 0-.4.2zm29 0c0 .1.3.3.7.3.6 0 .6 0 .2-.2-.6-.4-1-.4-1 0zm-26.1.6c-.6.5-.6.5 0 .1.4-.2.7-.4.7-.5 0-.2-.2-.2-.8.3zm1.2-.1c0 .1.3.3.8.3s.8.2.9.4c0 .2.1.1.1-.3 0-.5-.2-.7-.9-.7s-.9.1-.9.3zm27.1-.2h.6c.1-.1 0-.2-.4-.2s-.4 0-.2.2zm1.4.1c-.3.2-.3.3 0 .3.2 0 .5-.1.6-.3.2-.4.1-.4-.5 0zm-46.1.3c-.5.3.4.7 1.8.8 1.3 0 1.4-.4.2-.7-.5-.1-1-.2-1.2-.3-.2 0-.5 0-.7.1zm38.4.4c0 .2.2.3.5.3s.5 0 .5-.1-.2-.2-.5-.3-.5 0-.5.1zm122.5.4c-.5.4-.4.4.6.4.6 0 .9 0 .6-.1-.3 0-.5-.3-.4-.4.3-.4-.2-.3-.9.1zm-167 .3c-.3.4-.2.5.5.7.5.1.9.1 1 0s-.1-.3-.5-.4-.6-.3-.5-.5c.3-.4 0-.3-.5.2zm2.5-.1c.3.2.3.4.2.7-.2.4-.2.4.3 0 .6-.5.4-1-.4-1-.4 0-.5 0-.1.3zm9.6 0c0 .1.3.3.6.4.4 0 .6 0 .5-.1 0-.1.2-.3.7-.4.5 0 .3-.1-.5-.1-.7 0-1.4.1-1.4.2zm26.9.2h.6c.1-.1 0-.2-.4-.2s-.4 0-.2.2zm1.3 0h.6c.1-.1 0-.2-.4-.2s-.4 0-.2.2zm10-.1c.1.1.6.2 1 .3 1 0 1.2.6.2.6s-.7.1-.8.3.6.4 1.7.5c1 .1 2.3.3 2.9.4.6 0 1.1 0 1.2-.2s0-.3-.4-.3-.8-.2-1-.5c-.3-.4-.3-.5.4-.5.6 0 .7 0 .3.3-.3.2-.3.3 0 .3.2 0 .5-.1.6-.3s.4-.2.7-.1c.5.1.5.1 0-.1-.5-.3-7-.9-6.7-.6zm17.9.5c0 .4.9.7 1.3.5.2-.1.2-.3-.1-.5-.6-.4-1.2-.4-1.2 0zm-48.7.4c-.4.3-.4.3 0 .3.3 0 .6-.1.6-.3 0-.4 0-.4-.6 0zm1.8 0c.1.2.3.3.3.3s.1-.1.1-.3-.2-.3-.3-.3-.2.1-.1.3zm-22.5 1.3c0 .2.2.4.7.5.6.1.9 0 1.1-.2.2-.3.3-.3.3 0 0 .4 2.5 1.1 3 .9.2 0 0-.4-.2-.7-.4-.4-1-.6-2.6-.6-1.1 0-2.1.1-2.2.3zm45.7-.1c-.8.2-.8.2.2.4h1c0-.4-.4-.5-1.3-.3zm14.8-.1h1.1c.3 0 0-.1-.6-.1s-.9 0-.6.1zm-113.1.4v.5c0 .1-.2.2-.5.2s-.4.1-.3.3c.2.4 1.7-.3 1.7-.8s-.8-.6-.9-.2zm57.8 0c.2.2 1.1.4 2 .4s1.8.2 1.9.4c.1.1-.6.2-1.6.1-1.1 0-1.8 0-1.8.2s-.7.2-1.8.1c-1.3-.2-1.8-.1-1.8.2 0 .2-.2.2-.4-.2-.4-.6-1-.8-.7-.2.1.2 0 .2-.3.1-.6-.2-3.3.4-3.9.9-.3.3-.3.4 0 .8s.3.5 0 .7c-.2.1-.4.5-.3.7 0 .2.2.6.2.8.1.5.7 1.1.9 1 .1 0 .4.1.6.5.3.5.3.7-.3.9-1 .4-.5.5 2.8 1 1.4.2 3 .5 3.5.6.5.2 1.8.3 2.7.4 1.7.1 1.8 0 1.8-.6 0-.4 0-.7-.3-.6-.2.1-.3 0-.3-.3 0-.6 3-.7 4.2 0 .5.3 1.2.4 1.5.3s1.6 0 2.9.3c2 .4 4.4.8 5.2.8.5 0 .2.6-.5.9-.6.3-.5.3.8.2.9-.1 1.6 0 1.7.2.3.4.8.1.8-.5s-.7-.8-1.8-1c-.2 0-.7-.2-1.1-.3-.7-.2-.7-.3-.1-.5s.6-.3-.2-.3c-1.4 0-2.7-.3-3.2-.6-1.1-.6 6.3.3 8 1.1.4.2.9.4 1 .4s.3.1.3.1.7.1 1.4.2c1.5.1 6.8 1 8.6 1.4 1.5.4 2.5.5 5 .8 1 .1 2.3.3 3 .5.8.2 1.4.2 1.9 0 1-.5.3-.8-2.2-1-3.4-.3-6.2-.9-5.7-1.2.2-.1 1-.2 1.7-.1.7 0 2.1.2 3 .3 1 0 2.3.3 2.9.5 2.4.6 3.9.5 4.3-.4.1-.3.4-.5.6-.4s.5.1.7 0c.3-.2.3-.3 0-.4-.2-.1-.3-.5-.2-.8.2-.4.3-.5.7-.1s.4.3 0-.3c-.2-.4-.5-.6-.6-.4 0 .2-.4 0-.7-.1-.3-.2-.4-.5-.3-.6.2-.2-1 0-2.1.3-.3 0-.4 0-.2-.5.2-.6 0-.6-1.7-.6s-1.9.1-1.9.3-.2.3-.5.3-.5.1-.5.3.8.3 1.7.3c1.5 0 3.4.5 2.6.6-.2 0 .3.2 1.1.3 1.4.2 1.3.2-.7.3-1.3 0-2.2.2-2.3.4-.2.6-1.2.6-1.2 0 0-.3-.1-.4-.2-.2-.3.4-4.6.5-4.6 0s.5-.2 1.2-.1c1 .2 1.2.1 1.2-.3 0-.7-.6-.9-3.5-1.1-2-.1-2.5-.3-2.5-.7s0-.4-.3-.1c-.2.3-.6.3-1.6.1-1.5-.3-2-.7-1.2-.7.9 0 1.1-.1 1.3-.3.1-.1-.4-.2-1.2-.2s-3-.3-4.9-.7-4.2-.7-5-.8c-2.3-.2-5.7-.8-9-1.5-1.7-.3-3.7-.7-4.6-.8-2.6-.3-1.9-.7 1-.5 2.9.1 3.5-.2.8-.4-.9 0-2-.2-2.5-.3-2.3-.4-5.8-.5-5.4-.2zm22.5.3h.8c.2 0 0-.2-.4-.2s-.6 0-.4.2zm-78.3.3c.1.7-.1.9-1.2.8-.7 0-1.1 0-1.1.2s-.1.3-.3.2c-.1 0-.5.1-.8.5-.5.6-.4.7.7.7.3 0 0 .2-.4.4l-.9.4 1.4.4c.8.2 1.5.3 1.6.2.1 0 .6.1 1 .5s.8.5 1 .4c.3-.3 1.8 0 1.8.3s1.3.6 2.4.8c.2 0 1.1.3 2.2.6 1.2.4 2.8.5 4.6.5 1.5 0 2.8 0 2.9.2.1.1-.2.2-.6.2-1.5 0-2 1.7-.6 1.8.4 0 1.5.1 2.4.3 1.2.2 1.8 0 2.2-.3.6-.4.6-.5.2-.8s-.4-.4 0-.6c.3-.2.5-.5.5-.7s.1-.6.1-.7c.2-1 0-2.1-.5-2.1s-.8-.2-1.2-.5c-.7-.5-.8-.5-1 .3-.1.5-.4.8-.9.8s-.6-.2-.5-.4c0-.2 0-.6-.1-.9-.2-.4-.4-.4-.9 0-.6.4-3.1.3-3.5 0 0 0-.5 0-.9.4-.6.4-.8.4-1 0-.1-.2-.1-.5 0-.6.3-.2 0-.8-.5-.8-.2 0-.5.1-.7.3-.2.1-.5.2-.7 0-.2 0-.4 0-.4.2-.1.3-.2.3-.6 0-.5-.5-1.2-.5-1.7 0-.2.2-.3.4-.3.3 0 0-.2-.4-.5-.7-.4-.5-.8-.6-2-.4-1.1.1-1.3 0-1-.2s.8-.3 1.2-.3.9-.2 1.1-.5.3-.5 0-.5-.4.1-.4.3-.5.2-1.1 0c-.5-.2-.8-.3-.5-.3.2 0 .3-.2.2-.3-.2-.4-.8-.4-.8 0zm85.4.8c0 .2-.2.3-.5.3s-.4.1-.3.3.4.2.6.1.3 0 .1 0c-.1.2-.7.3-1.2.3s-1.2.2-1.5.3c-.4.2-.2.3.9.5 2.7.5 4.4.4 4.7-.4.2-.5.5-.5 1.9-.4 1 0 1.7 0 1.6-.2s0-.3.2-.3c.7 0 0-.4-1.1-.6-.6-.1-1.2-.2-1.3 0-.3.3-1.2.3-2.6 0-.8-.1-1.4-.1-1.4 0zm26.4.2c-.3.4 0 .8.4.6.2 0 .2-.3 0-.5-.2-.3-.3-.3-.5 0zm-1.4.7c0 .2.2.3.5.3s.5-.1.5-.3-.2-.3-.5-.3-.5.1-.5.3zm-61.9.2h.6c.1-.1 0-.2-.4-.2s-.4 0-.2.2zm-31 .8c.1.4.4.6 1 .6s.7 0 .4-.4c-.2-.2-.6-.5-1-.6-.5-.1-.6 0-.4.4zm69.1-.5h.6c.1-.1 0-.2-.4-.2s-.4 0-.2.2zm11.9.1c0 .2.2.3.3.3s.2-.1.1-.3-.3-.3-.3-.3-.1.1-.1.3zm48.9.3h.6c.1-.1 0-.2-.4-.2s-.4 0-.2.2zm-145.9.4c-.4.2-.3.3.3.3.4 0 .7-.1.5-.3-.2-.4-.2-.4-.8 0zm99.5 0c.2.2-.8.4-1.9.3-.9 0-.3.8.7 1.1 1.5.4 10.1.6 10.9.3s.8-.3-.3-.7c-.7-.3-1.2-.3-1.6-.1-.6.4-2.6.3-2.9-.1-.2-.3-1.4-.3-2.3 0-.3 0-.4 0-.4-.3 0-.2-.1-.4-.3-.4-1.4-.1-2.1-.1-2 .1zm-3.6.6c.1.2.3.2.5.1.4-.3.4-.5-.2-.5s-.4.1-.3.3zm51 0c0 .2.2.3.5.3s.4-.1.3-.3-.3-.3-.5-.3-.3.1-.3.3zm-82.3.2h.6c.1-.1 0-.2-.4-.2s-.4 0-.2.2zm-60.9.4c.2.4 2.8.4 2.8 0s-.7-.3-1.5-.3-1.4.1-1.3.3zm8.4-.1h.8c.2 0 0-.2-.4-.2s-.6 0-.4.2zm54.8.2c0 .2.2.3.5.3s.5-.1.5-.3-.2-.3-.5-.3-.5.1-.5.3zm76.1.2h.8c.2 0 0-.2-.4-.2s-.6 0-.4.2zm2.7.1c0 .2.2.3.3.3s.2-.1.1-.3-.3-.3-.3-.3-.1.1-.1.3zm-74.9.1s1.1.3 2.5.6 3.5.7 4.7 1c3.8.8 8 1.4 8.5 1.1.6-.3-1.2-.8-5.1-1.3-3.7-.5-3.7-.4-5.3-.9-1.3-.3-5.3-.8-5.3-.6zm18.9 1c0 .2.5.3 1 .4.6 0 1.5.2 2 .3.8.2.9.1.6-.2-.5-.5-3.6-.8-3.6-.4zm-82 .4h.6c.1-.1 0-.2-.4-.2s-.4 0-.2.2zm109.5 0c0 .1.3.3.6.3.4 0 .6 0 .5-.3-.2-.4-1.1-.4-1.1 0zm-62.7.6s.6.3 1.2.5c1 .3 1.7 0 .8-.4-.6-.2-2.2-.3-2 0zm-59.4.7c.4 0 .7.3.8.5.2.4 2.9 0 2.9-.4s-.5-.4-1.3 0c-.4.2-.7.2-.8 0s-.7-.3-1.2-.3c-.7 0-.8 0-.4.2zm149.9-.1h.6c.1-.1 0-.2-.4-.2s-.4 0-.2.2zm-26.6.7h.6c.1-.1 0-.2-.4-.2s-.4 0-.2.2zm3.6.1c0 .2.1.3.3.3s.3-.1.3-.3-.1-.3-.3-.3-.3.1-.3.3zm-48.4.2h.6c.1-.1 0-.2-.4-.2s-.4 0-.2.2zm-26.5.6c-1.1.5-1.5 1.1-.7 1.1s1.4.7.9 1.2c-.3.3-.3.5 0 .7.4.2.3.4-.5 1.1-1 .9-1.1.9.4 1.4.8.3 1.1.3 1.5 0 .3-.2.5-.3.5-.1s.2.1.3 0c.2-.2.9-.3 1.7-.2 1.1.2 1.3.1 1.1-.4-.1-.4 0-.5.2-.4.2 0 .4.4.3.7 0 .3.1.1.4-.4.3-.6.7-1 .9-1 .3 0 .3 0 0 .2-.2 0-.4.3-.4.5s.2.2.6 0c.3-.2.7-.2.8-.1 0 0 .1-.1 0-.5 0-.4-.3-.6-.5-.6s-.4-.1-.4-.4c0-.5-.6-1.3-1-1.3s-.6-.2-.9-.5c-.6-.5-.6-.5 0-.3.4.1.8 0 .9-.2.2-.3 0-.3-.9-.2-.6.1-1.2 0-1.2-.1s-.2-.2-.5-.1c-.3 0-.6 0-.9 0-.6-.4-1.8-.4-2.8 0zm97.9-.2c0 .2.2.3.3.3s.2-.1.1-.3-.3-.3-.3-.3-.1.1-.1.3zm-70.8 1.5c-.1.3 0 .5.1.5.4 0 .7-.6.4-.8-.2 0-.4 0-.5.3zm40.1.7c-.3.2-.2.3.4.4.5 0 .7 0 .6-.2s0-.2.3-.1.6 0 .7-.1c.2-.4-1.4-.4-2 0zm-66.1 1.4c0 .1.3.3.5.3s.3-.1.3-.3-.2-.3-.5-.3-.4.1-.3.3zm22.8-.2h.6c.1-.1 0-.2-.4-.2s-.4 0-.2.2zm-15.3.5c.3.3.3.5-.2 1-.5.6-.5.6.4 0 .5-.4 1-.6 1.2-.5.2 0 .3 0 .3-.2s.1-.1.3.2c.2.5.3.5.4 0 .2-.6-.2-.8-1.8-.8-.7 0-.9 0-.6.3zm31 0c.7.2 1.2.2 1.4 0s0-.3-1.1-.3h-1.4s1.1.3 1.1.3zm18 .7c0 .5-.2.7-.5.7s-.5-.2-.5-.4-.2-.5-.5-.6-.5 0-.4.3c0 .3-.2.7-.5 1-.4.3-.5.4-.2.3.2-.1.4 0 .4.1s.3.2.6.1c.4 0 .6 0 .6.2s.2.4.5.4.5.3.5.6-.2.6-.3.6-.2-.1-.1-.3.1-.3 0-.3-.3.4-.5.8c-.2.6-.2 1.1.3 1.9.4.8.5 1.1.2 1.3-.3.1-.3.2 0 .2.8 0 1.5-1.7 1.4-3.6 0-.9 0-.9.4-.3.4.5.5.5 1 .2.4-.4.5-.3.5.3v.8s.3-.7.3-.7c.3-.8.9-1 .9-.2s.1.5.3.5.2.4.1.9c-.1.8-.1.9.4.2.5-.6.5-.6.3.4-.1.7 0 1.2.3 1.4s.6.8.7 1.3.3.9.3.8c0 0 0-.6-.1-1.2-.2-.8-.1-1.2.2-1.5.2-.2.3-.6.2-.8s-.3-.1-.4.2c-.2.5-.3.5-.5.2-.1-.2 0-.5.1-.7.2-.1.3-.4.1-.7-.1-.2 0-.2.4.1.8.7 1.1.5.8-1-.2-1-.1-1.1.4-.9.3.1.5.1.4 0s0-.6 0-1c.2-.5.2-.8 0-.8s-.4 0-.6 0-.4-.1-.5-.3c-.1-.1-.4-.1-.7 0s-.4 0-.4-.4-.2-.5-.6-.3c-1.2.5-2.6.7-2.7.4 0-.2-.3-.3-.6-.4-.3 0-.6-.2-.8-.3-.5-.5-1.4-.2-1.4.5zm2.7-.4c.1.2.3.2.5.1.4-.3.4-.5-.2-.5s-.4.1-.3.3zm-48.5.8h.6c.1-.1 0-.2-.4-.2s-.4 0-.2.2zm-11.8.3s.2.2.5.3.4 0 .3-.1c-.2-.3-.8-.4-.8-.2zm6.7.2c-.4.3-.4.3 0 .3.3 0 .6-.1.6-.3 0-.4 0-.4-.6 0zm47.5 0c-.1.2-.1.4 0 .5 0 0 .2 0 .3-.3.2-.6 0-.7-.3-.2zm5.6 0c0 .2.3.3.7.3.6 0 .6 0 .2-.3-.6-.4-1-.4-1 0zm42 .3c0 .2.2.2.5.1s.5-.2.5-.3-.2-.1-.5-.1-.5.1-.5.3zm-50 .3c0 .2.1.3.3.3s.2.4.1.8v1.3c.2.4.3.4 1-.3.4-.5.8-1 .8-1.2s0-.3-.2-.2c-.1.1-.5 0-.9-.4-.7-.7-1.2-.8-1.2-.3zm14.9.7c-.3 1.4 0 1.4.4.1.2-.6.2-1.1 0-1.1s-.3.4-.5 1zm13.3-.4c0 .4.1.6.3.5s.3-.4.3-.7-.1-.5-.3-.5-.3.3-.3.7zm-75.9-.1s.3.2.6.4c.5.3.6.2.6 0s-.3-.4-.6-.4-.6 0-.6 0zm155.8.3h1.3s0-.1-.7-.1-1 0-.6.1zm-104.9 1.3c0 .7.1 1.1.3.9.5-.5.5-1.8.1-2-.3 0-.4.2-.4 1.1zm-38.2-.6c0 .1 0 .3.3.3s.4-.1.3-.3c0-.1-.2-.3-.3-.3s-.2.1-.3.3zm51.7.9c0 .4 0 .4.2.2 0-.2 0-.5 0-.6-.1-.1-.2 0-.2.4zm-20.6.3c-.2.5-.4.6-1.2.4-.5-.1-1 0-1 .1s-.3.3-.6.3c-1 0 .6.6 1.7.6.7 0 .8 0 .5-.3-.3-.2-.3-.3 0-.3.2 0 .5.1.6.3.3.5 1.8.4 1.8-.2s-.1-.4-.3-.3-.3 0-.3-.2-.1-.3-.3-.2-.3 0-.4-.4c-.1-.5-.1-.5-.3 0zm32.1.1c-.2.4-.3.4-.3 0 0-.3-.2-.2-.5.3-.3.4-.4 1-.3 1.3s.3.4.4.2c.3-.4 1.1-.4 1.4 0 .1.1.3 0 .4-.3s0-.4-.2-.3-.3 0-.2-.2c0-.2.3-.4.5-.4s.4-.2.4-.5c0-.7-1.2-.8-1.6-.1zm-18.7 1.9c-.1.1-.2.5-.2.7s0 .4.4.1c.2-.2.3-.5.2-.7 0-.2-.2-.3-.4-.1zm-10.7 1.4c0 .4 0 .6.2.4 0-.2 0-.6 0-.8s-.2 0-.2.4zm-2.8-.1c0 .1.3.2.8.3h.9c0-.2-1.6-.4-1.7-.2zm72.9.9c0 .4 0 .4.2.2 0-.2 0-.5 0-.6-.1-.1-.2 0-.2.4zm-113.8.4c.1.2.3.3.5.3s.2-.1.1-.3-.3-.3-.5-.3-.2.1-.1.3zm3.6-.1h.6c.1-.1 0-.2-.4-.2s-.4 0-.2.2zm37.4.3c.1.3 0 .5 0 .4-.3 0-.7 0-2.3.7-.4.2-.7.4-.7.6s.1.3.3.1c.2-.1.3 0 .3 0 0 .2 1.9 1.1 2.7 1.2.9.1.9.2-.2.4l-1.1.2h1.2c1.1 0 1.2 0 1.5-1.2.4-1.5.2-2.3-.7-2.3s-.6-.2-.6-.5-.1-.5-.3-.5-.2.2-.1.5zm1.1-.2c-.4.2-.3.3.2.3.4 0 .7-.1.7-.3 0-.4-.3-.4-1 0zm42.2-.1c0 .6.4 1.4.7 1.4s.3-.4-.2-1.1c-.3-.3-.5-.5-.5-.2zm-82.6.5c0 .2.1.2.3.1s.3-.3.3-.3-.1-.1-.3-.1-.3.2-.3.3zm88.8 1.5c0 .7.1 1.3.3 1.1s.1-.7 0-1.4l-.3-1.1zm14.9-1.1c-.2.7-.2 1.2 0 1.4.2 0 .3-.2.3-.6 0-.6-.2-1.1-.3-.7zm38.1.4c0 .4 0 .4.2.2 0-.2 0-.5 0-.6s-.2 0-.2.4zm-55.6.3c-.1.3-.1.6 0 .7 0 0 .2-.1.3-.5.2-.8 0-.9-.3-.2zm70.1.3c0 .5 0 .7.2.4 0-.3 0-.7 0-1 0-.2-.2 0-.1.6zm-114.6.8c0 .4 0 .6.2.4 0-.2 0-.6 0-.8s-.2 0-.2.4zm48.3-.3c0 .2.2.3.3.3s.2-.1.1-.3-.3-.3-.3-.3-.1.1-.1.3zm35.9 1.3c0 .6 0 .9.1.6 0-.3 0-.8 0-1.1s-.1 0-.1.6zm15.3.3c0 .4 0 .6.2.4 0-.2 0-.6 0-.8s-.2 0-.2.4zm26.9-.2c0 .4 0 .4.2.2 0-.2 0-.5 0-.6-.1-.1-.2 0-.2.4zm-133.2.2c0 .2.1.4.3.5s.2 0 .1-.3c-.2-.6-.4-.7-.4-.2zm13.2.7c-.3.7-.3 1 0 1.2.5.3.7-.6.5-1.6-.1-.4-.2-.3-.5.4zm115 .8c.3 2.1.5 2.1.5.1s-.1-1.7-.3-1.7-.3.5-.1 1.5zm-126.8-1h1c.2 0 0-.2-.6-.1-.5 0-.7 0-.4.2zm122 .5c.1.3.3.5.4.4 0 0 0-.4-.2-.6-.3-.3-.4-.3-.2.2zm18.8.8c-.2.5-.3 1-.2 1.1.1.2 0 .3-.1.3s-.4.6-.4 1.3c0 .8 0 1.3.2 1.3.6 0 .8-.4.4-.9-.3-.3-.3-.4 0-.4s.4-.6.4-1.4.2-1.5.4-1.8c.2-.2.3-.4 0-.4s-.5.4-.7.8zm-3.9 1c-.2.4-.2.6 0 .6s.4-.3.5-.6c0-.4.1-.6 0-.6s-.3.3-.5.6zm-134.2 0c.3.2.3.3 0 .5-.6.4-.4.8.3.8s.6-.2.6-.4c0-.5-.6-1.2-1.1-1.2-.2 0-.1.1 0 .3zm8.2.7c-.5 1-.6 1.7-.2 1.5.2 0 .5 0 .7.3.4.5 1.1.3.7-.3-.5-.8-.3-1.1.6-.9.5 0 .9 0 .9-.2s-.3-.3-.6-.2c-.7.2-1.2-.5-.6-.9.3-.2.3-.3-.3-.3-.5 0-.9.3-1.2.9zm-5.7-.3c-.1.2 0 .3.3.3s.4-.1.3-.3-.3-.3-.3-.3-.2.1-.3.3zm-1.5 1.5h.6c.1-.1 0-.2-.4-.2s-.4 0-.2.2zm4.7.1c.1.2-.1.3-.5.3-.5 0-.6 0-.3.2.3.1.6.3.7.5.2.2.2.2.2 0s0-.6.2-.9c.1-.3 0-.5-.2-.5s-.3.1-.2.3zm154.1 2.2c0 .4 0 .6.2.4 0-.2 0-.6 0-.8s-.2 0-.2.4zm-151.5.2c-.1.1-1 .2-2.1.2-1.4 0-1.6 0-.7.2l1.1.2-1.2.6c-.6.3-1.2.7-1.2.8s.8.1 1.8 0c1 0 2.4 0 3.2.3.8.2 1.5.3 1.7.2.1-.1-.1-.3-.5-.4-.7-.2-1-1.1-.4-1.1s.3-.1.3-.3-.3-.2-.7-.1c-.6.1-.7 0-.5-.4.2-.5-.4-.8-.8-.3zm-1 1.1c-.3.5.1.8.5.4.2-.2.2-.4 0-.5s-.4 0-.5.1zm158.4.9c-.5.2-.4.3.5.4 1.4.2 2 0 1.7-.4-.2-.3-1.3-.3-2.2 0zm-3.3 1.6c0 .7 0 1.3.1 1.3.3 0 .4-2.3.1-2.4-.1 0-.3.4-.3 1.1zm25.2-1h.8c.2 0 0-.2-.4-.2s-.6 0-.4.2zm-28.4.9c0 .4 0 .4.2.2 0-.2 0-.5 0-.6-.1-.1-.2 0-.2.4zm5.3 1.1c-.1.5 0 .7.1.4.2-.2.3-.5.2-.8 0-.2-.2 0-.3.3zm.3 2.2c-.1.2-.2.5 0 .6.3.3.6-.1.4-.6-.1-.3-.2-.3-.4 0zm4.1 2.1c-.2.9 0 1.3.3 1.7.5.5.5.4.3-1.1-.3-2-.3-2.1-.6-.6zm-4.8.4c-.1.3 0 .7.1 1 .3.5.3.5.3 0 0-.3 0-.8.2-1 .1-.3 0-.5-.1-.5s-.4.2-.5.5zm2.1 2.2c0 .3.1.5.3.7.2.1.3 0 .3-.5s-.1-.7-.3-.7-.3.2-.3.5zm2.6.5c0 1.3.4 2.8.7 2.8.5 0 .3-2.4-.2-3.1-.5-.6-.5-.6-.5.2zm32.9 8.3c.5.3.8.3 1.1 0s.1-.4-.7-.4c-1 0-1.1 0-.4.4zm-29 2c-.3 1 0 1.5 1 1.5s.8 0 .6-.9c-.4-1.5-1.3-1.8-1.6-.6zm-72.2.4c-.3.3-.2.7.2.8.3.1.4 0 .3-.4-.2-.7-.2-.7-.5-.4zm78.7.1c-.1.2 0 .3.1.3s.3-.1.3-.3 0-.3-.1-.3-.2.1-.3.3zm-1.5 1.6c0 .2.2.3.3.3s.2-.1.1-.3-.3-.3-.3-.3-.1.1-.1.3zm15.9.4c-.3.2-.2.2.1.2.4 0 .5.2.4.6s0 .6.4.6.5.2.5.5.2.7.5 1c.6.6.6.3.1-.6-.3-.5-.2-.7.4-.9l.7-.3h-.7c-.5.2-.7.1-.7-.3s0-.5-.3 0c-.2.3-.4.4-.5.3s0-.4.3-.7.5-.6.5-.7c0-.2-1.2-.1-1.7.2zm2.5-.1c0 .2.3.3.8.4 1.1.2 1.6-.2.8-.5-.7-.3-1.3-.2-1.6 0zm-15.6.9c.2 1.1.6 1.7 1.2 1.5.3-.1.5 0 .5.3s.1.5.3.5.3-.4.3-.8-.1-.8-.2-.8c-.9.1-1.4-.1-1.4-.8s-.2-.8-.4-.8-.4.3-.3.9zm10.6-.3h.6c.1-.1 0-.2-.4-.2s-.4 0-.2.2zm-19.9 1.4c.1.2.3.3.3.3s.1-.1.1-.3-.2-.3-.3-.3-.2.1-.1.3zm25.4-.1c-.3.2-.1.3.4.4h.8c0-.4-.8-.6-1.3-.3zm60.1 0h.6c.1-.1 0-.2-.4-.2s-.4 0-.2.2zm-83.8.5c.2.3.3.5 0 .6-.2.1-.2.5 0 1 .2.4.2.8.1.9-.5.5.9.5 1.6 0 .4-.3.6-.5.3-.5-.2 0-.6 0-.8 0-.4 0-1-1.5-.6-1.5s.2-.2.1-.5-.4-.5-.7-.5c-.4 0-.4 0-.1.5zm25.4 0c0 .2.3.4.6.4.6 0 2.3.5 2.7.7.2.1.8.2 1.3.1.8 0 .9 0 .3.2-.6.3-.6.3.2.2.4 0 1 0 1.1.1.2.1.5 0 .8 0 .4-.2.3-.3-.2-.3-.4 0-.5-.1-.3-.2.8-.3 0-1-1.4-1-.8 0-1.8-.2-2.2-.3-1.1-.4-3.1-.3-3 0zm-14.6.5v1.9c.1 1.3.2 1.4 1.2 1.4s1.1.2 1.2.4c0 .2.2 0 .2-.4s.1-1.3.2-1.8c0-1.1-.4-1.7-.8-1.1-.2.4-1.1 0-.9-.4 0-.1-.1-.3-.4-.3s-.6.2-.7.4zm12.6.8c0 .3-.4.4-1.1.4-.9 0-1.1 0-1.1.8v.9s1-.5 1-.5c.6-.3 1.3-.6 1.6-.7.8-.3 1-1.3.2-1.3-.3 0-.6.1-.6.4zm-13.8.2c0 .2.1.3.3.3s.3-.1.3-.3-.1-.3-.3-.3-.3.1-.3.3zm-.5 1c-.1.2 0 .5.2.6.5.3 1-.3.7-.7-.2-.4-.7-.3-.9.1zm3.3.3v.6s.3-.3.4-.6c0-.4 0-.6 0-.6s-.3.3-.4.6zm11.9-.1h.6s0-.2-.4-.2-.4 0-.2.2zm-276.2 2.9c0 .2.2.3.3.3s.2-.1.1-.3-.3-.3-.3-.3-.1.1-.1.3zm266.6-.1h.6c.1-.1 0-.2-.4-.2s-.4 0-.2.2zm-.1 2.7c.3.4.6.6.7.6s0-.3-.2-.6c-.2-.4-.5-.6-.7-.6s0 .3.2.6zm-14.1 0c-.3.5 0 .6.4.1.2-.2.3-.4 0-.4s-.4.2-.5.3zm15.2 0c0 .2.1.3.3.3s.3-.1.3-.3-.1-.3-.3-.3-.3.1-.3.3zm23 1.2h.6c.1-.1 0-.2-.4-.2s-.4 0-.2.2zm-16.3 1c0 .6 0 .7.4.4.3-.3.3-.5 0-.8s-.4-.2-.4.4zm3.5.6v3.8c0 .4.2-.3.3-1.4s.4-2.1.6-2.2c.5-.2 0-1.4-.4-1.4s-.5.4-.5 1.2zm8.5-.9c-.2.3 1.9.3 2.3 0 .1-.1-.3-.2-.9-.2s-1.2.1-1.3.3zm6.2-.1c-.1.2 0 .4.3.5.3 0 .6 0 .7-.2s0-.3-.1-.1c-.2.1-.4 0-.5-.2 0-.3-.2-.3-.3 0zm-1.3 3.8c.2 0 .4.4.4.6s.1.5.3.5.2-.2 0-.6-.5-.6-.7-.6c-.3 0-.3 0 0 .2zm-3.8 2v.7c0 .3 0 .9.1 1.4 0 .8.1.7.3-.5.2-1.4.2-1.4.3-.3v1.1s.5-1 .5-1c.3-.6.3-1.1.1-1.4-.3-.4-1.1-.5-1.3-.2zm12.4.2c-.1.3 0 .6.1.7.2.1.3 0 .2-.1 0-.3 0-.4.9-.4s.4.1.3.4c-.1.2 0 .2.4 0 .4-.3.5-.3.4 0-.2.3 0 .4.3.4s.4-.1.2-.6c-.4-.8-2.4-.9-2.7-.2zm-260.1.2c0 .2.1.2.3.1s.3-.3.3-.3-.1-.1-.3-.1-.3.2-.3.3zm251 2.9c0 2.6.5 2.5.5-.1 0-.8.2-1.3.6-1.5.5-.3.5-.4 0-.6-1-.7-1.2-.4-1.2 2.3zm10.2-1.6c0 .2.2.3.5.3s.5-.1.5-.3-.2-.3-.5-.3-.5.1-.5.3zm-255.4 1.6c0 .2.1.3.3.3s.3-.1.3-.3-.1-.3-.3-.3-.3.1-.3.3zm265.1.3c-.1.2 0 .3.1.3s.3-.1.3-.3 0-.3-.1-.3-.2.1-.3.3zm1.2 0c0 .2.1.2.3.1s.3-.3.3-.3-.1-.1-.3-.1-.3.2-.3.3zm72.9 4.3h.6c.1-.1 0-.2-.4-.2s-.4 0-.2.2zm-79.2 1.9c-.6.6-.6.8-.2 1.1.6.5.7.3 1.1-.9.3-1.2.1-1.2-.8-.2zm-6 1c.2.1.4.4.5.6s.2 0 .2-.2c0-.3-.2-.6-.5-.6s-.4.1-.2.2zm-2 1.3c-.1.3-.1.6 0 .7 0 0 .2-.1.3-.5.2-.8 0-.9-.3-.2zm22.1.4c-.1.2 0 .2.3.1.6-.2.7-.4.2-.4s-.4.1-.5.3zm-9.6 1.7c-.1.9-.2 1.6 0 1.7.2.2.6-2 .5-2.7 0-.3-.2.1-.4 1zm1.2-.2c0 .4 0 .4.2.2 0-.2 0-.5 0-.6-.1-.1-.2 0-.2.4zm2.1-.3c-.1.1-.2.6-.2 1.1s0 .7.3.5c.2-.2.3-.7.2-1.1 0-.4-.2-.6-.3-.5zm2.6 3.9c-.2.4-.2 1.9 0 1.6.2-.2.2-.6.1-1 0-.4-.2-.7-.2-.6zm-2 1.5c-.3.8-.2 1 .2.4.2-.3.3-.7.2-.7s-.2 0-.4.4zm-253.2.3c.1.3.3.5.5.5s.2-.2 0-.5c-.1-.3-.3-.5-.5-.5s-.2.2 0 .5zm257.5 0c0 .4 0 .4.2.2 0-.2 0-.5 0-.6-.1-.1-.2 0-.2.4zm-239.9.9c.3.5.6.8.7.8.2 0-.5-1.2-.9-1.5-.2-.1-.1.2.2.6zm242.9-.3c-.3.7 0 .8.4.3.3-.3.3-.5 0-.6-.2-.1-.4 0-.5.3zm.4 2c-.1.1-.2.5-.2.7s0 .4.4.1c.2-.2.3-.5.2-.7 0-.2-.2-.3-.4-.1zm-.7 2.2c-.3.3-.2 1.7.1 1.7s.3-.4.3-1c0-1 0-1.1-.4-.7zm4.6.9c0 .6.1 1.3.3 1.4.4.3.4-1.4 0-2.1-.2-.4-.3-.2-.3.7zm37.2-.8h1.1c.3 0 0-.1-.6-.1s-.9 0-.6.1zm-40 2.8c0 .3.1.5.3.5s.3-.1.3-.3-.1-.4-.3-.5-.3 0-.3.3z" fill-rule="evenodd" stroke="#000"/></svg>
