<svg viewBox="0 0 450 450" xmlns="http://www.w3.org/2000/svg" xmlns:xlink="http://www.w3.org/1999/xlink">
  <style type="text/css">
  path{fill:var(--c__quahog--dark--trans15);stroke:var(--c__quahog--dark--trans15);}
</style>
<mask id="a" height="4.9" maskUnits="userSpaceOnUse" width="11.8" x="18" y="306.2"><path d="m19.1 309.1c-.6 1.1.9 1.3 4.1.6 6.8-1.5 7.4-2.5 1.5-2.5s-5.2.8-5.7 1.9z" fill="#fff"/></mask><path d="m163.4 52s0 0 0 0-.2.2-.4.6c-.1.3-.3.7-.4 1.2-.2.9-.4 2.1-.4 3.2s0 2 .2 2.6v.1h.2.5c.3 0 .7.2 1.1.4.8.4 1.9 1.1 2.9 2 .9.7 1.5 1.2 2 1.6h.1c-.1-.5-.4-1.1-.8-2-.5-1.2-.9-2.2-1.2-3-.3-.7-.4-1.3-.4-1.8 0-.3.1-.5.3-.7s.4-.3.6-.4c.3 0 .6-.1 1-.1-.2-.1-.2-.3-.3-.4-.1-.3 0-.6 0-.9s.2-.7.3-1.2c.3-.9.1-2-.3-3.2-.5-1.2-1.2-2.4-2.1-3.4s-1.8-1.7-2.7-2c-.4-.2-.8-.2-1.1-.1-.3 0-.6.2-.8.5-.4.4-.7.8-1 1s-.6.3-1 .2c.3.2.6.4.8.4h.3c.3-.2.5-.3.9-.4.3 0 .6 0 .9.2.5.3.9.9 1.2 1.5s.4 1.4.4 2.1-.3 1.4-.8 1.9zm-1.3 7.9s0 0 0 0zm7.3 4.4s0 0 0 0zm.8-8.9c-.1 0-.2.2-.4.3.5 0 1 .2 1.4.4.5.3.8.7 1 1.3.5 1.1.5 2.6.3 4.5s0 0 0 0v.3c.1 0 .3-.1.5-.3s0 0 0 0c.5-.4 1.1-.5 1.6-.2s.7 1 .7 1.7 0 .7 0 .9c0-.1 0-.3 0-.5 0-.4-.1-.8-.3-1.4-.3-1.1-.9-2.3-1.6-3.5s-1.5-2.2-2.2-2.9c-.4-.3-.7-.5-.9-.6-.2 0-.3 0-.4 0zm5.2 9.1s0 0 0 0zm-17.7-20.6c.4.5.7.9 1.1 1.3-.2-.4-.4-.9-.6-1.4s0 0 0 0c-.2-.8-.6-1.5-1-2.1-.2-.3-.4-.5-.6-.6-.1 0-.2-.1-.3-.2v.5c.2.6.7 1.5 1.4 2.5z" stroke="#000"/><path d="m155.9 71c-.4-.9-1-1.9-2-3.3.7 1.1 1.2 2.1 1.6 2.8.3.7.5 1.3.4 1.8 0 .3-.2.5-.4.7s-.5.2-.8.2c-.5 0-1.1.3-1.6.8s-.9 1.3-1 2.2 0 0 0 0c-.3 1.2-.2 2 0 2.4 0 .2.2.3.3.4h.4c.4 0 .9-.3 1.4-1 .6-.6 1.1-1.5 1.6-2.7.7-1.8.8-2.9.2-4.5z" stroke="#000"/><path d="m160.9 68.3-1.9-2 .7 1.8c.5 1.1 1.1 2.2 1.7 3 .3.4.6.8.8 1 .3.3.5.4.6.5.4.1.7.4.9.8.3.3.5.8.7 1.3.4 1 .8 2.3 1 3.6s0 0 0 0l.6 4.8-.9.3-2.8-4.2c-.9-1.3-1.7-2.1-2.4-2.4-.6-.3-1.2-.3-1.8 0-.6.5-1 .8-1.1 1.1v.3s0 .2.2.4c.3.4.8.9 1.9 1.7 1 .8 2.4 1.7 4.2 2.9s0 0 0 0c1.3.9 2.3 1.6 3.1 1.9.4.2.7.2.9.2h.3s0 0 .1-.3c0-.2 0-.5 0-.9-.2-.8-.6-1.9-1.2-3.3-.4-.6-.6-1.3-.5-1.9 0-.3.2-.6.4-.8s.5-.3.9-.3 0 0 .2-.2.3-.4.5-.8c.3-.7.6-1.8.8-3 .2-1.3.5-2.4 1.1-3.1.6-.8 1.4-1.2 2.3-.9s0 0 0 0c.3 0 .5.1.6.1-.7-.8-2-1.5-3.1-1.7-.6-.1-1-.1-1.3 0-.1 0-.2 0-.2.1s0 0 0 0c.2 1.9.2 3.7-.1 4.8 0 .3-.2.5-.3.7s-.3.4-.5.5c-.3.1-.6 0-.8 0-.2-.1-.4-.3-.6-.6s0 0 0 0c-.3-.5-.9-1.4-1.8-2.4s-1.9-2.2-2.9-3.2z" stroke="#000"/><path d="m179.4 70.7s0 0 0 0c-.9.3-1.5.7-1.9 1.2s-.5 1.2-.4 2c.2 1.6 1.4 3.5 3.5 5.3 1.1.9 2 1.9 2.6 2.8.3.5.5.9.6 1.3 0 .4.1.9 0 1.2-.2.4-.2.7-.1.8 0 0 .1.2.4.2s.7.1.9.4.3.6.4.9c.1.7 0 1.6-.2 2.5s0 0 0 0c-.2.5-.2.9-.3 1.2v.2c.1 0 .3-.1.5-.3.4-.4.7-1 .8-1.8.1-.9 0-1.9-.2-3s0 0 0 0c-.2-.7-.3-1.3-.3-1.8 0-.4 0-.9 0-1.2 0-.2.2-.4.4-.5s.4-.1.6 0c.3 0 .7.3 1 .5 0 0 .2.1.2.2s0 0 0 0c-.3-.6-.7-1.1-1.2-1.4-.5-.4-1-.5-1.4-.5-.8 0-1.4-.5-1.8-1.1s-.7-1.4-.7-2.3.2-1.6.5-2.2.8-1.1 1.5-1.1.5-.1.5-.1 0 0 0-.2c0 0-.2 0-.3 0-.2 0-.5 0-.8 0-.7.2-1.5.6-2.3 1.2s0 0 0 0c-.9.6-1.8 1-2.5 1-.3 0-.7 0-1-.2s-.5-.6-.5-.9.1-.7.3-1.1.5-.7.8-1.1c.7-.7 1.6-1.5 2.6-2.1.6-.4 1.1-.7 1.4-.9-.1 0-.3 0-.5 0-.7.1-1.6.4-2.8.8zm5.2 20.3s0 0 0 0z" stroke="#000"/><path d="m170.9 77.7c.2 2.7 1.5 5.7 2.9 6.7 1.4 1.1 2.6 3.2 2.6 5s.9 2.5 2 1.9c1.2-.6 2.1.2 2.1 1.7 0 3.8-1.1 3.4-6-2.5-4.6-5.3-5.8-3.8-2 2.5 1.2 1.9 2.3 4.4 2.3 5.1 0 1.7-6.4-2.3-7.8-4.8-.5-1-2.5-1.9-4.5-2.5-3.2-.8-3.2-.4 1.2 4.4 2.6 2.9 6 6.3 7.5 7.4 4.5 3.8-5.4-.8-11.1-5.1-2.5-1.9-6-3.8-7.7-4.2-1.7-.2-4-1.7-5.1-3-1.4-1.5-2.9-1.7-4.5-.6-1.4.8-3.8 1.1-5.7.6-1.8-.6-2.8-.4-2.3.4s3.5 1.7 6.6 2.1c5.5 1 26.1 12.6 27.6 16 .5 1-4.5-.6-11.1-3.2-6.4-2.7-13.7-5-16-5-2.1-.2-3.7-1-3.2-1.9.5-.8-.8-1-2.6-.2-2.3 1-3.1.8-2.5-.8.6-1.1.5-2.1-.3-2.1s-2.1 2.1-3.1 4.6c-1.5 4.2-1.4 4.4 1.7 3.6q3.4-1 .3 2.1c-1.7 1.9-2.3 2.9-1.5 2.5.9-.4 2.9-.2 4.6.8 2.6 1.1 2.5 1.5-1.5 1.7s-4.1.6-1.5 1.9q2.9 1.5-.8 3.6c-3.4 1.7-3.1 1.9 2.3 1 3.4-.8 6.9-1.9 7.7-2.7.9-.8 3.2-.6 5.4.2 3.1 1 3.2 1.3.9 1.5-2.9.2-2.9.4-.3 2.7 2.5 2.3 2.1 2.5-3.4 1.9-3.5-.2-6.8.4-7.4 1.7-.8 1.3 0 1.7 2.1 1.1 1.8-.8 3.8-.4 4.3.6s-.9 1.7-3.2 1.7-4.5 1.5-5.5 4.4c-1.4 3.6-2.5 4.2-8.4 3.4-8.8-.8-12 2.3-6.9 6.7 2.8 2.5 3.1 3.4 1.5 4.8-1.1.8-2.9.6-4-.6-1.1-1.1-3.8-1.3-6.1-.6-2.3.6-3.5 1.7-2.6 2.5.8.8 1.5 2.9 1.8 4.6.3 2.7-.6 3.4-3.8 3.6-3.7 0-3.8.2-1.2 1.7 1.7.8 4.9 1.1 7.2.6 2.3-.6 5.5.2 7.4 1.9 3.2 2.7 3.1 2.9-1.8 4-2.8.8-7.1 2.5-9.7 4l-4.6 2.9 5.4-1.1c2.9-.6 6.8-1.5 8.3-2.1 2.5-.8 2.6-.6.9 1.5-1.1 1.5-3.4 2.9-5.2 3.1-1.7 0-5.2 1.3-7.8 2.7-4 1.9-4.1 2.5-1.5 3.2 1.5.4 3.2 0 3.5-1.1s1.5-1.5 2.8-1c1.2.6 2.1 0 2.1-1.1s1.1-1.5 2.5-.8c1.8 1 2 1.3.5 2.7-1.5 1.1-1.1 1.9 1.7 3.2l3.7 1.7-4.1 1.3c-5.5 1.7-5.4 5.3.2 4l4.1-1.1-3.8 2.9c-2.1 1.5-4.8 2.9-5.8 3-1.1 0-3.5 1.9-5.4 4l-3.4 4.2 3.5-1.3c9.5-3.2 10.1-3.2 4.5 1.3-7.5 6.1-8.8 7.8-4.1 6.1 3.8-1.5 3.8-1.3 1.1 2.5-1.7 2.3-2.1 4.4-1.2 5 .8.6 1.8 3.8 2.5 6.9.6 3.2 1.5 5.7 2.2 5.7 1.8 0 1.1 8.8-1.2 12-1.5 2.5-1.5 3.2-.2 3.2s1.5 1.3.9 3.1c-2.9 9.1-2.8 12.2.2 12.2s4.3-1.7 6-4c2.8-3.8 2.8-4 0-5.9-3.2-2.3-2.3-9.3 1.8-14.7 2.6-3.4 18.7-13.5 21.5-13.5s2-1.3 2.5-3.1c.5-1.5 1.7-2.3 2.8-1.7 1.1.8 0-1-2.6-3.6l-4.6-5 3.5-3.1c1.8-1.7 3.4-4.4 3.4-5.7s.8-2.7 1.7-2.7 1.1-1 .6-1.9c-.6-1.1-1.5-1.5-2.3-1-.8.6-1.2-.8-1.1-3.1.2-2.3 1.7-4.8 3.7-5.7 2-1 4-2.9 4.5-4.6.6-1.9 2.1-2.5 4.6-1.7 2.8 1 3.7.4 3.7-1.9s1.7-3.4 3.8-4.2c3.1-1 3.5-1.7 2.1-3.8-.9-1.5-1.1-2.7-.3-2.7s3.8-5.1 6.8-11.4c4.3-9.3 6-11.4 9.2-11.4 5.5 0 7.1-8.2 2.3-11.1-3.1-1.9-2.9-2.1.9-2.1 5.7-.2 6.8-3.6 2.1-6.3-4.5-2.5-4.8-3.2-2.1-10.1 1.4-3.6 2.9-4.8 6.8-4.8 6 0 8.3 3.4 4.6 6.9-1.5 1.3-2 2.9-1.2 3.4.9.6 1.2 3 .6 5.5-.8 3.6-.5 3.8 1.5 1.7 2-1.9 2.5-1.5 3.4 3.4.9 6.3 4.8 9.5 7.2 5.9.8-1.1.9-1.7.5-1.1-2 1.7-4.9-3.1-4.1-6.7.5-2.3 0-3.8-1.1-3.8s-1.7-1.7-1.1-5.5c.6-3.2.3-5.9-.6-6.3s-1.7-2.3-2-4.4c-.3-2.3-1.5-3.6-2.9-3.2-2.9.6-8.9-6.3-7.5-8.4.6-1 0-.6-1.5.8-2.2 2.1-2.9 1.7-5.2-3.2-1.5-3-3.2-5.3-3.8-4.8-1.5 1.1-6.1-7.1-5.1-9 .3-.8 0-1.9-.6-2.5-.8-.6-1.2 1.1-1.2 3.8zm-45.1 61 5.4 2.7-5.4-1c-2.9-.6-6-1.9-6.8-2.9-2.1-2.7.3-2.3 6.8 1.1z" stroke="#000" stroke-width="2"/><path d="m170.9 77.7c.2 2.7 1.5 5.7 2.9 6.7 1.4 1.1 2.6 3.2 2.6 5s.9 2.5 2 1.9c1.2-.6 2.1.2 2.1 1.7 0 3.8-1.1 3.4-6-2.5-4.6-5.3-5.8-3.8-2 2.5 1.2 1.9 2.3 4.4 2.3 5.1 0 1.7-6.4-2.3-7.8-4.8-.5-1-2.5-1.9-4.5-2.5-3.2-.8-3.2-.4 1.2 4.4 2.6 2.9 6 6.3 7.5 7.4 4.5 3.8-5.4-.8-11.1-5.1-2.5-1.9-6-3.8-7.7-4.2-1.7-.2-4-1.7-5.1-3-1.4-1.5-2.9-1.7-4.5-.6-1.4.8-3.8 1.1-5.7.6-1.8-.6-2.8-.4-2.3.4s3.5 1.7 6.6 2.1c5.5 1 26.1 12.6 27.6 16 .5 1-4.5-.6-11.1-3.2-6.4-2.7-13.7-5-16-5-2.1-.2-3.7-1-3.2-1.9.5-.8-.8-1-2.6-.2-2.3 1-3.1.8-2.5-.8.6-1.1.5-2.1-.3-2.1s-2.1 2.1-3.1 4.6c-1.5 4.2-1.4 4.4 1.7 3.6q3.4-1 .3 2.1c-1.7 1.9-2.3 2.9-1.5 2.5.9-.4 2.9-.2 4.6.8 2.6 1.1 2.5 1.5-1.5 1.7s-4.1.6-1.5 1.9q2.9 1.5-.8 3.6c-3.4 1.7-3.1 1.9 2.3 1 3.4-.8 6.9-1.9 7.7-2.7.9-.8 3.2-.6 5.4.2 3.1 1 3.2 1.3.9 1.5-2.9.2-2.9.4-.3 2.7 2.5 2.3 2.1 2.5-3.4 1.9-3.5-.2-6.8.4-7.4 1.7-.8 1.3 0 1.7 2.1 1.1 1.8-.8 3.8-.4 4.3.6s-.9 1.7-3.2 1.7-4.5 1.5-5.5 4.4c-1.4 3.6-2.5 4.2-8.4 3.4-8.8-.8-12 2.3-6.9 6.7 2.8 2.5 3.1 3.4 1.5 4.8-1.1.8-2.9.6-4-.6-1.1-1.1-3.8-1.3-6.1-.6-2.3.6-3.5 1.7-2.6 2.5.8.8 1.5 2.9 1.8 4.6.3 2.7-.6 3.4-3.8 3.6-3.7 0-3.8.2-1.2 1.7 1.7.8 4.9 1.1 7.2.6 2.3-.6 5.5.2 7.4 1.9 3.2 2.7 3.1 2.9-1.8 4-2.8.8-7.1 2.5-9.7 4l-4.6 2.9 5.4-1.1c2.9-.6 6.8-1.5 8.3-2.1 2.5-.8 2.6-.6.9 1.5-1.1 1.5-3.4 2.9-5.2 3.1-1.7 0-5.2 1.3-7.8 2.7-4 1.9-4.1 2.5-1.5 3.2 1.5.4 3.2 0 3.5-1.1s1.5-1.5 2.8-1c1.2.6 2.1 0 2.1-1.1s1.1-1.5 2.5-.8c1.8 1 2 1.3.5 2.7-1.5 1.1-1.1 1.9 1.7 3.2l3.7 1.7-4.1 1.3c-5.5 1.7-5.4 5.3.2 4l4.1-1.1-3.8 2.9c-2.1 1.5-4.8 2.9-5.8 3-1.1 0-3.5 1.9-5.4 4l-3.4 4.2 3.5-1.3c9.5-3.2 10.1-3.2 4.5 1.3-7.5 6.1-8.8 7.8-4.1 6.1 3.8-1.5 3.8-1.3 1.1 2.5-1.7 2.3-2.1 4.4-1.2 5 .8.6 1.8 3.8 2.5 6.9.6 3.2 1.5 5.7 2.2 5.7 1.8 0 1.1 8.8-1.2 12-1.5 2.5-1.5 3.2-.2 3.2s1.5 1.3.9 3.1c-2.9 9.1-2.8 12.2.2 12.2s4.3-1.7 6-4c2.8-3.8 2.8-4 0-5.9-3.2-2.3-2.3-9.3 1.8-14.7 2.6-3.4 18.7-13.5 21.5-13.5s2-1.3 2.5-3.1c.5-1.5 1.7-2.3 2.8-1.7 1.1.8 0-1-2.6-3.6l-4.6-5 3.5-3.1c1.8-1.7 3.4-4.4 3.4-5.7s.8-2.7 1.7-2.7 1.1-1 .6-1.9c-.6-1.1-1.5-1.5-2.3-1-.8.6-1.2-.8-1.1-3.1.2-2.3 1.7-4.8 3.7-5.7 2-1 4-2.9 4.5-4.6.6-1.9 2.1-2.5 4.6-1.7 2.8 1 3.7.4 3.7-1.9s1.7-3.4 3.8-4.2c3.1-1 3.5-1.7 2.1-3.8-.9-1.5-1.1-2.7-.3-2.7s3.8-5.1 6.8-11.4c4.3-9.3 6-11.4 9.2-11.4 5.5 0 7.1-8.2 2.3-11.1-3.1-1.9-2.9-2.1.9-2.1 5.7-.2 6.8-3.6 2.1-6.3-4.5-2.5-4.8-3.2-2.1-10.1 1.4-3.6 2.9-4.8 6.8-4.8 6 0 8.3 3.4 4.6 6.9-1.5 1.3-2 2.9-1.2 3.4.9.6 1.2 3 .6 5.5-.8 3.6-.5 3.8 1.5 1.7 2-1.9 2.5-1.5 3.4 3.4.9 6.3 4.8 9.5 7.2 5.9.8-1.1.9-1.7.5-1.1-2 1.7-4.9-3.1-4.1-6.7.5-2.3 0-3.8-1.1-3.8s-1.7-1.7-1.1-5.5c.6-3.2.3-5.9-.6-6.3s-1.7-2.3-2-4.4c-.3-2.3-1.5-3.6-2.9-3.2-2.9.6-8.9-6.3-7.5-8.4.6-1 0-.6-1.5.8-2.2 2.1-2.9 1.7-5.2-3.2-1.5-3-3.2-5.3-3.8-4.8-1.5 1.1-6.1-7.1-5.1-9 .3-.8 0-1.9-.6-2.5-.8-.6-1.2 1.1-1.2 3.8zm-45.1 61 5.4 2.7-5.4-1c-2.9-.6-6-1.9-6.8-2.9-2.1-2.7.3-2.3 6.8 1.1z"/><path d="m146.9 80.3s0 0 0 0c-.4.3-1 1.1-1.7 2s-1.4 1.9-2 2.9c-.4.6-.7 1.1-.9 1.6 0 0 .1 0 .2-.1 1.9-1.5 3.6-2.3 5.2-2.2 1.7 0 3.1.9 4.4 2.5.6.7 1.3 1.3 2.1 1.7s1.5.5 2 .4 1-.6 1.4-1.1c.4-.6.7-1.3.8-2s.1-1.4 0-1.9c-.2-.5-.5-.7-.9-.8-1.6-.2-3.2-.5-4.6-1s-2.7-1.1-3.5-1.8c-.8-.6-1.8-.6-2.4 0z" stroke="#000"/><path d="m106.8 88.1s0 0 0 0c1.9.8 3.6 1.4 4.8 1.6.6.1 1 .1 1.3 0s0-.1-.2-.2c-.2-.2-.4-.4-.8-.7-.7-.5-1.7-.9-2.8-1.2s0 0 0 0c-2.4-.8-5.5-1.7-6.9-2.3-.7-.3-1.3-.4-1.7-.4.3.2.8.5 1.4.9 1.2.7 2.9 1.5 4.8 2.2zm-6.6-3.5s0 0 0 0z" stroke="#000"/><path d="m109.3 127.1s0 0 0 0zm.7.1c.8 0 1.9-.2 3.4-.6s0 0 0 0c2.9-.6 6.9-1.3 9-1.5.9 0 1.7-.3 2.2-.6.3-.1.5-.3.6-.4s.1-.2.1-.2c0-.3 0-.4 0-.5v-.1s-.2 0-.5 0c-.5 0-1.3.2-2.6.5-1.2.3-2.7.6-4.7 1.1-.2 0-.4 0-.6.1-1.8.5-3.6 1-5 1.5-.7.2-1.3.5-1.7.7 0 0-.1 0-.2 0zm15.3-4s0 0 0 0z" stroke="#000"/><path d="m112.2 132.3-1.7.7h1.8c1.1 0 2.2 0 3-.4.4-.2.8-.3 1.1-.5s.4-.4.5-.5 0 0 0 0c.1-.2.2-.5.3-.6 0-.1 0-.2 0-.2s0 0-.1 0c-.3 0-.9.1-1.7.4s-1.9.6-3.2 1.2z" stroke="#000"/><path d="m107.1 162.2c-.1.3-.3.5-.6.8.6 0 1.4-.2 2.3-.4 2.1-.5 3.9-1 5.2-1.5.6-.2 1.2-.5 1.6-.7s.7-.4.8-.6-.1 0-.3 0c-.6-.2-1.8-.2-3.7 0-1.7 0-3.1.3-4.1.6-.5.1-.8.3-1 .4v.7c0 .3-.1.5-.3.8zm9.3-2.5s0 0 0 0z" stroke="#000"/><path d="m199.9 165c.9 6.5.8 7.1-1.2 3.8-1.1-1.9-1.7-4.4-1.2-5.3.6-1 .2-1.1-.8-.4-1.1.8-1.8 3.1-1.8 5.1s-.6 3.6-1.4 3.6-1.1 2.9-.6 6.5c.3 3.6-.2 7.1-.9 7.8-.9.6-1.2 2.3-.6 3.8.6 2.1-.5 2.9-3.8 2.9s-4.9 1.1-5.5 2.9c-.6 2.1-3.1 2.9-8.3 2.9s-8.3 1-9.5 2.9c-1.1 1.5-3.1 2.9-4.6 2.9s-3.1 1.1-3.5 2.5c-.6 1.9.5 2.3 3.8 1.7 3.7-.8 4.5-.4 3.5 1.5-.9 1.9-.6 2.3 1.2 1.3 1.4-.6 2.9-.4 3.4.6 1.2 2.7-.9 11.6-2.5 10.3-.8-.6-1.1-1.7-.6-2.7s.2-2.1-.8-2.9c-.9-.6-1.5.8-1.5 3.2-.2 4-.3 4.2-2.1 1-1.8-3-2.1-3-3.1-.2-.6 1.9 0 3.2 1.8 4 4.6 1.3 3.1 8.4-2.9 12.4-2.8 1.9-4.1 3.4-2.9 3.4 2 0 2 .4 0 2.1-1.7 1.5.9 1.7 9.4 1 6.4-.6 12.7-1.5 14.3-2.3 1.4-.6 2.5-.4 2.5.6 0 1.9-15.7 8.4-29.2 12-4.6 1.3-9.5 2.9-10.7 3.4-1.2.6-2.9 1.1-3.8 1.3-.8.2-4.1 1.7-7.2 3.4-3.2 1.7-6.4 3.2-7.4 3.2s-2.9 1-4.5 2.3c-3.4 2.5-8.1.8-7.1-2.7.5-1.3 0-3.8-.8-5.3-1.4-2.5-2-2.1-4.8 1.9-1.8 2.7-2.5 5-1.5 5.3.9.4 1.7 1.9 1.7 3.2s.8 2.9 1.5 3.2c2.2.8-4.8 12.6-8.1 14.1-1.5.6-5.2 4-8.4 7.8-3.1 3.6-8.3 8.8-11.5 11.4-5.2 4.6-5.5 5.1-3.1 7.4 2.5 2.3 2.3 2.5-1.5 2.7-2.5 0-4 .8-3.4 1.9.5 1 0 1.3-1.2.8-1.2-.6-2.6.2-3.1 1.7-.5 1.7-2.9 3.4-5.5 4.2s-4.8 2.5-4.8 3.8c0 1.9-.9 2.3-2.6 1.5-2.3-1.1-2.5-1-.5 1.7 1.7 2.1 3.1 2.5 5.1 1.1 1.5-1 2.3-2.5 1.8-3.2-.3-1 .2-1.7 1.2-1.5 5.2.2 7.4-.8 6.3-2.9-.6-1.3-.5-1.5.8-.8.9.8 6.3-1.1 11.7-4.4 5.4-3.2 10.4-5.9 11.2-5.9s2.3-1.3 3.4-2.9c1.1-1.5 4.6-3.8 7.8-5 3.2-1.3 5.5-2.9 5.2-3.8-1.2-2.3 5.5-7.4 10-7.6 3.5 0 3.5-.2.8-1.7l-3.1-1.7h3.1c5.4-.2 14.6 2.1 14.6 3.8s-1.2 1.7-2.6 2.1c-1.5.4 2.6.8 9.1.8 10.6-.2 11.8-.6 11.1-3.6-.5-1.7-.2-3.2.8-3.2s1.7 1 1.7 2.1 1.1 1.7 2.3 1c1.2-.6 2.3-.2 2.3.6 0 3.2 5.1 4 6.8 1.1 1.4-2.5 2.6-2.7 5.7-1.3 2.1 1.1 5.8 1.3 8.4.8 3.8-1 4.1-.6 2.5 1.9-1.4 2.1-1.5 3.4-.3 4.4.8.6 1.5.2 1.5-.8s.6-2.1 1.4-2.1 1.1 1.9.6 4.2c-.6 4.2-.6 4.4 1.7.8q2.5-3.8 2.5 0c.2 3.2.3 3.2 2 .6 1.5-2.7 2.1-2.7 3.8-.6.9 1.3 1.8 3.1 1.8 3.8s1.2 2.5 2.6 3.6c2.5 2.3 2 2.7-3.4 3.8-8.9 1.9-11.5 3.4-7.4 4.2 1.8.6 3.8 2.5 4.3 4.6 1.1 4.2 2.6 4.4 10.7.8q7.7-3.4 5.5-.2c-1.1 1.5-4 3.4-6.4 4-2.5.8-4.5 2.1-4.5 3.1 0 2.3-.5 2.3 8.9-1.9 4.3-2.1 8-3.1 8-2.1s-2 2.1-4.3 2.9c-2.3.6-7.1 3.2-10.3 5.9-4.5 3.4-5.1 4.4-2.3 3.4 2.1-.8 4.1-1.7 4.6-2.5.5-.6 2.1-1.3 3.8-1.7 2.8-.4 2.6 0-.8 3.6l-3.8 4.2 3.8-1.1c2.1-.6 5.5-1.5 7.7-2.3q3.7-1.1.9 1.7c-1.5 1.5-3.7 3.2-4.6 3.6s-1.2 1.3-.6 2.1c.5.8 3.1 0 5.8-1.7 2.6-1.7 5.7-2.7 6.6-2.3 1.1.6 0 1.7-2.3 2.9-2.1 1.1-4.5 2.9-4.9 4-.6 1.1 1.4.8 4.5-.8 5.5-3 6.9-1.9 3.5 2.7-1.7 2.1-1.4 2.5 1.1 1.5 1.7-.4 4.5-1.5 6.1-2.5q3.1-1.3 0 2.9l-3.1 4.4 4.3-2.5c2.3-1.3 4.1-3.1 4.1-4s.8-1.5 1.7-1.5-.2 2.7-2.5 5.9c-5.1 7.6-4 9 2.8 3.8 6.3-4.8 7.2-5 7.2-1s-.6 2.5-1.4 1.9c-.6-.6-2.9 1.1-4.9 3.8l-3.7 5 5.7-2.9c3.2-1.7 8.1-5.1 10.9-7.8 2.9-2.9 6-5 6.8-5s2.5-1.3 3.5-2.9c1.1-1.5 2.6-2.9 3.4-2.9 1.5 0-.6 3.6-6.3 10.7-4.8 5.9-2.9 8.6 2.1 2.7 2-2.3 5.4-4.6 7.5-4.8 3.2-.6 3.7 0 2.6 3.4-.8 2.3-1.7 3.8-2.3 3.2-.9-1-7.1 10.1-7.1 12.8s2-1.1 4.6-4.2c3.5-4.2 4.9-5 6.6-3 2.5 2.5 7.2 1 7.2-2.3s.5-1.3.9-.8c1.5 1.9-3.7 10.9-6 10.1-.9-.2-1.4-.2-.8.2.6.6.2 3.4-1.2 6.7-1.5 3.6-1.7 5.1-.6 4.4 1.2-1 1.7-.6 1.2 1.1-.5 1.5-1.7 2.7-2.8 2.7s-2.6 2.3-3.2 5.1c-.9 4.8-.8 5 2.6 3.4 2.5-1.1 3.7-1.1 3.7.2 0 2.5 2.9-1.3 6.8-8.6 2-4 3.1-4.8 4-3 .8 1.3.9 3.6.5 5.1-1.5 4.8 1.1 2.5 3.4-3.2 1.4-3.1 3.1-5.7 4-5.7s.5 2.5-.8 5.5c-1.4 3.1-2 5.9-1.4 6.5.5.6-.3 5.1-1.5 9.9-1.4 4.8-1.8 8.2-1.1 7.6.8-.6 2.3-4.6 3.2-8.6 1.1-4.2 2.6-7.6 3.5-7.6s.6-1-.6-1.9c-2-1.7-2-1.9 0-2.1 1.2-.2 2.8-.2 3.4 0 .6 0 .8-1 .5-2.3-.9-2.9 4.8-14.7 7.1-14.7s1.5 3.4.9 11.2c-.3 6.1 0 12.4.8 13.7 1.1 1.9 1.2 1.5.8-1.7-.5-2.3-.3-4.2.5-4.2s1.5-5.1 2.1-11.4c.6-7.1 1.8-11.4 2.9-11.4 3.8 0 4.5 22.3.8 25.5-2.8 2.5-.9 5.5 4 6.5 2.3.6 2.8-.2 2-3.2-.5-2.3-.2-4 .6-4s1.4-1.5 1.4-3.4c0-2.9-.3-2.9-1.7-.4-1.1 2.1-1.2.6-.6-5.3.8-5.5.5-8-.8-8s-1.2-1-.8-1.9c.6-1.1 2.3-.6 4.6 1.3 1.8 1.9 3.2 4 2.8 4.8-.3 1 .2 1.5 1.1 1.5s1.2 1 .6 2.3-.5 1.5.6.8c.9-.8 1.4-2.3.9-3.8-.5-1.3.3-2.5 1.5-2.5s2 .8 1.5 1.7c-.5.8.3 1.5 1.5 1.5s3.7 1.9 5.5 4.2c1.7 2.3 3.1 3.4 3.1 2.7s2.1.4 4.6 2.7c5.8 5.1 5.8 4.2-.2-5-2.8-4.4-5.8-7.2-7.2-6.9-2 .6-2 0 .5-2.3 2.9-2.7 2.8-2.9-1.8-1.9-3.7.8-6 0-8.4-2.9-1.8-2.3-4.1-4-5.2-4s-5.1-2.9-8.8-6.5c-3.8-3.6-7.4-6.1-7.8-5.5-.5.8-.9 0-.9-1.5-.2-1.7-1.2-1.1-3.1 1.9-2 2.7-3.1 3.4-3.2 1.9 0-1.5-1.4.8-2.9 5-1.7 4.2-2.6 9.3-2.1 11.4.9 3.6.8 3.6-1.2.4s-2.3-3.2-4.1-.6c-1.7 2.3-2.6 2.7-4.1 1-1.7-1.7-2.1-1.5-2.1 0s-.8 1.7-1.8 1c-.9-.8-1.2-.6-.8.6 1.5 3-2.5 6.5-5.1 4.4-1.7-1.3-1.7-2.3.3-6.1 1.4-2.3 3.7-6.1 5.4-8.2 1.5-2.1 4.1-7.2 5.7-11.4 2.5-6.9 5.4-14.9 6.6-18.5.8-1.7-10-11.6-13-12-1.4-.2-6-2.3-10-4.6-4.1-2.1-8.1-4-8.9-4s-1.4-.8-1.4-1.7-1.4-1.3-3.1-.8c-1.8.6-3.4-.2-4-1.9-.8-2.9-7.4-6.1-10.9-5.3-.9.2-3.8-1.3-6.4-3.2l-4.8-3.6 13.5-6.9c10.9-5.7 13.5-7.8 13.7-11.2.2-2.5 1.4-5.3 2.8-6.5 5.4-5 2-8.2-8.1-7.4-4.6.4-6.9-.4-7.5-2.1-1.4-4.4-14.9-2.7-14.4 1.9.2.6-.3 1.1-.9 1.1s-1.2-1-1.2-2.3-.9-2.5-2-3c-1.2-.4-1.5.4-.8 2.7.8 2.7.5 3.1-2 1.9-1.5-1-4-1.7-5.2-1.9-9.4-1.5-15.2-5.3-17.5-11.4-3.8-10.3-3.2-14.1 2.3-14.9 4-.4 5.2-1.9 7.1-7.8 2-6.1 2-7.6.3-10.5-2.3-3.4-2.6-7.1-.8-12.2.6-1.7.5-4.8-.5-6.9-1.8-4.2-4.5-23.3-5.5-38.3-.3-5.5-1.1-10.7-1.7-11.4-.6-.6-.6 2.1-.2 6.3zm-6.2 39.7c.3 2.5 1.4 4.2 2.6 3.8 1.1-.2 1.7 1 1.4 2.9-.6 4.4-8.9 5.9-8.9 1.7s-.8-3.1-1.5-3.4c-1.8-.8 2.5-9.1 4.6-9.1s1.5 1.9 1.8 4.2zm44.2 136.8c-5.4 4.6-8.3 5.9-4.6 2.1 2.1-2.1 4.6-4 5.4-4s.5 1-.8 1.9zm36.2 53c-.6 1.9-2.1 3.6-3.4 3.6-2.1 0-2.1-.4.3-2.7 1.5-1.3 2.1-2.5 1.5-2.5s-.6-1-.2-2.1c1.5-3 2.8-.6 1.7 3.6z" stroke="#000" stroke-width="2"/><path d="m199.9 165c.9 6.5.8 7.1-1.2 3.8-1.1-1.9-1.7-4.4-1.2-5.3.6-1 .2-1.1-.8-.4-1.1.8-1.8 3.1-1.8 5.1s-.6 3.6-1.4 3.6-1.1 2.9-.6 6.5c.3 3.6-.2 7.1-.9 7.8-.9.6-1.2 2.3-.6 3.8.6 2.1-.5 2.9-3.8 2.9s-4.9 1.1-5.5 2.9c-.6 2.1-3.1 2.9-8.3 2.9s-8.3 1-9.5 2.9c-1.1 1.5-3.1 2.9-4.6 2.9s-3.1 1.1-3.5 2.5c-.6 1.9.5 2.3 3.8 1.7 3.7-.8 4.5-.4 3.5 1.5-.9 1.9-.6 2.3 1.2 1.3 1.4-.6 2.9-.4 3.4.6 1.2 2.7-.9 11.6-2.5 10.3-.8-.6-1.1-1.7-.6-2.7s.2-2.1-.8-2.9c-.9-.6-1.5.8-1.5 3.2-.2 4-.3 4.2-2.1 1-1.8-3-2.1-3-3.1-.2-.6 1.9 0 3.2 1.8 4 4.6 1.3 3.1 8.4-2.9 12.4-2.8 1.9-4.1 3.4-2.9 3.4 2 0 2 .4 0 2.1-1.7 1.5.9 1.7 9.4 1 6.4-.6 12.7-1.5 14.3-2.3 1.4-.6 2.5-.4 2.5.6 0 1.9-15.7 8.4-29.2 12-4.6 1.3-9.5 2.9-10.7 3.4-1.2.6-2.9 1.1-3.8 1.3-.8.2-4.1 1.7-7.2 3.4-3.2 1.7-6.4 3.2-7.4 3.2s-2.9 1-4.5 2.3c-3.4 2.5-8.1.8-7.1-2.7.5-1.3 0-3.8-.8-5.3-1.4-2.5-2-2.1-4.8 1.9-1.8 2.7-2.5 5-1.5 5.3.9.4 1.7 1.9 1.7 3.2s.8 2.9 1.5 3.2c2.2.8-4.8 12.6-8.1 14.1-1.5.6-5.2 4-8.4 7.8-3.1 3.6-8.3 8.8-11.5 11.4-5.2 4.6-5.5 5.1-3.1 7.4 2.5 2.3 2.3 2.5-1.5 2.7-2.5 0-4 .8-3.4 1.9.5 1 0 1.3-1.2.8-1.2-.6-2.6.2-3.1 1.7-.5 1.7-2.9 3.4-5.5 4.2s-4.8 2.5-4.8 3.8c0 1.9-.9 2.3-2.6 1.5-2.3-1.1-2.5-1-.5 1.7 1.7 2.1 3.1 2.5 5.1 1.1 1.5-1 2.3-2.5 1.8-3.2-.3-1 .2-1.7 1.2-1.5 5.2.2 7.4-.8 6.3-2.9-.6-1.3-.5-1.5.8-.8.9.8 6.3-1.1 11.7-4.4 5.4-3.2 10.4-5.9 11.2-5.9s2.3-1.3 3.4-2.9c1.1-1.5 4.6-3.8 7.8-5 3.2-1.3 5.5-2.9 5.2-3.8-1.2-2.3 5.5-7.4 10-7.6 3.5 0 3.5-.2.8-1.7l-3.1-1.7h3.1c5.4-.2 14.6 2.1 14.6 3.8s-1.2 1.7-2.6 2.1c-1.5.4 2.6.8 9.1.8 10.6-.2 11.8-.6 11.1-3.6-.5-1.7-.2-3.2.8-3.2s1.7 1 1.7 2.1 1.1 1.7 2.3 1c1.2-.6 2.3-.2 2.3.6 0 3.2 5.1 4 6.8 1.1 1.4-2.5 2.6-2.7 5.7-1.3 2.1 1.1 5.8 1.3 8.4.8 3.8-1 4.1-.6 2.5 1.9-1.4 2.1-1.5 3.4-.3 4.4.8.6 1.5.2 1.5-.8s.6-2.1 1.4-2.1 1.1 1.9.6 4.2c-.6 4.2-.6 4.4 1.7.8q2.5-3.8 2.5 0c.2 3.2.3 3.2 2 .6 1.5-2.7 2.1-2.7 3.8-.6.9 1.3 1.8 3.1 1.8 3.8s1.2 2.5 2.6 3.6c2.5 2.3 2 2.7-3.4 3.8-8.9 1.9-11.5 3.4-7.4 4.2 1.8.6 3.8 2.5 4.3 4.6 1.1 4.2 2.6 4.4 10.7.8q7.7-3.4 5.5-.2c-1.1 1.5-4 3.4-6.4 4-2.5.8-4.5 2.1-4.5 3.1 0 2.3-.5 2.3 8.9-1.9 4.3-2.1 8-3.1 8-2.1s-2 2.1-4.3 2.9c-2.3.6-7.1 3.2-10.3 5.9-4.5 3.4-5.1 4.4-2.3 3.4 2.1-.8 4.1-1.7 4.6-2.5.5-.6 2.1-1.3 3.8-1.7 2.8-.4 2.6 0-.8 3.6l-3.8 4.2 3.8-1.1c2.1-.6 5.5-1.5 7.7-2.3q3.7-1.1.9 1.7c-1.5 1.5-3.7 3.2-4.6 3.6s-1.2 1.3-.6 2.1c.5.8 3.1 0 5.8-1.7 2.6-1.7 5.7-2.7 6.6-2.3 1.1.6 0 1.7-2.3 2.9-2.1 1.1-4.5 2.9-4.9 4-.6 1.1 1.4.8 4.5-.8 5.5-3 6.9-1.9 3.5 2.7-1.7 2.1-1.4 2.5 1.1 1.5 1.7-.4 4.5-1.5 6.1-2.5q3.1-1.3 0 2.9l-3.1 4.4 4.3-2.5c2.3-1.3 4.1-3.1 4.1-4s.8-1.5 1.7-1.5-.2 2.7-2.5 5.9c-5.1 7.6-4 9 2.8 3.8 6.3-4.8 7.2-5 7.2-1s-.6 2.5-1.4 1.9c-.6-.6-2.9 1.1-4.9 3.8l-3.7 5 5.7-2.9c3.2-1.7 8.1-5.1 10.9-7.8 2.9-2.9 6-5 6.8-5s2.5-1.3 3.5-2.9c1.1-1.5 2.6-2.9 3.4-2.9 1.5 0-.6 3.6-6.3 10.7-4.8 5.9-2.9 8.6 2.1 2.7 2-2.3 5.4-4.6 7.5-4.8 3.2-.6 3.7 0 2.6 3.4-.8 2.3-1.7 3.8-2.3 3.2-.9-1-7.1 10.1-7.1 12.8s2-1.1 4.6-4.2c3.5-4.2 4.9-5 6.6-3 2.5 2.5 7.2 1 7.2-2.3s.5-1.3.9-.8c1.5 1.9-3.7 10.9-6 10.1-.9-.2-1.4-.2-.8.2.6.6.2 3.4-1.2 6.7-1.5 3.6-1.7 5.1-.6 4.4 1.2-1 1.7-.6 1.2 1.1-.5 1.5-1.7 2.7-2.8 2.7s-2.6 2.3-3.2 5.1c-.9 4.8-.8 5 2.6 3.4 2.5-1.1 3.7-1.1 3.7.2 0 2.5 2.9-1.3 6.8-8.6 2-4 3.1-4.8 4-3 .8 1.3.9 3.6.5 5.1-1.5 4.8 1.1 2.5 3.4-3.2 1.4-3.1 3.1-5.7 4-5.7s.5 2.5-.8 5.5c-1.4 3.1-2 5.9-1.4 6.5.5.6-.3 5.1-1.5 9.9-1.4 4.8-1.8 8.2-1.1 7.6.8-.6 2.3-4.6 3.2-8.6 1.1-4.2 2.6-7.6 3.5-7.6s.6-1-.6-1.9c-2-1.7-2-1.9 0-2.1 1.2-.2 2.8-.2 3.4 0 .6 0 .8-1 .5-2.3-.9-2.9 4.8-14.7 7.1-14.7s1.5 3.4.9 11.2c-.3 6.1 0 12.4.8 13.7 1.1 1.9 1.2 1.5.8-1.7-.5-2.3-.3-4.2.5-4.2s1.5-5.1 2.1-11.4c.6-7.1 1.8-11.4 2.9-11.4 3.8 0 4.5 22.3.8 25.5-2.8 2.5-.9 5.5 4 6.5 2.3.6 2.8-.2 2-3.2-.5-2.3-.2-4 .6-4s1.4-1.5 1.4-3.4c0-2.9-.3-2.9-1.7-.4-1.1 2.1-1.2.6-.6-5.3.8-5.5.5-8-.8-8s-1.2-1-.8-1.9c.6-1.1 2.3-.6 4.6 1.3 1.8 1.9 3.2 4 2.8 4.8-.3 1 .2 1.5 1.1 1.5s1.2 1 .6 2.3-.5 1.5.6.8c.9-.8 1.4-2.3.9-3.8-.5-1.3.3-2.5 1.5-2.5s2 .8 1.5 1.7c-.5.8.3 1.5 1.5 1.5s3.7 1.9 5.5 4.2c1.7 2.3 3.1 3.4 3.1 2.7s2.1.4 4.6 2.7c5.8 5.1 5.8 4.2-.2-5-2.8-4.4-5.8-7.2-7.2-6.9-2 .6-2 0 .5-2.3 2.9-2.7 2.8-2.9-1.8-1.9-3.7.8-6 0-8.4-2.9-1.8-2.3-4.1-4-5.2-4s-5.1-2.9-8.8-6.5c-3.8-3.6-7.4-6.1-7.8-5.5-.5.8-.9 0-.9-1.5-.2-1.7-1.2-1.1-3.1 1.9-2 2.7-3.1 3.4-3.2 1.9 0-1.5-1.4.8-2.9 5-1.7 4.2-2.6 9.3-2.1 11.4.9 3.6.8 3.6-1.2.4s-2.3-3.2-4.1-.6c-1.7 2.3-2.6 2.7-4.1 1-1.7-1.7-2.1-1.5-2.1 0s-.8 1.7-1.8 1c-.9-.8-1.2-.6-.8.6 1.5 3-2.5 6.5-5.1 4.4-1.7-1.3-1.7-2.3.3-6.1 1.4-2.3 3.7-6.1 5.4-8.2 1.5-2.1 4.1-7.2 5.7-11.4 2.5-6.9 5.4-14.9 6.6-18.5.8-1.7-10-11.6-13-12-1.4-.2-6-2.3-10-4.6-4.1-2.1-8.1-4-8.9-4s-1.4-.8-1.4-1.7-1.4-1.3-3.1-.8c-1.8.6-3.4-.2-4-1.9-.8-2.9-7.4-6.1-10.9-5.3-.9.2-3.8-1.3-6.4-3.2l-4.8-3.6 13.5-6.9c10.9-5.7 13.5-7.8 13.7-11.2.2-2.5 1.4-5.3 2.8-6.5 5.4-5 2-8.2-8.1-7.4-4.6.4-6.9-.4-7.5-2.1-1.4-4.4-14.9-2.7-14.4 1.9.2.6-.3 1.1-.9 1.1s-1.2-1-1.2-2.3-.9-2.5-2-3c-1.2-.4-1.5.4-.8 2.7.8 2.7.5 3.1-2 1.9-1.5-1-4-1.7-5.2-1.9-9.4-1.5-15.2-5.3-17.5-11.4-3.8-10.3-3.2-14.1 2.3-14.9 4-.4 5.2-1.9 7.1-7.8 2-6.1 2-7.6.3-10.5-2.3-3.4-2.6-7.1-.8-12.2.6-1.7.5-4.8-.5-6.9-1.8-4.2-4.5-23.3-5.5-38.3-.3-5.5-1.1-10.7-1.7-11.4-.6-.6-.6 2.1-.2 6.3zm-6.2 39.7c.3 2.5 1.4 4.2 2.6 3.8 1.1-.2 1.7 1 1.4 2.9-.6 4.4-8.9 5.9-8.9 1.7s-.8-3.1-1.5-3.4c-1.8-.8 2.5-9.1 4.6-9.1s1.5 1.9 1.8 4.2zm44.2 136.8c-5.4 4.6-8.3 5.9-4.6 2.1 2.1-2.1 4.6-4 5.4-4s.5 1-.8 1.9zm36.2 53c-.6 1.9-2.1 3.6-3.4 3.6-2.1 0-2.1-.4.3-2.7 1.5-1.3 2.1-2.5 1.5-2.5s-.6-1-.2-2.1c1.5-3 2.8-.6 1.7 3.6z"/><g stroke="#000"><path d="m105.7 180.3c-1.2.6-2.2 1.2-2.8 1.8-.7.6-1 1.2-1.1 1.5v.3s0 .1.3.1c.4 0 1.2 0 2.4-.5s0 0 0 0c.9-.3 1.7-.7 2.3-1.2.7-.5 1.1-1 1.2-1.3s0 0 0 0c.2-.6.8-.9 1.5-1 .6 0 1.4 0 2.1.3s0 0 0 0c.4.2.7.3.9.3 0-.1-.1-.3-.3-.6s0 0 0 0c-.3-.7-.5-1.1-.8-1.4-.2-.2-.5-.3-.8-.3s-1 .1-1.8.5c-.8.3-1.9.8-3.3 1.5zm7.1.5s0 0 0 0z"/><path d="m109.1 186.9c-.8 0-1.7.3-2.5.7-1.4.7-2.4 1.3-3.1 1.9-.3.3-.6.6-.7.8-.2.2-.2.4-.2.5h.5c.6 0 1.5-.2 2.9-.8 1.5-.6 2.7-1.1 3.5-1.5.9-.4 1.4-.7 1.6-.9 0 0 .1-.1.1-.2 0 0 0 0-.2-.2-.1-.1-.3-.2-.5-.4 0 0-.2 0-.5-.1-.3 0-.6 0-1 0z"/><path d="m149.3 206.2c0 .6.7 1.4 1.6 1.4s1.1-.2 1.6-.5.9-.7 1.1-1.1c0-.2 0-.4 0-.5s0-.2-.2-.3c-.3-.2-.8-.4-1.6-.4s-1.6.2-2.1.5-.7.6-.7.9z"/><path d="m307.6 269.9s0 0 0 0c-.1-.1-.4-.3-1-.4-.3 0-.6 0-.9-.2-.1-.1-.3-.3-.3-.5s0-.4 0-.5c.1-.3.4-.5.7-.7s.7-.5 1.2-.7c.6-.3 1-.6 1.3-.8-.2 0-.4 0-.6 0-.6 0-1.2 0-1.8.3-.6.2-1 .6-1.2 1-.3.8 0 1.8.7 2.5.3.3.7.5 1 .6.3 0 .6 0 .8-.3zm.2-.1s0 0 0 0zm0 0s0 0 0 0z"/><path d="m285.2 269.5s0 0 0 0c-.3.5-.4 1-.4 1.5s0 .8.2.9c0-.2 0-.4 0-.6 0-.5.2-.9.5-1.3s.7-.6 1.3-.7c1-.3 2.4-.3 4.2 0s0 0 0 0c1.4.3 2.8.3 3.8 0s1-.2 1.3-.4.5-.3.5-.4 0 0 0 0c-.1-.1-.4-.3-.8-.4-.9-.3-2.3-.5-4-.5s-3.2.2-4.5.6c-.6.2-1.1.4-1.5.6s-.6.4-.6.6zm11.4-.9s0 0 0 0zm0 0s0 0 0 0z"/><path d="m272.1 303c0-.1 0-.2.1-.3-.2.2-.5.3-.7.3h.4.1zm.3-1s0 0 0 0zm-13.4-14.1c-.2-.8-.4-1.3-.6-1.7 0-.1-.1-.3-.2-.3 0 .2-.2.4-.3.7 0 .3 0 .8.3 1.6.3.7.8 1.6 1.4 2.6 1.2 2 3 4.2 4.8 6.2s3.7 3.9 5.3 5 0-.2-.1-.2c-.4-1-.5-2.7-.2-4.7 0-.1 0-.3 0-.3v-.1s0 0 0 0 0 0-.2 0c-.8.3-1.7 0-2.7-.5s-2-1.2-3-2.1c-2-1.7-3.8-4.1-4.5-6.1z"/><path d="m282 314.4c3.3 2.1 6.1 4.6 8.2 7.1 1 1.2 1.9 2.4 2.5 3.5s.9 2.2.9 3.2 0 .6 0 .8c.1-.2.3-.5.4-.8s0 0 0 0c.5-.9.6-1.8.3-2.8s-1.1-2.2-2.4-3.7c-1-1.2-1.9-2.4-2.4-3.4-.3-.5-.4-1-.5-1.5 0-.4 0-.8.2-1.2-.8.2-1.7 0-2.6-.3-1-.4-2-1-2.8-1.8-.9-.7-1.6-1.6-2.1-2.4s-.8-1.7-.4-2.5 0 0 0 0c-.5.3-1.2.4-1.8.3-.6-.2-1.1-.6-1.5-1.3s0 0 0 0c-.2-.3-.6-.8-1.2-1.1s-1.3-.5-1.8-.4 0 0 0 0c-.2 0-.5 0-.6 0 .3.2.6.3 1 .6.8.4 1.5 1 2 1.6s.8 1.3.7 2c0 .1 0 .4.2.7s.4.7.8 1.1c.7.8 1.7 1.7 2.9 2.4z"/><path d="m155.1 320.5c-1.5.4-2.7.8-3.4 1.1-.4.2-.6.4-.8.5 0 0-.1.1-.1.2.1 0 .3.2.7.3.7.2 1.8.3 3.4.3s3.4-.2 4.1-.5c.4-.2.5-.4.6-.5 0-.2.1-.4 0-.7-.2-.6-.4-1.1-.6-1.4 0 0 0-.1 0-.2-.2 0-.5.2-.9.3-.7.2-1.8.5-2.8.7zm-4.4 1.8s0 0 0 0z"/><path d="m75.9 333.4h3.3c3.5 0 7-.5 9.6-1.3 1.3-.4 2.4-.8 3.1-1.3.4-.2.6-.5.8-.7s.2-.4.2-.5 0-.2-.2-.3c-.1-.1-.4-.2-.8-.2-.8 0-2 0-3.3.4l-5.1 1.5-1.8.5 1.3-1.4 3.8-4s0 0 0 0c1-1.1 1.7-1.9 2-2.5.1-.3.2-.4.3-.6-.2 0-.5.1-.8.3-.7.3-1.7.9-3 1.8-1.7 1.3-4.7 3.8-6.7 5.5l-2.7 2.6zm13.5-10.3s0 0 0 0z"/><path d="m182.9 325.9s0 0 0 0c-.2.3-.4.6-.6.9.4-.3 1-.6 1.6-1 1.3-.8 2.3-1.5 3-2 .6-.4.9-.7 1.1-.9 0 0-.1 0-.2 0-.2 0-.5 0-.8 0-.5 0-1.3.3-2.1.8s-1.5 1.3-2 2.2zm5.2-3.1s0 0 0 0zm.1.3s0 0 0 0z"/><path d="m96.9 328.6c-.7.6-1.2 1-1.3 1.4 0 .2-.1.3-.1.3s.3.2.9 0c.5 0 1.3-.3 2.2-.7s0 0 0 0c.8-.3 1.2-.6 1.4-.9 0-.2.1-.3.1-.4 0 0 0-.2-.1-.3-.7-.4-2-.3-3.1.6z"/><path d="m297.6 328.2s0 0 0 0c-.6 1.2-.3 2.6.7 3.6s2.5 1.5 3.9 1c.6-.2 1.1-.3 1.5-.4.4 0 .8 0 1.2.1.4.2.6.5.6.9s0 .8-.1 1.2 0 0 0 0c-.2.5-.1 1.2.2 2s.9 1.5 1.6 2 0 0 0 0c1.8 1.5 2.8 4.1 2.5 6.6-.3 2.2.8 4.6 3.8 7.2s0 0 0 0c1.2 1.1 2.3 2 3.1 2.5.3.2.5.3.7.4 0 0 0 0 .1-.1.2-.1.4-.1.6 0 .3 0 .5.2.8.4.6.4 1.3 1.1 2.1 2 .9.9 1.6 1.9 2 2.8.2.5.4.9.5 1.3 0 .4 0 .8-.1 1.2s0 0 0 0v.2s0 .1.1.2c.2.2.5.3 1 .3s.8 0 1.1 0 .4-.2.5-.2c.1-.1.2-.4-.1-1.3s-1-2-2.1-3.7c-1.1-1.6-2.6-3.7-4.5-6.3-2-2.7-3.8-5.3-5-7.3-.6-1-1.1-1.9-1.5-2.6-.2-.3-.3-.6-.4-.9 0-.1 0-.2-.1-.4 0-.1 0-.2 0-.4v-.2c-.1 0-.3.1-.4.3s0 0 0 0c-.3.2-.6.3-.9.3s-.6-.2-.8-.5c-.4-.5-.6-1.2-.6-2.1s0-1 .2-1.3c.1-.4.3-.7.6-.9.5-.4 1-.4 1.6-.1-.1-.2-.3-.5-.5-.8s0 0 0 0c-.5-.8-1.1-1.4-1.7-1.8-.3-.2-.5-.3-.7-.3s-.3 0-.3 0c-.3.2-.6.3-.9.2-.3 0-.6-.2-.9-.4-.5-.4-1-1.1-1.4-1.9-.7-1.4-2.5-2.7-4.3-3.3-.9-.3-1.7-.4-2.4-.4s-1 .3-1.2.7z"/><path d="m325.2 397.9c-1.5 4.3-2.1 7.3-2 9.5s1 3.7 2.7 5c1 .7 1.6 1 2.2.9.5 0 1.1-.4 1.7-1.4.2-.2.3-.4.4-.6-.1 0-.2 0-.4-.1-.3-.2-.5-.5-.7-.8-.3-.7-.5-1.6-.5-2.7-.2-2.3-.6-6.2-1.4-8.8s0 0 0 0c-.2-.9-.3-1.6-.4-2.1 0-.3 0-.5 0-.7s0-.3 0-.5c0 0 0-.2.2-.3.2-.2.4-.2.6-.1.1 0 .2.1.3.2 0 0 .1.1.2.2.2.2.4.6.7 1.2.2.4.4.7.6.9 0-.4 0-.9-.3-1.6-.2-.8-.5-1.6-1-2.6-.1-.2-.2-.4-.3-.5s-.2-.2-.2-.2-.1 0-.2.2c-.2.3-.5.8-.9 1.7-.4.8-.8 1.9-1.2 3.3zm1.9-1.9s0 0 0 0t0 0z"/><path d="m298.6 398s0 0 0 0c-.6.9-1.1 1.5-1.4 2s-.4.8-.4 1 0 0 .2.1c.3 0 .7.1 1.4.1s.8-.3 1.2-.9.6-1.4.6-2.3 0-1.7 0-2.2v-.2s-.1.1-.2.2c-.3.4-.8 1.1-1.4 2zm1.5-2.4s0 0 0 0zm.3.1s0 0 0 0z"/><path d="m341 397.9s0 0 0 0c.9 2.2 2.1 4 3 4.9.2.2.4.4.6.5h.2s0-.2 0-.5 0-.4-.2-.7c-.2-.4-.4-.8-.7-1.2-.6-.9-1.4-2-2.2-3-.5-.6-1-1-1.3-1.4.2.4.4.9.6 1.5z"/><path d="m335.2 416.7s0 0 0 0c-.3.6-.6 1-.8 1.5 0 0 0 0 .1-.1.6-.7 1.3-1.3 2-1.6.3-.2.6-.3.9-.3s.6 0 .8.3c.2 0 .4-.2.7-.5.6-.6 1.4-1.5 2.2-2.6 0 0 0 0 0-.1-.4.4-.8.6-1.1.9-.3.2-.7.4-1 .4s-.6 0-.9-.2-.3-.6-.4-.9c0-.3 0-.7.2-1 .3-.8.8-1.7 1.5-2.8.1-.2.3-.4.4-.6-.2.2-.5.3-.7.4-.6.2-1.1.2-1.7 0s-1.2-.6-1.8-1.2-1.4-1.4-2.2-2.4c-1.1-1.2-2-2.1-2.7-2.6-.1 0-.2-.2-.3-.2 0 .1 0 .3.2.5.2.4.4.9.7 1.4.6 1 1.4 2.2 2.3 3.2 1.5 1.7 2.4 2.9 2.7 4.2.2 1.3-.3 2.6-1.2 4.5zm-4.7-14.2s0 0 0 0z"/><path d="m350.9 417.6c0 1 .1 1.8.3 2.3 0 .2.1.3.2.3.3-.2.6-.2.9-.1.3 0 .6.3.9.5.6.5 1.3 1.2 2 2.2 1.4 1.9 3 4.8 4.3 8 .4 1 .7 1.8.9 2.4 0 .3.2.6.2.8v.7c0 .2-.2.5-.4.6s-.5.1-.6 0c-.4 0-.9-.2-1.4-.5-.5-.2-1.1-.3-1.6-.2-.5 0-.8.3-1 .6s0 0 0 0c-.1.2-.1.4-.1.5s0 .2.2.3c.2.2.7.4 1.4.5.4 0 .7 0 1 .1.3 0 .6.2.8.4.1.1.2.3.2.5s0 .3-.1.5c-.2.2-.4.4-.7.6s0 0 0 0c-.4.1-.8.5-1.1 1s-.5 1.1-.5 1.5 0 .1 0 .1c.3-.1.9-.6 1.7-1.4.6-.8 1-1.3 1.4-1.8.4-.4.8-.7 1.3-.7s.9.3 1.3.7.7 1 1.2 1.8.8 1.3 1.1 1.6c0 0 0-.1 0-.2 0-.5 0-1.2.1-2.1 0-1.1-.2-2.2-.5-3.2-.1-.5-.3-.9-.5-1.2s-.3-.5-.4-.6 0 0 0 0c-1.1-.9-1.5-2.3-.9-3.5 0 0 0-.3 0-.6s-.2-.6-.4-1.1c-.5-.8-1.2-1.7-2.2-2.5s-2.2-2.1-3.2-3.5-1.9-3-2.3-4.4c-.5-1.4-1.1-2.5-1.6-3.2-.5-.8-1-1.1-1.2-1.1h-.2s-.2.1-.3.4c-.2.5-.3 1.3-.2 2.6zm13.6 24.4s0 0 0 0z"/><path d="m281.7 428.6v.2c.3-.9.8-2.4 1.3-4.4.5-1.8.8-3.4.9-4.6 0-.5 0-.9 0-1.2-.2.3-.3.7-.5 1.2-.4 1.1-.8 2.6-1.1 4.3-.3 2-.5 3.6-.6 4.6zm2.3-10.4s0 0 0 0z"/><path d="m300.8 419.4s0 0 0 0 0 0-.1.2c0 .1-.1.3-.2.5-.1.4-.2.9-.3 1.6-.2 1.3-.2 2.8-.2 4.4s0 1.7 0 1.7l.5-2.4s0 0 0 0c.8-3.1 1.1-5.3.9-6.4 0-.2 0-.3 0-.4-.1.1-.3.3-.5.6z"/><path d="m320.5 427.4c-.3 1.1-.5 2.2-.5 3.1v1.1.1s0-.1.1-.2c.3-.5.6-1.4.9-2.5s.5-2.2.5-3.1c0-.4 0-.8 0-1.1v-.1s0 .1-.1.2c-.3.5-.6 1.4-.9 2.5zm1.3-2.9s0 0 0 0z"/><path d="m348.5 439.4c.3-.9.7-1.5 1.4-1.9.6-.4 1.4-.4 2 .1 0 0 .1 0 .2.1 0-.1-.1-.3-.2-.4-.3-.5-.6-.8-.9-1s-.6-.1-.8 0c-.4.3-.8.2-1.2 0s-.7-.5-1.1-.9c-.7-.8-1.4-2-2-3.4-.4-1-.8-1.8-1.1-2.3s-.5-.8-.6-.9c-.1.1-.3.5-.5 1-.2.8-.2 1.7 0 2.7.2.9.5 1.8 1 2.4.6.7 1 1.7 1.3 2.7.2.9.3 2 0 2.7-.2.8-.1 1.3 0 1.5 0 0 .1.1.1.2h.3c.3 0 .7-.3 1-.7.4-.4.8-1.1 1-1.9z"/><path d="m327.7 436.1c-.3.9-.6 1.6-.7 2.2-.1.5-.2.8-.2 1 0 0 .2 0 .4-.2s0 0 0 0c.3-.1.8-.6 1.1-1.4.4-.8.6-1.8.7-2.8 0-1 0-1.8 0-2.3 0 0 0 .2-.1.3-.3.7-.8 1.8-1.3 3.2zm1.3-4.4s0 0 0 0zm.5.1s0 0 0 0z"/><path d="m136.9 46.7c1.3 1.6 2.4 3 3.4 4.2-.7-1-1.6-2.2-2.7-3.5-1.3-1.6-2.4-3-3.4-4.2.7 1 1.6 2.2 2.7 3.5z"/><path d="m124.2 56.2s0 0 0 0c.8 0 1.5-.2 2-.5s.7-.7.7-1.1c0-.7 0-1.2-.3-1.5-.2-.3-.4-.4-.7-.4-.7 0-1.7.4-2.6 1.8-.3.6-.6 1-.7 1.3v.4h.3z"/><path d="m133.6 52.7c.2.6.7 1.5 1.4 2.6.8 1 1.6 1.9 2.3 2.6.4.3.7.6 1 .8.1 0 .2.1.3.2 0 0 0-.2-.1-.4-.2-.6-.7-1.5-1.5-2.6-.8-1-1.6-2-2.3-2.6-.4-.3-.7-.6-.9-.8 0 0-.1 0-.2-.1v.4z"/><path d="m163.5 75.7c4.4 5.4 8.6 10.3 11.8 13.9 1.6 1.8 2.9 3.2 3.8 4.2.3.3.5.5.7.7-.2-.4-.6-.9-1-1.6-1.3-2-3.6-4.9-6.9-8.7-1-1.1-1.7-2.4-2.2-3.5-.2-.6-.4-1.1-.5-1.6 0-.5 0-1 .2-1.3s-.1 0-.2.2c-.7.5-1.6.5-2.5.1s-1.8-1-2.8-1.9c-1.9-1.7-3.8-4.4-5-7.2-.5-1.2-.9-2.1-1-2.7 0-.2 0-.3 0-.4s0-.3.1-.5.3-.3.5-.3h.5c.3 0 .5.3.8.5s.6.5 1 .9c.8.8 1.7 1.9 2.9 3.2s0 0 0 0c.7.9 1.3 1.6 1.7 2.1.5.5.8.8 1 .9s0-.1 0-.2c0-.2 0-.4 0-.6 0-.7-.2-1.3-.4-1.7-.3-.5-.6-.6-.8-.6-.3 0-.6 0-.8-.3-.2-.2-.4-.5-.4-.7-.1-.6 0-1.2.3-2s0 0 0 0c-.7.4-1.4.3-2.1-.1s-1.3-1.1-1.7-2c-.4-1-1-1.6-1.5-1.8-.5-.3-1.2-.2-1.9.2s0 0 0 0c-.6.3-1.1.5-1.5.6-.2 0-.4 0-.6 0-.1 0-.2 0-.3-.2-.1 0-.2-.2-.2-.3 0-.2 0-.4 0-.6s.2-.4.3-.6c.2-.4.6-1 1-1.7.2-.3.3-.6.5-.9-.4 0-.8 0-1.2-.2-.8-.3-1.7-.9-2.4-1.7-1.7-1.9-3.8-3.2-5.4-3.5-.8-.2-1.4-.1-1.8 0-.4.2-.6.5-.6 1.2s.1 1.2.3 1.5c0 .2.2.2.2.3h.4s.2 0 .2.1c.1 0 .3.2.4.3.3.3.7.6 1.2 1.1 1 1 2.3 2.3 3.8 4.1 3.1 3.5 7.3 8.3 11.7 13.6z"/><path d="m129.2 60c-.2.6-.4 1-.6 1.4 1.5-1.6 3.3-1.9 4.6-1.2.7.4 1.1 1 1.2 1.8s-.1 1.7-.7 2.6c-.3.5-.6.9-.7 1.2.2 0 .4-.1.7-.2 1.4-.9 3.3-.4 4 1s0 0 0 0c.4.8.8 1.2 1.1 1.5.4.3.7.3.9.2.2 0 .4-.2.5-.6s0-1-.2-1.8c-.1-.4-.2-.8-.2-1.1s0-.6 0-.8c0-.3.2-.6.7-.6.3 0 .6.1.8.3.2.1.5.2.8 0s.7-.5.9-.9 0 0 0 0c.2-.3.2-.5.2-.6 0 0 0-.1-.1-.2-.1 0-.3-.1-.7-.2-.4 0-.8 0-1.4.1s0 0 0 0c-2.4.3-4.8-.2-6.5-1.1-.8-.4-1.6-1-2-1.6-.4-.7-.5-1.4-.1-2.2.2-.4.2-.7.1-.8 0 0-.1-.2-.4-.2s-.2 0-.5.2c-.2.2-.5.5-.8.8-.6.7-1.2 1.7-1.6 2.8zm3.7 6.3s0 0 0 0z"/><path d="m173.3 67.1c.1-.2.3-.4.4-.6-.5.2-1 .3-1.4.1-.6-.2-1-.7-1-1.4 0-.6-.2-1.3-.2-2 0-.7-.2-1.4-.2-2 0-.5-.2-1-.4-1.5v.2c0 .3-.1.7-.3 1.1s-.5.8-.8 1.3c-.4.6-.6 1-.8 1.4s-.2.6-.2.8c0 .3.3.6 1.3 1.1 1.5.6 2.4 2.2 1.8 3.5v.3c0 .2.2.6.3 1 .3.8.8 1.9 1.4 3.2 1.2 2.6 2.9 5.8 4.7 9s3.6 6.3 5.1 8.5c.7 1.1 1.4 2 1.8 2.5 0 0 .1.1.2.2 0 0 0 0 0-.1 0-.4-.2-1-.3-1.7-.3-1.3-.9-3.1-1.6-4.8-.7-1.8-1.5-3.6-2.2-5.1-.8-1.5-1.5-2.7-2.1-3.3-.8-.7-1.5-1.9-2-3-.5-1.2-.8-2.4-.8-3.5s-.2-1.8-.4-2.4c-.3-.6-.6-.7-.7-.7s-.1 0-.2 0c0 0 0 0-.1.2 0 .3 0 .7.3 1.3.2.3.3.6.3.9v.4c0 .1 0 .3-.2.5s-.4.2-.5.2-.3 0-.4 0c-.2 0-.5-.2-.8-.4s0 0 0 0c-.7-.6-1.2-1.3-1.2-2.2 0-.8.5-1.8 1.2-3s0 0 0 0zm-3.4-7.9s0 0 0 0c-.4-.7-.8-1.3-1.3-1.8-.2-.2-.4-.4-.6-.6-.2-.1-.3-.2-.3-.2v.4c0 1.2.7 1.8 1.2 1.8s.7 0 1 .3z"/><path d="m146.2 67.4c-.3-.3-.5-.5-.7-.7.2.6.3 1.1.2 1.6 0 .3-.2.6-.4.8s-.6.3-.9.3 0 0 0 0v.2c0 .1.1.3.2.5.5.9 1.4 2.2 2.9 3.8 2.9 3.3 7.6 7.9 13.3 13.1 2.8 2.5 5.1 4.4 7 5.8s3.3 2.2 4.1 2.5h.4s0-.2 0-.3c-.2-.8-1.1-2.2-2.6-4.3-.9-1.2-2-2.3-3.1-3-1.1-.8-2.1-1.2-2.7-1.2-.9 0-1.7-.3-2.3-.7-.6-.5-1-1.1-1-1.9s-.1-.6-.2-.7-.1 0-.3.1c-.4.3-.9.2-1.3 0s-.9-.5-1.5-.8c-1.1-.8-2.3-1.9-3.5-3.3s0 0 0 0c-.9-1.1-1.6-2-2.2-2.7-.5-.7-.9-1.3-1-1.8-.2-.5-.1-1.1.2-1.5s.8-.6 1.4-.7 0 0 0 0c.6-.1.9-.3 1.1-.4 0 0 .1 0 .1-.1s0 0 0 0c0-.2-.1-.5-.5-1-.3-.5-.8-1.2-1.5-2-.8-1-1.6-1.8-2.2-2.4-.5-.4-.8-.7-1.1-.9 0 .3.2.7.6 1.4.2.4.3.7.3 1 0 .1 0 .4-.2.6s-.5.2-.6.1c-.3 0-.6-.3-.9-.5-.3-.3-.7-.6-1.1-1zm26.2 28s0 0 0 0zm-24.5-29.7s0 0 0 0zm.2-.2s0 0 0 0z"/><path d="m138.8 80.9c.1-.7 0-1.6-.3-2.7-.3-1-.8-2.1-1.5-2.9-.5-.7-.9-1.1-1.3-1.4-.2-.2-.3-.2-.4-.3s-.1 0-.2.3c-.2.3-.4.9-.6 1.6-.6 1.9 0 3.8 1.7 5.4.6.6 1.1 1 1.4 1.2.4.3.6.3.6.3s0 0 .1-.2c.1-.3.2-.7.3-1.4zm-.5 1.6s0 0 0 0z"/><path d="m100.1 79.7s0 0 0 0h1.4c-.3-.2-.8-.4-1.4-.7-1.1-.6-1.9-1-2.6-1.3s-1.2-.4-1.4-.4-.1 0-.1 0v.3c0 .2.1.4.3.7.3.7.2 1.4-.3 1.9-.4.5-1.2.8-2 .8s-1 0-1.2 0c.2.2.5.5 1 .9.8.6 1.3.8 1.5.8s.2 0 .2 0 .1-.2.2-.4c.2-.8.9-1.3 1.6-1.7.8-.4 1.7-.6 2.7-.7zm2.2-.1s0 0 0 0zm-9.6 1.2s0 0 0 0z"/><path d="m108 81.6s0 0 0 0c-.5-.2-.8-.3-1.1-.4l1.2 1.2c.8.8 1.4 1.7 1.7 2.6.1.4.2.8.2 1.2s0 .7-.3 1h.1c.2 0 .5-.2.9-.3.8-.4 1.5-.5 2.2-.4.3 0 .6.2.8.5s.3.6.3.9c0 .8.7 1.4 1.8 1.4s1.8-.9 1.8-2.2-.1-1.1-.4-1.5-.7-.8-1.4-1.3c-1.4-.9-3.9-1.7-7.9-2.9zm1.3 5.7s0 0 0 0z"/><path d="m165.7 99.2c.5.2.9.5 1.2.7-.5-.7-1.3-1.6-2.2-2.5s0 0 0 0c-1.2-1.4-2.4-2.5-3.4-3.2-.5-.3-.9-.6-1.2-.7s-.4 0-.4 0c-.2.2-.5.3-.8.3s-.6 0-.8-.2c-.4-.3-.6-.9-.6-1.4s0-.3-.3-.6-.7-.6-1.2-.8c-1-.6-2.5-1.1-4.1-1.4-4.1-.8-6.7-2.6-7.9-5.7l-.5-1.2v1.2c0 .9.5 1.9 1.2 2.9s1.6 1.9 2.6 2.6 2 1.2 2.9 1.4 1.4 0 1.8-.4c.1-.2.3-.4.6-.5h.5c.2 0 .3.2.3.3.2.2.2.5.3.7v1c0 .6.2.8.3.9 0 0 .2 0 .5-.1s0 0 0 0c.5-.3 1-.5 1.5-.4.3 0 .5.2.6.4s.2.5.2.7 0 .2.3.6c.2.3.6.6 1 1 .9.8 2.1 1.6 3.5 2.3 1.2.6 2.5 1.4 3.7 2 0 0 .1 0 .2.1z"/><path d="m128.3 90.8c.3-.5.6-.9.7-1.3.1-.3.1-.6.1-.7 0-.3-.4-.6-1.4-1.1-.6-.3-1.3-.6-1.8-.8-.2 0-.3-.1-.4-.2v.5 2.7s0 1.9.2 2.4c.2.6.3.7.4.7 0 0 .3 0 .7-.4s.9-1 1.5-1.9zm-3.2-4.2s0 0 0 0zm.5-.3s0 0 0 0z"/><path d="m139.7 90.2c-.2-.4-.5-.8-.8-1.2.2.4.4.7.5.9.2.5.4.9.3 1.3 0 .2-.1.4-.3.6-.2.1-.4.2-.5.3-.4.1-.8.1-1.4.1-.8 0-1.5-.3-2.1-.7-.5-.4-.9-1-.9-1.7s-.1-.9-.3-1.1c-.1-.2-.3-.3-.4-.3-.1.1-.2.4-.3.7-.2.6-.4 1.5-.4 2.4s.1 1.7.3 2.2c0 .1.1.2.2.3.4-.3.9-.4 1.3-.2.4.3.6.8.6 1.3 0 0 0 0 .1.1.2.1.4.3.8.5.7.4 1.7.9 2.9 1.4 2.5 1 5.8 2.2 9.1 3.3s6.7 2.1 9.3 2.7c1.3.3 2.4.5 3.2.6h.9.1s0 0 0-.2c-.1-.2-.3-.5-.7-.8-.8-.6-2-1.3-3.3-2-1.3-.6-2.8-1.2-4-1.5-.6-.2-1.2-.2-1.7-.3-.5 0-.8 0-1 .1s0 0 0 0c-.4.2-.8.3-1.2.4-.3 0-.7 0-1 0-.2 0-.3-.2-.4-.4 0-.2-.1-.3-.1-.5 0-.3.1-.6.3-.9s0 0 0 0 0-.2 0-.5c0-.2-.2-.6-.4-.9-.5-.7-1.3-1.5-2.3-2.1-1-.5-1.8-.8-2.2-.9s0 0 0 0c.1.3.2.6.2.9s-.2.6-.5.8c-.3.1-.6.1-.8 0-.3 0-.6-.2-.9-.3-.8-.3-1.4-.9-1.8-1.5s-.5-1.3-.2-1.9c0 0 0-.2 0-.4s-.1-.5-.3-.9zm-4.2 4.9s0 0 0 0zm26.5 8.7s0 0 0 0z"/><path d="m125.9 98.3c.2-.7.3-1.3.4-1.7-.1 0-.3.1-.4.2-.6.2-1.4.5-2.2.7-.8.3-1.7.8-2.6 1.4s-1.7 1.3-2.2 1.9c-.4.5-.7.9-.9 1.2s-.2.5-.2.6c0 0 0 .2.3.3.3.2.7.3 1.2.5.5.2 1 .4 1.3.6.2 0 .3.2.4.4s.2.4.1.7c0 .2-.2.4-.3.5s-.3.2-.5.4c-.4.2-1 .5-1.7.8-1 .4-1.8.9-2.3 1.4s-.8.9-.8 1.1v.2s0 0 .3.1c.4 0 1 0 2.1-.3.9-.3 1.8-.4 2.5-.2.3.1.7.3.9.6s.4.6.4 1 0 .3.2.5l.7.7c.6.5 1.5.9 2.4 1s0 0 0 0c.7.2 1.2.3 1.6.3s.6 0 .7-.1c0 0 .1-.1.2-.3 0-.2 0-.5-.2-1-.2-.7-.6-1.1-1-1.4-.4-.2-.8-.3-1.2 0s0 0 0 0c-.7.3-1.4.4-1.9.2-.6-.2-.9-.8-.9-1.4s.4-1.4 1-1.8 1.4-.6 2.2-.6c1.3 0 2.4-1.1 2.4-2.4s-.2-1.3-.4-1.8c-.3-.5-.5-.6-.6-.6-.8 0-1.1-.7-1.2-1.3s0-1.4.3-2.3z"/><path d="m111.9 117.8s0 0 0 0zm5.4-1.7 2.7-.5h-2.9c-2.1 0-4.2 0-5.8.3-.8.2-1.5.3-2 .6-.5.2-.8.4-.8.5-.7 1.3-.3 2.5.3 3.1.7.6 1.8.8 2.9-.1.5-.4.9-.7 1.1-1 0 0 0 0 .1-.1-.2 0-.5 0-.9-.1s0 0 0 0-.2 0-.3 0c0 0-.2 0-.3-.2-.1-.1-.2-.3-.2-.5s.1-.3.2-.3c.1-.1.3-.2.5-.3.2 0 .4-.2.7-.2 1-.3 2.7-.7 4.8-1.1zm-4.3 2.6s0 0 0 0z"/><path d="m207.4 128.9c.8 0 1.3.1 1.7.2 0 0 0 0-.1-.1-.3-.3-.8-.8-1.5-1.4-.9-.8-1.5-1.5-1.8-2.1-.2-.3-.3-.6-.3-.9 0-.2 0-.4.2-.5.2-.2.3-.2.5-.2 0 0 0-.3 0-.6-.1-.6-.4-1.5-.9-2.5-.5-.9-1-1.8-1.6-2.5-.3-.3-.6-.6-.8-.8-.3-.2-.4-.2-.5-.2-.3 0-.4 0-.5 0 0 0 0 .2.2.4.2.3.4.6.7 1 .6.7 1.1 1.8 1.4 3s.5 2.4.5 3.6.3 2.2.7 2.7c.4.6 1.1.9 2.1 1zm1.9.4s0 0 0 0z"/><path d="m105.3 127.4c-.7.7-1.3 1.2-1.6 1.5-.1.1-.2.2-.3.3h.1c.4 0 .9 0 1.7.1.8 0 1.6-.3 2.3-.8s1.2-1.1 1.5-1.8c.3-.9.3-1.5.3-1.8 0-.2 0-.2 0-.2s0 0-.1 0c-.2 0-.7.2-1.4.6s-1.5 1.1-2.4 2z"/><path d="m127.8 126.1c0 .2 0 .3.2.4s.4.2.9.3c.9.1 2.3 0 4.1-.4 2-.4 3.4-.8 4.4-1.1.4-.1.6-.2.9-.3-.1 0-.3 0-.4 0-.9-.1-2.2-.2-4.1-.2s-3.3.2-4.4.6c-.6.2-1 .4-1.3.5-.3.2-.3.3-.3.3zm11-1.4s0 0 0 0z"/><path d="m95.8 168.9s0 0 0 0c-.3.5-.5.8-.5 1v.2s.2.1.6.2h1.5c.9 0 2-.4 3-.8s1.9-.9 2.3-1.4c.6-.6 1.8-1.3 3-2 1.3-.6 2.8-1.2 4.2-1.6s2.5-.8 3.3-1.2c.2 0 .3-.2.5-.3-.2 0-.5 0-.8 0-.9.1-2 .4-3.4.9-2.7.8-5.9 2.1-8.8 3.5-.6.3-1.1.5-1.5.6-.2 0-.4 0-.6 0s-.4 0-.6-.2-.3-.4-.3-.6 0-.4 0-.6c0-.4.2-.8.5-1.3 0-.1.1-.3.2-.4 0 0-.2 0-.3 0-.3 0-.7 0-1-.3-.7-.3-1.3-1-1.9-1.8s0 0 0 0c-.4-.6-.7-1.1-.9-1.4v1.2c0 .8.2 1.5.4 1.9.3.5.5.6.6.6.3 0 .6 0 .8.4.2.2.3.6.2.8 0 .6-.3 1.3-.8 2z"/><path d="m102.3 229.7c.1.9 0 1.8-.2 2.6s0 1.2.2 1.5c.3.3.9.5 2 .5s1.9.2 2.5.7c.3.3.4.6.5 1.1 0 .4-.1.8-.3 1.2.8-.7 1.3-2 1.5-3.4 0-.7 0-1.4-.1-1.9s-.4-.9-.6-1c-.1 0-.2-.2-.3-.2 0 0-.2-.2-.2-.3-.1-.2-.3-.5-.4-.9-.3-.7-.6-1.7-1-2.9-.7-2.4-1.5-5.5-2.2-9-.9-4.4-1.5-7.7-1.6-10.1-.2-2.4 0-4 .8-5 .5-.8.7-1.3.7-1.5s0 0 0 0 0 0-.3 0c-.9 0-1.5-.8-1.9-1.6-.4-.9-.8-2-.9-3.2-.2-1.2-.2-2.5 0-3.7.1-1.2.4-2.3 1-3.1.2-.4.4-.7.5-1-.2 0-.5.2-.8.4-.5.2-.9.4-1.2.5-.4 0-.7.1-1 0-.3 0-.6-.3-.7-.6s-.1-.6 0-1c.1-.7.5-1.5 1.1-2.5s1.4-2.2 2.4-3.6c.6-.9 1.1-1.6 1.4-2.2.2-.4.4-.7.5-.9-.1 0-.3.1-.5.2s0 0 0 0c-.8.3-1.7.3-2.5 0s-1.5-.8-2.1-1.4-1.1-1.3-1.2-2.1c-.2-.8 0-1.6.5-2.2 0 0 0-.1 0-.2 0 0-.2.2-.3.3-.5.5-1 1.2-1.6 1.9-.4.6-.7 1-.8 1.4-.2.4-.2.5-.2.6h.8s.8 0 1.1.2c.2 0 .3.2.4.3.1.2.2.3.2.5 0 .3-.1.7-.3 1s-.5.7-.8 1.1c-1.1 1.4-1.7 2.8-1.7 3.6v.4h.1c.1 0 .3-.1.6-.3s0 0 0 0c.5-.3 1.1-.5 1.6-.3.6.2.7.9.7 1.5s-.1.7-.3 1.1-.4.8-.6 1.1c-.5.8-1.2 1.5-2 2-.6.4-1 .7-1.3 1h.2c.4 0 1 .1 1.8.2h2.1c.3 0 .5 0 .7.2.2.1.4.3.5.6 0 .3 0 .5-.1.8 0 .2-.2.5-.4.8-.4.6-.9 1.3-1.6 2.3-.7 1.1-1.3 1.8-1.6 2.4 0 .1-.1.2-.2.3.5-.1 1.2-.4 2.1-.8.9-.4 1.7-.7 2.2-.8.3 0 .5-.1.7-.1h.4c.2 0 .3.2.3.4v.4c0 .1 0 .2-.1.3 0 .2-.2.5-.4.8-.4.6-.9 1.4-1.6 2.4s0 0 0 0c-.8 1-1.2 1.9-1.4 2.5 0 .3-.1.5-.1.7.1 0 .3-.1.6-.3.5-.3 1.2-1 2.1-2s0 0 0 0c.4-.5.8-.8 1-1.1.1 0 .3-.2.5-.3h.4c.2 0 .2.2.3.4v.6c0 .2 0 .4-.2.6-.2.5-.4 1.1-.8 1.9-.5 1.1-.8 2.9-1 5.2-.2 2.2-.2 4.8 0 7.4.1 2.5.4 5 .7 7.1.2 1 .4 1.9.6 2.6s.5 1.2.7 1.5c.5.6.8 1.4.9 2.3zm-.5-41.8s0 0 0 0zm1.5-9.8s0 0 0 0zm-5.7-6s0 0 0 0zm-3.5 12.2s0 0 0 0zm-1.4 5.9s0 0 0 0zm1.4 8.1s0 0 0 0zm-.2-.3s0 0 0 0zm2.6 5.8s0 0 0 0zm-.1 0s0 0 0 0z"/><path d="m107.7 184.7c-.9.7-1.6 1.2-2 1.6h.2c.4-.1.8-.3 1.2-.5.9-.5 2-1.1 3.1-1.9.9-.7 1.6-1.2 2-1.6 0 0 0 0-.1 0-.3.1-.8.3-1.3.5-1 .5-2.1 1.1-3.1 1.9z"/><path d="m218.6 251.2s0 0 0 0zm.3-.4c.2.4.5 1.3.7 2.5.3 1.2.7 2.2 1.2 2.8.2.3.4.5.6.6h.1s0 0 0 0c.4-.2.6-.4.8-.6.1-.2.2-.5.2-.9-.2-.5 0-1 .2-1.4.3-.4.8-.6 1.3-.6 1.2 0 2 1 2 2s.2.2.3.3c.3.3.8.6 1.5.9 1.3.7 3.1 1.4 5.2 2.1s0 0 0 0c2 .8 4.1 1.6 6 2.4 1.8.8 3.4 1.6 4.3 2.2.7.4 1.9.9 3.3 1.4 1.4.4 2.9.8 4.2 1 2.6.4 7.6 1.3 10.8 2.1 1.3.3 2.3.5 3.1.6s1.2 0 1.5 0h.2s0 0 0-.2c0-.3 0-.7-.3-1.4-.4-1.2-.5-2.2 0-2.9.5-.8 1.4-1 2.5-1s1.8.3 2.5.6c.7.4 1.4.9 1.7 1.5 0 0 0 0 .2.1.2 0 .4.2.8.3.7.2 1.6.3 2.8.4 2.3.2 5.2.2 8.2 0 3-.1 5.9-.4 8.3-.7 1.2-.2 2.2-.4 2.9-.6.4-.1.7-.2.9-.3s.3-.2.4-.2c.1-.2.2-.3.2-.5s0-.3-.2-.6c-.3-.4-.9-.9-1.8-1.4-1.7-.9-4.4-1.5-7.2-1.5s-3.1-.2-4.3-.5c-.6-.2-1.2-.4-1.6-.6s-.8-.5-1-.9 0 0 0 0-.1-.1-.2-.2c-.2-.1-.4-.3-.7-.5-.6-.4-1.5-.8-2.5-1.2-2.1-.9-4.9-1.9-7.8-2.7-3.5-1.1-6.2-2.1-8.1-3.1-.9-.5-1.7-1-2.2-1.5s-.9-1.1-.9-1.7c0-1.2-1.1-2.2-2.6-2.2s-1.4.1-1.9.3c-.4.2-.5.4-.5.5.2 1.8.2 3.5-.2 4.7-.2.6-.4 1.1-.7 1.5s-.8.7-1.3.7-1-.2-1.3-.6c-.4-.4-.5-.9-.5-1.5s0 0 0 0c.3-2.1.2-3.6-.2-4.4-.2-.4-.4-.6-.6-.6s-.5 0-.9.2 0 0 0 0c-.8.4-1.7.2-2.5-.2-.8-.5-1.4-1.3-1.9-2.3-.4-.7-.7-1.2-1-1.6 0 0 0 0-.1 0-.2.1-.4.2-.6.2-.4 0-.9 0-1.5-.2-1.2-.3-2.7-.9-4.4-1.7s-3.4-1.4-4.9-1.8c-.8-.2-1.4-.3-2-.3s-1 0-1.2.1c-.8.4-1.9.3-3 0-1.1-.4-2.3-1-3.4-1.8s-2.1-1.8-2.9-2.7c-.7-1-1.3-2.1-1.3-3.1s0-.5-.3-1.1c-.2-.5-.5-1.2-.9-1.9-.8-1.4-1.9-3.2-3-4.8-1.1-1.7-2.3-3.2-3.3-4.4-.5-.6-.9-1-1.3-1.4 0 0-.1 0-.2-.1 0 .3 0 .7.2 1.2.3 1.3.8 3 1.4 4.9.8 2 1.5 4.3 2 6.4s.8 4 .8 5.2.2 2.3.4 3c.1.4.2.6.3.8.4 0 .6.4.7.6s.2.6.2.9c0 .7 0 1.7-.3 2.7-.2.9-.2 1.9 0 2.7 0 .4.2.8.3 1 .1.3.3.4.4.5s0 0 0 0c.5.5.8 1.2 1 2 .1.8.1 1.7-.2 2.5-.2.7-.2 1.3 0 1.7.1.4.3.5.5.5s.5-.2.8-.5c.3-.4.5-.9.5-1.5 0-.2 0-.3 0-.4s.1-.3.3-.4c.1 0 .2-.1.4-.1.1 0 .2 0 .3.1.1 0 .2.2.3.3zm23.5-9.7s0 0 0 0zm-34-25.1s0 0 0 0zm5.3 22.1s0 0 0 0z"/><path d="m101.3 244.4c-.9 1.1-1.6 2.1-2 2.8-.2.4-.4.7-.4.9v.4h.2c.4-.1 1.1-.4 2.1-1.1s0 0 0 0c.8-.5 1.4-.8 1.8-1h.3.4c.2 0 .3.2.4.4v.4c0 .2-.1.5-.3.8-.1.3-.3.6-.6 1.1-.5.8-1.2 2-2.1 3.5-1.2 2-2.1 3.6-2.7 4.8-.6 1.3-1 2.1-1 2.6v.2c.2 0 .4-.1.8-.3s.8-.4 1.3-.8 1-.7 1.4-.9.8-.3 1.2-.3.8.2 1 .5.3.7.3 1.1c0 .7-.3 1.4-.7 2s-1 1.1-1.6 1.3c-.1 0-.3.3-.5.7s-.4 1-.5 1.6c-.3 1.4-.4 3.2-.4 5.2.2 4.7.1 7.8-.8 9.9-1 2.2-2.8 3.3-5.7 4.3-.8.3-1.5.6-1.9.8 0 0-.1 0-.2 0h.4c.8 0 1.9-.2 3.2-.9s2.6-1.6 3.7-2.7c1.8-1.7 2.7-2.9 3.1-4.3.4-1.5.4-3.3 0-6.5-.6-5-.2-8 1.7-9.9 1.3-1.3 2-3.1 2.1-4.6 0-.7 0-1.3-.3-1.7-.2-.3-.5-.5-1-.5s-.4 0-.6-.2c-.2-.1-.3-.3-.3-.5 0-.3 0-.7.2-1.1.3-.8 1-1.8 1.9-2.8 1-1.2 1.7-2.2 2.3-3 .5-.9.8-1.5.9-2.1 0-.5 0-1-.4-1.3-.3-.4-.8-.8-1.7-1.1-.3-.2-.6-.3-.9-.4s-.5-.3-.8-.3c-.4-.1-.5-.1-.6 0-.2 0-.4.3-.9.8-.3.4-.7.8-1.1 1.4-.2.3-.4.6-.7.9zm-4.1 15.8s0 0 0 0zm-6.9 25.2s0 0 0 0z"/><path d="m261.6 273s0 0 0 0c.5-.2.9-.3 1.2-.4h.5.2c-.2-.2-.5-.4-.8-.5s-.7-.1-1.1 0c-.4.2-.8.5-1 .9 0 .2-.1.4-.2.5h.2c.2 0 .6-.2 1-.4zm3 1.6c0-.4-.2-.7-.4-1.1v.1c0 .3-.2.6-.4 1-.3.6-.3 1-.2 1.3 0 .1 0 .2.1.2h.3s.3 0 .4 0c0 0 .2-.1.2-.3.1-.3.2-.7 0-1.2z"/><path d="m174.2 328.6s0 0 0 0c-.5.9-.8 1.6-.9 2.1v.5h.2c.2 0 .4 0 .7-.1.6-.2 1.4-.5 2.4-1.1.5-.3.8-.5 1.1-.7.2-.2.3-.4.3-.5s0-.3-.1-.5c-.1-.3-.3-.6-.7-1s-.7-.6-.9-.8c-.2-.1-.4-.1-.5 0-.2 0-.4.2-.6.6-.3.3-.5.8-.8 1.5zm-1 2.6s0 0 0 0z"/><path d="m184.3 334.8s0 0 0 0c1.2 1 1.9 1.2 2.4 1.2s1-.4 1.7-1.5c.4-.6.6-1.1.7-1.4 0-.2 0-.3 0-.3s-.2-.1-.6-.2c-.4 0-1.1 0-1.9 0-1.3 0-2.3-.2-3-.6-.3-.2-.6-.5-.8-.9-.1-.4 0-.8.1-1.2.2-.5.2-.8.1-1v-.1s0 0-.2 0-.5.2-.8.5c-.2.4-.4.9-.4 1.5s.3 1.3.8 2.1 1.2 1.6 1.9 2.1z"/><path d="m190.7 339.4c.4 1 1 1.9 1.5 2.6.3.3.5.6.8.7.2.2.4.2.5.2.3 0 .6 0 .8.2s.4.4.5.7c.1.5 0 1.1-.2 1.7s0 0 0 0v.3s.2.2.5.4c.6.3 1.6.5 3 .5s2.6.2 3.4.6c.4.2.7.5.9.8.2.4.2.8 0 1.2v.1c0 .1.3.3.7.4.8.3 2.2.5 4.1.5s3.3-.2 4.3-.5c.5-.1 1-.3 1.2-.4.1 0 .2-.1.2-.2 0 0 0 0-.1-.1-.2 0-.4-.2-.8-.2-.8-.1-1.9 0-3.2.1-.9.1-1.6.2-2.2.3-.6 0-1.1 0-1.5-.2-.4-.1-.8-.4-.9-.9-.1-.4 0-.9.2-1.3s0 0 0 0c.2-.3.2-.4.1-.5 0 0-.1-.2-.4-.4-.6-.3-1.6-.5-3.3-.5s-1.8 0-2.4-.1c-.6 0-1.1-.2-1.4-.4-.2-.1-.3-.3-.4-.6 0-.2 0-.5.1-.7.2-.3.5-.7 1-1 .5-.4.7-.6.8-.8-.1 0-.3 0-.5 0-.4 0-1 0-1.8 0s-1.5 0-2-.2c-.6-.1-1-.3-1.4-.6-.8-.7-.8-1.6-.5-2.7.3-.9.2-1.5 0-1.8-.1-.3-.5-.5-1.1-.5s-.9 0-1.1.1c-.2 0-.2.1-.2.2 0 .2 0 .4.1.9s.4 1.1.7 1.8zm22.1 10.1s0 0 0 0z"/><path d="m319.8 350.9c1.1 1.5 2 2.7 2.8 3.7-.3-.5-.5-1-.8-1.6-1.5-2.9-3.8-6.1-5.6-8.3-.9-1.1-1.7-1.9-2.3-2.2 0 0 0 0-.1 0 0 .1.2.3.3.6.3.5.8 1.2 1.3 2 1.1 1.6 2.7 3.8 4.5 6zm-6.2-8.7s0 0 0 0z"/><path d="m212.2 353.4c-1.4.4-2.9 1-4.1 1.6-1.2.7-2.1 1.4-2.5 2s0 0 0 0c-.2.3-.4.5-.5.7.3-.1.7-.3 1.1-.5 2.6-1.3 5.6-2.1 7.9-2.4 1.1-.2 2.2-.2 2.9 0 .4 0 .7.2 1 .4s.5.6.5 1-.2.8-.4 1.1c-.2.4-.6.7-1 1.1-.8.7-1.9 1.5-3 2.2s0 0 0 0l-.7.4.7-.2c1.3-.3 2.5-.7 3.6-1.1.5-.2 1-.4 1.3-.7.4-.2.6-.4.7-.5 0-.1.2-.3.2-.6s.1-.6.1-1c0-.8 0-1.7-.3-2.5-.2-.9-.5-1.6-.8-2.1-.2-.3-.3-.4-.4-.5 0 0-.1 0-.2 0-.3.1-1.1.4-2.1.6-1.1.3-2.5.7-3.9 1.1z"/><path d="m225.2 362.1s0 0 0 0c-1.4 1.5-2.5 2.7-3.2 3.5-.4.4-.7.8-.9 1.1.4-.1 1-.4 1.7-.7 1.3-.6 2.6-1 3.8-1.2.6 0 1.1-.1 1.6 0 .2 0 .5 0 .7.1 0 0 0-.1-.1-.2-.8-1.1-1.2-2-1.1-2.9s.9-1.8 1.9-2.7c.7-.6 1.2-1.3 1.5-1.9.2-.3.2-.5.3-.7s-.1 0-.2 0c-.4.2-.9.6-1.5 1.1-1.2 1-2.8 2.6-4.4 4.4zm-4.5 5.1s0 0 0 0z"/><path d="m249.7 361c-1.2 1-2.1 2-2.6 2.6 0 .1-.1.2-.2.3.3 0 .6-.2 1-.5.5-.3.9-.8 1.2-1.3.2-.4.3-.7.6-1 .2-.2.5-.5.9-.5s.7.1.9.4c.2.2.4.5.6.9.1.2.2.3.4.4h.7c.7-.2 1.7-.9 2.9-2 .9-.9 1.5-1.5 2-2 .2-.2.4-.5.5-.6 0 0 0-.2.1-.2-.3 0-.7 0-1.4 0s-1.9.4-3.3 1.1c-1.3.7-2.8 1.6-4.1 2.6zm-3.1 2.9s0 0 0 0z"/><path d="m259.9 363c-1.1 1.1-2.4 2-3.7 2.6-1.2.6-2.5.9-3.4.6s0 0 0 0c-1.1-.4-2.5.2-3.5 1.2-.5.5-.8 1.1-.9 1.6s0 1 .3 1.4 0 0 0 0c.3.4.4 1 .1 1.5s-.8.6-1.3.6-1.3.7-1.3 1.4 0 .4 0 .4h.2s.4 0 .8-.2c.3-.2.8-.4 1.2-.7s0 0 0 0c1-.6 2.4-1.5 3.8-2.4.9-.6 1.8-1.1 2.5-1.6 1-.6 1.9-.9 2.7-1.1.8-.1 1.5 0 2 .3.3.2.4.4.5.8v1c-.2.6-.8 1.3-1.7 1.9-.5.4-.8.7-1 .9h1.1s1.3-.4 1.8-1.1c.6-.8 1.1-1.9 1.3-3.2.2-1.4.6-2.6 1.1-3.5.2-.5.5-.8.7-1.1s.6-.5 1-.5.3 0 .5-.6c.2-.4.4-1.1.4-1.8s0-1.5-.3-1.8c0-.1-.1-.2-.2-.2 0 0-.1 0-.3 0-.3 0-.9.4-1.6 1s-1.7 1.5-2.8 2.6zm-3 10.5s0 0 0 0z"/><path d="m240.1 367.1c-1 .6-1.8 1.2-2.4 1.9-.3.3-.5.6-.7.9s-.2.5-.2.6 0 0 0 0h.3c.4 0 1.1-.3 1.9-.8 1.5-.9 3.1-2.4 3.8-3.7.1-.3.2-.5.3-.7-.1 0-.3.1-.5.2-.6.3-1.4.8-2.5 1.5z"/><path d="m229.1 373.3c-.5.7-.8 1.4-.8 1.8v.3s.2 0 .5-.2c.2-.1.5-.3.8-.6.6-.5 1.2-1.2 1.7-1.9s.8-1.4.8-1.8c0-.2 0-.3 0-.3s-.2 0-.5.2c-.2.1-.5.3-.8.6-.6.5-1.2 1.2-1.7 1.9z"/><path d="m263.6 375.9s0 0 0 0c-.5.5-.7 1-.7 1.3s0 .6.3.9.7.5 1.4.7 1.5.3 2.5.3 1.4 0 1.9-.1c.5 0 .8-.2 1.1-.4.2-.1.3-.3.3-.5s0-.5-.1-1c-.1-.5-.5-.9-1.1-1.3s-1.3-.6-2-.8-1.5-.1-2.1 0-1.1.4-1.4.8z"/><path d="m312 378.9-1.4-4.1-1.3 5.9c-1 4.9-1.7 8.9-2.1 12s-.6 5.3-.4 6.8c0 .7.2 1.2.4 1.4s.3.3.5.3.6-.1 1.1-.4 1.1-.8 1.8-1.5c.6-.5 1-.9 1.3-1.3.3-.3.4-.5.4-.6-.1 0-.3 0-.7 0s-.9 0-1.2-.1c-.2 0-.3-.2-.5-.3-.1-.2-.2-.4-.1-.6 0-.2.1-.3.2-.5.1-.1.2-.3.4-.4.3-.3.7-.6 1.3-1 1.4-1 2.1-2.8 2.2-5.5 0-2.6-.6-6-1.9-10z"/><path d="m254.7 384.2s0-.2 0-.3c-.5.5-1.1 1.1-1.9 2s0 0 0 0c.4-.3 1-.5 1.5-.3.6.2.8.8.8 1.5s0 .5.1.6c0 0 .1.1.2.2.2 0 .6 0 1.2-.3 1.1-.6 2.3-2 2.9-3.6.2-.8.2-1.7.1-2.6s-.4-1.6-.7-1.9c-.1-.2-.2-.3-.3-.3v.3 1.2c0 1 0 2.1-.4 2.9-.4.9-.9 1.6-1.7 2s0 0 0 0c-.4.2-.7.3-1 .3s-.7-.1-.9-.5c-.2-.3-.1-.7 0-1zm-2.7 5.2c-.4-.9-.3-1.9.2-2.7-.2.3-.5.6-.8.9-1.5 1.8-2.7 3.5-3.4 4.8-.4.6-.6 1.1-.6 1.5v.2c.3.1.8 0 1.4-.2.6-.3 1.2-.8 1.8-1.3.6-.6 1-1.2 1.3-1.8s.3-1.1.2-1.4z"/><path d="m318.2 380.9c-.5-.7-1-1.3-1.3-1.8 0 .4.2.9.4 1.6.6 2.3 1.5 7.9 2.2 12.4.3 2.2.7 4 1.2 5.4s1 2.3 1.4 2.8c.2.2.4.3.5.3 0 0 .2 0 .4-.1s.4-.4.6-.8.4-1 .6-1.7 0 0 0 0c.6-2.1.2-5.2-.8-8.5-1.1-3.3-2.8-6.8-4.9-9.5s0 0 0 0z"/><path d="m298.2 396c-.4-1.3-.3-2.6.7-3.3.9-.7 2.2-.8 3.8-.4 0 0 0 0 0-.1.1-.2.2-.6.3-1.1.2-1 .3-2.3.3-3.8s-.2-2.6-.5-3.5-.7-1.4-1.2-1.7c-.4-.2-.8-.3-1.3 0s-1.1.9-1.7 1.9c-2 3.9-3.1 6.6-3.6 8.5-.4 1.9-.2 3 .4 3.7s1.1 1.2 1.6 1.5.8.3 1 .3c.1 0 .2-.1.3-.4 0-.3 0-.9-.2-1.7z"/><path d="m331.2 397s0 0 0 0c-.3.6-.4 1.4-.2 2.3s.5 1.9 1 2.9c1 2 2.7 3.7 4.2 4.2.8.3 1.4.3 1.6.2s0 0 0-.2 0 0 0 0c-.2-.4-.5-.7-1-1s-1.1-.4-1.6-.4-1.3-.2-1.7-.7-.4-1.2-.1-1.9 0 0 0 0 0-.1 0-.3 0-.4 0-.7c0-.5-.2-1.2-.4-2.1-.4-1.6-1.1-3.6-1.8-5.6-.8-2-1.6-4-2.5-5.6-.4-.8-.8-1.5-1.2-2.1s-.7-.9-.9-1.1c-.3-.2-.5-.3-.7-.4 0 .6.2 1.4.6 2.5s.8 2.3 1.4 3.5c.5 1.2 1.1 2.2 1.6 3 .3.4.5.7.7.9 0 0 .2.2.2.2.3 0 .5 0 .7.2s.4.4.4.7c.1.5 0 1.1-.3 1.7zm6.8 9.6s0 0 0 0z"/><path d="m287.5 389.6s0 0 0 0c-.6 1.4-1 2.5-1.2 3.2v.6c.1-.1.3-.3.6-.5.5-.6 1.2-1.6 1.9-3 .7-1.3 1.1-2.5 1.3-3.3 0-.4 0-.6 0-.7 0 0-.2 0-.3.2-.2.2-.5.4-.8.7-.5.7-1.1 1.6-1.5 2.7zm-1.3 4.1s0 0 0 0zm-.2-.1s0 0 0 0z"/><path d="m264.5 394.1c-1.1 1.4-1.8 2.6-2.1 3.5s-.2 1.4.1 1.7c.4.2.6.2.6.1 0 0 .3-.3.3-.9s.3-1.8.8-2.9 1.1-2.3 1.9-3.3c.4-.6.8-1.1 1-1.5 0 0 0 0-.1.1-.7.7-1.6 1.8-2.6 3.1z"/><path d="m334.9 392.4c.5 1.2 1.2 2.1 1.8 2.7.3.3.6.5.8.6h.4c.4-.2.9-.2 1.4 0 .5.1 1 .3 1.5.7.8.5 1.6 1.1 2.5 1.9-1-1.3-1.9-2.4-2.6-3.1-.4-.4-.7-.6-.9-.7-.3.2-.6.2-.9.2s-.7-.2-1.1-.5c-.7-.5-1.6-1.2-2.5-2.1s0 0 0 0c-.4-.5-.8-.9-1.1-1.3.2.5.4 1 .7 1.7z"/><path d="m278.8 394s0 0 0 0c-.4.5-.7 1.2-.8 2.1-.1.8-.1 1.7 0 2.2.1.4.2.8.2 1.1s0 .6-.2.9-.6.4-.9.3c-.3 0-.6-.2-.9-.4s0 0 0 0c-.1 0-.2-.2-.2-.2v.3c0 .3.1.7.3 1.1.3 1 .8 1.6 1.3 1.9s1 .3 1.6 0c1.1-.5 2.3-2 2.6-4.6.1-1.3.1-2.4 0-3.4-.1-.9-.4-1.6-.7-2.1-.3-.4-.6-.5-.8-.5-.3 0-.8.3-1.3 1.1z"/><path d="m270.3 399.6c-.5.5-.9.9-1.1 1.2s-.3.6-.4.8c0 .5.2 1 1 2.1.6.6 1.1.9 1.4 1h.4c.1 0 .2-.2.3-.4.2-.5.2-.8.1-1 0 0-.2-.2-.6-.2s-.7 0-1-.2-.4-.6-.4-.9.1-.7.3-1.1.5-.9.8-1.4c.4-.5.6-1 .8-1.3-.5.4-1 .9-1.8 1.6z"/><path d="m285.3 398.6s0 0 0 0c.2.4.2.9.2 1.4s-.1 1.1-.3 1.8c-.3 1.3-.9 2.9-1.6 4.5 0 .2-.1.4-.2.5-.6 1.5-1 2.7-1.4 3.6-.4 1-.5 1.6-.5 2v.3h.1.5.9s.6-.1.9-.6c.4-.5.7-1.2 1.1-2.3.8-2.2 1.5-5.6 2.2-10.6 0-.4 0-.8-.3-1.1-.2-.3-.6-.4-1.1-.4s-.7.2-.8.3c0 .1-.1.3 0 .5z"/><path d="m284.2 426.5v.5c.1 0 .3 0 .4-.1h1.5s.9 0 1.2-.1h.2s0-.2-.1-.5-.4-.8-.8-1.3c-1.1-1.6-1.4-3.5-.9-4.9.5-1.5 1.9-2.5 3.8-2.5s.8-.2 1.1-.8c.3-.5.5-1.3.5-2.2s.2-2.1.4-3.1c.3-1 .6-1.9 1-2.5s0 0 0 0c.3-.4.8-1.3 1.2-2.4s.8-2.3 1.1-3.6c.4-1.5.4-2.4.2-3 0-.2-.2-.4-.4-.5-.2 0-.4-.2-.8-.2s-1.1.2-1.6.4c-.5.3-.9.6-1.2 1-.3.7-.1 1.8.6 2.4 1.3.9 1.8 2.3 1.7 3.3 0 .5-.3 1-.9 1.3-.5.2-1.1.2-1.8-.2-.2 0-.3 0-.6.1-.3.2-.6.5-1 1.1-.7 1.2-1.5 3.1-2.4 5.7-1.8 5.8-2.7 9.6-2.8 12zm.5 2.9.6.6s-.1 0-.2-.2c-.2-.1-.3-.3-.5-.4z"/><path d="m344.2 406.3c0-.1 0-.2 0-.3-.2 0-.4 0-.6-.2-.3-.2-.7-.4-1.1-.7-.7-.6-1.5-1.5-2.3-2.5.1.2.2.5.3.7 1.5 3 4.1 7.6 5.8 10 .9 1.3 1.7 2.5 2.2 3.4.3.5.5.9.6 1.3 0 .2.1.4.1.5v.5.1s.2 0 .3.1c.1 0 .3 0 .4.1.1 0 .3.1.5.2.3.2.7.4 1.1.8.5.4 1.2 1 1.8 1.6-.2-.4-.4-.8-.6-1.2-1.5-2.7-4.1-6.8-6.9-10.8-.6-.9-1.1-1.8-1.4-2.6-.1-.4-.2-.8-.3-1.1z"/><path d="m299.1 412.7s0 0 0 0c-.1-.9-.2-1.6-.2-2.2s0-1.1.1-1.5.3-.8.8-.8c.4 0 .8.2 1.1.4s0 0 0 0c.4.3.7.4.8.4s0-.1 0-.3c0-.4-.2-.9-.6-1.3s-.9-.8-1.4-1.1 0 0 0 0c-.2 0-.3-.1-.4-.1 0 0 0 0-.1 0 0 0-.1.2-.2.4 0 .2-.2.6-.2 1-.3 1.8-.4 5.1-.3 10.8 0 2.8 0 5 .1 6.6v.4c0-.2 0-.4 0-.6.6-4 .8-9.4.3-12z"/><path d="m311.9 408.6s0 0 0 0c-1.1.9-1.4 1.9-1 2.5.3.3.5.3.7.3s.5-.2.8-.8.9-1.3 1.6-2c.6-.6 1.4-1.2 2.1-1.5.1 0 .3-.1.4-.2 0 0-.1 0-.2 0-.5 0-1.3.1-2.1.4s-1.6.7-2.1 1.2z"/><path d="m321.7 414.5s0 0 0 0c0 2.2 0 4.4.3 6.2.1.9.3 1.7.5 2.4s.4 1.2.5 1.4c.4.8.7 1.9.8 3.1s0 2.6-.3 3.8c-.2.7-.3 1.2-.4 1.6v.8s.1 0 .3-.1c.3-.2.6-.4.9-.4.4 0 .7.2.9.4.4.5.7 1.4.8 2.4v.2c.1-.4.3-.8.4-1.3.8-2.5 2.4-4.1 4-4.4.8-.2 1.6 0 2.2.6s.9 1.5.9 2.7.1 1.3.4 1.8c.2.4.4.6.6.6 0 0 0 0 .1-.2s.2-.6.3-1c.2-.9.3-2.3.2-3.8 0-1.5-.3-2.7-.5-3.5 0-.3-.2-.5-.2-.6-.3.1-.6.1-.9 0s-.5-.4-.6-.6c-.3-.5-.4-1.2-.4-2s-.2-1.5-.4-1.9c-.3-.5-.5-.6-.6-.6-.4 0-.7 0-1-.4-.3-.3-.3-.6-.4-1 0-.7.2-1.7.7-2.9s0 0 0 0c.4-1 .7-1.9.8-2.6 0-.1 0-.3 0-.4 0 .1-.2.3-.3.5-.3.5-.8 1.3-1.5 2.3s0 0 0 0c-.8 1.1-1.4 2.3-1.7 3.3-.2.5-.3 1-.3 1.3v.7s0 0 0 0c.3.7.3 1.8.3 3s-.3 2.6-.7 3.9c-.3 1.1-.6 1.9-.8 2.4-.1.3-.2.5-.3.6 0 0-.1.2-.3.3 0 0-.2 0-.3 0s-.2 0-.3-.1-.2-.2-.2-.3c0 0 0-.2 0-.3 0-.2 0-.5-.1-.9 0-.7 0-1.8-.1-3.2 0-3.2-.5-7.8-.9-10.4-.2-.9-.3-1.6-.3-2.2 0-.3 0-.5 0-.7s0-.4 0-.5c0 0 0-.2.2-.3.1-.1.3-.2.5-.2.1 0 .3 0 .3.1 0 0 .1.1.2.2.2.2.4.6.7 1.1.3.6.6 1 .9 1.3.2.3.4.3.5.3.2 0 .4 0 .8-.3s.9-.7 1.5-1.2c.6-.7 1.1-1.2 1.5-1.5.2-.2.3-.3.4-.4s.1-.1.3-.1 0 0-.1-.1c0 0-.2 0-.3 0-.3 0-.8.3-1.5.9-.4.4-.8.7-1.3.8s-1 0-1.5-.2c-.5-.3-.9-.7-1.4-1.2-.5-.6-1-1.3-1.6-2.1s0 0 0 0l-2-3.3v6.2zm12.8 21.9s0 0 0 0zm-3.5-22.5s0 0 0 0zm.7.6s0 0 0 0zm-5.6 17.8s0 0 0 0zm-.5-.1s0 0 0 0z"/><path d="m317.8 420s0 0 0 0c.2-.8.3-1.4.4-1.9-.2.4-.5.8-.7 1-.1.1-.4.3-.7.2-.3 0-.5-.2-.6-.4-.2-.3-.4-.8-.5-1.5s-.2-1.5-.4-2.6c0-1-.2-1.7-.3-2.3-.1-.5-.2-.9-.3-1.1s-.2.2-.3.4v.5 1.2c0 1 .2 2.2.4 3.7.4 2.9 1.1 6.5 1.9 9.9.8 3.5 1.6 6.8 2.4 9.2.4 1.1.7 2 .9 2.5 0-.4 0-1-.1-1.7-.2-1.4-.6-3.2-1.1-5.1-1.1-3.9-1.4-9.3-.9-12.2zm2.5 19.5s0 0 0 0z"/><path d="m306.2 418.3c-.6 0-1.2-.2-1.7-.5.6.6 1.5 1.2 2.4 1.6s0 0 0 0c.5.3 1 .5 1.3.6.3 0 .5.1.6.1 0 0 0-.1-.1-.2s0 0 0 0c-.4-.9-1.5-1.6-2.6-1.6z"/><path d="m340.9 433.1c-.2-.4-.2-.9-.2-1.2s0-.6.3-.8c.2-.2.5-.4.8-.4s.1 0 .2-.2c.2-.2.4-.5.7-.9.5-.8 1.1-2 1.7-3.3.5-1.3.7-2.4.8-3s0 0-.1 0c-.2 0-.4 0-.6-.1-.3-.2-.6-.5-.8-.8-.4-.7-.7-1.7-.9-2.9 0-.5-.1-.8-.2-1.2-.2.5-.6.8-1 1.1-.7.5-1.7.8-2.7.8s-1.5.2-1.7.4 0 0 .1.2c.3.2.6.6.8 1s.4.9.6 1.5c.4 1.1.6 2.4.6 3.7 0 1.2.3 2.5.7 3.7.3.9.6 1.7 1 2.3zm4.8-10.2s0 0 0 0z"/><path d="m302 423.9s0 0 0 0c-.3.5-.4 1-.4 1.5s0 .8.2 1c0-.1 0-.3 0-.4 0-.9.6-1.4 1.4-1.7s1.7-.2 2.8 0c.5.1.9.2 1.2.3-.2-.2-.4-.4-.6-.6-.7-.7-1.3-1.1-1.8-1.4s-.9-.4-1.2-.4c-.5 0-1 .4-1.6 1.7z"/><path d="m124.4 40s0 0 0 0c.6 2.3 1.5 4.2 2.3 5.4.4.6.8 1 1.2 1.1.3.2.5.1.6 0 .3-.2.6-.3.9-.2.3 0 .6.2.9.5.5.5.9 1.2 1.2 2.1.2.7.6 1.2.9 1.5.2.1.3.2.4.2 0 0 .1 0 .3-.1s0 0 0 0c.4-.3.9-.2 1.3 0s.8.6 1.2 1c.8.9 1.7 2.3 2.4 3.9.8 1.5 1.6 2.9 2.5 3.9.4.5.8.9 1.2 1.2s.6.4.8.4c.7 0 1.4.3 1.6 1 .2.6 0 1.3-.4 2-.8 1.8-1.3 3.6-1.4 4.7v.7.2s.1 0 .2-.1 0 0 0 0c.3-.2.5-.6.6-1 0-.4 0-.9-.1-1.2-.2-.3-.3-.7 0-1.1.2-.3.5-.6.8-.8.7-.4 1.7-.6 2.9-.6s1.7 0 2.2 0c.2 0 .4 0 .5-.1s0 0 0-.1-.1-.3-.3-.6c-.3-.5-.8-1.2-1.5-2.1s0 0 0 0c-.7-.9-1.4-1.8-2.1-2.3-.3-.3-.6-.5-.8-.6-.1 0-.2 0-.2-.1-.5.2-.9 0-1.2-.3s-.6-.7-.6-1.2 0 0 0 0c0-.3-.2-.7-.4-1.3-.2-.5-.6-1.1-1-1.8-.8-1.3-2-2.8-3.1-4.2-1.2-1.4-2.4-2.7-3.5-3.6-.5-.5-1-.8-1.4-1.1s-.7-.3-.8-.3c-.4 0-.7-.1-1-.4-.3-.2-.5-.6-.6-.9-.2-.7-.1-1.7.2-2.7-.2.3-.4.6-.6.9-.6.9-1.1 1.6-1.6 2-.2.2-.5.3-.8.4-.3 0-.6-.1-.8-.3s-.3-.5-.4-.8c0-.3-.2-.7-.2-1.1 0-.9 0-2 0-3.4s0 0 0 0 0-.1-.2-.2c-.3-.2-.7-.3-1.3-.3s-.4 0-.5.1c-.1 0-.2.2-.3.4-.1.4-.1 1 .2 1.8zm25 24.4s0 0 0 0z"/><path d="m111.3 52.4s0 0 0 0c.5 0 .9.1 1.1.1 0-.1-.2-.3-.3-.6-.3-.5-.8-1.1-1.3-1.9-.8-1.1-1.5-2-2.2-2.5-.7-.6-1.1-.8-1.4-.8v.3c0 .4.1 1.1.6 2.2.4.8 1 1.6 1.7 2.2s1.4 1 2 1.1z"/><path d="m130.1 69.9c0-.3.2-.8.4-1.4.1-.6 0-1.3-.3-2.1s-.8-1.7-1.5-2.5c-1.3-1.6-3-2.8-4.5-3-.4 0-.7-.2-1.1-.4s-.8-.5-1.2-.8c-.8-.6-1.7-1.5-2.5-2.3s-1.4-1.7-1.9-2.5c-.2-.4-.4-.7-.5-1.1 0-.3 0-.6 0-.9-.2 0-.4.2-.6.3-.8.3-1.8.8-3.1 1.5-1.2.6-2.1 1.2-2.8 1.8s-1 1.1-1.1 1.4v.4s.1.2.3.3c.3.2 1 .4 2 .4 2.1 0 4.2.5 5.7 1.3s2.6 2 2.6 3.4-.3 1.1-.8 1.3-1 0-1.5-.3c-.3-.2-.5-.1-.8 0-.3.2-.7.7-.9 1.4-.2.9-.7 1.6-1.2 2.1-.3.2-.6.4-.9.4s-.7 0-1-.3c-.3-.2-.5-.3-.6-.2 0 .1 0 .4.3.7.2.3.6.6 1.1.9.9.6 2.2 1.3 3.5 1.8s2.7.9 3.9 1h1.5c.4 0 .6-.1.7-.2.6-.7 1.2-1.1 2-1.1.7 0 1.3.6 1.6 1.4s0 0 0 0c.4.9 1.2 1.1 1.7.8.2-.2.4-.3.6-.4.3 0 .5 0 .8.1.4.2.6.7.8 1.3.3 1.1.4 2.7.2 4.5 0 .3.1.6.3.7.2.2.4.3.8.3s.4-.1.5-.4.1-.9 0-1.6c-.6-1.8.2-3.4 1.4-4.2.6-.4 1.3-.6 2-.5s1.3.6 1.7 1.4c.3.4.6.6.8.7.2 0 .5 0 .7-.1.1 0 .3-.2.4-.2.2 0 .4 0 .6.1.1.1.2.3.3.4 0 .1.1.3.1.4.1.6 0 1.5-.2 2.6-.2 1-.3 1.7-.3 2.2s.2.6.3.6c.2 0 .5 0 1.2-.1.7-.2 1.6-.6 2.7-1.2.6-.3.8-.5.9-.7 0-.1 0-.4-.2-.9-.3-.5-.8-1.1-1.7-2s-2-1.9-3.5-3.3c-2.9-2.7-4.7-4.1-6-4.6-.6-.2-1-.2-1.2-.2-.3 0-.5.3-.8.8s-.6.9-.8 1.2c0 .1-.2.2-.3.3 0 0-.1.1-.3.1-.1 0-.4 0-.5-.1s-.2-.3-.2-.3v-.2c0-.1 0-.3 0-.5zm-17.6-2s0 0 0 0z"/><path d="m160.9 62c1 1.5 1.9 2.7 2.6 3.4-1.2-2.7-3.2-6.1-5.1-8.7-1-1.4-1.9-2.6-2.6-3.3 0 0-.2-.2-.3-.2 0 .2.2.5.3.7.3.6.7 1.3 1.2 2.2 1 1.7 2.4 3.8 3.9 5.9s0 0 0 0zm-5.4-9.3s0 0 0 0z"/><path d="m103.3 62.2s0 0 0 0zm.1.2c.1.2.3.4.6.6.5.5 1.3 1.1 2.1 1.7.6.4 1 .6 1.4.8s.6.2.7.2 0 0 .1-.1c0-.2.1-.5.1-1s-.3-1-.7-1.4c-.5-.4-1.1-.7-1.9-.8-.8 0-1.5 0-2 0-.1 0-.2 0-.3 0z"/><path d="m102.4 72s0 0 0 0c3.1 2.3 5.4 4.3 6.9 5.9.7.8 1.2 1.4 1.5 2 .1.3.2.6.1.9v.1c.4 0 .9-.2 1.6-.3 1.5-.4 2.6-.5 3.3-.3.4 0 .7.3.9.7s0 .8-.1 1.1c-.3.6-.3 1.1 0 1.5.3.5.9 1 1.9 1.4 2 .9 5.3 1.6 9.7 1.9 1.8.1 3.1.2 4.1.3h1.1.4s0 0 0-.1c-.2-.3-.7-.8-1.4-1.5-.8-.7-1.7-1.3-2.5-1.6s-1.5-.4-1.9-.2c-.6.3-1.2.4-1.8.2s-.9-.8-.9-1.4 0 0 0-.1c0 0-.1-.2-.3-.4-.3-.3-.7-.6-1.2-1-1.1-.7-2.6-1.5-4.2-2s0 0 0 0c-1.7-.7-3.3-1.5-4.4-2.2-.6-.4-1.1-.7-1.4-1.1-.2-.2-.3-.4-.4-.5-.1-.2-.2-.4-.2-.6s-.1-.4-.5-.6c-.3-.2-.8-.4-1.3-.4-1.5 0-2.8-1.1-2.8-2.6s-.1-.6-.2-.7-.1 0-.3.1c-.3.2-.6.3-1 .3-.3 0-.6-.2-.9-.4-.5-.4-1-1.1-1.2-2.1-.2-.7-.5-1.1-.9-1.4-.3-.2-.6-.2-.8 0-.5.3-1 .5-1.5.4-.2 0-.5-.2-.6-.4-.2-.2-.2-.5-.2-.8s0-.2-.2-.3c-.2-.2-.4-.4-.8-.5-.8-.4-1.8-.6-3.1-.7-1.2 0-2.3 0-3.1 0-.3 0-.5 0-.7 0l.4.4c.5.5 1.2 1.1 2.2 1.9 1.8 1.5 4.4 3.5 7.1 5.5zm-9.9-8.2s0 0 0 0z"/><path d="m101.7 95c-1.1.2-2-.8-2-2.1s-.8-.8-1.5.8c-1.2 2.5-1.5 2.3-1.5-.6s-1.2-3.2-2.9-3.2-3.4-.8-4-1.9l.4-.2s0 0 0 0m11.5 7.2 13.7.4c-4.3 2.9-6.1 2.7-2.8-.4l-.3-.4s0 0 0 0c.6-.5.9-.9 1-1.2 0-.1 0-.2 0-.3 0 0 0-.1-.1-.3-.2-.3-.7-.6-1.6-1-.8-.4-2-.9-3.5-1.4-1.9-.7-3.7-1.2-5.1-1.6-.7-.2-1.3-.4-1.8-.5-.2 0-.4 0-.5-.1 0 0-.1 0-.2 0-.1 0-.3 0-.4 0s-.3 0-.4-.1c-.3-.1-.6-.3-.9-.6-.6-.5-1.3-1.2-2-2.1-.7-.7-1.4-1.3-2-1.6-.3-.2-.6-.2-.8-.3-.2 0-.3 0-.4 0-.2.2-.5.4-.7.4-.3 0-.6 0-.8-.1-.5-.3-.6-.9-.6-1.4s.1-1.3.4-1.8c.4-.5.9-.7 1.5-.7s1.4.2 2.3.5 2 .8 3.3 1.4 0 0 0 0c.6.3 1.2.6 1.6.7.4.2.7.2.9.2 0 0 0-.2-.1-.3s0 0 0 0c-.2-.4-.6-.8-1.1-1.1s-1.1-.5-1.7-.5c-.8 0-1.6-.4-2.2-1s-1.1-1.4-1.4-2.2c-.3-.7-.6-1.3-.9-1.5-.2-.1-.3-.2-.3-.2s0 0 0 0c-.3.2-.6.3-.9.3s-.6-.2-.8-.5c-.5-.4-.9-1.1-1.2-1.9s0 0 0 0c-.2-.7-.6-1.3-1-1.8-.5-.5-.9-.6-1.2-.6s0 0 0 0-.1 0-.2 0c.1 0 .2.1.4.2.6.3 1.1.9 1.5 1.6s.6 1.5.6 2.3-.3 1.6-.6 2.3c-.4.7-.9 1.3-1.5 1.6-.1 0-.2.1-.3.2h.4c.5 0 .9.2 1.2.6s.3.9.1 1.3-.5.9-.9 1.4-1 1.1-1.7 1.8c-.6.6-1.1 1.1-1.4 1.6-.2.2-.3.4-.4.5s0 0 0 0c.8-.3 1.7-.4 2.5-.2.7.2 1.4.6 1.7 1.2m11.6 7.2c.9 0 3.2.2 4.9.4zm-11.5-7.2c.2.4.7.9 1.4 1.2.6.3 1.4.5 2.2.5 2 0 3.4 1.6 3.4 3.7s0 1 0 1.4l-7-6.7zm7.1 7.3s0 0 0 0zm-9.3-23.9s0 0 0 0z"/><path d="m129.4 91.8c0 .3.2.6.5.9s.8.5 1.3.5.9-.2 1.3-.5c.3-.3.5-.6.5-.9 0-.8-.7-1.4-1.8-1.4s-1.8.6-1.8 1.4z"/><path d="m204.9 117s0 0 0 0c.8.7 1.5 2 1.9 3.3.5 1.3.8 2.8.8 4.1s0 1.5 0 2v.3c0-.1.2-.3.3-.6s0 0 0 0c.9-1.7.9-4.2.1-6.2-.7-2.1-2.1-3.6-3.6-3.9s0 0 0 0c-.4 0-.8-.2-1.1-.2.3.3.8.7 1.4 1.2zm2.6 10s0 0 0 0zm-4.4-11.8s0 0 0 0z"/><path d="m101.8 120.4c-.3.7-.5 1.3-.6 1.7-.1.5-.1.8 0 1 .1.4.5.8 1.6 1.1.5.1.9.2 1.1.2s.3 0 .3-.2c0-.1.2-.4.1-.9 0-.5 0-1.2-.2-2.1s0 0 0 0c-.2-1.4-.4-2.4-.5-3.1 0-.3-.2-.6-.2-.7 0 0-.2.2-.3.4-.3.5-.7 1.4-1.2 2.6zm1.7-3.1s0 0 0 0z"/><path d="m116.5 122s2.5-.6 2.5-.6h-3.4c-2.2.2-4 .4-5.3.7-.5.1-.9.3-1.1.4.1 0 .3.1.5.1.4 0 1 .1 1.8.1 1.4 0 3.2-.3 5-.7z"/><path d="m95.3 137.9s0 0 0 0c-.8.8-1.4 1.4-1.8 1.9.2 0 .4-.2.7-.3s0 0 0 0c.8-.3 1.6-.8 2.3-1.3.7-.6 1.3-1.2 1.5-1.7s0 0 0 0c.2-.3.4-.6.7-.8.1 0 .3-.2.5-.2s.4.1.5.2c.2.2.3.6.4.9v1.3c0 .9.2 1.7.4 2.2.1.3.3.5.4.6s.2.1.2.1c.4 0 .6-.1.8-.3.1-.2.2-.5.2-1 0-.9-.7-2.2-1.9-3.4s0 0 0 0c-.4-.4-.7-.6-1-.8-.3-.1-.6-.1-.9 0-.7.2-1.7 1-3.1 2.5z"/><path d="m85 137.4s0 0 0 0c-.4.1-.8.5-1.2.9-.3.4-.5.9-.5 1.3s0 .3 0 .3h.2c.3 0 1-.2 1.9-.8.8-.6 1.7-1 2.6-1.1.5 0 1 0 1.5.2 0 0 0-.1 0-.2-.3-.6-.6-1-.8-1.3s-.5-.4-.7-.4-.6 0-1 .2c-.5.2-1.1.5-1.8.9z"/><path d="m86.4 150s0 0 0 0c.6.2 1.1.1 1.5 0 .3-.2.5-.4.5-.8 0-.7.3-1.3.9-1.6.6-.2 1.3-.1 1.9.2s0 0 0 0c.4.2.8.2 1.2 0s.8-.7 1-1.4c.1-.4.2-.8.1-1 0-.2-.1-.4-.3-.5-.2-.2-.6-.3-1.1-.4-.5 0-1.1-.1-1.9-.1s-2.3.1-3.3.3c-.5.1-.9.2-1.3.3s-.6.2-.6.3c-.3.2-.8.9-1.5 1.8-.6.9-1.4 1.9-2 2.8-.4.6-.7 1.1-.9 1.6 0 0 .1 0 .2-.1.7-.5 1.6-.9 2.6-1.2 1-.2 2-.4 2.8-.2z"/><path d="m94 174.4c.6-.6 1-1.1 1.4-1.4-.4.1-.9.3-1.4.5s0 0 0 0c-.6.2-1.2.3-1.6.4-.4 0-.8 0-1.2 0-.2 0-.3-.2-.5-.3-.1-.2-.2-.3-.2-.5 0-.3 0-.7.2-1.1s0 0 0 0c.3-.5.3-.9.2-1.1 0-.1-.2-.3-.5-.3s-.7 0-.9-.2c-.1 0-.3-.2-.4-.3-.1-.2-.1-.3-.2-.5 0-.3.1-.7.3-1 .2-.4.4-.8.8-1.2.4-.7.8-1.4.9-2 0-.3.1-.5.1-.7s0-.2 0-.3c-.1-.1-.2-.3-.2-.5s0-.4 0-.6c0-.4 0-1 0-1.7.1-1.3.4-2.9.8-4.6s.6-3.2.7-4.2c0-.4 0-.8 0-1-1 .3-3.4 1-5.8 1.6s0 0 0 0c-2.5.7-5.1 2.1-6.5 3.3-.4.3-.6.6-.8.8s-.3.4-.3.5h.6s.8.3 1 .6.3.7.4 1.2c.1.9.1 2.2-.1 3.5-.2 1.4-.5 2.5-.9 3.2-.2.4-.5.7-.8.8-.2 0-.4.1-.6.1s-.4 0-.6-.2c-.1-.1-.3-.2-.3-.2v.3c0 .2 0 .5.2.9.4 1.4 1.3 3.3 2.5 4.3s0 0 0 0c.9 1 1.5 1.8 1.5 2.8s-.1 1-.4 1.6c-.2.6-.6 1.2-1.1 2s0 0 0 0c-.3.4-.5.8-.7 1.1.1 0 .3-.1.6 0 .3 0 .4.2.5.4v.6c0 .4-.1.9-.3 1.4-.2.6-.5 1.3-.9 2.2-.6 1.4-1 2.9-1.2 4.1-.1.6-.2 1.2-.1 1.7 0 .5 0 .8.1 1 .3.7.7 1.9.9 3.2.3 1.4.4 3.1.5 4.8.4 5.7.9 10.3 1.5 13.8s1.3 5.8 2.1 6.9c.6.8 1 1.8 1.1 2.7s0 1.8-.3 2.5c-.2.4-.2.7-.1.9 0 .1.2.3.6.3s.7 0 1 .2.4.6.4.9-.1.7-.3 1.1-.5.9-.8 1.4c-.4.6-.6 1-.8 1.3.3-.1.6-.3 1.1-.5.6-.3 1.2-.5 1.5-.6h.6.3c.1 0 .2.2.3.3v.6c0 .2-.2.4-.3.6-.2.4-.6 1-1 1.7s-.7 1.2-.9 1.6-.2.7-.2.9c0 .3.3.7 1.4 1.1.8.3 1.5 1 2 1.7.5.8.8 1.7.8 2.5 0 1.4.8 2.2 1.5 2.2s.8.2 1.1.5.6.6.8 1.1c.4.8.7 1.9.8 3.1 0 1 .3 2.1.7 3 .4 1 .8 1.7 1.2 1.9s0 0 0 0c.6.6 1.1 1.1 1.1 1.8s-.5 1.2-1.1 1.8 0 0 0 0-.3.3-.5.7-.3 1-.5 1.6c-.3 1.3-.4 2.9-.4 4.5 0 3.5-.5 8.3-1.1 11-.3 1.1-.5 1.9-.6 2.4v.4c.3-.2.6-.6 1.1-1.1s0 0 0 0c.5-.4.9-.8 1.2-1s.7-.4 1-.5h.6c.2 0 .3.2.4.4.2.3.2.7.2 1.1s-.2.9-.5 1.4-.7.9-1.2 1.4c-.9.9-2.2 1.8-3.5 2.6-1 .6-1.8 1-2.4 1.4-.3.2-.5.3-.6.4.2 0 .6 0 1.1.1 1.7 0 3.7-1.2 5.2-2.8.7-.8 1.3-1.7 1.7-2.6.3-.9.4-1.7.3-2.5-.3-.7-.3-1.6-.2-2.5s.3-1.9.7-2.6 0 0 0 0c.3-.6.4-1.6.2-2.8s-.6-2.5-1.3-3.8c-1.1-2.1-1.7-3.4-1.6-4.7 0-1.3.8-2.5 2.1-4.4s0 0 0 0c.6-.8 1-1.4 1.3-1.9s.5-.9.5-1.2 0-.5 0-.6c0-.2-.3-.3-.6-.5-.5-.2-.9-.6-1-1.1s0-1.1.3-1.7c.5-1.3 1.7-3 3.4-5.2 1-1.2 1.7-2.2 2.3-3.1.6-.8.9-1.4 1.1-1.9 0-.2.1-.4.1-.5s-.1-.1-.6-.1c-1 0-1.8-.5-2.3-1.3s-.8-1.8-.8-3-.1-1.9-.4-2.5c-.1-.3-.3-.5-.4-.7-.1-.1-.2-.1-.3-.1-.4 0-.7-.2-.9-.5s-.4-.6-.6-1c-.3-.8-.5-1.8-.5-2.9s-.1-1.9-.4-2.5c-.1-.3-.3-.5-.4-.7-.1-.1-.2-.1-.3-.1-.4 0-.7-.2-.9-.4s-.3-.6-.4-.9c-.1-.7 0-1.5.3-2.4.2-.8.2-1.6 0-2.4s-.5-1.4-.9-1.6 0 0 0 0c-.9-.7-1.4-1.3-1.5-2.2 0-.4.1-.9.3-1.4s.5-1 .9-1.6 0 0 0 0c.7-.9 1-1.6 1-2 0-.2 0-.2 0-.2s0 0-.1 0c-.5 0-.9-.4-1.1-.8s-.4-.9-.5-1.6c-.2-1.2-.3-3-.1-4.9 0-2.1 0-3.7-.2-4.8-.1-.5-.2-.9-.4-1.1-.1-.2-.2-.2-.3-.2-.6 0-1.1-.4-1.4-.9s-.5-1.1-.7-1.9c-.3-1.5-.3-3.5-.1-5.6s.6-4.3 1.1-6.2c.6-1.9 1.3-3.5 2.2-4.5zm-10.3 57.6s0 0 0 0zm11.8-25.3s0 0 0 0z"/><path d="m218 227.1c-.5-.6-1-1.1-1.4-1.5.4.7.7 1.4 1 2.1.2.6.4 1.1.6 1.6.1.5.2.9.2 1.3s0 .8.3 1c.3.3.8.7 1.9 1.1 2.1.8 6.1 1.9 13.6 3.7 4.3 1.1 9.8 2.9 12.6 3.8s0 0 0 0c1.3.5 3.1.9 4.9 1 1.8 0 3.7 0 5.2-.4 2.1-.5 3.6-.7 4.7-.3 1.2.4 1.8 1.3 2.2 2.6s0 0 0 0c.2.8.6 1.5 1 2 .5.5.9.7 1.2.7s.8.2 1.1.4c.4.2.8.5 1.2.9.8.7 1.7 1.7 2.5 2.8s0 0 0 0c.7 1 1.5 1.9 2.2 2.6.4.3.7.6.9.8 0 0 .2.1.2.1 0-.2-.2-.6-.4-1-.5-1.1-1.5-2.6-2.8-4.2s0 0 0 0c-1.2-1.7-2.4-3.5-3.2-4.9-.4-.7-.7-1.3-1-1.8-.1-.2-.2-.5-.3-.7 0-.2-.1-.4-.1-.6s-.1-.4-.6-.7c-.5-.2-1.1-.4-1.8-.4s-1.9-.3-2.7-.6c-.8-.4-1.5-.9-1.8-1.5s0 0 0 0c-.2-.4-.6-.8-1.1-1.1s-1.1-.5-1.7-.5-.8.2-.9.3-.2.4 0 .9c.2.4.3.9.2 1.3s-.5.7-.8.9c-.7.4-1.9.4-3.1.3-2.5-.2-5.9-1.2-8.6-2.9s0 0 0 0c-1.2-.8-2.5-1.5-3.6-2-.6-.2-1.1-.4-1.5-.5s-.7-.1-.9 0 0 0 0 0c-4 .6-7.5.4-10.7-.6s-6-2.9-8.8-5.9z"/><path d="m291.8 242.9s0 0 0 0c-.1.4-.2.7-.1.9 0 .2.1.4.3.6.4.4 1.2.6 2.6.7h1.1c-.6-.3-1.2-.8-1.7-1.2-.6-.5-1.2-1.2-1.4-1.7 0-.2-.2-.2-.2-.2-.1 0-.4.3-.5.9zm4.6 2.2s0 0 0 0z"/><path d="m279.6 255.2c.3.2.7.5 1.3.8s1.3.6 2.2.9c1.6.6 3.6 1.1 5.5 1.5s4 .9 5.8 1.5 3.4 1.2 4.3 1.8c.3.2.5.3.8.4 0 0-.1-.2-.2-.2s0 0 0 0c-.2-.3-.5-.6-1-.9s-1.1-.7-1.8-1.1c-1.4-.7-3-1.4-4.6-1.8-.2 0-.5-.1-.7-.2-6.8-1.8-10.3-2.7-11.9-3 0 0 0 0-.1 0 .1.1.3.3.5.4zm-1-.5s0 0 0 0z"/><path d="m8.2 358.6c-.7-1.4-.9-3.2-.5-4.7.2-.7.4-1.4.7-1.8s.7-.6 1.1-.6 0 0 0 0v.2c0 .3 0 .8-.3 1.3s0 0 0 0c-.2.5-.3.9-.4 1.1v.4s0 .2.1.3.3.2.4.2.2 0 .3 0c0 0 .1 0 .2-.1.1 0 .2-.2.4-.3.2-.3.6-.6.9-1.1.5-.5.8-1 1.1-1.4s.4-.8.4-1.3c0-.4-.2-.8-.5-1.2-.3-.3-.7-.7-1.2-1.1l-.3.4c-1.2-1-3.5-1.9-4.9-1.9s-2.3-1-1.7-3l4.1 14.4zm0 0c.3.6.5 1 .7 1.2.1.1.2.2.2.2zm34.4-.5s0 0 0 0c-.9.8-1.8 1.4-2.5 1.7-.4.2-.7.3-1.1.3-.3 0-.7 0-1-.4-.4-.5-.2-1.2 0-1.8.3-.6.8-1.1 1.4-1.7.6-.5 1.3-1 2-1.4s1.5-.6 2.1-.6h.1c.3 0 .7.3.8.7 0 .3 0 .7-.2 1-.3.6-.9 1.3-1.7 2z"/><path d="m157.6 332.7-3.8 3.8-2.5 2.7 2.8-.8c2.6-.8 5.8-1.7 7.3-2.3.8-.3 1.5-.4 2.2-.2.3.1.6.3.8.6s.3.6.3 1 0 .3 0 .4c0 0 .1.1.3.2.3 0 .8 0 1.6-.2.4-.2.8-.3 1.1-.4h.5c.1 0 .3 0 .5.1.4.2.4.7.3.9 0 .3-.2.6-.4 1-.3.6-.3 1-.2 1.2 0 .2.3.4.8.4s1.7-.3 3.1-.8c1.3-.5 2.8-1.2 4-1.9 1.3-.7 2.4-1.4 2.9-1.9 0 0 0 0 .1-.1-.6 0-1.1-.5-1.4-1.1s-.3-1.5 0-2.4 0 0 0 0c.2-.5.2-.8.2-1v-.1s0 0-.1 0c-.2 0-.5-.1-1.1 0-.6 0-1.4.2-2.3.4-1.1.3-1.9.5-2.6.6-.3 0-.6 0-.8 0s-.5 0-.7-.2-.4-.4-.4-.7c0-.2 0-.5.1-.7.2-.4.5-1 .9-1.6s.6-1.1.8-1.4v-.2s-.2 0-.5 0c-.4 0-1.1.2-2 .4s0 0 0 0c-.7.1-1.4.2-1.9.3-.5 0-1 0-1.3-.2-.2 0-.4-.2-.5-.4s-.2-.4-.2-.6c0-.4.1-.8.3-1.2.3-.5.3-.9.3-1.2 0 0 0-.1 0-.2 0 0 0 0-.2 0s-.6.2-1.1.5c-.4.3-.8.8-1.1 1.3-.4.9-1.4 1.4-2.6 1.5-1.2.2-2.8 0-4.5-.3-.9-.2-1.7-.3-2.3-.4-.4 0-.7 0-.9 0 0 0 .2.2.3.3.5.4.9.7 1.2 1 .1.1.3.3.3.4s.2.3.1.6c0 .3-.2.4-.4.5-.2 0-.3.2-.5.2-.3 0-.8 0-1.4 0s-1.3.2-1.9.6-1.1.8-1.4 1.3c-.2.3-.2.5-.2.6s0 0 .1.1h1c.5 0 1.1-.2 1.9-.3s0 0 0 0l4.5-1 1.7-.4-1.2 1.2zm-4.5-5.1s0 0 0 0z"/><path d="m172.7 360.1c.5-.1 1.1-.3 2-.6 2.2-.8 5.5-1.9 7.7-2.5s3.8-1 3.8-1l.4.9-3.8 2.9c-.8.6-1.3 1-1.7 1.4-.3.3-.5.6-.5.7h.8c1.8-.2 5.5-1.5 9.5-3.9 1.9-1.2 3.9-2.1 5.8-2.6.9-.3 1.8-.5 2.5-.6.7 0 1.4 0 1.9.1s.9.2 1.1.2h.5c0-.1 0-.3-.2-.6s0 0 0 0c-.2-.3-.3-.6-.3-.9s.1-.7.5-.8c.3-.2.6-.1.9 0 .3 0 .7.2 1.1.4.6.3 1.2.3 1.8.2.4 0 .7-.2.9-.5-.2 0-.5-.2-.9-.2-1-.1-2.5-.1-4.2 0-1.6.2-2.8.4-3.6.5-.4 0-.8 0-1.1 0s-.6 0-.8-.2c-.1 0-.2-.2-.3-.4 0-.2 0-.3 0-.5 0-.3.2-.5.4-.7.3-.4.9-1 1.6-1.7.7-.8 1.3-1.3 1.6-1.7-.1 0-.3 0-.5 0-.6 0-1.6.3-2.9.5-1.1.2-2.1.4-2.7.5-.3 0-.6 0-.9 0-.2 0-.5 0-.7-.2s-.4-.4-.4-.7c0-.2 0-.5.1-.7.2-.5.5-1 1-1.8.5-.7.8-1.2 1-1.6 0 0 0-.1 0-.2-.4 0-.9.2-1.7.5-1 .4-2 .5-2.8.3-.4 0-.7-.3-1-.5-.3-.3-.4-.6-.4-1.1s0-.3-.6-.4c-.5 0-1.2 0-2.1.3s0 0 0 0c-.8.2-1.4.4-1.8.5-.2 0-.4 0-.6 0 0 0-.2 0-.3 0 0 0-.2 0-.4-.2-.1-.2-.1-.4-.1-.5s0-.2.1-.3c0-.1.2-.3.4-.4.3-.3.8-.6 1.4-1 .8-.6 1.7-1 2.5-1.2.4 0 .8-.1 1.2 0 .4 0 .7.1 1 .3.2.1.4.2.5.2h.2s0 0 0 0 0-.2 0-.3c0-.4-.2-.8-.8-1.2-.5-.4-1.2-.8-2-1.1s-1.5-.4-2.1-.3c-.6 0-1 .3-1.1.6 0 .2-.2.4-.4.5s-.4.3-.6.4c-.5.3-1.1.6-1.8 1-1.4.7-3.3 1.5-5.2 2.1-3.7 1.3-7 3.4-8.5 5-.4.4-.6.7-.7.9v.2h.5c.4 0 1 0 1.8-.3 1-.3 2.7-.6 4.4-1 .3 0 .6-.1.9-.2 1.5-.3 3.1-.6 4.5-.9s0 0 0 0l6.1-1 .3.9-5.2 2.9s0 0 0 0c-1.4.8-2.9 1.5-4.2 2-.7.3-1.3.5-1.8.6-.5.2-1 .3-1.4.3s-.9.2-1.4.5c-.5.4-.9.9-1.2 1.4s0 0 0 0c-.2.3-.2.5-.2.6h.7c.4 0 .9-.2 1.5-.5 2-.8 5.3-1.7 7.3-2.1 1.9-.4 4.3-1.6 5.4-2.7.4-.4.7-.7 1.1-.9.3-.2.6-.4.9-.5h.5c.2 0 .3.2.4.3.2.3.2.6.2 1 0 .7-.1 1.4-.4 1.9-.3.6-.7 1.1-1.2 1.5-1.1.8-2.9 1.4-5.4 2-1.1.3-2.4.9-3.6 1.6s-2.3 1.6-3 2.4c-.6.8-1.1 1.4-1.3 1.8zm8 1.8s0 0 0 0zm2.7-18.8s0 0 0 0zm10.9.5s0 0 0 0zm-27.8 4.5s0 0 0 0zm6 12.4s0 0 0 0zm-.2-.3s0 0 0 0z"/><path d="m320.2 344.4c0 .5 0 1.2.2 2.2.1.8.5 1.5 1 2.1s1.1 1 1.7 1.1c.6 0 1 .1 1.3.2 0-.1-.2-.3-.3-.5-.3-.5-.8-1.2-1.5-2.1-.8-1.1-1.4-1.9-1.9-2.4-.2-.2-.3-.4-.5-.5z"/><path d="m192.7 362.2c-1.8 1.1-3.2 1.8-4.1 2.4-.3.2-.6.4-.8.5.5 0 1.3-.1 2.3-.2 1.4-.2 2.8-.6 3.9-1 .5-.2 1-.5 1.3-.7s.5-.5.6-.6 0 0 0 0c.2-.4.5-.7.9-.9.4-.3.9-.5 1.4-.8 1.1-.5 2.4-.9 3.6-1.1 1-.1 1.7-.3 2.3-.4-.3-.1-.6-.2-1-.4s0 0 0 0c-.8-.3-2.3-.2-4.1.3-1.8.6-4 1.5-6.2 2.9z"/><path d="m208 364.3c-.2 0-.6-.1-1.1-.1s-1.2.2-1.9.4c-1.5.4-3.2 1.1-4.8 2-3.2 1.9-6.9 4-8.2 4.6s0 0 0 0c-.2 0-.3.1-.4.2h.4c.3 0 .6 0 1.2-.1.5-.1 1.1-.3 1.7-.5 1.2-.5 2.6-1.2 3.7-1.9s0 0 0 0c1.3-.8 3-1.5 4.8-2.1 1.8-.5 3.6-.9 5-.9s2.2-.2 2.9-.4c.7-.3 1.1-.6 1.3-.9.1-.3.2-.6-.1-1s-.9-.9-1.9-1.3 0 0 0 0c-.4-.2-.6-.3-.8-.3 0 .2.1.4.3.8.2.3.3.7.4 1 0 .3 0 .7-.3.9s-.7.2-1 .1c-.3 0-.7-.2-1.1-.4zm1.8-2.6s0 0 0 0z"/><path d="m234 365.1c-.5.7-1.1 1.2-1.5 1.4-.2 0-.5.2-.9 0-.2-.1-.3-.3-.4-.5 0 0 0 0-.1 0-.3 0-.8 0-1.4.2-1.3.3-3 .8-5 1.5-1.9.8-3.9 1.4-5.4 1.7-.8.2-1.5.3-2 .3-.3 0-.5 0-.7 0s-.4 0-.5-.2c0 0 0 0-.1 0s-.3 0-.5 0c-.4 0-.9.3-1.6.5-1.2.5-2.8 1.4-4.4 2.4-1.6 1.1-3.3 2-4.7 2.7-.7.4-1.3.6-1.9.8-.5.2-1 .3-1.4.3s-.8.1-1.2.4c-.4.2-.8.6-.9.8s.1.2.4.3c.4.2 1.2.4 2.2.4s1.8-.1 2.4-.4c.3-.1.5-.2.6-.3 0 0 0 0 .1-.1 0-.5.3-.9.6-1.3.4-.4.9-.8 1.5-1.1 1.2-.8 3-1.5 5.1-2.3 4.2-1.5 9.8-3 15.6-4 .8-.1 1.8-.6 3-1.3s2.4-1.5 3.5-2.3 1.9-1.6 2.3-2.1c0 0 0-.1.1-.2-.1 0-.3 0-.5.1-.2 0-.5.2-.8.4-.6.4-1.2.9-1.7 1.5z"/><path d="m246.5 364.8s0 0 0 0c-2.5 1.2-4.3 2.8-5.1 4.4-.4.8-.6 1.5-.5 2.2 0 .7.4 1.3 1 1.9.4.4.7.7.9.9 0-.4-.2-.9-.4-1.7s0 0 0 0c-.2-1.5-.1-2.7.6-3.7s1.9-1.8 3.7-2.5c1.3-.6 2.5-1.2 3.3-1.7.4-.3.7-.5 1-.7.1 0 .2-.2.2-.2 0-.3 0-.4-.1-.4 0 0-.2-.1-.6 0-.8.1-2 .6-4 1.7zm-3.7 9.9s0 0 0 0zm8.4-11.1s0 0 0 0z"/><path d="m255.2 371.4c-.6.8-1.2 1.4-1.9 1.8-.6.3-1.4.5-2 0t0 0s-.1 0-.5 0c-.3.1-.8.3-1.3.7-1.1.7-2.4 1.7-3.7 3-2.1 2.2-3.7 3.7-5.2 4.5-1.5.9-2.9 1.1-4.4 1 0 0-.1.2-.2.4-.1.4-.3 1.1-.3 1.8s0 .8.2 1c.1.2.3.4.6.5.6.2 1.5.1 2.6-.3 2.3-.8 5.2-2.9 7.8-5.9 1.1-1.4 2.3-2.5 3.3-3.2.5-.4 1-.6 1.4-.8.4-.1.9-.2 1.3 0s0 0 .2 0 .5-.3.8-.6c.7-.6 1.5-1.6 2.3-2.8.7-1.2 1.1-2.2 1.3-2.9 0-.4.1-.6.1-.8v-.1c-.1 0-.3.1-.6.3-.5.4-1.2 1.2-2 2.3zm-2.2 4.6s0 0 0 0zm4.8-7.3s0 0 0 0z"/><path d="m209.7 386.7c-.3.3-.6.6-.9.9.5-.2 1-.4 1.7-.7 1.4-.6 2.5-.9 3.3-.9.4 0 .8.1 1.1.4s.4.7.4 1.1.2.5.2.6c0 0 .3 0 .7-.2.4-.3.6-.7.7-1 .1-.4 0-.6 0-.7-.3-.4-.4-.8-.3-1.2 0-.4.3-.8.6-1.2.6-.8 1.5-1.6 2.6-2.4s2.3-1.4 3.5-1.9 2.4-.7 3.3-.6 0 0 0 0c.8.2 1.8 0 2.7-.4 1-.4 1.8-1 2.5-1.7.6-.8 1.3-1.4 2-1.8.6-.3 1.3-.5 1.9 0 0-.3.2-.8.2-1.5 0-1 0-1.7 0-2.1 0-.2 0-.3 0-.4 0 0-.2.1-.3.2-.3.3-.8.9-1.4 1.6s-1.6 1.4-2.6 1.9-2.2.8-3.3.8c-.8 0-2.2.6-3.6 1.3-1.5.8-3 1.8-4.2 2.9s0 0 0 0c-1.3 1.2-2.7 2.2-3.8 3-.6.4-1.1.7-1.5.9-.2.1-.4.2-.6.3-.2 0-.4.1-.5.1s-.3 0-.6.2c-.3.1-.6.3-1 .6-.8.5-1.7 1.2-2.5 1.9zm26.2-11.6s0 0 0 0zm-.3 0s0 0 0 0zm0-4.4s0 0 0 0zm.2.1s0 0 0 0z"/><path d="m259 387.2c-.7 1.2-1.3 2.1-1.7 2.9.4-.3.7-.6.9-.8s.4-.3.6-.4c0 0 .2 0 .3-.1h.4c.3.2.4.5.4.7v.7c0 .5-.3 1.2-.6 2.1s0 0 0 0c-.9 2.5-1.2 5.2-1.1 7.4 0 1.1.3 2.1.6 2.8.3.8.7 1.3 1.1 1.6s0 0 0 0c.3.3.6.6.8.9s.3.6.3.9c0 .7-.5 1.2-1.1 1.7-1 .8-1.4 1.9-1.4 2.7 0 .4 0 .8.3 1 .1.2.4.3.7.3s.4-.1.7-.6c.2-.4.4-1.1.4-1.8s.2-1.6.5-2.2.7-1.1 1.4-1.1.9 0 1.5-.2 1.3-.4 1.9-.6c.4-.2.9-.4 1.3-.3.5.1.8.5 1 1s.3 1.1.3 1.8v2.8 4.3c0 .6.2 1.1.3 1.4 0 .2.1.3.1.4.1 0 .2.2.3.3 0 0 .1.2.1.3 0 .2.1.5.2.8.1.6.2 1.4.2 2.3 0 1.8 0 4.2-.1 6.7-.3 5.6.5 10.2 2 13.1.7 1.5 1.7 2.5 2.6 3 1 .5 2.1.6 3.3.1.9-.4 1.5-.8 1.8-1.3.3-.4.3-.9 0-1.5 0-.2-.1-.3-.2-.5 0-.1 0-.3 0-.5s.2-.4.4-.5h.5c.3 0 .6.3.9.5s.7.6 1.1 1l.8.8c-.3-.7-.5-1.3-.5-1.8 0-.2 0-.5.3-.8.3-.2.6-.2.8-.2.4.1 1 .5 1.6 1s1.3 1.2 2 2.2c.6.7 1.4 1.2 2.2 1.5s1.5.3 2.1 0c2.2-1.1 4.1-1.8 5.6-1.9 1.6 0 2.9.5 4 1.6.3.3.6.6.8.7 0-.2 0-.6-.1-1-.2-.8 0-1.6.4-2.1.5-.5 1.3-.6 2-.4s0 0 0 0c1.2.4 4.7.9 7.6 1.1s0 0 0 0c1.9.2 3.3.5 4.2 1.1.5.3.8.6 1 1.1.2.4.3.9.2 1.4 0 .3 0 .5-.1.7.2-.2.5-.5.8-.9.4-.5.6-1 .8-1.6.1-.6.1-1.5 0-2.6-.3-2.3-1.2-5.8-2.8-11.5-1.1-3.8-2.3-7.2-3.3-9.5-.5-1.2-1-2.1-1.4-2.7-.2-.3-.4-.5-.5-.6-.3 0-.7 0-1-.2-.3-.3-.5-.7-.5-1.1 0-.8.2-2.1.7-3.8v-.2c.5-1.5.8-2.5 1-3.4s.3-1.4.2-1.8c0-.4-.3-.7-.7-1s-1-.7-1.9-1.2c0 0-.1 0-.2 0 .5.5.9 1 1.2 1.4s.6.9.5 1.3c0 .5-.5.8-.9 1s-1 .4-1.7.7c-1.8.6-2.8 2.5-2.8 4.7s1 4.1 2.8 4.7c.9.3 1.7.8 2.3 1.3s1.1 1.2 1.1 1.9 0 .6-.3.9c-.2.2-.5.4-.8.5-.6.1-1.3 0-1.9-.3s0 0 0 0c-.5-.3-.9-.3-1.1-.2-.2 0-.4.3-.4.7s.2.9.4 1.2.5.4.7.4c.6 0 1.1.3 1.5.7s.5 1 .5 1.7-.4 1.5-.9 1.9c-.6.4-1.3.5-1.9.4-1.3-.2-2.7-1.2-2.7-2.9v-.2.2c-.2.3-.4.8-.6 1.3-.8 2.1-1.6 5.3-1.7 7.8 0 1.4-.3 2.6-.6 3.6-.1.5-.3.9-.5 1.2 0 .2-.2.3-.3.4s-.3.2-.6.2 0 0 0 0c-.1 0-.3 0-.4 0-.2 0-.5-.1-.7-.4-.2-.2-.3-.5-.3-.9s-.1-.8-.2-1.5c-.2-2.5-.2-7.7-.3-18.3 0-4.3-.2-8.2-.4-11-.1-1.4-.2-2.5-.3-3.3 0-.1 0-.2 0-.3-.3.5-.6 1.2-.9 2.1-.7 1.8-1.5 4.4-2.2 7.2-1.1 3.9-2 6.5-2.9 8-.4.8-.9 1.3-1.4 1.7-.6.3-1.1.4-1.7.2s0 0 0 0c.2.1.3.3.5.5 1 .9 1.5 2.2 1.7 3.5s0 2.8-.4 4.1-1.1 2.4-2 3.2-2 1.1-3.3.7 0 0 0 0c-.7-.3-1.3-.2-1.7 0s-.6.4-.6.8 0 0 0 0v.3s0 .2-.1.3c0 0-.2.3-.5.3-.2 0-.4-.2-.4-.2-.1-.1-.2-.3-.2-.5s-.1-.4-.2-.6c-.3-1-.6-2.7-.9-4.8-.1-.9-.2-1.7-.3-2.4v.8c0 1.7-.2 3.3-.4 4.5-.1.6-.3 1.1-.5 1.5 0 .2-.2.4-.4.5s-.4.3-.6.3-.5-.2-.6-.4-.2-.4-.2-.6c-.1-.4-.2-1-.3-1.7-.1-1.4-.1-3.3 0-5.3.2-2.4.5-4.3 1-5.5.2-.6.5-1.1.8-1.4.2-.2.4-.3.7-.3.2 0 .5 0 .7.1h.5c.2 0 .5-.2.8-.5.6-.5 1.3-1.3 1.8-2.3s.8-1.9.9-2.5c0-.3 0-.5 0-.6-.3 0-.7.2-1 .5-.4.3-.8.8-1.1 1.3-.2.4-.4.7-.6 1-.3.3-.6.4-1 .3-.4 0-.6-.3-.9-.6-.2-.3-.5-.6-.7-1.1s0 0 0 0c-.5-1-.9-1.9-1.1-2.7s-.3-1.5-.2-2c0-.3.2-.5.4-.8.2-.2.5-.3.7-.4.5-.1 1.2 0 1.9.4s0 0 0 0c.3.2.6.3.7.3 0-.1-.1-.3-.3-.6s0 0 0 0c-.4-.7-.4-1.6-.1-2.4.2-.8.7-1.6 1.3-2.2.1-.1.3-.2.4-.3-.3 0-.8.1-1.3.2-.8.2-1.5.4-2 .4s-1.1 0-1.4-.6c-.3-.4-.3-1-.3-1.7s.2-1.6.4-2.8c.1-.6.2-1.1.3-1.5-.4.8-1 1.9-1.8 3.4-.7 1.3-1.3 2.3-1.8 3.1s-.9 1.3-1.3 1.6c-.2.2-.4.3-.7.3s-.6-.1-.7-.4c-.1-.2-.2-.4-.3-.7 0-.3-.1-.6-.2-.9-.2-1.3-.6-1.9-1.1-2.1-.3-.1-.6-.2-1.2-.2-.5 0-1.2.2-2 .4s0 0 0 0c-1.2.3-2.4.4-3.5.3-.5 0-1-.2-1.4-.4s-.7-.5-.9-.9-.2-1-.2-1.6.2-1.4.4-2.2c.4-1.6 1.2-3.6 2.1-5.7 1.8-4.1 4.3-8.6 6.4-10.9.8-.8 1.3-1.4 1.7-1.8.1-.2.2-.3.3-.4 0 0-.2 0-.4 0-.5 0-1.3 0-2.4 0-2.9 0-5.4 1.9-8.6 6.8zm21.2 48.4s0 0 0 0zm23.5-11.4s0 0 0 0zm-23.9-13.3s0 0 0 0zm-9.3-30.7s0 0 0 0zm.1.2s0 0 0 0z"/><path d="m230.9 388c-1.4.5-3.3 1.7-5 3.4l-3 3h3.5c2 0 3.5-.6 4.6-1.7s1.7-2.7 1.7-4.7 0-.2 0-.2 0 0-.2 0c-.3 0-.8 0-1.6.3z"/><path d="m240.4 399.5c-1.7 1.6-3.1 2.9-4.1 3.9-.7.7-1.3 1.3-1.6 1.7.2 0 .4-.2.7-.3.8-.4 1.7-1 2.6-1.8s1.7-1.7 2.2-2.4c.4-.6.7-1 1.1-1.4.3-.3.7-.6 1-.7h.6c.2 0 .3.2.5.4.2.3.4.7.5 1.2.2.6.5.9.8 1 .2 0 .4 0 .7-.1.6-.4 1.2-1.6 1.2-3.4s-.1-1.5-.3-1.8c0-.1-.2-.2-.2-.2s-.2 0-.4 0c-.4 0-1.1.4-2 1.1s-2 1.6-3.3 2.8z"/><path d="m325.7 419.7c-.2-.5-.4-1-.5-1.5v.2c.3 2.6.7 6 .7 7.8s0 1.2 0 1.5v.4c.1 0 .3-.3.6-.6.4-.5.7-1.3.5-2.6-.1-1.3-.6-3-1.5-5.3s0 0 0 0z"/><path d="m332.9 422c.7 2.5 1.4 4.8 2.1 6.6.2.6.4 1.1.6 1.5-.3-1.4-.8-3.3-1.4-5.3-.6-2.1-1.3-4.3-2-6.1-.2-.6-.5-1.2-.7-1.7.3 1.3.7 3.1 1.3 5.1z"/><path d="m337.1 443.6s0 0 0 0c-.5-.8-.9-1.8-1-2.8-.2-1-.2-2 0-2.9.1-.5.2-.8.2-1s0-.2 0-.2-.2 0-.5 0-.7 0-1.2.2c-.6.2-1.1.3-1.5.4-.4 0-.8 0-1.2-.3-.3-.3-.4-.8-.3-1.2 0-.4.2-1 .4-1.6.2-.8.3-1.5.2-1.9 0-.2-.1-.3-.2-.4 0 0 0 0-.1 0 0 0 0 .1-.2.2-.1.3-.3.7-.4 1.3-.3 1.1-.5 2.7-.5 4.5s.2 4 .7 5.2 1.3 2 2.5 2.7c1 .6 1.9.9 2.5 1 .7.1 1.1 0 1.3 0 .1-.1.3-.3.2-.8 0-.5-.4-1.2-1-2.1z"/><path d="m145.3 7.9c.3 4.6.6 8.9.8 9.9 0 .1.1.2.4.3.3 0 .9 0 1.5-.3.5-.2.9-.3 1.2-.4.3 0 .8 0 1 .3.3.3.3.7.3 1.1s-.2.8-.4 1.4c-.2.7-.2 1.3-.1 1.7 0 .2.1.3.2.4h.2c.4 0 .7.1.9.4.2.2.4.5.5.9.2.7.1 1.5-.1 2.4s0 0 0 0c-.1.4-.2.7-.2.9v.3h.1c.5-.3 1-.5 1.5-.3.6.2.8.8.8 1.3s0 .3.1.4c0 0 .2.2.4.2.4.1 1 .1 1.7-.2s0 0 0 0c.8-.2 1.2-.4 1.4-.7.2-.2.3-.5.3-1.3 0-.7-.3-1.8-.8-3.5-.5-1.6-1.2-3.7-2.2-6.6-1.5-4.4-3-8-4.3-10.7s-2.5-4.4-3.4-5.1c-.5-.4-.8-.4-.9-.4s-.4.2-.6.7c-.4 1.1-.6 3.3-.4 6.6z"/><path d="m137.9 9.3s0 0 0 0c.7 1.1 1.3 1.8 1.6 2.4.2.3.3.5.4.7 0 0 0 .2.1.3v.4s0 .2-.2.3c0 0-.2.1-.3.1-.2 0-.3 0-.4 0-.2 0-.4-.2-.6-.3-.4-.3-1.1-.7-1.9-1.3-.8-.5-1.4-.9-1.9-1.1-.4-.2-.5 0-.5 0s0 .1-.1.3c0 .2-.1.5-.1.8v3.1s.2 2.9.4 3.7c0 .3.2.5.2.6.3-.2.6-.3.9-.2.3 0 .6.3.9.5.5.5.8 1.3 1 2.2.1.7.2 1.2.3 1.5v.1s.1 0 .2-.1c.1 0 .3-.2.6-.4.5-.4 1-1 1.8-1.7 1.7-1.7 2.4-2.6 2.5-3.7 0-.5 0-1.2-.3-2.1s-.7-2.1-1.3-3.6c-.7-1.6-1.5-3.1-2.4-4.1-.4-.5-.8-1-1.2-1.2-.4-.3-.7-.4-.9-.4-.5 0-.7 0-.8.1 0 .2.1.5.5 1 .3.5.8 1.1 1.4 1.9zm1.7 3.3s0 0 0 0zm-.5.5s0 0 0 0zm-3.1-6.8s0 0 0 0z"/><path d="m131.2 33.2v.3s.2-.2.4-.4c.4-.5.9-1.3 1.4-2.5s0 0 0 0c.6-1.3 1.3-2.3 2-2.9.8-.6 1.7-.8 2.6-.4.3.1.6.2.7.2h.1s0-.2-.1-.3c-.3-.7-.7-1.1-.9-1.3-.3-.2-.5-.2-.9-.1s-.9.4-1.4 1c-.6.6-1.2 1.4-2 2.4-.7 1-1.3 2.1-1.7 2.9-.2.4-.3.8-.3 1zm-.1.3s0 0 0 0z"/><path d="m112 31.6s0 0 0 0c.3.9.8 1.5 1.8 1.9 1.1.4 2.7.5 5 .4 2.2-.1 3.8-.5 4.7-1 .5-.2.7-.5.9-.7.1-.2.1-.4 0-.6-.1-.4-.7-1-2-1.4-1.2-.4-3-.8-5.3-.8s-2.4 0-3.2.1c-.8 0-1.4.2-1.7.4s-.4.3-.5.5c0 .2 0 .6.2 1.2z"/><path d="m136.9 35.2c-.3.7-.5 1.3-.7 1.8.4-.4.9-.9 1.4-1.5.9-1 1.6-1.8 2.1-2.4.5-.7.8-1.1.9-1.4 0-.1 0-.2 0-.2s-.1 0-.3 0-.4 0-.6 0 0 0-.1 0c0 0-.2 0-.3.2-.2.2-.5.5-.8.8-.6.7-1.2 1.7-1.6 2.8z"/><path d="m122.4 43.7s0 0 0 0c.8 1.2 1.4 2.4 1.6 3.6.2 1 .2 2 0 2.9.1-.1.3-.3.4-.4s0 0 0 0c.7-.6 1.1-1.1 1.4-1.5s.3-.7.3-1c0-.4-.2-.8-.6-1.5s-1-1.5-1.7-2.6c-2.2-2.8-4.8-4.2-7.7-4s0 0 0 0c-1.1 0-2 .1-2.4.3.3.1.5.4.7.6.2.3.5.7.7 1.1.4.8.6 1.8.6 2.7 0 .6 0 1.1.1 1.4.3-.4.6-.9 1.1-1.6.5-.8.8-1.4 1.2-1.9.4-.4.8-.8 1.3-.8s1 .4 1.4.8c.5.5 1 1.1 1.6 2zm-7.1 1.8s0 0 0 0z"/><path d="m96.5 44.2s0 0 0 0c-1 1.9-.3 4.5 1.3 6.4.8.9 1.7 1.6 2.6 1.8.9.3 1.7.2 2.5-.4s0 0 0 0c.3-.2.5-.3.7-.3s.6 0 .8.2.2.5.2.8c0 .2-.1.5-.2.8-.3.6-.3 1.1-.1 1.5.1.4.5.7.9.9 1 .4 2.4.3 3.7-.7.5-.4.7-.6.8-.8v-.1s0 0 0 0-.3-.2-.7-.2-1 0-1.7.1 0 0 0 0c-.5 0-1-.2-1.3-.6s-.4-.9-.4-1.4 0-.4-.2-.8c-.1-.4-.3-.8-.5-1.2-.5-.9-1.1-1.9-1.8-2.9-.6-.8-1.1-1.3-1.4-1.8-.1-.2-.3-.4-.4-.6 0 0 0-.2 0-.3s0-.3 0-.4c.1-.2.3-.2.4-.3h.3c.2 0 .4 0 .6.1.5.1 1.1.4 2 .7 1.1.4 3 1.5 5.1 3s4.5 3.3 6.5 5.1c.1.1.3.2.4.3-1.8-2-3.8-4.2-5.3-5.9-2-2.2-5.4-3.8-8.5-4.3-1.6-.3-3-.3-4.1 0-1.1.2-1.9.7-2.2 1.4z"/><path d="m83.1 47.1s0 0 0 0c-.1.4-.2 1.1-.3 1.8 0 .2 0 .5-.1.7 0 .6-.2 1.2-.4 1.8s-.6 1.2-.9 1.7 0 0 0 0c-.6.7-.9 1.3-1.1 1.8s0 .8 0 .9c0 0 0 .1.4 0 .3 0 .8-.4 1.5-1 1.4-1.6 4.1-3.5 5.8-4.3.6-.3 1-.5 1.3-.7s.4-.3.4-.4 0 0-.1-.3c-.2-.2-.5-.5-.9-.8s0 0 0 0c-1.2-.9-2.6-1.5-3.7-1.7-.6 0-1 0-1.3 0s-.4.2-.4.4z"/><path d="m102.5 58.9s0 0 0 0c-1.3-.9-2.3-1.6-3.1-2-.9-.5-1.4-.6-1.7-.6s0 0 0 0c0 .3.3.9.9 1.8.5.7 1.3 1.4 2.2 1.8.9.5 1.8.8 2.6.8.7 0 1.2 0 1.6-.2 0 0-.2-.2-.4-.3-.5-.4-1.1-.8-2.1-1.4zm-4.9-2.7s0 0 0 0z"/><path d="m86.3 60.6c-.5.7-.8 1.8-.9 3.2-.1 1.3 0 2.8.1 4.1.2 1.3.5 2.4.9 3.1.2.3.4.5.5.5h.4c.6-.5 1.4-.5 2.1-.3.8.2 1.6.7 2.2 1.3s0 0 0 0c.6.6 1.1 1 1.4 1.1 0-.2.1-.5.4-.7s.6-.2.8-.1c.5.1 1.1.5 1.6 1.1.2.2.5.5 1.1.8.5.3 1.2.7 2 1.1 1.5.8 3.4 1.6 5.2 2.2s3.8 1.2 5.5 1.8c.1 0 .2 0 .3.1.6.2 1.2.4 1.7.6 0 0-.1 0-.2-.1-1.5-1.2-3.9-3-7-5.1s0 0 0 0c-3-2.2-5.9-4.4-8.1-6.2-1.1-.9-2-1.7-2.7-2.4-.3-.3-.6-.6-.9-.9-.2-.2-.4-.5-.5-.7-.5-.9-.7-1.7-.6-2.4 0-.7.4-1.3 1-1.6s1.3-.3 2.1 0c.6.2 1.3.5 2 .9-.1-.1-.2-.2-.3-.4-2-2.2-4-3.4-5.7-3.5s-3.2.6-4.4 2.5z"/><path d="m110.6 60.7s0 0 0 0c.6.6 1.1 1.4 1.3 2.2.1.4.2.9.2 1.3 0 0 0-.1.1-.2.7-1 1.5-1.8 2.3-2.2s1.8-.5 2.5.2h.1s0-.1-.1-.2 0 0 0 0c-.2-.5-.8-1-1.7-1.4s-2-.6-3-.6-1.3 0-1.7.1c-.3 0-.5.1-.6.2 0 .1.2.3.6.5zm-.6-.6s0 0 0 0z"/><path d="m78.9 70.7s0 0 0 0c-.4.2-.8.6-1.1 1.2s-.5 1.4-.6 2.3c-.2 1.9 0 4.2.5 6.6.5 2.3 1.3 4.7 2.2 6.5 1 1.9 2.1 3.1 3.2 3.5.9.3 2.9 1.4 5.5 2.8 2.6 1.5 5.7 3.3 8.7 5.2l11.1 6.7.3.2c-.4-.4-1-.9-1.8-1.6s-1.4-1.3-1.9-1.8c-.4-.5-.7-.9-.8-1.5 0-.5.2-1 .5-1.5.3-.4.9-1 1.5-1.6s0 0 0 0c.8-.7 1.3-1.2 1.5-1.6-.9 0-1.9.7-2.2 1.6s0 0 0 0c-.3.6-.8 1.1-1.3 1.5s-1.2.7-1.8.7-.7-.1-.9-.5c-.2-.3-.2-.7-.2-1 0-.6.3-1.3.8-2.1-.9.7-1.8 1.1-2.9 1.1-1.3 0-2.8-.8-5-2.1-1.4-.8-2.9-1.6-4.1-2.1-.6-.3-1.1-.5-1.5-.6-.4-.2-.7-.2-.9-.2-.8 0-1.5-.4-2-1.1-.5-.6-.8-1.4-.9-2.3-.2-1.7.1-3.8 1.4-5.1 1.1-1.1 1.4-2.4 1.2-3.4 0-.5-.3-.8-.6-1.1s-.7-.4-1.2-.4-.2 0-.2 0v.2c0 .3 0 .7.3 1.3.2.3.3.6.3.9v.4c0 .1 0 .3-.2.5s-.4.2-.5.2-.3 0-.4 0c-.2 0-.5-.2-.8-.4s0 0 0 0c-.7-.6-1.2-1.3-1.2-2.1s.4-1.7 1.1-2.7 1-1.7.9-2.4c0-.7-.3-1.4-1.1-2.6-.5-.8-.9-1.3-1.2-1.7-.4-.4-.6-.6-.9-.6s-.6 0-1 .1c-.5.2-1.1.4-1.8.9zm16.8 38.2c-.5.2-.8.4-1 .6h.2c.5.1 1.5.1 2.9 0 2.6-.3 6.3-1.2 9.9-2.4.7-.2 1.1-.4 1.4-.6.1 0 .2-.1.2-.2s0 0 0 0 0 0 0-.1h-1c0 .1-6.1.9-6.1.9-1.7.2-3.3.6-4.7 1-.7.2-1.3.5-1.7.7zm-1.1.7s0 0 0 0zm13.3-13.5s0 0 0 0z"/><path d="m200.4 103.2c1.4 3.5 2.7 6.5 3.8 8.4.5 1 1 1.6 1.3 2 0 0 0 0 .1.1.2-.3.5-.5.9-.5s.7.4.9.7c.4.6.8 1.8 1 3.2.3 1.4.7 2.6 1.1 3.5.2.4.4.8.6 1 0-.3 0-.9-.2-1.6-.3-1.4-1-3.3-1.8-5.3-1.7-4.1-4-8.7-5.7-10.9s0 0 0 0c-1.1-1.5-2.7-3.9-4.1-6.1.5 1.4 1.2 3.3 2.1 5.4z"/><path d="m94.2 121.4s0 0 0 0c-1.9 1.4-3.3 2.5-4 3.3 1.8-.6 4.6-1.4 6.7-1.9 1-.4 2.1-1 2.9-1.7.9-.8 1.5-1.6 1.7-2.3.5-1.9 1.2-4.2 1.7-5.2.1-.4 0-.7-.2-.9-.3-.3-.9-.5-1.6-.5s-.8 0-1.1.1c-.3 0-.4.2-.4.2v.2c0 .1.1.3.3.6.4.5.4 1 .2 1.6s-.5 1.2-1 1.8c-1 1.3-2.7 2.9-5.1 4.7zm-4.6 4s0 0 0 0z"/><path d="m96.9 126.5c-.5.4-.8.7-1.1 1h.8c.5 0 1.3-.2 2.1-.6.8-.3 1.6-.8 2.2-1.2.5-.4.8-.7 1.1-1-.2 0-.4 0-.8 0-.5 0-1.3.2-2.1.6-.8.3-1.6.8-2.2 1.2zm5.3-2.1s0 0 0 0zm-6.6 3.4s0 0 0 0z"/><path d="m88.7 131.9c-.9.6-2 1.5-3.3 2.6-.5.4-.9.8-1.3 1.1.8-.3 1.8-.5 2.8-.7 1.4-.2 2.9-.3 4.2-.2 1.2 0 2.5 0 3.7-.3s2.2-.7 2.9-1.1c.1 0 .2-.2.3-.2-.1 0-.3 0-.4 0-.5 0-1.3.3-2.2.5s0 0 0 0c-1 .2-1.8.3-2.4.4-.6 0-1.2 0-1.6 0s-.8-.3-.9-.8c0-.4 0-.8.3-1.2.2-.4.3-.7.4-.9 0-.2 0-.3 0-.3s-.1 0-.3 0c-.4.1-1.1.5-2 1.1zm9.7.8s0 0 0 0zm.1.4s0 0 0 0z"/><path d="m83 143.6c-1.2 1.2-1.9 2.1-2.1 2.6v.2c.1 0 .3 0 .5-.2.3-.1.8-.3 1.3-.6 1-.6 2.3-1.5 3.8-2.7 1.5-1.2 2.4-2.1 2.7-2.7 0-.1 0-.2 0-.2s-.1 0-.3 0c-.3 0-.6 0-1.1.3-.5.2-1 .4-1.5.8-1.1.7-2.2 1.6-3.2 2.6zm6.1-3.7s0 0 0 0z"/><path d="m213 215.2c-1.8-1.3-3-2.7-3.6-4.4 0 .4.2 1 .5 1.8.4.9.9 1.9 1.5 3.1 1.3 2.3 3.1 5 5.2 7.5s0 0 0 0c3.5 4.4 5.4 6.7 7.3 7.8 1.9 1.2 3.9 1.3 7.6 1.3s4.8.3 7.2.9c2.3.6 4.5 1.3 5.8 2.2 1.3.9 2.6 1.5 3.5 1.6.9.2 1.4 0 1.5-.3 1-1.9 3-3.1 5-3.4s4.1.2 5.2 2c.5.7 1.2 1.4 1.9 1.9s1.4.8 1.8.8.9.2 1.4.4c.5.3 1 .6 1.5 1.1 1 .9 2 2.1 2.8 3.5 1 1.4 1.9 2.4 2.8 2.9.9.6 1.6.7 2.3.5.5-.2.8-.3 1.1-.4h.4.2s.2 0 .3.1.2.2.2.4v.3c0 .1-.2.2-.2.3-.2.2-.5.4-.8.7-.8.8-1 1.2-.9 1.5 0 .2 0 .4.3.8.2.3.5.7 1 1.2.6.6 1.2 1 1.9 1.2.6.2 1.1.1 1.4-.1s0 0 0 0c.3-.2.7-.3 1.2-.3.4 0 .9.1 1.4.3 1 .3 2.1.9 3 1.7s0 0 0 0c.9.8 2.1 1.5 3.3 2.1 1.3.5 2.5.8 3.5.8s2.7.5 4.4 1.3 3.5 1.8 5.1 3c1.1.9 2 1.6 2.7 2 .1 0 .2.2.4.2-.1-.2-.3-.5-.6-.8s0 0 0 0c-.6-1-1.8-2.2-3.3-3.5-1.5-1.2-3.3-2.5-5-3.4s-6.1-3.6-6.1-3.6l.4-.9 5.4 1.1s0 0 0 0c2.9.8 7.6 2.5 10.4 4.2 1.3.7 2.8 1.3 4.1 1.6s2.4.3 3.1 0c.6-.3 1-.6 1.2-.8 0 0 .1-.1.1-.2 0 0 0 0 0-.1 0-.2-.3-.4-.9-.9-.5-.4-1.3-.9-2.3-1.6-1.3-.8-3.2-2.4-5.3-4.4s-4.4-4.4-6.3-6.7c-6.9-8-13.5-13.4-21.3-16.8-7.7-3.4-16.6-4.9-27.8-4.9s-21.6-1-28.5-3c-3.5-1-6.3-2.2-8.3-3.7zm91.8 49s0 0 0 0zm-.3.3s0 0 0 0zm-24.6-26.3s-4.6-4.8-4.6-4.8l-1.3-1.3 1.8.5 6.1 1.7c3.3 1 8.4 3.1 11.2 4.8 1.4.9 2.5 1.7 3.4 2.6.8.8 1.4 1.6 1.6 2.3.1.4.1.8 0 1.1 0 .4-.3.7-.6.9-.6.5-1.5.7-2.7.7-4.5 0-9.7-3.2-14.9-8.5z"/><path d="m318 263.7c1.4 1.8 2.9 3.4 3.9 4.4.4.4.8.8 1.1 1 0-.1-.1-.3-.2-.5-.4-.8-1.2-1.9-2.1-3-1.7-2.1-3.8-4.4-5.4-5.6.5.8 1.4 2 2.7 3.6zm-3.4-4s0 0 0 0z"/><path d="m283.2 307.6c-6.1-5.5-11.5-10.8-15.5-14.8-2-2-3.6-3.7-4.7-4.9-.6-.6-1-1.1-1.2-1.5-.1-.2-.2-.3-.3-.5 0 0 0 0 0-.1 0-.2 0-.3 0-.3s.2 0 .5.2.7.5 1.2.9c2 1.7 5.7 5.2 12 11.6 6 5.9 14.1 13.2 18.2 16.1m-10.2-6.7 40.8 43.1c2-.8-14.9-18.5-41.1-42.7-12.1-11.1-22-21-22-22.1 0-2.3 1.8-.8 14.6 12 6 5.9 14.1 13.2 18.1 16 9.2 6.7 30.7 31.6 37.9 44 1.8 3.1 2.9 5.5 3.1 6.5 0 0 0 0-.2-.2s0 0 0 0c-.2-.2-.4-.4-.6-.6m-50.6-56c13.1 12.1 23.9 22.6 31.2 30.2 3.6 3.8 6.4 6.8 8.1 9 .9 1.1 1.5 2 1.8 2.6.2.3.3.6.3.9v.5c0 .2-.2.3-.4.4 0 0-.2.1-.2.3v1c.2.9.7 2.1 1.3 3.2.7 1.2 1.5 2.3 2.3 3.1.4.4.8.8 1.2 1s.7.4 1 .4m-46.6-52.6 46.7 52.7m-36.6-46s0 0 0 0l.3-.4zm0 0c4.6 3.3 12.2 11.2 19.6 19.8s14.6 17.9 18.2 24.1m0 0s0 0 0 0l.4-.2-.4.3s0 0 0 0zm0 0c1.3 2.4 2.3 4.3 2.8 5.5m-.1 0c-.3-.2-.5-.5-.7-.6-.4-.3-.7-.5-1-.6-.2 0-.4 0-.6 0-.2.1-.3.4-.3.5 0 .3 0 .7.2 1.1.6 1.7 2.4 5.2 5.6 10.6 3.5 6 8.2 14.9 12 22.3 1.8 3.6 3.4 6.8 4.4 9.2 0-.1-.2-.3-.2-.4-1.4-2.5-3.3-6-5.3-9.8-3.8-7.4-9.7-18.1-12.9-23.7-2-3.2-3.3-5.7-3.9-7.5-.3-.9-.5-1.5-.5-2 0-.4.1-.5.2-.5s0 0 0 0c.3-.2.5-.3.7-.5s.3-.5.2-.9c-.1-.3-.5-.5-.7-.5-.3 0-.6-.1-1-.1m3.8 3.4s0 .2.1.3c0 .2.2.5.2.6-4.1-4-3.1-.8 3.2 9.9 6.2 10.6 16.1 30.1 17.8 34.7l-25.3-48.9m25.5 49.5s0 0 0-.1c-.1 0-.2 0-.3.2.2.2.3.3.4.3s0-.1 0-.4zm-8-13.6c3.2 6.1 6.1 11.3 7.3 13.2l-24.8-48.6c1.5 0 1.7.6.6 1.1-1.2.6 0 4.2 4 10.7 3.2 5.5 9.1 16.2 12.9 23.6zm-12.8-31.7c-.2 0-.3.2-.3.2.4.4.6.3.4-.2 0 0 0 0-.1 0z"/></g><path d="m19.1 309.1c-.6 1.1.9 1.3 4.1.6 6.8-1.5 7.4-2.5 1.5-2.5s-5.2.8-5.7 1.9z" fill="#f6f6f6"/><g mask="url(#a)"><path d="m19.1 309.1.9.4-.9-.5zm4.1.6-.2-1s.2 1 .2 1zm-3.2-.1c0 .2 0 0-.1-.3-.1-.2-.3-.2 0-.1.5 0 1.5 0 3.1-.4l.5 1.9c-1.6.4-3 .6-3.9.4-.4 0-1-.2-1.4-.8s-.2-1.3 0-1.7l1.8.9zm3-.9c1.7-.4 2.9-.7 3.8-1 .4-.1.7-.3 1-.4.1 0 .2 0 .2-.1v.1c0 .1-.2.4 0 .7 0 .3.3.4.3.4s0 0-.3 0c-.6 0-1.6-.2-3-.2v-2c1.5 0 2.6 0 3.3.2.3 0 .7.2 1.1.4.2.1.4.3.5.7s0 .8-.1 1-.3.4-.4.5-.3.2-.5.3c-.3.2-.7.3-1.2.5-1 .3-2.3.7-4 1.1l-.4-2zm1.8-.5c-1.2 0-2.4.2-3.3.5-.5.1-.8.3-1.1.5s-.3.3-.3.3l-1.9-.7c.2-.5.7-.9 1.1-1.2s1-.5 1.6-.7c1.2-.4 2.6-.6 4-.6v2z" fill="#efefef"/></g><path d="m3.7 328.7c-1 0-2.3.8-2.8 2.5-.2.8-.3 1.6-.3 2.3v.9.4c.2.2.5.3 1 .2.5 0 1.1-.4 1.7-.8s1.2-1 1.6-1.6.6-1.2.6-1.7c0-.8-.2-1.3-.6-1.7-.3-.3-.8-.5-1.3-.5z" stroke="#000"/><path d="m152.6 334.3c-1 .5-1.8 1-2.4 1.5-.3.2-.5.5-.7.7 0 0-.1.2-.1.2 0 .3 0 .3.1.4h.8c.9-.3 2.2-1.1 3.7-2.6.7-.6 1.2-1.1 1.6-1.5 0 0-.1 0-.2 0-.7.3-1.6.7-2.8 1.3zm3.4-1.9s0 0 0 0z" stroke="#000"/><path d="m182.2 365.2c-.2.1-.3.2-.4.4.2 0 .4-.1.6-.2.7-.2 1.5-.6 2.4-1 1.8-.8 4-2 6-3.1s3.8-2.3 5-3.1c.2-.1.3-.2.4-.3-.6.2-1.4.6-2.3 1-1.8.8-4.1 2-6.4 3.2s-4.1 2.4-5.2 3.2z" stroke="#000"/><path d="m197.4 364.5c-3.1 1.4-5.4 2.7-6.8 3.7-.6.5-1 .8-1.2 1.1h.4c.3 0 .6 0 1-.2.8-.2 1.7-.5 2.8-1 2.2-.9 4.9-2.2 7.6-3.7 2.9-1.8 5-3.2 6.3-4.1.2-.1.3-.2.5-.3-.6.2-1.3.5-2.3.8-2 .8-4.7 2-8.3 3.7zm-8.1 4.9s0 0 0 0zm-.1-.2s0 0 0 0z" stroke="#000"/><path d="m217.6 363.8s0 0 0 0c-.9.8-2.3 1.6-3.9 2.1-1.5.5-3.2.9-4.8.9s-3.1.4-4.8 1-3.4 1.4-4.5 2.2c-2.2 1.7-3.7 3.6-4.1 5.1-.2.7-.2 1.3 0 1.6s.6.6 1.3.6.2 0 .4-.1c.2 0 .5-.2.9-.4.7-.3 1.6-.8 2.7-1.3 2.2-1.1 4.9-2.7 7.7-4.3 5.6-3.3 11.5-7 13.5-8.8.5-.5.9-.8 1.1-1.1 0 0 0 0 0-.1-.2 0-.5 0-.8 0-.5 0-1.4.4-2.3.9s-1.9 1.1-2.6 1.8z" stroke="#000"/><path d="m58.1 373.3c-2.8 2.8-5.3 5.4-6.9 7.4-.8 1-1.4 1.9-1.8 2.5 0 .2-.2.3-.2.4.1 0 .3-.2.5-.3.6-.4 1.5-1 2.4-1.8 2-1.6 4.4-3.8 6.9-6.2 2.4-2.4 4.8-4.9 6.6-6.9.9-1 1.6-1.9 2.1-2.7.3-.4.4-.7.6-.9.1-.3.2-.4.2-.5s0-.2 0-.3c0-.2 0-.4 0-.5-.1 0-.2.2-.4.3-1.1.8-3.1 2.9-7.1 6.7-.9.8-1.8 1.8-2.9 2.8zm-9 10.7s0 0 0 0zm19.6-20.6s0 0 0 0z" stroke="#000"/><path d="m18.3 371.3c1.2 0 2.9-.6 4.1-1.5.6-.5 1.1-.9 1.4-1.4.2-.3.2-.5.2-.6 0 0 0 0-.2 0s-.6.1-.9.3c-.8.3-1.8.8-2.8 1.5-.6.4-1 .7-1.3 1s-.5.6-.6.7h.2zm-.2.1s0 0 0 0z" stroke="#000"/><path d="m214.7 374.4s0 0 0 0c-2.4 0-5 1.4-6.8 3.4-.9 1-1.7 2.1-2.1 3.1-.4 1.1-.5 2.1-.3 2.9s0 0 0 0c.3 1.2.7 1.6 1.1 1.7.2 0 .6 0 1.1-.1s1.1-.4 1.9-.8c2.8-1.3 7.8-4.8 12.2-8.1 2.2-1.7 4.2-3.3 5.6-4.6.7-.7 1.3-1.2 1.7-1.7.2-.2.4-.4.5-.6 0-.1.1-.2.1-.2 0-.3-.1-.5-.3-.6s-.7-.2-1.3 0c-1.3.2-3.1 1.1-5.3 2.6-2.2 1.6-5.8 2.8-8.1 2.9z" stroke="#000"/><path d="m237.3 379.7c1.4-1.5 2.4-2.7 3.2-3.6.8-1 1.3-1.6 1.5-2.1.1-.2.1-.4.2-.5s0 0 0 0 0 0-.3-.1c-.2 0-.4 0-.7 0-.7 0-1.9.4-3.1 1-1.3.6-2.6 1.5-3.6 2.5-1.1 1-2.5 1.9-3.9 2.6s-2.7 1.2-3.7 1.3c-1.1.1-2.3.7-3.5 1.5s-2.3 1.9-3.3 3.1c-.9 1.2-1.7 2.4-2.1 3.6s-.5 2.2-.2 2.9c.3.6.5 1 .7 1.2s.5.3.9.2c.4 0 1-.3 1.9-.7.8-.4 1.9-1 3.2-1.8 3.3-2.1 9.1-7 12.8-11z" stroke="#000"/><path d="m246.7 381.9s0 0 0 0c-1.2 1.5-2.6 3-3.8 4.1-.6.5-1.2 1-1.7 1.3-.2.2-.5.3-.7.4-.2 0-.4.2-.7.2s-.4 0-.8.3c-.4.2-.8.5-1.3.9-1 .8-2.1 1.9-3.2 3.1s-2 2.4-2.7 3.6c-.4.6-.6 1.1-.8 1.5s-.3.8-.3 1c0 .3.1.9.4 1.7.2.7.6 1.6.9 2.3.2.5.5.7.7.8.2 0 .5.1 1-.1s1.2-.6 2.1-1.3 2-1.6 3.3-2.8 0 0 0 0c4-3.4 8.9-8.7 12.4-13.2s3.3-4.2 4.1-5.7c.4-.7.7-1.3.8-1.6-.5 0-1.1-.1-1.8-.3s-1.5-.4-2.1-.7c-.1 0-.4 0-.8 0-.4.1-.9.4-1.5.8-1.1.8-2.4 2.1-3.7 3.7z" stroke="#000"/><path d="m260.7 387.3s0-.1 0-.2c-.6.7-1.5 1.8-2.6 3.3-1 1.4-2.2 2.6-3.2 3.5-.5.4-1 .8-1.5 1.1-.4.2-.9.4-1.3.4-.6 0-1.4.4-2.1 1.1s-1.4 1.8-1.9 3-.9 2.5-1 3.7 0 2.4.4 3.3c.4.9.8 1.7 1.3 2.3.2.3.5.5.6.6.2.1.3.2.4.2.2 0 .5 0 .8-.3.3-.2.7-.5 1.1-.8.8-.7 1.7-1.7 2.5-2.7s1.4-2.1 1.8-3.1c.2-.5.3-.9.4-1.2 0-.3 0-.6 0-.7-.2-.4-.3-1-.2-1.6 0-.6.2-1.3.4-2.1.4-1.6 1.1-3.5 2-5.3.9-2 1.6-3.5 2-4.5z" stroke="#000"/><path d="m263.7 412.1v2.9c0 .3 0 .6.1.7s.1 0 .2-.2c.3-.3.8-.7 1.5-1.4.7-.9 1.3-1.6 1.8-2.3.2-.3.4-.6.5-.8 0 0 0-.2.1-.2 0 0 0 0 0-.1-.1-.1-.3-.3-.5-.6-.5-.4-1.1-.9-1.8-1.4-.6-.4-1-.6-1.2-.6-.1 0-.2 0-.2 0-.1.1-.2.5-.3 1.1 0 .6-.1 1.5-.1 2.7zm4.4-1.1s0 0 0 0z" stroke="#000"/><path d="m293.6 442.8c-.3.2-.8.4-1.4.6s-1.2.3-2 .4c-1.5.2-3.2.2-5 0-1.6 0-3 0-4.1.1-.5 0-.9.2-1.2.3 0 0 0 0-.1 0 0 0 .1 0 .3.1.3.1.9.3 1.6.4 1.4.2 3.2.3 5.1.2 1.9 0 3.9-.2 5.5-.5.8-.1 1.5-.3 2-.5s.8-.4.9-.5c.4-.5.5-.9.6-1.1 0-.2 0-.3-.1-.4 0 0-.3-.1-.7 0-.4 0-.8.3-1.4.7z" stroke="#000"/><path d="m318.2 446.2c0 .4-.1.7-.4 1-.2.3-.5.6-.8.9-.7.5-1.6 1-2.6 1.2 0 0-.2 0-.3 0h.8c2.1 0 3.6-.5 4.3-1.3.4-.4.5-.8.5-1.1 0-.4-.3-.8-.8-1.3-.3-.2-.5-.2-.6-.2 0 0-.2 0-.2.6z" stroke="#000"/></svg>
